%TF.GenerationSoftware,Altium Limited,Altium Designer,24.5.2 (23)*%
G04 Layer_Physical_Order=2*
G04 Layer_Color=16711680*
%FSLAX45Y45*%
%MOMM*%
%TF.SameCoordinates,FC967B71-F2ED-4EDF-93A0-1D4715993869*%
%TF.FilePolarity,Positive*%
%TF.FileFunction,Copper,L2,Bot,Signal*%
%TF.Part,Single*%
G01*
G75*
%TA.AperFunction,Conductor*%
%ADD10C,0.50800*%
%TA.AperFunction,ComponentPad*%
%ADD12C,1.51999*%
%ADD13R,1.51999X1.64998*%
%ADD14C,1.15000*%
%ADD15R,1.15000X1.15000*%
%ADD16C,2.40000*%
%TA.AperFunction,WasherPad*%
%ADD17C,6.00000*%
%TA.AperFunction,ComponentPad*%
%ADD18C,1.52000*%
G04:AMPARAMS|DCode=19|XSize=1.52mm|YSize=1.52mm|CornerRadius=0.38mm|HoleSize=0mm|Usage=FLASHONLY|Rotation=270.000|XOffset=0mm|YOffset=0mm|HoleType=Round|Shape=RoundedRectangle|*
%AMROUNDEDRECTD19*
21,1,1.52000,0.76000,0,0,270.0*
21,1,0.76000,1.52000,0,0,270.0*
1,1,0.76000,-0.38000,-0.38000*
1,1,0.76000,-0.38000,0.38000*
1,1,0.76000,0.38000,0.38000*
1,1,0.76000,0.38000,-0.38000*
%
%ADD19ROUNDEDRECTD19*%
%ADD20C,1.52400*%
%ADD21C,1.80000*%
%ADD22C,1.50000*%
%ADD23R,1.50000X1.50000*%
%ADD24R,1.50000X1.50000*%
%ADD25R,1.40000X1.40000*%
%ADD26C,1.40000*%
%ADD27C,2.00000*%
%ADD28C,2.30000*%
%ADD29R,2.30000X2.30000*%
%ADD30R,2.30000X2.30000*%
%ADD31C,1.20000*%
%ADD32R,1.20000X1.20000*%
%ADD33C,2.54000*%
%TA.AperFunction,ViaPad*%
%ADD34C,1.27000*%
G36*
X20833435Y28540500D02*
X20812201Y28500500D01*
X20611241D01*
X20394501Y28283759D01*
Y27977240D01*
X20611241Y27760501D01*
X20917760D01*
X21134500Y27977240D01*
Y28216238D01*
X21171455Y28231546D01*
X21285201Y28117801D01*
Y11493500D01*
X20815300Y11023600D01*
X15659100D01*
X14401801Y9766300D01*
Y5359400D01*
X13220700Y4178300D01*
X2984500D01*
X2628900Y4533900D01*
Y25730200D01*
X3302000Y26403299D01*
X11734800D01*
Y28244800D01*
X12014200Y28524200D01*
Y28549600D01*
X20827280D01*
X20833435Y28540500D01*
D02*
G37*
%LPC*%
G36*
X18935600Y28444510D02*
X18910300D01*
Y28295599D01*
X19059209D01*
Y28320901D01*
X19023006Y28408304D01*
X18935600Y28444510D01*
D02*
G37*
G36*
X18884900D02*
X18859599D01*
X18772195Y28408304D01*
X18735991Y28320901D01*
Y28295599D01*
X18884900D01*
Y28444510D01*
D02*
G37*
G36*
X14616808Y28440485D02*
X14540808D01*
X14458148Y28406247D01*
X14423909Y28323587D01*
Y28247586D01*
X14440216Y28208218D01*
X14417995Y28174960D01*
X12433640D01*
X12346901Y28261700D01*
X12189499D01*
X12078200Y28150400D01*
Y27992999D01*
X12189499Y27881699D01*
X12346901D01*
X12433640Y27968439D01*
X14435481D01*
X14499332Y27904587D01*
X14432808Y27838062D01*
Y27777621D01*
X14330148Y27674960D01*
X12433640D01*
X12346901Y27761700D01*
X12189499D01*
X12078200Y27650400D01*
Y27492999D01*
X12189499Y27381699D01*
X12346901D01*
X12433640Y27468439D01*
X14372920D01*
X14404968Y27481714D01*
X14432808Y27463113D01*
X14499332Y27396588D01*
X14432808Y27330063D01*
Y27209113D01*
X14499332Y27142587D01*
X14432808Y27076062D01*
Y26955112D01*
X14499332Y26888586D01*
X14432808Y26822061D01*
Y26701111D01*
X14499332Y26634586D01*
X14432808Y26568063D01*
Y26447113D01*
X14499332Y26380588D01*
X14432808Y26314062D01*
Y26193112D01*
X14499332Y26126587D01*
X14432808Y26060062D01*
Y25939111D01*
X14499332Y25872586D01*
X14432808Y25806061D01*
Y25685114D01*
X14499332Y25618588D01*
X14432808Y25552061D01*
Y25431113D01*
X14499332Y25364587D01*
X14432808Y25298062D01*
Y25177112D01*
X14499332Y25110587D01*
X14432808Y25044061D01*
Y24923112D01*
X14499332Y24856587D01*
X14432808Y24790062D01*
Y24669112D01*
X14499332Y24602586D01*
X14432808Y24536063D01*
Y24415112D01*
X14499332Y24348587D01*
X14432808Y24282062D01*
Y24161111D01*
X14499332Y24094588D01*
X14432808Y24028062D01*
Y23907112D01*
X14499332Y23840587D01*
X14432808Y23774062D01*
Y23653111D01*
X14494560Y23591359D01*
X14466502Y23562848D01*
X14304083D01*
X14189461Y23677472D01*
Y25123399D01*
X14159216Y25196416D01*
X12526616Y26829016D01*
X12464400Y26891232D01*
Y26928699D01*
X12280899D01*
Y26745200D01*
X12318368D01*
X12350339Y26713226D01*
Y26632825D01*
X12346900Y26631400D01*
X12189499D01*
X12078200Y26520102D01*
Y26397433D01*
X11882528Y26201761D01*
X11858437D01*
X11828198Y26232001D01*
X11717602D01*
X11639400Y26153799D01*
Y26043201D01*
X11682142Y26000461D01*
X11665573Y25960461D01*
X6582613D01*
X6509597Y25930215D01*
X6099381Y25520000D01*
X6061913D01*
Y25336501D01*
X6245413D01*
Y25373969D01*
X6625385Y25753940D01*
X11946195D01*
X12019211Y25784183D01*
X12526616Y26291589D01*
X12556860Y26364606D01*
Y26454443D01*
X12593815Y26469751D01*
X13842944Y25220622D01*
X13827637Y25183669D01*
X11690350D01*
X11660260Y25203773D01*
Y25374600D01*
X11630016Y25447617D01*
X11414116Y25663516D01*
X11341100Y25693759D01*
X9717153D01*
X9694219Y25703259D01*
X9465408D01*
X9442474Y25693759D01*
X8955645D01*
X8932711Y25703259D01*
X8700792D01*
X8677857Y25693759D01*
X7946898D01*
X7873882Y25663516D01*
X7724166Y25513800D01*
X7601497D01*
X7490198Y25402501D01*
Y25245099D01*
X7528768Y25206529D01*
X7513611Y25167410D01*
X7485719Y25164313D01*
X7370199Y25279832D01*
Y25402501D01*
X7258900Y25513800D01*
X7101498D01*
X6990199Y25402501D01*
Y25245099D01*
X7101498Y25133800D01*
X7224167D01*
X7373883Y24984084D01*
X7446899Y24953841D01*
X8548497D01*
X8621513Y24984084D01*
X8771229Y25133800D01*
X8893898D01*
X9005197Y25245099D01*
X9010834Y25247433D01*
X9807584Y24450684D01*
X9880600Y24420441D01*
X10993485D01*
X10998526Y24394984D01*
X10993088Y24377011D01*
X10980628Y24371875D01*
X10976318Y24373660D01*
X10634598D01*
X10561582Y24343416D01*
X10493166Y24275000D01*
X10434137D01*
X10427174Y24268037D01*
X10395396Y24281200D01*
Y24281200D01*
X10256896D01*
Y24130000D01*
X10244196D01*
Y24117300D01*
X10085464D01*
X10074424Y24106261D01*
X9860605D01*
X9824166Y24142700D01*
X9779000D01*
Y24003000D01*
Y23863300D01*
X9820650D01*
Y23819000D01*
X9749102D01*
X9687617Y23757515D01*
X9367100Y24078032D01*
Y24193629D01*
X9258730Y24302000D01*
X9105470D01*
X8997100Y24193629D01*
Y24040372D01*
X9105470Y23932001D01*
X9221068D01*
X9923083Y23229985D01*
X9996099Y23199741D01*
X10041547D01*
X10076987Y23164301D01*
X10182612D01*
X10206851Y23188541D01*
X10252570D01*
X10256140Y23184970D01*
Y23111897D01*
X10272640Y23072063D01*
Y23071947D01*
X10257299Y23038300D01*
X10002299D01*
Y22783299D01*
X10071151D01*
X10102700Y22762897D01*
Y22657300D01*
X10076987D01*
X10060243Y22640555D01*
X10012098Y22688699D01*
X9901502D01*
X9823300Y22610498D01*
Y22499902D01*
X9901502Y22421700D01*
X10012098D01*
X10016937Y22426540D01*
X10052747D01*
X10076987Y22402299D01*
X10182612D01*
X10232640Y22452328D01*
X10272640Y22435759D01*
Y22345799D01*
X10180902D01*
X10102700Y22267598D01*
Y22224832D01*
X10041028Y22163161D01*
X8407700D01*
Y22199899D01*
X8373505D01*
X8358198Y22236855D01*
X8476116Y22354773D01*
X8506360Y22427789D01*
Y22970361D01*
X8476116Y23043378D01*
X8261741Y23257751D01*
X8276961Y23294496D01*
X8361900Y23379436D01*
Y23485634D01*
X8386006Y23509708D01*
X8395959Y23513901D01*
X8500798D01*
X8579000Y23592102D01*
Y23702698D01*
X8500798Y23780901D01*
X8411411D01*
X8382783Y23792760D01*
X8382776Y23792760D01*
X8361900Y23794501D01*
Y24084500D01*
X8071900D01*
X8057661Y24118602D01*
Y24202000D01*
X8027416Y24275015D01*
X7601100Y24701332D01*
Y24794897D01*
X7522898Y24873100D01*
X7412302D01*
X7334100Y24794897D01*
Y24737207D01*
X7297145Y24721899D01*
X6739212Y25279832D01*
Y25402501D01*
X6627913Y25513800D01*
X6470512D01*
X6359212Y25402501D01*
Y25245099D01*
X6470512Y25133800D01*
X6593180D01*
X7248140Y24478841D01*
Y24301691D01*
X7278384Y24228673D01*
X7480330Y24026727D01*
X7423000Y23969398D01*
Y23858801D01*
X7498200Y23783601D01*
Y23462399D01*
X7669540D01*
Y23208226D01*
X7632702Y23188635D01*
X7632585Y23188612D01*
X7599098Y23222099D01*
X7488502D01*
X7410300Y23143898D01*
Y23101132D01*
X7069228Y22760060D01*
X7006100D01*
Y22962100D01*
X6897131D01*
X5958416Y23900816D01*
X5885399Y23931059D01*
X5299862D01*
X5226846Y23900816D01*
X5190990Y23864960D01*
X5138972D01*
X5131100Y23901700D01*
D01*
X5118737Y23936578D01*
X5137300Y23955142D01*
Y24003000D01*
X4991100D01*
X4844900D01*
Y23955142D01*
X4864937Y23935104D01*
X4851100Y23901700D01*
X4851100D01*
Y23729559D01*
X4661272D01*
X4623100Y23767732D01*
Y23901700D01*
X4619352D01*
X4604045Y23938655D01*
X4623100Y23957710D01*
Y24073689D01*
X4632987Y24097560D01*
X4763208D01*
X4832368Y24028400D01*
X4978400D01*
Y24174432D01*
X4878996Y24273836D01*
X4805980Y24304082D01*
X3444458D01*
X3373510Y24375027D01*
Y24526585D01*
X3466450Y24619525D01*
Y24688094D01*
X3270251D01*
X3074050D01*
Y24619525D01*
X3166990Y24526585D01*
Y24375027D01*
X3074050Y24282089D01*
Y24213519D01*
X3270251D01*
Y24200819D01*
X3282951D01*
Y24004620D01*
X3351519D01*
X3444458Y24097560D01*
X4333213D01*
X4343100Y24073689D01*
Y24021732D01*
X4274684Y23953316D01*
X4244440Y23880299D01*
Y23664610D01*
X4274684Y23591594D01*
X5104694Y22761584D01*
X5177710Y22731340D01*
X5785547D01*
X5809787Y22707100D01*
X5915412D01*
X5990100Y22781789D01*
Y22887411D01*
X5915412Y22962100D01*
X5809787D01*
X5785547Y22937860D01*
X5220482D01*
X4672258Y23486084D01*
X4687566Y23523039D01*
X5285930D01*
X5346570Y23462399D01*
X5499829D01*
X5581569Y23544141D01*
X5884518D01*
X6429602Y22999055D01*
X6414295Y22962100D01*
X6405100D01*
Y22707100D01*
X6514069D01*
X6542918Y22678250D01*
X6497728Y22633060D01*
X5022563D01*
X4949547Y22602815D01*
X4822012Y22475281D01*
X3461090D01*
X3374351Y22562019D01*
X3216949D01*
X3127760Y22472832D01*
X3087760Y22489400D01*
Y22640398D01*
X3245482Y22798122D01*
X3282951D01*
Y22981619D01*
X3099450D01*
Y22944153D01*
X2911484Y22756186D01*
X2881240Y22683170D01*
Y20535899D01*
Y19773900D01*
Y18136571D01*
Y17162057D01*
Y16070174D01*
Y13363387D01*
X2861984Y13344131D01*
X2831740Y13271117D01*
Y12967084D01*
X2861984Y12894067D01*
X2881240Y12874812D01*
Y10356663D01*
X2876881Y10346142D01*
X2907126Y10273126D01*
X3093100Y10087151D01*
Y10087127D01*
X3276600D01*
Y10270627D01*
X3208031D01*
X3204860Y10267456D01*
X3087760Y10384556D01*
Y10450672D01*
X3127760Y10467240D01*
X3210599Y10384401D01*
X3368001D01*
X3479300Y10495700D01*
Y10618369D01*
X4119091Y11258160D01*
X6212297D01*
X6234154Y11223448D01*
X6178601Y11167895D01*
Y11046945D01*
X6245126Y10980420D01*
X6178601Y10913895D01*
Y10792945D01*
X6245126Y10726420D01*
X6178601Y10659895D01*
Y10538945D01*
X6240742Y10476804D01*
X6172401Y10408463D01*
Y10358120D01*
X6324600D01*
Y10332720D01*
X6165868D01*
X6010836Y10177688D01*
X5996478D01*
X5963366Y10210800D01*
X5918200D01*
Y10071100D01*
Y9931400D01*
X5963366D01*
X6003133Y9971167D01*
X6053607D01*
X6126624Y10001411D01*
X6162731Y10037518D01*
X6178601Y10030945D01*
X6245126Y9964420D01*
X6178601Y9897895D01*
Y9776945D01*
X6245126Y9710420D01*
X6178601Y9643895D01*
Y9522945D01*
X6264125Y9437421D01*
X6385075D01*
X6451600Y9503946D01*
X6502331Y9453215D01*
X5453503Y8404387D01*
X3454740D01*
X3368001Y8491126D01*
X3361970D01*
X3346662Y8528081D01*
X3350465Y8531884D01*
X3380709Y8604900D01*
Y8623809D01*
X3479300Y8722399D01*
Y8879801D01*
X3368001Y8991100D01*
X3210599D01*
X3142006Y8922507D01*
X3101171Y8937950D01*
X3097918Y8963685D01*
X3245332Y9111099D01*
X3368001D01*
X3479300Y9222398D01*
Y9379800D01*
X3368001Y9491099D01*
X3210599D01*
X3099300Y9379800D01*
Y9257131D01*
X2913384Y9071215D01*
X2883140Y8998199D01*
Y8175490D01*
X2913384Y8102474D01*
X3063947Y7951911D01*
X3136963Y7921666D01*
X3403705D01*
X3476722Y7951911D01*
X3537277Y8012466D01*
X4932320D01*
X4947627Y7975511D01*
X4767218Y7795102D01*
X4390530D01*
X4378717Y7806915D01*
X4305701Y7837159D01*
X3225205D01*
X3152189Y7806915D01*
X3043584Y7698310D01*
X3013340Y7625294D01*
Y7455195D01*
X3043584Y7382179D01*
X3198740Y7227024D01*
Y7213940D01*
X3112000Y7127201D01*
Y6969799D01*
X3223299Y6858500D01*
X3380701D01*
X3492000Y6969799D01*
Y7127201D01*
X3405260Y7213940D01*
Y7269796D01*
X3384444Y7320050D01*
X3380701Y7358499D01*
X3467440Y7445239D01*
X5128879D01*
X5201895Y7475483D01*
X5557279Y7830866D01*
X5642917D01*
X5715933Y7861111D01*
X6689928Y8835106D01*
X6739247Y8785787D01*
X4605247Y6651787D01*
X3467440D01*
X3380701Y6738526D01*
X3223299D01*
X3112000Y6627227D01*
Y6469826D01*
X3223299Y6358527D01*
X3380701D01*
X3467440Y6445266D01*
X3761099D01*
X3776406Y6408311D01*
X3345968Y5977872D01*
X3223299D01*
X3112000Y5866573D01*
Y5709172D01*
X3223299Y5597873D01*
X3380701D01*
X3492000Y5709172D01*
Y5831840D01*
X4014626Y6354466D01*
X4170298D01*
X4185605Y6317511D01*
X3345968Y5477873D01*
X3223299D01*
X3112000Y5366574D01*
Y5209173D01*
X3223299Y5097874D01*
X3362519D01*
X3379088Y5057874D01*
X3299114Y4977900D01*
X3223299D01*
X3112000Y4866601D01*
Y4709199D01*
X3223299Y4597900D01*
X3380701D01*
X3492000Y4709199D01*
Y4866601D01*
X3485940Y4872661D01*
X3974545Y5361266D01*
X4011500Y5345959D01*
Y5244241D01*
X4228241Y5027500D01*
X4534759D01*
X4751500Y5244241D01*
Y5550759D01*
X4534759Y5767500D01*
X4433041D01*
X4417734Y5804455D01*
X4786145Y6172866D01*
X5015664D01*
X5042391Y6132866D01*
X5032213Y6108294D01*
Y5245440D01*
X4945474Y5158701D01*
Y5001299D01*
X5056773Y4890000D01*
X5214174D01*
X5325473Y5001299D01*
Y5158701D01*
X5238734Y5245440D01*
Y6065522D01*
X10734731Y11561518D01*
X10750601Y11554945D01*
X10817126Y11488420D01*
X10750601Y11421895D01*
Y11361453D01*
X5562456Y6173309D01*
X5532212Y6100293D01*
Y5245440D01*
X5445473Y5158701D01*
Y5001299D01*
X5556772Y4890000D01*
X5714173D01*
X5825472Y5001299D01*
Y5158701D01*
X5738733Y5245440D01*
Y6057521D01*
X5992186Y6310974D01*
X6032186Y6294405D01*
Y5245440D01*
X5945446Y5158701D01*
Y5001299D01*
X6056746Y4890000D01*
X6214147D01*
X6325446Y5001299D01*
Y5158701D01*
X6238707Y5245440D01*
Y6303494D01*
X6754186Y6818974D01*
X6794186Y6802405D01*
Y5245440D01*
X6707446Y5158701D01*
Y5001299D01*
X6818746Y4890000D01*
X6976147D01*
X7087446Y5001299D01*
Y5158701D01*
X7000707Y5245440D01*
Y6811494D01*
X7254185Y7064973D01*
X7294185Y7048404D01*
Y5245440D01*
X7207445Y5158701D01*
Y5001299D01*
X7318745Y4890000D01*
X7476146D01*
X7587445Y5001299D01*
Y5158701D01*
X7500706Y5245440D01*
Y7057493D01*
X10734731Y10291518D01*
X10750601Y10284945D01*
X10817126Y10218420D01*
X10750601Y10151895D01*
Y10091453D01*
X7824403Y7165255D01*
X7794158Y7092239D01*
Y5245440D01*
X7707419Y5158701D01*
Y5001299D01*
X7818718Y4890000D01*
X7976119D01*
X8087419Y5001299D01*
Y5158701D01*
X8000679Y5245440D01*
Y7049467D01*
X8513441Y7562228D01*
X8553441Y7545660D01*
Y5245440D01*
X8466701Y5158701D01*
Y5001299D01*
X8578000Y4890000D01*
X8735402D01*
X8846701Y5001299D01*
Y5158701D01*
X8759961Y5245440D01*
Y7554749D01*
X9013440Y7808227D01*
X9053440Y7791659D01*
Y5245440D01*
X8966700Y5158701D01*
Y5001299D01*
X9077999Y4890000D01*
X9235401D01*
X9346700Y5001299D01*
Y5158701D01*
X9259960Y5245440D01*
Y7800748D01*
X10896633Y9437421D01*
X10957075D01*
X11023600Y9503946D01*
X11090125Y9437421D01*
X11102252D01*
Y6219084D01*
X10080123Y5196955D01*
X10007078Y5270000D01*
X9849677D01*
X9738378Y5158701D01*
Y5001299D01*
X9849677Y4890000D01*
X10007078D01*
X10093818Y4976740D01*
X10109200D01*
X10182216Y5006984D01*
X10201421Y5026189D01*
X10238377Y5010882D01*
Y5001299D01*
X10349676Y4890000D01*
X10507077D01*
X10618376Y5001299D01*
Y5063235D01*
X10620238Y5064006D01*
X10698350Y5142118D01*
X10738350Y5125549D01*
Y5001299D01*
X10849649Y4890000D01*
X11007051D01*
X11093790Y4976740D01*
X11315700D01*
X11388716Y5006984D01*
X11463395Y5081663D01*
X11500350Y5066355D01*
Y5001299D01*
X11611649Y4890000D01*
X11769051D01*
X11880350Y5001299D01*
Y5123968D01*
X12034671Y5278289D01*
X12075532Y5262841D01*
X12078780Y5237157D01*
X12000324Y5158701D01*
Y5001299D01*
X12111623Y4890000D01*
X12269024D01*
X12380323Y5001299D01*
Y5158701D01*
X12293584Y5245440D01*
Y9813696D01*
X12263340Y9886713D01*
X11296599Y10853453D01*
Y10913895D01*
X11230074Y10980420D01*
X11296599Y11046945D01*
Y11167895D01*
X11241046Y11223448D01*
X11262903Y11258160D01*
X11963808D01*
X12587062Y10634906D01*
Y5245440D01*
X12500323Y5158701D01*
Y5001299D01*
X12611622Y4890000D01*
X12769023D01*
X12880322Y5001299D01*
Y5158701D01*
X12793583Y5245440D01*
Y7412349D01*
X12830537Y7427656D01*
X13119600Y7138594D01*
Y7015926D01*
X13230899Y6904627D01*
X13388301D01*
X13499600Y7015926D01*
Y7173327D01*
X13388301Y7284626D01*
X13265633D01*
X12884383Y7665876D01*
Y8321521D01*
X12921338Y8336829D01*
X13119600Y8138567D01*
Y8015898D01*
X13230899Y7904599D01*
X13388301D01*
X13499600Y8015898D01*
Y8173300D01*
X13388301Y8284599D01*
X13265633D01*
X12975183Y8575048D01*
Y8991350D01*
X13012138Y9006657D01*
X13119600Y8899195D01*
Y8776527D01*
X13230899Y8665228D01*
X13388301D01*
X13499600Y8776527D01*
Y8933928D01*
X13388301Y9045227D01*
X13265633D01*
X13069960Y9240899D01*
Y9359385D01*
X13109959Y9380434D01*
X13119600Y9373812D01*
Y9276500D01*
X13230899Y9165201D01*
X13388301D01*
X13499600Y9276500D01*
Y9433902D01*
X13388301Y9545201D01*
X13265633D01*
X13222360Y9588473D01*
Y9661663D01*
X13230901Y9665200D01*
X13388301D01*
X13499600Y9776499D01*
Y9933901D01*
X13412860Y10020640D01*
Y11208787D01*
X13431647Y11221340D01*
X15702945D01*
X15716705Y11215640D01*
X16134895D01*
X16148656Y11221340D01*
X20858354D01*
X20931371Y11251584D01*
X21202916Y11523130D01*
X21233160Y11596146D01*
Y17020735D01*
X21202916Y17093752D01*
X21164700Y17131967D01*
Y17174898D01*
X21086497Y17253101D01*
X21005560D01*
Y17475684D01*
X21087477Y17557600D01*
X21130241D01*
X21208446Y17635802D01*
Y17746397D01*
X21130241Y17824600D01*
X21019647D01*
X20954761Y17759714D01*
X20914761Y17776282D01*
Y17898528D01*
X20954832Y17938600D01*
X20997598D01*
X21075800Y18016801D01*
Y18127399D01*
X20997598Y18205600D01*
X20995003Y18211864D01*
X21142316Y18359177D01*
X21172560Y18432191D01*
Y19507201D01*
X21142316Y19580215D01*
X21037700Y19684831D01*
Y19714899D01*
X20959499Y19793100D01*
X20917250D01*
X20901942Y19830055D01*
X20964516Y19892628D01*
X20994760Y19965645D01*
Y23884341D01*
X20964516Y23957358D01*
X20934758Y23987115D01*
X20861742Y24017360D01*
X20807272D01*
X20624800Y24199832D01*
Y24251366D01*
X20542966Y24333200D01*
X20497800D01*
Y24193500D01*
X20472400D01*
Y24333200D01*
X20427234D01*
X20386130Y24292094D01*
X20349174Y24307402D01*
Y26256787D01*
X20318929Y26329803D01*
X20243300Y26405432D01*
Y26528101D01*
X20217030Y26554373D01*
X20224834Y26593604D01*
X20240723Y26600183D01*
X20402516Y26761978D01*
X20432761Y26834995D01*
Y27107822D01*
X20402516Y27180838D01*
X20162827Y27420526D01*
X20243300Y27501001D01*
Y27658401D01*
X20132001Y27769702D01*
X19974600D01*
X19971161Y27771124D01*
Y27851529D01*
X20009332Y27889700D01*
X20132001D01*
X20243300Y28000998D01*
Y28158401D01*
X20132001Y28269699D01*
X19974599D01*
X19863300Y28158401D01*
Y28035733D01*
X19794884Y27967316D01*
X19764639Y27894299D01*
Y27695395D01*
X19724640Y27678827D01*
X19679366Y27724100D01*
X19634200D01*
Y27584399D01*
X19608800D01*
Y27724100D01*
X19602432D01*
X19059209Y28267322D01*
Y28270200D01*
X18897600D01*
X18735991D01*
Y28244901D01*
X18772195Y28157495D01*
X18772540Y28157352D01*
X18780345Y28118121D01*
X18751601Y28089374D01*
Y27968427D01*
X18818124Y27901901D01*
X18751601Y27835376D01*
Y27714426D01*
X18818124Y27647900D01*
X18751601Y27581375D01*
Y27460425D01*
X18818124Y27393900D01*
X18751601Y27327374D01*
Y27206424D01*
X18818124Y27139899D01*
X18751601Y27073376D01*
Y27012933D01*
X15180815Y23442148D01*
X15143860Y23457455D01*
Y26299796D01*
X15113615Y26372812D01*
X14724808Y26761621D01*
Y26822061D01*
X14658282Y26888586D01*
X14724808Y26955112D01*
Y27076062D01*
X14658282Y27142587D01*
X14724808Y27209113D01*
Y27330063D01*
X14658282Y27396588D01*
X14724808Y27463113D01*
Y27584061D01*
X14658282Y27650586D01*
X14724808Y27717111D01*
Y27838062D01*
X14658282Y27904587D01*
X14724808Y27971112D01*
Y28092062D01*
X14691318Y28125552D01*
X14699121Y28164783D01*
X14699467Y28164929D01*
X14733707Y28247586D01*
Y28323587D01*
X14699467Y28406247D01*
X14616808Y28440485D01*
D02*
G37*
G36*
X12349469Y27137598D02*
X12280899D01*
Y26954099D01*
X12464400D01*
Y27022668D01*
X12349469Y27137598D01*
D02*
G37*
G36*
X12255499D02*
X12186931D01*
X12072000Y27022668D01*
Y26954099D01*
X12255499D01*
Y27137598D01*
D02*
G37*
G36*
Y26928699D02*
X12072000D01*
Y26860129D01*
X12186931Y26745200D01*
X12255499D01*
Y26928699D01*
D02*
G37*
G36*
X20917760Y26214499D02*
X20611241D01*
X20394501Y25997760D01*
Y25691241D01*
X20611241Y25474500D01*
X20917760D01*
X21134500Y25691241D01*
Y25997760D01*
X20917760Y26214499D01*
D02*
G37*
G36*
X3518759D02*
X3212241D01*
X2995500Y25997760D01*
Y25691241D01*
X3212241Y25474500D01*
X3518759D01*
X3735500Y25691241D01*
Y25997760D01*
X3518759Y26214499D01*
D02*
G37*
G36*
X5493600Y25501100D02*
X5336198D01*
X5249459Y25414360D01*
X5080340D01*
X4993601Y25501100D01*
X4836199D01*
X4749460Y25414360D01*
X4580367D01*
X4493627Y25501100D01*
X4336226D01*
X4224927Y25389801D01*
Y25232399D01*
X4336226Y25121100D01*
X4493627D01*
X4580367Y25207840D01*
X4749460D01*
X4836199Y25121100D01*
X4993601D01*
X5080340Y25207840D01*
X5249459D01*
X5311639Y25145660D01*
Y24925401D01*
X5340200Y24856448D01*
Y24811302D01*
X5418402Y24733099D01*
X5505899D01*
X5522468Y24693100D01*
X5003800Y24174432D01*
Y24028400D01*
X5149832D01*
X6122229Y25000797D01*
X6152474Y25073813D01*
Y25149593D01*
X6245413Y25242531D01*
Y25311099D01*
X6049213D01*
X5853013D01*
Y25242531D01*
X5941008Y25154536D01*
Y25111639D01*
X5647200Y24817831D01*
X5607200Y24834401D01*
Y24921898D01*
X5528998Y25000101D01*
X5518159D01*
Y25145660D01*
X5604899Y25232399D01*
Y25389801D01*
X5493600Y25501100D01*
D02*
G37*
G36*
X6036513Y25520000D02*
X5967945D01*
X5853013Y25405069D01*
Y25336501D01*
X6036513D01*
Y25520000D01*
D02*
G37*
G36*
X3351519Y25396992D02*
X3282950D01*
Y25213493D01*
X3466450D01*
Y25282060D01*
X3351519Y25396992D01*
D02*
G37*
G36*
X3257550D02*
X3188981D01*
X3074050Y25282060D01*
Y25213493D01*
X3257550D01*
Y25396992D01*
D02*
G37*
G36*
X3466450Y25188094D02*
X3270250D01*
X3074050D01*
Y25119524D01*
X3166990Y25026585D01*
Y24875002D01*
X3074050Y24782062D01*
Y24713493D01*
X3270251D01*
X3466450D01*
Y24782062D01*
X3373510Y24875002D01*
Y25026585D01*
X3466450Y25119524D01*
Y25188094D01*
D02*
G37*
G36*
X10231496Y24281200D02*
X10092996D01*
Y24142700D01*
X10231496D01*
Y24281200D01*
D02*
G37*
G36*
X9753600Y24142700D02*
X9708434D01*
X9626600Y24060866D01*
Y24015700D01*
X9753600D01*
Y24142700D01*
D02*
G37*
G36*
Y23990300D02*
X9626600D01*
Y23945134D01*
X9708434Y23863300D01*
X9753600D01*
Y23990300D01*
D02*
G37*
G36*
X3257551Y24188120D02*
X3074050D01*
Y24150653D01*
X3013084Y24089687D01*
X2982840Y24016670D01*
Y23203870D01*
X3013084Y23130853D01*
X3099450Y23044489D01*
Y23007019D01*
X3282951D01*
Y23190520D01*
X3245482D01*
X3189360Y23246642D01*
Y23292891D01*
X3216950Y23304318D01*
X3374351D01*
X3455080Y23385049D01*
X3515253D01*
X3551502Y23348801D01*
X3662098D01*
X3740300Y23427002D01*
Y23537598D01*
X3662098Y23615800D01*
X3551502D01*
X3527272Y23591570D01*
X3467100D01*
X3374351Y23684319D01*
X3216950D01*
X3189360Y23695747D01*
Y23973898D01*
X3220082Y24004620D01*
X3257551D01*
Y24188120D01*
D02*
G37*
G36*
X3376919Y23190520D02*
X3308351D01*
Y23007019D01*
X3491850D01*
Y23075589D01*
X3376919Y23190520D01*
D02*
G37*
G36*
X3491850Y22981619D02*
X3308351D01*
Y22798122D01*
X3376919D01*
X3491850Y22913052D01*
Y22981619D01*
D02*
G37*
G36*
X3370569Y10270627D02*
X3302000D01*
Y10074427D01*
Y9878228D01*
X3370569D01*
X3463508Y9971167D01*
X5807867D01*
X5847634Y9931400D01*
X5892800D01*
Y10071100D01*
Y10210800D01*
X5847634D01*
X5814522Y10177688D01*
X3463508D01*
X3370569Y10270627D01*
D02*
G37*
G36*
X3276600Y10061727D02*
X3093100D01*
Y9993159D01*
X3208031Y9878228D01*
X3276600D01*
Y10061727D01*
D02*
G37*
G36*
X13388301Y7784600D02*
X13230899D01*
X13119600Y7673301D01*
Y7515899D01*
X13230899Y7404600D01*
X13388301D01*
X13499600Y7515899D01*
Y7673301D01*
X13388301Y7784600D01*
D02*
G37*
G36*
X13678758Y5767500D02*
X13372241D01*
X13155499Y5550759D01*
Y5244241D01*
X13372241Y5027500D01*
X13678758D01*
X13895500Y5244241D01*
Y5550759D01*
X13678758Y5767500D01*
D02*
G37*
%LPD*%
G36*
X19481799Y27552667D02*
Y27526535D01*
X19563634Y27444699D01*
X19589767D01*
X19930450Y27104019D01*
X19857100Y27030670D01*
Y26962100D01*
X20053300D01*
Y26936700D01*
X19857100D01*
Y26868130D01*
X19896246Y26828986D01*
X19315218Y26247955D01*
X19284975Y26174939D01*
Y25514307D01*
X19059470Y25288802D01*
X19043600Y25295375D01*
X18977075Y25361900D01*
X19043600Y25428426D01*
Y25549374D01*
X18977075Y25615900D01*
X19043600Y25682425D01*
Y25803375D01*
X18977075Y25869901D01*
X19043600Y25936426D01*
Y26057376D01*
X18977075Y26123901D01*
X19043600Y26190424D01*
Y26311374D01*
X18977075Y26377899D01*
X19043600Y26444424D01*
Y26565375D01*
X18977075Y26631900D01*
X19043600Y26698425D01*
Y26819376D01*
X18977075Y26885901D01*
X19043600Y26952426D01*
Y27073376D01*
X18977075Y27139899D01*
X19043600Y27206424D01*
Y27327374D01*
X18977075Y27393900D01*
X19043600Y27460425D01*
Y27581375D01*
X18977075Y27647900D01*
X19043600Y27714426D01*
Y27835376D01*
X18977075Y27901901D01*
X19043600Y27968427D01*
X19059470Y27974997D01*
X19481799Y27552667D01*
D02*
G37*
G36*
X19864314Y24798032D02*
X19956339Y24706006D01*
Y24624355D01*
X19919899Y24587917D01*
Y24542751D01*
X20059599D01*
Y24517349D01*
X19919899D01*
Y24472185D01*
X19956339Y24435745D01*
Y24355922D01*
X19862485Y24262070D01*
Y24193500D01*
X20058685D01*
Y24180800D01*
X20071385D01*
Y23984599D01*
X20139954D01*
X20142653Y23983482D01*
Y23872983D01*
X20137386Y23870801D01*
X19979984D01*
X19868684Y23759502D01*
Y23636833D01*
X19800848Y23568999D01*
X19763895Y23584305D01*
Y24698843D01*
X19863443Y24798392D01*
X19864314Y24798032D01*
D02*
G37*
G36*
X13640231Y23583900D02*
X13662424Y23530324D01*
X13716000Y23508131D01*
X14008099D01*
X14049562Y23525307D01*
X14188297Y23386571D01*
X14261313Y23356326D01*
X14440593D01*
X14448737Y23344260D01*
X14427477Y23304260D01*
X13710510D01*
X13637495Y23274016D01*
X13424416Y23060938D01*
X13387460Y23076244D01*
Y23746611D01*
X13414200Y23773351D01*
Y23881046D01*
X13391200Y23904045D01*
X13406508Y23941000D01*
X13420399D01*
Y24064500D01*
X13284200D01*
Y24077200D01*
X13271500D01*
Y24213400D01*
X13148000D01*
Y24190988D01*
X12778809D01*
X12705342Y24264455D01*
X12649200D01*
Y24098254D01*
X12623800D01*
Y24264455D01*
X12567658D01*
X12470300Y24167097D01*
X12462798Y24163989D01*
X12177046Y24449742D01*
X12104030Y24479987D01*
X11838463D01*
X11808223Y24510226D01*
X11697628D01*
X11697216Y24509813D01*
X11660260Y24525121D01*
Y24719926D01*
X11690350Y24740031D01*
X13640231D01*
Y23583900D01*
D02*
G37*
G36*
X7973240Y23408714D02*
Y23296960D01*
X8003484Y23223946D01*
X8222427Y23005002D01*
X8207142Y22968100D01*
X8170710Y22931668D01*
X8126898D01*
X8084266Y22974300D01*
X8039100D01*
Y22834599D01*
X8013700D01*
Y22974300D01*
X7968534D01*
X7928360Y22934126D01*
X7888360Y22946806D01*
Y23183701D01*
X7876061Y23213394D01*
Y23453630D01*
X7913016Y23468938D01*
X7973240Y23408714D01*
D02*
G37*
G36*
X12476500Y22842229D02*
Y22761986D01*
X12532448Y22706038D01*
X12504394Y22677522D01*
X11513373D01*
X11491512Y22712231D01*
X11538704Y22759422D01*
Y22815562D01*
X11372505D01*
X11206305D01*
Y22789211D01*
X11166305Y22773637D01*
X11116761Y22823183D01*
Y22934489D01*
X11202434Y23020161D01*
X11212505Y23015991D01*
X11268847Y22959650D01*
X11206305Y22897107D01*
Y22840964D01*
X11372505D01*
X11538704D01*
Y22897107D01*
X11476162Y22959650D01*
X11532504Y23015991D01*
Y23096233D01*
X11691616Y23255345D01*
X11721860Y23328362D01*
Y23348801D01*
X11802798D01*
X11881000Y23427002D01*
X11888584Y23430144D01*
X12476500Y22842229D01*
D02*
G37*
G36*
X5745271Y22389584D02*
X5735099Y22379411D01*
Y22345132D01*
X5312084Y21922116D01*
X5281839Y21849100D01*
Y21634068D01*
X5249848Y21602077D01*
X5015116D01*
X4983700Y21622800D01*
Y21912801D01*
X4693700D01*
Y21622800D01*
X4693700D01*
X4706863Y21591022D01*
X4693700Y21577859D01*
Y21457738D01*
X4758638Y21392799D01*
X4693700Y21327863D01*
Y21268832D01*
X4039884Y20615018D01*
X4009640Y20542001D01*
Y18749872D01*
X3688448Y18428680D01*
X3461090D01*
X3374351Y18515419D01*
X3216949D01*
X3127760Y18426230D01*
X3087760Y18442799D01*
Y18862772D01*
X3127760Y18879340D01*
X3223299Y18783800D01*
X3380701D01*
X3492000Y18895099D01*
Y18954601D01*
X3585898D01*
X3664100Y19032802D01*
Y19143398D01*
X3585898Y19221600D01*
X3475302D01*
X3430846Y19177144D01*
X3392152Y19161116D01*
X3387768Y19156732D01*
X3380701Y19163800D01*
X3223299D01*
X3127760Y19068262D01*
X3087760Y19084830D01*
Y19354002D01*
X3127760Y19370570D01*
X3220731Y19277599D01*
X3289299D01*
Y19473798D01*
Y19670000D01*
X3251832D01*
X3087760Y19834071D01*
Y20110901D01*
X3127760Y20127470D01*
X3214381Y20040849D01*
X3282949D01*
Y20237050D01*
Y20433247D01*
X3233184D01*
X3087760Y20578671D01*
Y20619669D01*
X3127760Y20636237D01*
X3216949Y20547047D01*
X3374351D01*
X3485650Y20658347D01*
Y20815749D01*
X3398910Y20902489D01*
Y21206609D01*
X3485650Y21293347D01*
Y21450748D01*
X3398910Y21537488D01*
Y21706581D01*
X3485650Y21793321D01*
Y21950722D01*
X3398910Y22037460D01*
Y22206580D01*
X3461090Y22268761D01*
X4864784D01*
X4937800Y22299004D01*
X5065335Y22426540D01*
X5729964D01*
X5745271Y22389584D01*
D02*
G37*
G36*
X8897242Y21675401D02*
Y20947839D01*
X8832700Y20883298D01*
Y20778860D01*
X8518337D01*
X8488098Y20809100D01*
X8377502D01*
X8299300Y20730898D01*
Y20686400D01*
X8295000D01*
Y20546700D01*
Y20407001D01*
X8340166D01*
X8376605Y20443440D01*
X8416445D01*
X8431753Y20406483D01*
X8238177Y20212909D01*
X8201222Y20228217D01*
Y20397385D01*
X8224434Y20407001D01*
X8269600D01*
Y20546700D01*
Y20686400D01*
X8224434D01*
X8201222Y20696014D01*
Y21339462D01*
X8282159D01*
X8360362Y21417664D01*
Y21528259D01*
X8344702Y21543919D01*
Y21556332D01*
X8353416Y21565047D01*
X8383660Y21638062D01*
Y21702640D01*
X8879042D01*
X8897242Y21675401D01*
D02*
G37*
G36*
X20788240Y22455795D02*
Y20008417D01*
X20108852Y19329028D01*
X20071387D01*
Y19145528D01*
X20254884D01*
Y19182997D01*
X20733745Y19661858D01*
X20770700Y19646550D01*
Y19604301D01*
X20848901Y19526100D01*
X20904369D01*
X20966040Y19464429D01*
Y18474963D01*
X20647684Y18156609D01*
X20617439Y18083592D01*
Y17766486D01*
X20577440Y17762158D01*
X20502298Y17837300D01*
X20430643D01*
X20406944Y17847116D01*
X20224126D01*
X20137386Y17933856D01*
X19979984D01*
X19868684Y17822556D01*
Y17665155D01*
X19979984Y17553856D01*
X20137386D01*
X20224126Y17640594D01*
X20321407D01*
X20391702Y17570300D01*
X20502298D01*
X20577440Y17645442D01*
X20617439Y17641113D01*
Y16601355D01*
X20580486Y16586047D01*
X20148196Y17018335D01*
X20151195Y17067667D01*
X20224126Y17140596D01*
X20288100D01*
Y17127802D01*
X20366302Y17049600D01*
X20476898D01*
X20555099Y17127802D01*
Y17238399D01*
X20476898Y17316600D01*
X20421432D01*
X20421159Y17316873D01*
X20348143Y17347118D01*
X20224126D01*
X20137386Y17433858D01*
X19979984D01*
X19868684Y17322559D01*
X19851212Y17315320D01*
X19770715Y17395816D01*
X19697701Y17426060D01*
X18612045D01*
X18590189Y17460773D01*
X18635800Y17506384D01*
Y17647215D01*
X18596230Y17686787D01*
X18720139Y17810696D01*
X18788934Y17741901D01*
X18834100D01*
Y17881599D01*
X18859500D01*
Y17741901D01*
X18904666D01*
X18986501Y17823734D01*
Y17875269D01*
X20045985Y18934753D01*
Y19120128D01*
X19862485D01*
Y19080998D01*
X19861560Y19080380D01*
X19821561Y19101761D01*
Y20192500D01*
X19845799D01*
Y20447501D01*
X19821561D01*
Y21059979D01*
X19858514Y21075287D01*
X19896402Y21037399D01*
X19904648Y21017493D01*
X19868684Y20981529D01*
Y20824129D01*
X19955424Y20737389D01*
Y20728423D01*
X19907100Y20680098D01*
Y20569502D01*
X19985303Y20491299D01*
X20095898D01*
X20138000Y20533403D01*
X20151717Y20539084D01*
X20157397Y20552800D01*
X20174100Y20569502D01*
Y20593124D01*
X20181960Y20612100D01*
X20174100Y20631076D01*
Y20680098D01*
X20161945Y20692252D01*
Y20737389D01*
X20248685Y20824129D01*
Y20981529D01*
X20137386Y21092828D01*
X20094633D01*
X20085201Y21115604D01*
Y21212828D01*
X20137386D01*
X20248685Y21324127D01*
Y21481528D01*
X20137386Y21592827D01*
X19979984D01*
X19868684Y21481528D01*
Y21378629D01*
X19861560Y21373289D01*
X19821561Y21393300D01*
Y21519644D01*
X20014717Y21712801D01*
X20137386D01*
X20248685Y21824100D01*
Y21946770D01*
X20486717Y22184801D01*
X20735916Y22434000D01*
X20748241Y22463753D01*
X20788240Y22455795D01*
D02*
G37*
G36*
X5882740Y20337000D02*
Y20121310D01*
X5910303Y20054768D01*
X5894248Y20014767D01*
X5664200D01*
X5610624Y19992577D01*
X5604260Y19977213D01*
X5564260Y19985168D01*
Y20212994D01*
X5600700Y20249434D01*
Y20294600D01*
X5321300D01*
Y20249434D01*
X5357740Y20212994D01*
Y15019020D01*
X5387984Y14946004D01*
X6165868Y14168120D01*
X6324600D01*
Y14142720D01*
X6172401D01*
Y14092377D01*
X6221340Y14043439D01*
Y14013402D01*
X6172401Y13964462D01*
Y13914120D01*
X6324600D01*
Y13888721D01*
X6172401D01*
Y13838377D01*
X6155509Y13798700D01*
X6066102D01*
X5987900Y13720499D01*
Y13609901D01*
X5995587Y13602216D01*
X5980279Y13565260D01*
X5130999D01*
X5057983Y13535016D01*
X4745327Y13222360D01*
X4451500D01*
Y13314098D01*
X4421260Y13344337D01*
Y14236700D01*
X4391016Y14309715D01*
X3479300Y15221432D01*
Y15344101D01*
X3377777Y15445624D01*
X3671061Y15738908D01*
X4187158D01*
X4260174Y15769151D01*
X4646916Y16155894D01*
X4677160Y16228911D01*
Y20162927D01*
X4883372Y20369141D01*
X5319654D01*
X5321300Y20365166D01*
Y20320000D01*
X5600700D01*
Y20365166D01*
X5602346Y20369141D01*
X5861264D01*
X5882740Y20337000D01*
D02*
G37*
G36*
X4102532Y18498438D02*
Y16366818D01*
X4007554Y16278172D01*
X3406126Y16280957D01*
X3398910Y16291811D01*
Y16364580D01*
X3485650Y16451320D01*
Y16608720D01*
X3374351Y16720020D01*
X3216949D01*
X3127760Y16630830D01*
X3087760Y16647400D01*
Y16903873D01*
X3127760Y16920441D01*
X3214381Y16833820D01*
X3282950D01*
Y17030019D01*
Y17226219D01*
X3214381D01*
X3140376Y17152214D01*
X3087760Y17204829D01*
Y17699274D01*
X3127760Y17715842D01*
X3214381Y17629221D01*
X3282951D01*
Y17825420D01*
Y18021620D01*
X3245482D01*
X3096018Y18171085D01*
X3099271Y18196820D01*
X3140106Y18212262D01*
X3216949Y18135419D01*
X3374351D01*
X3461090Y18222159D01*
X3731219D01*
X3804235Y18252403D01*
X4065577Y18513745D01*
X4102532Y18498438D01*
D02*
G37*
G36*
X18780141Y18291171D02*
X18425227Y17936259D01*
X18359679D01*
X18286662Y17906017D01*
X18136584Y17755937D01*
X18106340Y17682921D01*
Y17617372D01*
X18053416Y17564449D01*
X17990266Y17627600D01*
X17945100D01*
Y17487900D01*
X17919701D01*
Y17627600D01*
X17874535D01*
X17873801Y17627904D01*
Y17647215D01*
X17774216Y17746800D01*
X17633385D01*
X17566644Y17680060D01*
X17124272D01*
X15957700Y18846632D01*
Y18889398D01*
X15902258Y18944839D01*
X15918826Y18984840D01*
X18780141D01*
Y18291171D01*
D02*
G37*
G36*
X15746143Y18944839D02*
X15690700Y18889398D01*
Y18778802D01*
X15768903Y18700600D01*
X15811668D01*
X17006207Y17506059D01*
X17005307Y17494876D01*
X16995032Y17466060D01*
X15775301D01*
X15702284Y17435815D01*
X15646400Y17379932D01*
Y17221201D01*
Y17068800D01*
X15696826D01*
X15765083Y17137057D01*
X15827142Y17075000D01*
X15887868D01*
X15982800Y16980067D01*
Y16937302D01*
X16061002Y16859100D01*
X16103767D01*
X16868784Y16094084D01*
X16941800Y16063840D01*
X16962527D01*
X17041740Y15984628D01*
Y15430499D01*
Y14491760D01*
X17022964Y14476726D01*
X17006873Y14470061D01*
X16884631Y14592300D01*
X16725900D01*
Y14617700D01*
X16878300D01*
Y14668126D01*
X16810042Y14736385D01*
X16872099Y14798442D01*
Y14919559D01*
X16805658Y14986000D01*
X16872099Y15052441D01*
Y15173558D01*
X16805658Y15239999D01*
X16872099Y15306442D01*
Y15427557D01*
X16805658Y15494000D01*
X16872099Y15560442D01*
Y15681558D01*
X16786458Y15767200D01*
X16665343D01*
X16579700Y15681558D01*
Y15560442D01*
X16646143Y15494000D01*
X16579700Y15427557D01*
Y15306442D01*
X16646143Y15239999D01*
X16579700Y15173558D01*
Y15112833D01*
X16277100Y14810233D01*
X16237100Y14826801D01*
Y14925908D01*
X16170657Y14992349D01*
X16237100Y15058792D01*
Y15179909D01*
X16170657Y15246350D01*
X16237100Y15312791D01*
Y15433908D01*
X16170657Y15500349D01*
X16237100Y15566792D01*
Y15687907D01*
X16170657Y15754350D01*
X16237100Y15820792D01*
Y15941908D01*
X16170657Y16008350D01*
X16237100Y16074792D01*
Y16195908D01*
X16170657Y16262350D01*
X16237100Y16328792D01*
Y16449908D01*
X16151459Y16535550D01*
X16030342D01*
X15944701Y16449908D01*
Y16328792D01*
X16011142Y16262350D01*
X15944701Y16195908D01*
Y16074792D01*
X16011142Y16008350D01*
X15944701Y15941908D01*
Y15820792D01*
X16011142Y15754350D01*
X15944701Y15687907D01*
Y15566792D01*
X16011142Y15500349D01*
X15944701Y15433908D01*
Y15312791D01*
X16011142Y15246350D01*
X15944701Y15179909D01*
Y15058792D01*
X16011142Y14992349D01*
X15944701Y14925908D01*
Y14804791D01*
X16011142Y14738350D01*
X15944701Y14671909D01*
X15928912Y14665369D01*
X15228960Y15365321D01*
Y16057753D01*
X15247301Y16065350D01*
X15410500D01*
X15525900Y16180750D01*
Y16343950D01*
X15410500Y16459351D01*
X15247301D01*
X15228960Y16466946D01*
Y17108614D01*
X15263672Y17130470D01*
X15319142Y17075000D01*
X15440257D01*
X15502316Y17137057D01*
X15570573Y17068800D01*
X15621001D01*
Y17221201D01*
Y17379932D01*
X15474316Y17526616D01*
X15401300Y17556860D01*
X14521439D01*
X14448422Y17526616D01*
X14163684Y17241878D01*
X14133440Y17168861D01*
Y17085442D01*
X14163684Y17012427D01*
X14254355Y16921754D01*
X14239047Y16884801D01*
X14232202D01*
X14153999Y16806598D01*
Y16763832D01*
X13877934Y16487766D01*
X13847690Y16414751D01*
Y16038422D01*
X13782684Y15973416D01*
X13752440Y15900400D01*
Y15711798D01*
X13709500Y15668858D01*
Y15665710D01*
X13676241Y15643488D01*
X13665199Y15648061D01*
X11262903D01*
X11234846Y15676572D01*
X11296599Y15738326D01*
Y15859274D01*
X11230074Y15925800D01*
X11296599Y15992325D01*
Y16052766D01*
X14022066Y18778233D01*
X14052310Y18851250D01*
Y18960950D01*
X14133247D01*
X14157137Y18984840D01*
X15729573D01*
X15746143Y18944839D01*
D02*
G37*
G36*
X14429149Y16320341D02*
X14482758Y16266734D01*
X14414500Y16198476D01*
Y16148050D01*
X14566901D01*
Y16122650D01*
X14408168D01*
X14372829Y16087311D01*
X14315858D01*
X14242844Y16057066D01*
X14022482Y15836707D01*
X13998959Y15779918D01*
X13958960Y15787875D01*
Y15857628D01*
X14023965Y15922633D01*
X14423865Y16322531D01*
X14429149Y16320341D01*
D02*
G37*
G36*
X14747923Y15300294D02*
X15944701Y14103519D01*
Y14042792D01*
X16011142Y13976350D01*
X15944701Y13909908D01*
Y13788792D01*
X16011142Y13722350D01*
X15944701Y13655908D01*
Y13639265D01*
X15907745Y13623959D01*
X14847337Y14684366D01*
X14774321Y14714610D01*
X14679166D01*
X14670160Y14723616D01*
Y14753084D01*
X14719299Y14802225D01*
Y14852650D01*
X14414500D01*
Y14802225D01*
X14463640Y14753084D01*
Y14723616D01*
X14414500Y14674477D01*
Y14624049D01*
X14566901D01*
Y14598650D01*
X14414500D01*
Y14548224D01*
X14482758Y14479967D01*
X14420700Y14417908D01*
Y14296793D01*
X14487141Y14230350D01*
X14420700Y14163908D01*
X14404913Y14157368D01*
X14314560Y14247722D01*
Y14744701D01*
X14284315Y14817715D01*
X14001900Y15100133D01*
Y15160858D01*
X13940230Y15222528D01*
X13968288Y15251041D01*
X14289178D01*
X14408168Y15132050D01*
X14719299D01*
Y15182475D01*
X14651042Y15250734D01*
X14698132Y15297823D01*
X14714868Y15312157D01*
X14747923Y15300294D01*
D02*
G37*
G36*
X7438640Y15071165D02*
Y14618188D01*
X7468884Y14545174D01*
X7812273Y14201784D01*
X7885290Y14171539D01*
X10239690D01*
X10242400Y14164996D01*
Y14054402D01*
X10320602Y13976199D01*
X10401468D01*
X10655365Y13722302D01*
X10728381Y13692059D01*
X10750601D01*
Y13494920D01*
X10750600D01*
X10762617Y13465910D01*
X10750601Y13453896D01*
Y13332945D01*
X10817126Y13266420D01*
X10750601Y13199895D01*
Y13078944D01*
X10817126Y13012421D01*
X10750601Y12945895D01*
Y12824945D01*
X10817126Y12758420D01*
X10750601Y12691895D01*
Y12631453D01*
X7405014Y9285867D01*
X7368059Y9301174D01*
Y9384826D01*
X7667616Y9684383D01*
X7697860Y9757399D01*
Y10655300D01*
X7667616Y10728316D01*
X7524900Y10871032D01*
Y10913798D01*
X7446698Y10992000D01*
X7336102D01*
X7314214Y10970112D01*
X7277259Y10985419D01*
Y11274021D01*
X7247015Y11347037D01*
X6737332Y11856720D01*
X6578600D01*
Y11882120D01*
X6730799D01*
Y11932463D01*
X6662458Y12000804D01*
X6724599Y12062945D01*
Y12183895D01*
X6658074Y12250420D01*
X6724599Y12316945D01*
Y12437895D01*
X6658074Y12504420D01*
X6724599Y12570945D01*
Y12631387D01*
X6845507Y12752295D01*
X6853502Y12744300D01*
X6964098D01*
X7042300Y12822502D01*
Y12933098D01*
X6964098Y13011301D01*
X6953026Y13038029D01*
X6991500Y13076501D01*
Y13187099D01*
X6913298Y13265300D01*
X6802702D01*
X6757948Y13220546D01*
X6752121Y13221201D01*
X6736790Y13259795D01*
X6883815Y13406821D01*
X6914060Y13479836D01*
Y13923221D01*
X6883815Y13996237D01*
X6724599Y14155453D01*
Y14215895D01*
X6658074Y14282420D01*
X6724599Y14348946D01*
Y14409387D01*
X7401684Y15086472D01*
X7438640Y15071165D01*
D02*
G37*
G36*
X13696968Y15367000D02*
X13855701D01*
Y15341600D01*
X13703300D01*
Y15291174D01*
X13771558Y15222916D01*
X13709500Y15160858D01*
Y15039742D01*
X13775941Y14973300D01*
X13709500Y14906857D01*
Y14785742D01*
X13775941Y14719299D01*
X13709500Y14652858D01*
Y14531741D01*
X13775941Y14465300D01*
X13709500Y14398859D01*
Y14277742D01*
X13795142Y14192101D01*
X13916258D01*
X13944084Y14219926D01*
X13981039Y14204619D01*
Y14077950D01*
X14011284Y14004935D01*
X14420700Y13595518D01*
Y13534792D01*
X14506342Y13449150D01*
X14627458D01*
X14713100Y13534792D01*
Y13655908D01*
X14646658Y13722350D01*
X14713100Y13788792D01*
X14728886Y13795331D01*
X14942439Y13581778D01*
Y13529790D01*
X14972684Y13456773D01*
X15060539Y13368918D01*
Y11936287D01*
X15025829Y11914430D01*
X14970358Y11969900D01*
X14849242D01*
X14782800Y11903458D01*
X14716357Y11969900D01*
X14595242D01*
X14525311Y11899969D01*
X11638180Y14787100D01*
X11654749Y14827100D01*
X11748596D01*
X11826798Y14905302D01*
Y15015898D01*
X11748596Y15094099D01*
X11638000D01*
X11622341Y15078441D01*
X11610592D01*
X11579216Y15109816D01*
X11506200Y15140060D01*
X11262903D01*
X11241046Y15174773D01*
X11296599Y15230325D01*
Y15351276D01*
X11234846Y15413028D01*
X11262903Y15441541D01*
X13622427D01*
X13696968Y15367000D01*
D02*
G37*
G36*
X16053854Y13185783D02*
X16126871Y13155540D01*
X16277042D01*
X16350058Y13185783D01*
X16572215Y13407942D01*
X16582640Y13433107D01*
X16622639Y13425150D01*
Y12666572D01*
X15925967Y11969900D01*
X15865242D01*
X15803185Y11907842D01*
X15734926Y11976100D01*
X15684500D01*
Y11823700D01*
X15659100D01*
Y11976100D01*
X15608675D01*
X15561060Y11928486D01*
X15521060Y11945055D01*
Y13361356D01*
X15490816Y13434372D01*
X15407378Y13517810D01*
X15410500Y13525349D01*
X15525900Y13640750D01*
Y13661478D01*
X15562856Y13676784D01*
X16053854Y13185783D01*
D02*
G37*
%LPC*%
G36*
X20045985Y24168100D02*
X19862485D01*
Y24099532D01*
X19977415Y23984599D01*
X20045985D01*
Y24168100D01*
D02*
G37*
G36*
X13420399Y24213400D02*
X13296899D01*
Y24089902D01*
X13420399D01*
Y24213400D01*
D02*
G37*
G36*
X3667815Y20421600D02*
X3622650D01*
Y20294600D01*
X3749650D01*
Y20339766D01*
X3667815Y20421600D01*
D02*
G37*
G36*
X3749650Y20269200D02*
X3622650D01*
Y20142200D01*
X3667815D01*
X3749650Y20224034D01*
Y20269200D01*
D02*
G37*
G36*
X3376919Y20433247D02*
X3308349D01*
Y20237050D01*
Y20040849D01*
X3376919D01*
X3491850Y20155780D01*
Y20160135D01*
X3531850Y20162434D01*
X3552084Y20142200D01*
X3597250D01*
Y20281900D01*
Y20421600D01*
X3552084D01*
X3501064Y20370580D01*
X3439587D01*
X3376919Y20433247D01*
D02*
G37*
G36*
X3383269Y19670000D02*
X3314699D01*
Y19486497D01*
X3498200D01*
Y19555067D01*
X3383269Y19670000D01*
D02*
G37*
G36*
X3498200Y19461098D02*
X3314699D01*
Y19277599D01*
X3383269D01*
X3498200Y19392529D01*
Y19461098D01*
D02*
G37*
G36*
X20441113Y20447501D02*
X20335487D01*
X20260800Y20372812D01*
Y20267188D01*
X20285040Y20242947D01*
Y20080138D01*
X20262700Y20057797D01*
Y19982877D01*
X20102652Y19822829D01*
X19979984D01*
X19868684Y19711530D01*
Y19554128D01*
X19979984Y19442828D01*
X20137386D01*
X20248685Y19554128D01*
Y19676796D01*
X20440889Y19869000D01*
X20451498D01*
X20529700Y19947202D01*
Y20057797D01*
X20491560Y20095937D01*
Y20242947D01*
X20515800Y20267188D01*
Y20372812D01*
X20441113Y20447501D01*
D02*
G37*
G36*
X20045985Y19329028D02*
X19977415D01*
X19862485Y19214098D01*
Y19145528D01*
X20045985D01*
Y19329028D01*
D02*
G37*
G36*
X20254884Y19120128D02*
X20071387D01*
Y18936630D01*
X20139954D01*
X20254884Y19051561D01*
Y19120128D01*
D02*
G37*
G36*
X20565797Y18497701D02*
X20455202D01*
X20377000Y18419498D01*
Y18376732D01*
X20347359Y18347090D01*
X20224126D01*
X20137386Y18433829D01*
X19979984D01*
X19868684Y18322530D01*
Y18165129D01*
X19979984Y18053830D01*
X20137386D01*
X20224126Y18140569D01*
X20390129D01*
X20463145Y18170813D01*
X20523032Y18230701D01*
X20565797D01*
X20644000Y18308902D01*
Y18419498D01*
X20565797Y18497701D01*
D02*
G37*
G36*
X3376919Y18021620D02*
X3308351D01*
Y17838120D01*
X3491850D01*
Y17906689D01*
X3376919Y18021620D01*
D02*
G37*
G36*
X3491850Y17812720D02*
X3308351D01*
Y17629221D01*
X3376919D01*
X3491850Y17744151D01*
Y17812720D01*
D02*
G37*
G36*
X3376919Y17226219D02*
X3308350D01*
Y17042719D01*
X3491850D01*
Y17111288D01*
X3376919Y17226219D01*
D02*
G37*
G36*
X3491850Y17017319D02*
X3308350D01*
Y16833820D01*
X3376919D01*
X3491850Y16948750D01*
Y17017319D01*
D02*
G37*
G36*
X14719299Y15106650D02*
X14414500D01*
Y15056224D01*
X14463640Y15007085D01*
Y14977615D01*
X14414500Y14928476D01*
Y14878050D01*
X14719299D01*
Y14928476D01*
X14670160Y14977615D01*
Y15007085D01*
X14719299Y15056224D01*
Y15106650D01*
D02*
G37*
%LPD*%
D10*
X20456413Y12083953D02*
G03*
X20386874Y12003465I308087J-336453D01*
G01*
X20392343Y12148384D02*
G03*
X20316840Y12061840I372157J-400884D01*
G01*
X20662019Y12098235D02*
G03*
X20457532Y11945710I102480J-350735D01*
G01*
X10996240Y13924219D02*
X10999299D01*
X10899659Y14020799D02*
X10996240Y13924219D01*
X10896600Y14020799D02*
X10899659D01*
X14829108Y20027901D02*
X16052800D01*
X19278600Y23253700D01*
X15451450Y19223351D02*
X19227800Y22999699D01*
X19660634Y23411160D02*
Y24741615D01*
X19555400Y23099507D02*
Y23305927D01*
X19646199Y22855901D02*
Y23268317D01*
X19555400Y23305927D02*
X19660634Y23411160D01*
X19646199Y23268317D02*
X20058685Y23680801D01*
X7442200Y24714200D02*
X7954400Y24202000D01*
X18897600Y28282901D02*
X20034900Y27145599D01*
X7913510Y22821899D02*
X8267700D01*
X3289300Y10074427D02*
X6053607D01*
X6483350Y20599400D02*
X6610350Y20472400D01*
X6464300Y20599400D02*
X6483350D01*
X6610350Y20472400D02*
X6629400D01*
X16116299Y16992599D02*
X16941800Y16167101D01*
X15887700Y17221201D02*
X16116299Y16992599D01*
X13950951Y15995650D02*
X14389101Y16433800D01*
X13855701Y15900400D02*
X13950951Y15995650D01*
Y16414751D01*
X14287500Y16751300D01*
X20811501Y16465820D02*
Y17941299D01*
X21129900Y11596146D02*
Y17020735D01*
X20902299Y16503432D02*
X21039101Y16366631D01*
X20948300Y12477400D02*
Y16329021D01*
X20636989Y12294500D02*
X20857500Y12515011D01*
X20720700Y16428210D02*
Y18083592D01*
X20674600Y12203700D02*
X20948300Y12477400D01*
X20720700Y16428210D02*
X20857500Y16291409D01*
X20811501Y16465820D02*
X20948300Y16329021D01*
X20902299Y17518456D02*
X21074945Y17691100D01*
X20902299Y16503432D02*
Y17518456D01*
X20811501Y17941299D02*
X20942300Y18072099D01*
X21031200Y17119435D02*
Y17119600D01*
X20712212Y12112900D02*
X21039101Y12439790D01*
Y16366631D01*
X21031200Y17119435D02*
X21129900Y17020735D01*
X20720700Y18083592D02*
X21069299Y18432191D01*
X20858354Y11324600D02*
X21129900Y11596146D01*
X21069299Y18432191D02*
Y19507201D01*
X20348143Y17243857D02*
X20434300Y17157700D01*
X20390129Y18243829D02*
X20510500Y18364200D01*
X20058685Y18243829D02*
X20390129D01*
X20058685Y17743855D02*
X20406944D01*
X20447000Y17703799D01*
X20058685Y17243857D02*
X20348143D01*
X20587109Y12203700D02*
X20674600D01*
X20392343Y12148384D02*
X20549500Y12294500D01*
X16141084Y11453500D02*
X19965321D01*
X20549500Y12294500D02*
X20636989D01*
X19890100Y11635100D02*
X20316840Y12061840D01*
X19965321Y11453500D02*
X20457532Y11945710D01*
X20662019Y12098235D02*
X20712212Y12112900D01*
X16103473Y11544300D02*
X19927710D01*
X20456413Y12083953D02*
X20587109Y12203700D01*
X19927710Y11544300D02*
X20386874Y12003465D01*
X16065863Y11635100D02*
X19890100D01*
X16059673Y11500500D02*
X16103473Y11544300D01*
X16022063Y11591300D02*
X16065863Y11635100D01*
X16097284Y11409700D02*
X16141084Y11453500D01*
X15754317Y11409700D02*
X16097284D01*
X15829536Y11591300D02*
X16022063D01*
X16134895Y11318900D02*
X16140594Y11324600D01*
X15716705Y11318900D02*
X16134895D01*
X15791927Y11500500D02*
X16059673D01*
X16140594Y11324600D02*
X20858354D01*
X15786227Y11506200D02*
X15791927Y11500500D01*
X15748616Y11415400D02*
X15754317Y11409700D01*
X15823837Y11597000D02*
X15829536Y11591300D01*
X15711006Y11324600D02*
X15716705Y11318900D01*
X16725900Y12623800D02*
Y14350999D01*
X11496448Y14782800D02*
X14682248Y11597000D01*
X11797937Y14352901D02*
X14644637Y11506200D01*
X11760327Y14262100D02*
X14607027Y11415400D01*
X15984451Y11682100D02*
X17208501Y12906148D01*
X15925800Y11823700D02*
X16725900Y12623800D01*
X20857500Y12515011D02*
Y16291409D01*
X14644637Y11506200D02*
X15786227D01*
X20766701Y15758501D02*
Y16253799D01*
X20523199Y12905562D02*
X20766701Y13149063D01*
X19697701Y17322800D02*
X20766701Y16253799D01*
Y15148900D02*
Y15758501D01*
X20724039Y15191562D02*
X20766701Y15148900D01*
X15807700Y11687800D02*
X15861449D01*
X20673949Y15851251D02*
X20766701Y15758501D01*
X17208501Y12906148D02*
Y14122400D01*
X20766701Y13459801D02*
Y15148900D01*
X15867148Y11682100D02*
X15984451D01*
X20766701Y13149063D02*
Y13459801D01*
X20712048Y13514452D02*
X20766701Y13459801D01*
X15861449Y11687800D02*
X15867148Y11682100D01*
X13431647Y11324600D02*
X15711006D01*
X14607027Y11415400D02*
X15748616D01*
X14682248Y11597000D02*
X15823837D01*
X15671800Y11823700D02*
X15807700Y11687800D01*
X20040601Y13514452D02*
X20712048D01*
X11400999Y14262100D02*
X11760327D01*
X11159699Y14020799D02*
X11400999Y14262100D01*
X11150600Y14020799D02*
X11159699D01*
X11125088Y13795319D02*
X11454391Y14124622D01*
Y14133200D01*
X11363388Y14352901D02*
X11797937D01*
X11150600Y14274800D02*
X11168111Y14292311D01*
X11302799D01*
X10728381Y13795319D02*
X11125088D01*
X11302799Y14292311D02*
X11363388Y14352901D01*
X20942300Y19634200D02*
X21069299Y19507201D01*
X12272055Y12484191D02*
X13431647Y11324600D01*
X12272055Y12484191D02*
Y12525965D01*
X11150600Y13647420D02*
X12272055Y12525965D01*
X20066000Y15191562D02*
X20724039D01*
X20066000Y15851251D02*
X20673949D01*
X20027901Y12905562D02*
X20523199D01*
X11150600Y13393420D02*
X13309599Y11234420D01*
Y9855200D02*
Y11234420D01*
X11254411Y12875589D02*
X12966701Y11163300D01*
X12781123Y7623104D02*
Y10866277D01*
X12690323Y5080000D02*
Y10677677D01*
X12178822Y12179778D02*
X13119099Y11239500D01*
X12031980Y11615420D02*
X12781123Y10866277D01*
X13119099Y9545701D02*
Y11239500D01*
X12966701Y9198127D02*
Y11163300D01*
X12871922Y8532277D02*
Y10910098D01*
X11150600Y12631420D02*
X12871922Y10910098D01*
X12006580Y11361420D02*
X12690323Y10677677D01*
X12966701Y9198127D02*
X13309599Y8855227D01*
X12871922Y8532277D02*
X13309599Y8094599D01*
X13119099Y9545701D02*
X13309599Y9355201D01*
X12781123Y7623104D02*
X13309599Y7094626D01*
X3301660Y23488310D02*
X3600790D01*
X3295650Y23494319D02*
X3301660Y23488310D01*
X3600790D02*
X3606800Y23482300D01*
X5414899Y24925401D02*
X5473700Y24866600D01*
X8076500Y23296960D02*
Y23451485D01*
X6549212Y25323801D02*
X7351400Y24521613D01*
Y24301691D02*
Y24521613D01*
X8403100Y22427789D02*
Y22970361D01*
X7594600Y23914101D02*
X7683200Y23825500D01*
X7351400Y24301691D02*
X7863600Y23789490D01*
X8076500Y23296960D02*
X8403100Y22970361D01*
X7863600Y23664384D02*
Y23789490D01*
Y23664384D02*
X8076500Y23451485D01*
X7954400Y23701996D02*
Y24202000D01*
Y23701996D02*
X8216900Y23439496D01*
X4347700Y23664610D02*
X5177710Y22834599D01*
X5862599D01*
X4347700Y23664610D02*
Y23880299D01*
X4483100Y24015700D01*
X5022563Y22529800D02*
X6540500D01*
X6659601Y22648901D01*
Y22707600D01*
X6540500Y22529800D02*
X6779582D01*
X8424881Y23647400D02*
X8445500D01*
X8216900Y23689497D02*
X8382783D01*
X8424881Y23647400D01*
X6848910Y22656799D02*
X7112000D01*
X7543800Y23088600D01*
X6655501Y22850211D02*
Y22919189D01*
X5927290Y23647400D02*
X6655501Y22919189D01*
Y22850211D02*
X6848910Y22656799D01*
X5423200Y23647400D02*
X5927290D01*
X20662900Y23075900D02*
Y23109642D01*
Y22507016D02*
Y23075900D01*
X17145000Y14401801D02*
Y15430499D01*
X10458450Y23844250D02*
X10744200Y24130000D01*
X10450200Y23836000D02*
X10458450Y23844250D01*
X6532601Y22834599D02*
X6659601Y22707600D01*
X6940006Y22439000D02*
X7453511D01*
X6705600Y22339301D02*
X6760700Y22394400D01*
X6772593D01*
X7464011Y22449500D02*
X7541110D01*
X6790082Y22540300D02*
X6967117D01*
X6779582Y22529800D02*
X6790082Y22540300D01*
X7541110Y22449500D02*
X7913510Y22821899D01*
X7950200Y22618700D02*
X7964780Y22604120D01*
X7453511Y22439000D02*
X7464011Y22449500D01*
X6929506D02*
X6940006Y22439000D01*
X7964780Y22604120D02*
X8010800D01*
X6967117Y22540300D02*
X6977616Y22529800D01*
X6772593Y22394400D02*
X6827693Y22449500D01*
X6929506D01*
X6977616Y22529800D02*
X7243801D01*
X6705600Y20840700D02*
Y22339301D01*
X5885399Y23827800D02*
X6878599Y22834599D01*
X10458450Y23844250D02*
X10464800Y23837900D01*
X10457125Y23845575D02*
X10458450Y23844250D01*
X9961825Y23845575D02*
X10457125D01*
X9954150Y23853249D02*
X9961825Y23845575D01*
X10117196Y24003000D02*
X10244196Y24130000D01*
X9766300Y24003000D02*
X10117196D01*
X10450200Y23149509D02*
Y23836000D01*
X7683200Y23647400D02*
Y23825500D01*
X8010800Y22604120D02*
X8047019Y22567900D01*
X8267700D01*
X9804400Y23685500D02*
X9817100Y23672800D01*
X10129799D01*
X11527904Y24030196D02*
X11656700Y23901401D01*
X11436873Y24253665D02*
X11527904Y24162634D01*
X12104030Y24376724D02*
X12636500Y23844255D01*
X10993156Y24253561D02*
X11308033D01*
X10494198Y24130000D02*
X10634598Y24270399D01*
X10976318D01*
X11474484Y24344466D02*
X11618704Y24200244D01*
X11228338Y24344362D02*
X11270422D01*
X11270526Y24344466D01*
X11527904Y24030196D02*
Y24162634D01*
X11618704Y24071834D02*
X11747500Y23943037D01*
X11709504Y24109444D02*
X11838300Y23980649D01*
X11557000Y24390359D02*
X11709504Y24237856D01*
X11308136Y24253665D02*
X11436873D01*
X11709504Y24109444D02*
Y24237856D01*
X10976318Y24270399D02*
X10993156Y24253561D01*
X11270526Y24344466D02*
X11474484D01*
X11618704Y24071834D02*
Y24200244D01*
X11557000Y24390359D02*
Y25374600D01*
X11308033Y24253561D02*
X11308136Y24253665D01*
X11752925Y24376724D02*
X12104030D01*
X11049000Y24523700D02*
X11228338Y24344362D01*
X11341100Y25590500D02*
X11557000Y25374600D01*
X11656700Y23651047D02*
Y23901401D01*
X11618600Y23612946D02*
X11656700Y23651047D01*
X11618600Y23328362D02*
Y23612946D01*
X11372505Y23082265D02*
X11618600Y23328362D01*
X11407466Y23844266D02*
X11475451Y23776280D01*
X11513220D02*
X11527800Y23761700D01*
X11372505Y23844266D02*
X11407466D01*
X11475451Y23776280D02*
X11513220D01*
X11838300Y23626460D02*
Y23980649D01*
X11747500Y23482300D02*
Y23943037D01*
X11967200Y23837900D02*
X12227046D01*
X11838300Y23626460D02*
X12636500Y22828259D01*
X9000502Y20864302D02*
X9076010Y20788794D01*
X9715500Y20370799D02*
X12265613D01*
X12727062Y20832249D01*
X12841141D01*
X12938002Y20929111D01*
X12636500Y21757954D02*
Y22320261D01*
Y21757954D02*
X12938002Y21456453D01*
X12834541Y20703349D02*
X12840652D01*
X13028802Y20891499D01*
Y21019910D02*
X13241951Y21233060D01*
X13028802Y20891499D02*
Y21019910D01*
X12938002Y20929111D02*
Y21456453D01*
X10104236Y20494000D02*
X10217430Y20607195D01*
X9570690Y20584801D02*
X10066625D01*
X11489040Y21426801D02*
X12636500Y22574260D01*
X8604190Y20561301D02*
X9418779D01*
X9529069Y20800000D02*
X10025004D01*
X9494000Y20379700D02*
X9608300Y20494000D01*
X8432800Y20675600D02*
X9404669D01*
X9418779Y20561301D02*
X9533079Y20675600D01*
X9404669D02*
X9529069Y20800000D01*
X8589590Y20546700D02*
X8604190Y20561301D01*
X9456390Y20470500D02*
X9570690Y20584801D01*
X10066625D02*
X10179819Y20697993D01*
X9076010Y20788794D02*
X9389452D01*
X10780214Y21426801D02*
X11489040D01*
X8679411Y20379700D02*
X9494000D01*
X9533079Y20675600D02*
X10029014D01*
X9608300Y20494000D02*
X10104236D01*
X9491458Y20890800D02*
X9987394D01*
X10179819Y20697993D02*
X10328868D01*
X8250997Y20079697D02*
X8641800Y20470500D01*
X10025004Y20800000D02*
X10818500Y21593497D01*
X8282300Y20546700D02*
X8589590D01*
X8641800Y20470500D02*
X9456390D01*
X8496300Y20196590D02*
X8679411Y20379700D01*
X9389452Y20788794D02*
X9491458Y20890800D01*
X10217430Y20607195D02*
X10552265D01*
X10029014Y20675600D02*
X10780214Y21426801D01*
X8097962Y15800371D02*
Y22122652D01*
X8241442Y21487543D02*
Y21599104D01*
X8226862Y21472961D02*
X8241442Y21487543D01*
Y21599104D02*
X8280400Y21638062D01*
Y21793201D01*
X8267700Y21805901D02*
X8280400Y21793201D01*
X9129402Y20917694D02*
X9141040Y20929332D01*
X9000502Y20864302D02*
Y21675401D01*
X9141040Y20929332D02*
X9269043D01*
X8496300Y19951700D02*
Y20196590D01*
X9987394Y20890800D02*
X10727700Y21631107D01*
X11112500Y21336000D02*
X12492802D01*
X11035594Y21031200D02*
Y21259094D01*
X11112500Y21336000D01*
X8895100Y25509200D02*
X9880600Y24523700D01*
X11049000D01*
X11125020Y23863300D02*
X11137539D01*
X11112500D02*
X11125020D01*
X11137539D02*
X11372505Y24098265D01*
X12636500Y23844255D02*
X12985754Y23495000D01*
X13017500D01*
X13855701Y15354300D02*
X14095499Y15594099D01*
Y15763692D01*
X14315858Y15984052D01*
X14415601D01*
X14566901Y16135350D01*
X14312900Y15798801D02*
X14333519D01*
X14414500Y15879781D01*
X14565331D01*
X14566901Y15881351D01*
X14124300Y20091400D02*
Y22496420D01*
X14949800Y23321921D01*
X17703799Y17322800D02*
X17854320Y17473320D01*
X17917821D02*
X17932401Y17487900D01*
X17854320Y17473320D02*
X17917821D01*
X18209599Y17574600D02*
Y17682921D01*
X18359679Y17833000D01*
X17703799Y17068800D02*
X18209599Y17574600D01*
X15824200Y18834100D02*
X17081500Y17576801D01*
X17703799D01*
X16891000Y17157700D02*
X17360899D01*
X17703799Y16814799D01*
X14578809Y26507587D02*
X14949800Y26136594D01*
X14598170Y23440224D02*
X14680669D01*
X14708725Y23412167D01*
X14578809Y23459587D02*
X14598170Y23440224D01*
X14949800Y23321921D02*
Y26136594D01*
X14700468Y23200999D02*
X14859000Y23359531D01*
Y23474092D01*
X13710510Y23200999D02*
X14700468D01*
X14794334Y23538757D02*
X14859000Y23474092D01*
X14708725Y23412167D02*
X14729344D01*
X14287500Y20104100D02*
Y22531210D01*
X15040601Y23284309D01*
X14261313Y23459587D02*
X14578809D01*
X15040601Y23284309D02*
Y26299796D01*
X15219273Y23080574D02*
X18897600Y26758899D01*
X14719299Y22834599D02*
X18897600Y27012900D01*
X15219273Y20891499D02*
Y23080574D01*
X14578809Y26761588D02*
X15040601Y26299796D01*
X12597261Y17796053D02*
X13858250Y19057042D01*
X10755201Y16416389D02*
X13571320Y19232507D01*
X14024557Y19223351D02*
X15451450D01*
X19913600Y22974300D02*
Y22994899D01*
X14115358Y19314149D02*
X14829108Y20027901D01*
X18897600Y24726900D02*
X19479034Y25308334D01*
X13858250Y19057042D02*
Y19185452D01*
X13571320Y19232507D02*
X13648483D01*
X18897600Y24980901D02*
X19388234Y25471535D01*
X13986948Y19314149D02*
X14115358D01*
X19388234Y25471535D02*
Y26174939D01*
X18883401Y19088100D02*
Y22427509D01*
X13858250Y19185452D02*
X13986948Y19314149D01*
X19479034Y25308334D02*
Y26137329D01*
X13911726Y19495750D02*
X13950639D01*
X13949336Y19404950D02*
X13988251D01*
X13949049Y18851250D02*
Y19147842D01*
X20245914Y23605835D02*
Y26256787D01*
X13767450Y19223064D02*
X13949336Y19404950D01*
X15787201Y20146532D02*
X19569833Y23929164D01*
X13767450Y19184151D02*
Y19223064D01*
X10896600Y16313300D02*
X13767450Y19184151D01*
X13988251Y19404950D02*
X14729832Y20146532D01*
X19660634Y24741615D02*
X20060513Y25141495D01*
X11348045Y19361407D02*
X13595091D01*
X18883401Y22427509D02*
X19555400Y23099507D01*
X13648483Y19232507D02*
X13911726Y19495750D01*
X13949049Y19147842D02*
X14024557Y19223351D01*
X13950639Y19495750D02*
X14692221Y20237331D01*
X14084300Y19088100D02*
X18883401D01*
X14729832Y20146532D02*
X15787201D01*
X15719273Y20891499D02*
Y23326573D01*
X18897600Y26504901D01*
X14077950Y19094450D02*
X14084300Y19088100D01*
X14719299Y20891499D02*
Y22834599D01*
X19769099Y23139400D02*
X19913600Y22994899D01*
X19646899Y22606000D02*
Y22661601D01*
X19743700Y22758400D01*
X10755201Y15178198D02*
Y16416389D01*
X11328738Y19342101D02*
X11348045Y19361407D01*
X9102311Y19342101D02*
X11328738D01*
X11150600Y16052800D02*
X13949049Y18851250D01*
X19569833Y23929164D02*
Y25388593D01*
X14692221Y20237331D02*
X15525632D01*
X17017999Y21729700D01*
X8532500Y19911911D02*
X9102311Y19342101D01*
X11150600Y16306799D02*
X12597261Y17753461D01*
Y17796053D01*
X14456857Y15544800D02*
X14539407Y15627350D01*
X14566901D01*
X14439900Y15544800D02*
X14456857D01*
X11375390Y12065000D02*
X11404600D01*
X11346180D02*
X11375390D01*
X11271862Y12217400D02*
X11366500D01*
X11337679Y14617361D02*
X11352259Y14631941D01*
X11150600Y11869420D02*
X11346180Y12065000D01*
X11177882Y12123420D02*
X11271862Y12217400D01*
X11150600Y12123420D02*
X11177882D01*
X10693400Y14655800D02*
X10707980Y14670380D01*
X10784180D02*
X10896600Y14782800D01*
X10707980Y14670380D02*
X10784180D01*
X10426700Y14097000D02*
Y14109700D01*
Y14097000D02*
X10728381Y13795319D01*
X7541900Y14618188D02*
X7885290Y14274800D01*
X7541900Y14618188D02*
Y15244310D01*
X7885290Y14274800D02*
X10896600D01*
X11506200Y15036800D02*
X11567820Y14975180D01*
X11266545Y14617361D02*
X11337679D01*
X11177984Y14528799D02*
X11266545Y14617361D01*
X11150600Y14528799D02*
X11177984D01*
X11567820Y14975180D02*
X11678718D01*
X11693298Y14960600D01*
X11150600Y15036800D02*
X11506200D01*
X11049000Y23253700D02*
X11131565Y23336266D01*
X10947400Y22009100D02*
X10961980Y22023680D01*
X11104300Y22348293D02*
Y22689610D01*
X10961980Y22023680D02*
X11075919D01*
X10818500Y21593497D02*
Y22062492D01*
X10727700Y22100104D02*
X11013500Y22385902D01*
X10818500Y22062492D02*
X11104300Y22348293D01*
X10727700Y21631107D02*
Y22100104D01*
X11013500Y22385902D02*
Y22652000D01*
X11075919Y22023680D02*
X11372505Y22320265D01*
X10755201Y15178198D02*
X10896600Y15036800D01*
X10498873Y20867999D02*
X11122396D01*
X8532500Y19911911D02*
Y19915500D01*
X8496300Y19951700D02*
X8532500Y19915500D01*
X10328868Y20697993D02*
X10498873Y20867999D01*
X10552265Y20607195D02*
Y20739101D01*
X10509600Y22032111D02*
X10922701Y22445210D01*
X10509600Y21672900D02*
Y22032111D01*
X10096500Y21259801D02*
X10509600Y21672900D01*
X8267700Y22059900D02*
X10083800D01*
X10129799Y23291800D02*
X10295342D01*
X9635302Y21031200D02*
X10375900Y21771799D01*
X11122396Y20867999D02*
X11285596Y21031200D01*
X10295342Y23291800D02*
X10359400Y23227742D01*
X11013500Y22780409D02*
X11104300Y22689610D01*
X10118599Y23303001D02*
X10129799Y23291800D01*
X10375900Y21771799D02*
Y23095398D01*
X10083800Y22059900D02*
X10236200Y22212300D01*
X10922701Y22742799D02*
X11013500Y22652000D01*
X10359400Y23111897D02*
Y23227742D01*
Y23111897D02*
X10375900Y23095398D01*
X19926300Y21257744D02*
X20058685Y21390129D01*
Y21402827D01*
X19926300Y21183600D02*
Y21257744D01*
X20058685Y20632115D02*
X20078700Y20612100D01*
X20058685Y20632115D02*
Y20902827D01*
X18465800Y17322800D02*
X19697701D01*
X18465800Y17068800D02*
X19367500D01*
X19519901Y16916400D01*
Y15976601D02*
Y16916400D01*
X18397289Y17742200D02*
X18505611D01*
X18300400Y17645311D02*
X18397289Y17742200D01*
X18883401Y18248401D02*
Y19088100D01*
X18300400Y16585899D02*
Y17645311D01*
X18359679Y17833000D02*
X18467999D01*
X18883401Y18248401D01*
X18505611Y17742200D02*
X19718298Y18954889D01*
Y20320000D01*
X18846800Y17881599D02*
X20058685Y19093484D01*
Y19132829D01*
X20388301Y19962444D02*
Y20320000D01*
X20891499Y19965645D02*
Y23884341D01*
X20058685Y19132829D02*
X20891499Y19965645D01*
X11150600Y14782800D02*
X11496448D01*
X11150600Y15544800D02*
X13665199D01*
X13855701Y15354300D01*
X5461000Y15019020D02*
Y20307300D01*
Y15019020D02*
X6324600Y14155420D01*
X6024311Y20083000D02*
X6726489D01*
X7140995Y20497507D01*
X7950200Y15781020D02*
Y22301199D01*
X6335400Y20432401D02*
Y20699100D01*
X6121400Y20218401D02*
X6335400Y20432401D01*
X5130999Y13462000D02*
X6139371D01*
X4716576Y12865100D02*
X5138795Y13287318D01*
X6093101D01*
X4754187Y12774300D02*
X5165693Y13185806D01*
X6119999D01*
X4788099Y13119099D02*
X5130999Y13462000D01*
X3256195Y12774300D02*
X4754187D01*
X3302000Y13119099D02*
X4788099D01*
X6315710Y13656310D02*
X6324600Y13647420D01*
X6130290Y13656310D02*
X6315710D01*
X6183392Y13506021D02*
X6437201D01*
X6121400Y13665199D02*
X6130290Y13656310D01*
X6139371Y13462000D02*
X6183392Y13506021D01*
X6324600Y13901421D02*
Y14155420D01*
X6819900Y8902700D02*
X7173999Y9256799D01*
Y11274021D01*
X4648018Y6548526D02*
X7264799Y9165307D01*
X3302000Y6548526D02*
X4648018D01*
X7264799Y9165307D02*
Y9427598D01*
X6578600Y11361420D02*
X7083199Y10856821D01*
X6578600Y10599420D02*
X6901599Y10276421D01*
X6810799Y9487240D02*
Y10113221D01*
X6578600Y11107420D02*
X6992399Y10693621D01*
X6578600Y10345420D02*
X6810799Y10113221D01*
X6578600Y10091420D02*
X6719999Y9950021D01*
X5605307Y8024927D02*
X6992399Y9412019D01*
X5533886Y8210326D02*
X6810799Y9487240D01*
X7264799Y9427598D02*
X7594600Y9757399D01*
X6992399Y9412019D02*
Y10693621D01*
X5567696Y8115727D02*
X6901599Y9449630D01*
X5642917Y7934127D02*
X7083199Y9374408D01*
X6719999Y9524851D02*
Y9950021D01*
X6578600Y11869420D02*
X7173999Y11274021D01*
X6901599Y9449630D02*
Y10276421D01*
X7083199Y9374408D02*
Y10856821D01*
X4722906Y6457726D02*
X10896600Y12631420D01*
Y12604036D02*
Y12631420D01*
X3971854Y6457726D02*
X4722906D01*
X4381053Y6366927D02*
X4886107D01*
X5049307Y6276127D02*
X10896600Y12123420D01*
X4886107Y6366927D02*
X10896600Y12377420D01*
X5143075Y8024927D02*
X5605307D01*
X5496275Y8301126D02*
X6719999Y9524851D01*
X4809990Y7691842D02*
X5143075Y8024927D01*
X5128879Y7548499D02*
X5514507Y7934127D01*
X5642917D01*
X3302000Y7548499D02*
X5128879D01*
X3460695Y8210326D02*
X5533886D01*
X4347758Y7691842D02*
X4809990D01*
X3289300Y8301126D02*
X5496275D01*
X7594600Y9757399D02*
Y10655300D01*
X7391400Y10858500D02*
X7594600Y10655300D01*
X6810400Y12863220D02*
X6894220D01*
X6908800Y12877800D01*
X6578600Y12631420D02*
X6810400Y12863220D01*
X10552265Y20607195D02*
X10724116D01*
X10751604Y20579707D02*
X10933609D01*
X10724116Y20607195D02*
X10751604Y20579707D01*
X10922701Y22445210D02*
Y22614389D01*
X10799801Y22737289D02*
X10922701Y22614389D01*
X10799801Y22737289D02*
Y22910800D01*
X10922701Y22742799D02*
Y23549899D01*
X11013500Y22780409D02*
Y22977261D01*
X9269043Y20929332D02*
X9370911Y21031200D01*
X9385300D01*
X9000502Y21675401D02*
X9131000Y21805901D01*
X12492802Y21336000D02*
X12797602Y21031200D01*
X10129799Y22910800D02*
X10236200Y22804399D01*
Y22707600D02*
Y22804399D01*
X11131565Y23336266D02*
X11372505D01*
X11013500Y22977261D02*
X11372505Y23336266D01*
X10799801Y23672800D02*
X10922701Y23549899D01*
X8267700Y21805901D02*
X9131000D01*
X8097962Y22122652D02*
X8403100Y22427789D01*
X7541900Y15244310D02*
X8097962Y15800371D01*
X6578600Y12885420D02*
X6824980Y13131799D01*
X6858000D01*
X7632700Y14655800D02*
X8250997Y15274097D01*
Y20079697D01*
X10961097Y20607195D02*
X12373597D01*
X10933609Y20579707D02*
X10961097Y20607195D01*
X7783220Y21274380D02*
Y21337579D01*
X7645100Y21475700D02*
X7783220Y21337579D01*
Y21274380D02*
X7797800Y21259801D01*
X9131000Y21805901D02*
X9182100Y21857001D01*
X12382500Y20840700D02*
Y20853400D01*
X12547600Y21018500D02*
Y21031200D01*
X12382500Y20853400D02*
X12547600Y21018500D01*
X13241951Y21233060D02*
Y22732440D01*
X13710510Y23200999D01*
X14578809Y23713586D02*
X14753638Y23538757D01*
X14794334D01*
X6578600Y14409419D02*
X7950200Y15781020D01*
X12246654Y23503847D02*
X12468914D01*
X12077700Y23672800D02*
X12246654Y23503847D01*
X12227046Y23837900D02*
X12470300Y23594646D01*
X12636500Y22320261D02*
X13284200Y22967960D01*
X13158800Y23224800D02*
Y23951801D01*
X13193401Y23131160D02*
Y23190199D01*
X13158800Y23224800D02*
X13193401Y23190199D01*
X13284200Y22967960D02*
Y23827197D01*
X12636500Y22574260D02*
X13193401Y23131160D01*
X10490200Y22839401D02*
Y23109508D01*
Y22839401D02*
X10799801Y22529800D01*
X10450200Y23149509D02*
X10490200Y23109508D01*
X10579100Y23202901D02*
X10710901D01*
X9703718Y25590500D02*
X11341100D01*
X9982200Y22529800D02*
X10129799D01*
X9956800Y22555200D02*
X9982200Y22529800D01*
X11823700Y26098499D02*
X11925300D01*
X12268200Y26441400D01*
X12453600Y26756000D02*
X14086200Y25123399D01*
X6049213Y25323801D02*
X6582613Y25857199D01*
X11946195D01*
X12453600Y26364606D01*
Y26756000D01*
X12268200Y26941400D02*
X12453600Y26756000D01*
X14086200Y23634700D02*
X14261313Y23459587D01*
X14086200Y23634700D02*
Y25123399D01*
X9455908Y25590500D02*
X9465408Y25600000D01*
X7680198Y25323801D02*
X7946898Y25590500D01*
X8691292D01*
X8942210D02*
X9455908D01*
X9465408Y25600000D02*
X9694219D01*
X8700792D02*
X8932711D01*
X8691292Y25590500D02*
X8700792Y25600000D01*
X9694219D02*
X9703718Y25590500D01*
X8932711Y25600000D02*
X8942210Y25590500D01*
X14372920Y27571701D02*
X14578809Y27777588D01*
X12268200Y27571701D02*
X14372920D01*
X14511311Y28071698D02*
X14551424Y28031586D01*
X12268200Y28071698D02*
X14511311D01*
X14551424Y28031586D02*
X14578809D01*
X20059599Y24530051D02*
Y24878386D01*
Y24181714D02*
Y24530051D01*
X20861742Y23914101D02*
X20891499Y23884341D01*
X20764500Y23914101D02*
X20861742D01*
X20485100Y24193500D02*
X20764500Y23914101D01*
X19779478Y23139400D02*
X20245914Y23605835D01*
X20413701Y22257817D02*
X20662900Y22507016D01*
X20633142Y23139400D02*
X20662900Y23109642D01*
X20439101Y23139400D02*
X20633142D01*
X19718298Y21562416D02*
X20058685Y21902802D01*
X19718298Y20320000D02*
Y21562416D01*
X19646199Y22855901D02*
X19743700Y22758400D01*
X17145000Y15430499D02*
Y16027400D01*
Y15430499D02*
X18300400Y16585899D01*
X20058685Y19632828D02*
X20388301Y19962444D01*
X20413701Y22257817D02*
Y22758400D01*
X20058685Y21902802D02*
X20413701Y22257817D01*
X12373597Y20607195D02*
X12797602Y21031200D01*
X20060513Y25141495D02*
Y25379274D01*
X15775301Y17362801D02*
X17623427D01*
X17663428Y17322800D01*
X17703799D01*
X10896600Y16306799D02*
Y16313300D01*
X19569833Y25388593D02*
X20060513Y25879272D01*
X20058685Y24180800D02*
X20059599Y24181714D01*
Y24878386D02*
X20060513Y24879300D01*
X19769099Y23139400D02*
X19779478D01*
X20053300Y26449402D02*
X20245914Y26256787D01*
X20014905Y26673199D02*
X20167705D01*
X19867900Y27894299D02*
X20053300Y28079700D01*
X20130095Y26764001D02*
X20238699Y26872604D01*
X19977293Y26764001D02*
X20130095D01*
X19388234Y26174939D02*
X19977293Y26764001D01*
X20053300Y27384021D02*
X20329500Y27107822D01*
X20053300Y27384021D02*
Y27579700D01*
X20167705Y26673199D02*
X20329500Y26834995D01*
X20238699Y26872604D02*
Y27070212D01*
X19479034Y26137329D02*
X20014905Y26673199D01*
X20329500Y26834995D02*
Y27107822D01*
X19867900Y27441010D02*
X20238699Y27070212D01*
X19867900Y27441010D02*
Y27894299D01*
X20034900Y26967801D02*
X20053300Y26949399D01*
X20034900Y26967801D02*
Y27145599D01*
X10710901Y23202901D02*
X10799801Y23291800D01*
X7645100Y21475700D02*
Y22230099D01*
X5414899Y24925401D02*
Y25311099D01*
X4914900D02*
X5414899D01*
X4414926D02*
X4914900D01*
X9182100Y24117000D02*
X9996099Y23303001D01*
X10118599D01*
X13158800Y23951801D02*
X13284200Y24077200D01*
X11372505Y22574265D02*
Y22828265D01*
X11372507Y22574263D02*
X12636497D01*
X12636500Y22574260D01*
X11372505Y22574265D02*
X11372507Y22574263D01*
X13273672Y24087727D02*
X13284200Y24077200D01*
X12636500Y24098254D02*
X12647028Y24087727D01*
X13273672D01*
X7426401Y22540300D02*
X7503500D01*
X7243801Y22529800D02*
X7415901D01*
X7426401Y22540300D01*
X7503500D02*
X7785100Y22821899D01*
X7243801Y22529800D02*
X7548601Y22834599D01*
X6464300Y20599400D02*
X6705600Y20840700D01*
X6532601Y20896301D02*
Y22326601D01*
X6335400Y20699100D02*
X6532601Y20896301D01*
X5385100Y21475700D02*
Y21849100D01*
X5862599Y22326601D01*
X4857681Y21498817D02*
X5361983D01*
X4838700Y21517798D02*
X4857681Y21498817D01*
X5361983D02*
X5385100Y21475700D01*
X6878599Y20467599D02*
Y22326601D01*
X3474700Y15842168D02*
X3628289D01*
X3301508Y15515387D02*
X3628289Y15842168D01*
X4187158D01*
X4573900Y16228911D01*
Y20205701D01*
X4840600Y20472400D02*
X6121400D01*
X4573900Y20205701D02*
X4840600Y20472400D01*
X7140995Y20971594D02*
X7645100Y21475700D01*
X7140995Y20497507D02*
Y20971594D01*
X5986000Y20121310D02*
X6024311Y20083000D01*
X5986000Y20121310D02*
Y20337000D01*
X6121400Y20472400D01*
X6629400Y20218401D02*
X6878599Y20467599D01*
X7548601Y22326601D02*
X7645100Y22230099D01*
X3595369Y20267320D02*
X3609950Y20281900D01*
X3325921Y20267320D02*
X3595369D01*
X3295650Y20237048D02*
X3325921Y20267320D01*
X3350868Y18973801D02*
X3465168Y19088100D01*
X3492500D01*
X3302000Y18973801D02*
X3350868D01*
X4112900Y20542001D02*
X4838700Y21267801D01*
X4112900Y18707100D02*
Y20542001D01*
X3731219Y18325420D02*
X4112900Y18707100D01*
X3295650Y18325420D02*
X3731219D01*
X16499200Y13480959D02*
Y14378300D01*
X16126871Y13258800D02*
X16277042D01*
X16499200Y14378300D02*
X16725900Y14605000D01*
X16277042Y13258800D02*
X16499200Y13480959D01*
X16252032Y13940633D02*
X16306799Y13995399D01*
X16090900Y13595351D02*
X16408400Y13912849D01*
Y14541499D01*
X16306799Y13995399D02*
Y14693900D01*
X16209676Y13940633D02*
X16252032D01*
X14774321Y14611349D02*
X16126871Y13258800D01*
X14566901Y14611349D02*
X14774321D01*
X14566901Y14865350D02*
Y15119350D01*
Y14611349D02*
Y14865350D01*
X19519901Y15062199D02*
Y15976601D01*
X19869800Y16326500D02*
X20041251D01*
X19519901Y15976601D02*
X19869800Y16326500D01*
X20041251D02*
X20066000Y16351250D01*
X19519901Y14312900D02*
Y15062199D01*
X19869800Y14712300D02*
X20045264D01*
X20066000Y14691563D01*
X19519901Y15062199D02*
X19869800Y14712300D01*
X19519901Y12547600D02*
Y14312900D01*
X19818350Y14014450D01*
X20040601D01*
X19661937Y12405563D02*
X20027901D01*
X19519901Y12547600D02*
X19661937Y12405563D01*
X12612659Y23082260D02*
X12636500D01*
X12377719Y23317200D02*
X12612659Y23082260D01*
X12357100Y23317200D02*
X12377719D01*
X8553002Y25323801D02*
X8738402Y25509200D01*
X8315198Y25323801D02*
X8553002D01*
X8738402Y25509200D02*
X8895100D01*
X10279081Y25323801D02*
X10355281Y25400000D01*
X10375900D01*
X10079812Y25323801D02*
X10279081D01*
X12468914Y23503847D02*
X12636500Y23336259D01*
X12470300Y23594646D02*
X12632109D01*
X12636500Y23590256D01*
X10037013Y24866600D02*
X10960100D01*
X9579813Y25323801D02*
X10037013Y24866600D01*
X10960100D02*
X11145555Y25052055D01*
X10625912Y25107899D02*
X10841812Y25323801D01*
X10617200Y25107899D02*
X10625912D01*
X11145555Y25127544D02*
X11341811Y25323801D01*
X11145555Y25052055D02*
Y25127544D01*
X7446899Y25057100D02*
X8548497D01*
X8815197Y25323801D01*
X7180199D02*
X7446899Y25057100D01*
X7785100Y22821899D02*
Y23183701D01*
X4991100Y24015700D02*
X6049213Y25073813D01*
Y25323801D01*
X4618500Y23626300D02*
X5402100D01*
X4483100Y23761700D02*
X4618500Y23626300D01*
X5299862Y23827800D02*
X5885399D01*
X5233762Y23761700D02*
X5299862Y23827800D01*
X4991100Y23761700D02*
X5233762D01*
X5402100Y23626300D02*
X5423200Y23647400D01*
X3270250Y24200819D02*
X4805980D01*
X7683200Y23647400D02*
X7772800Y23557800D01*
Y23196001D02*
Y23557800D01*
Y23196001D02*
X7785100Y23183701D01*
X3295650Y22372020D02*
X4864784D01*
X5022563Y22529800D01*
X3295650Y20737048D02*
Y21372047D01*
Y21872021D01*
Y22372020D01*
X5740400Y12649200D02*
X5754980Y12663780D01*
X6324600Y13132919D02*
Y13139420D01*
X5855460Y12663780D02*
X6324600Y13132919D01*
X5754980Y12663780D02*
X5855460D01*
X4318000Y13258800D02*
Y14236700D01*
X3289300Y15265401D02*
X4318000Y14236700D01*
X3103900Y14950801D02*
X3289300Y14765401D01*
X3103900Y15342195D02*
X3277092Y15515387D01*
X3301508D01*
X3366095Y15950774D02*
X3474700Y15842168D01*
X3298837Y15950774D02*
X3366095D01*
X3236600Y16013011D02*
X3298837Y15950774D01*
X3236600Y16013011D02*
Y16232761D01*
X3103900Y14950801D02*
Y15342195D01*
X3236600Y16232761D02*
X3295650Y16291809D01*
Y16530020D01*
X6093101Y13287318D02*
X6183901Y13378119D01*
X6119999Y13185806D02*
X6221511Y13287318D01*
X6434189Y13280820D02*
X6611782D01*
X6221511Y13287318D02*
X6427689D01*
X6578600Y14155420D02*
X6810799Y13923221D01*
X6183901Y13378119D02*
X6465299D01*
X6611782Y13280820D02*
X6810799Y13479836D01*
X6465299Y13378119D02*
X6471799Y13371619D01*
X6427689Y13287318D02*
X6434189Y13280820D01*
X6574172Y13371619D02*
X6719999Y13517447D01*
X6810799Y13479836D02*
Y13923221D01*
X6471799Y13371619D02*
X6574172D01*
X6437201Y13506021D02*
X6578600Y13647420D01*
X6719999Y13517447D02*
Y13760020D01*
X3025800Y13004695D02*
X3256195Y12774300D01*
X3025800Y13233505D02*
X3075300Y13283005D01*
X2935000Y13271117D02*
X2984500Y13320615D01*
X3075300Y13283005D02*
Y13892374D01*
X3302000Y14119073D01*
X3116600Y13195895D02*
X3302000Y13381294D01*
X2935000Y12967084D02*
X2984500Y12917584D01*
Y13320615D02*
Y16070174D01*
X3025800Y13004695D02*
Y13233505D01*
X2984500Y10350500D02*
Y12917584D01*
X3302000Y13381294D02*
Y13619073D01*
X2935000Y12967084D02*
Y13271117D01*
X3116600Y13042305D02*
Y13195895D01*
X3293805Y12865100D02*
X4716576D01*
X3116600Y13042305D02*
X3293805Y12865100D01*
X6578600Y13901421D02*
X6719999Y13760020D01*
X2980142Y10346142D02*
X3251856Y10074427D01*
X2980142Y10346142D02*
X2984500Y10350500D01*
X4743373Y6276127D02*
X5049307D01*
X3302000Y4834754D02*
X4743373Y6276127D01*
X3302000Y4787900D02*
Y4834754D01*
X5135474Y6108294D02*
X10896600Y11869420D01*
X3302000Y5287874D02*
X4381053Y6366927D01*
X3302000Y5787873D02*
X3971854Y6457726D01*
X6135446Y6346266D02*
X10896600Y11107420D01*
X5635473Y5080000D02*
Y6100293D01*
X10896600Y11361420D01*
X6135446Y5080000D02*
Y6346266D01*
X5135474Y5080000D02*
Y6108294D01*
X3494505Y8115727D02*
X5567696D01*
X6729120Y10746080D02*
X6743700Y10731500D01*
X6578600Y10853420D02*
X6578601D01*
X6685940Y10746080D01*
X6729120D01*
X3077200Y8404651D02*
X3277449Y8604900D01*
X2986400Y8175490D02*
Y8998199D01*
X3077200Y8213100D02*
Y8404651D01*
X3174573Y8115727D02*
X3366095D01*
X2986400Y8175490D02*
X3136963Y8024927D01*
X3077200Y8213100D02*
X3174573Y8115727D01*
X3366095D02*
X3460695Y8210326D01*
X3136963Y8024927D02*
X3403705D01*
X3277449Y8789249D02*
X3289300Y8801100D01*
X3277449Y8604900D02*
Y8789249D01*
X2986400Y8998199D02*
X3289300Y9301099D01*
X3403705Y8024927D02*
X3494505Y8115727D01*
X3116600Y7455195D02*
Y7625294D01*
Y7455195D02*
X3302000Y7269796D01*
Y7048500D02*
Y7269796D01*
X3116600Y7625294D02*
X3225205Y7733899D01*
X4305701D02*
X4347758Y7691842D01*
X3225205Y7733899D02*
X4305701D01*
X4178300Y11963400D02*
X5727700D01*
X3289300Y10574401D02*
X4076319Y11361420D01*
X6324600D01*
X3289300Y11074400D02*
X4178300Y11963400D01*
X3289300Y11836400D02*
X3576320Y12123420D01*
X6324600D01*
X3289300Y12336399D02*
X5775579D01*
X6324600Y12885420D01*
X6053607Y10074427D02*
X6324600Y10345420D01*
X3251856Y10074427D02*
X3289300D01*
X2984500Y17162057D02*
Y18136571D01*
Y16070174D02*
Y17162057D01*
Y16070174D02*
X3289300Y15765375D01*
X2984500Y17162057D02*
X3099450Y17047108D01*
X3278561D02*
X3295650Y17030019D01*
X3099450Y17047108D02*
X3278561D01*
X2984500Y19773900D02*
Y20535899D01*
X3001899Y19773900D02*
X3302000Y19473799D01*
X2984500Y18136571D02*
Y19773900D01*
X3001899D01*
X2984500Y18136571D02*
X3295650Y17825420D01*
X2984500Y20535899D02*
X3283351Y20237048D01*
X3295650D01*
X2984500Y20535899D02*
Y22683170D01*
X3295650Y22994321D01*
X3086100Y23203870D02*
Y24016670D01*
Y23203870D02*
X3295650Y22994321D01*
X3086100Y24016670D02*
X3270250Y24200819D01*
X4805980D02*
X4991100Y24015700D01*
X3270250Y24700793D02*
Y25200793D01*
Y24200819D02*
Y24700793D01*
X14236700Y17168861D02*
X14521439Y17453600D01*
X15401300D01*
X15633701Y17221201D01*
X15306512Y17240640D02*
X15360260D01*
X15184352Y17362801D02*
X15306512Y17240640D01*
X14559048Y17362801D02*
X15184352D01*
X14476102Y17279852D02*
X14559048Y17362801D01*
X14476102Y16974452D02*
Y17279852D01*
X14799300Y15394949D02*
X16090900Y14103349D01*
X14799300Y15394949D02*
Y16651253D01*
X15360260Y17240640D02*
X15379700Y17221201D01*
X14476102Y16974452D02*
X14799300Y16651253D01*
X15125700Y15322549D02*
Y17221201D01*
Y15322549D02*
X16090900Y14357350D01*
X14236700Y17085442D02*
X14708501Y16613641D01*
X14566901Y16135350D02*
X14708501Y16276950D01*
Y16613641D01*
X14236700Y17085442D02*
Y17168861D01*
X14439900Y16433800D02*
X14464909Y16408791D01*
X14547459D01*
X14389101Y16433800D02*
X14439900D01*
X14547459Y16408791D02*
X14566901Y16389349D01*
X13855701Y15608299D02*
Y15900400D01*
X15633701Y17221201D02*
X15775301Y17362801D01*
X16725900Y14605000D02*
X17208501Y14122400D01*
X17005299Y16167101D02*
X17145000Y16027400D01*
X16941800Y16167101D02*
X17005299D01*
X16090900Y13849350D02*
X16118393D01*
X16209676Y13940633D01*
X16306799Y14693900D02*
X16725900Y15113000D01*
X16408400Y14541499D02*
X16725900Y14859000D01*
X14566901Y14357350D02*
X15136501Y13787750D01*
Y13642654D02*
Y13787750D01*
X15045700Y13529790D02*
X15163800Y13411690D01*
X15417799Y11823700D02*
Y13361356D01*
X15045700Y13529790D02*
Y13624550D01*
X14566901Y14103349D02*
X15045700Y13624550D01*
X15163800Y11823700D02*
Y13411690D01*
X15136501Y13642654D02*
X15417799Y13361356D01*
X13883192Y14846300D02*
X13928835Y14800659D01*
X14084300Y14077950D02*
Y14563953D01*
X13928835Y14719418D02*
Y14800659D01*
Y14719418D02*
X14084300Y14563953D01*
X13855701Y14846300D02*
X13883192D01*
X14084300Y14077950D02*
X14566901Y13595351D01*
X14211301Y14204950D02*
X14566901Y13849350D01*
X14211301Y14204950D02*
Y14744701D01*
X13855701Y15100301D02*
X14211301Y14744701D01*
X13855701Y15354300D02*
X14331950D01*
X14566901Y15119350D01*
X11150600Y11361420D02*
X12006580D01*
X11150600Y11615420D02*
X12031980D01*
X11160431Y12875589D02*
X11254411D01*
X11150600Y12885420D02*
X11160431Y12875589D01*
X11228100Y10563278D02*
X12003400Y9787978D01*
X11150600Y10853420D02*
X12190324Y9813696D01*
Y5080000D02*
Y9813696D01*
X12003400Y5393050D02*
Y9787978D01*
X11358880Y10091420D02*
X11887200Y9563100D01*
Y5651500D02*
Y9563100D01*
X11150600Y10599420D02*
X11177984D01*
X11214126Y10563278D01*
X11228100D01*
X11150600Y9837420D02*
X11722100Y9265920D01*
Y6311900D02*
Y9265920D01*
X11150600Y10091420D02*
X11358880D01*
X11150600Y13139420D02*
X12110242Y12179778D01*
X12178822D01*
X10109200Y5080000D02*
X11205513Y6176313D01*
Y9528507D01*
X9928377Y5080000D02*
X10109200D01*
X10479573D02*
X10536596Y5137022D01*
X10547222D02*
X11722100Y6311900D01*
X10428376Y5080000D02*
X10479573D01*
X10536596Y5137022D02*
X10547222D01*
X11315700Y5080000D02*
X11887200Y5651500D01*
X10928350Y5080000D02*
X11315700D01*
X11690350D02*
X12003400Y5393050D01*
X11150600Y9583420D02*
X11205513Y9528507D01*
X9156700Y7843520D02*
X10896600Y9583420D01*
X9156700Y5080000D02*
Y7843520D01*
X8656701Y7597521D02*
X10896600Y9837420D01*
X8656701Y5080000D02*
Y7597521D01*
X7897419Y7092239D02*
X10896600Y10091420D01*
X7897419Y5080000D02*
Y7092239D01*
X6897446Y5080000D02*
Y6854266D01*
X10896600Y10853420D01*
X7397445Y5080000D02*
Y7100265D01*
X10896600Y10599420D01*
D12*
X6324600Y14663420D02*
D03*
Y14409419D02*
D03*
X6578600D02*
D03*
X6324600Y14155420D02*
D03*
X6578600D02*
D03*
X6324600Y13901421D02*
D03*
X6578600D02*
D03*
X6324600Y13647420D02*
D03*
X6578600D02*
D03*
Y12885420D02*
D03*
Y13139420D02*
D03*
Y12631420D02*
D03*
X6324600Y12885420D02*
D03*
Y12631420D02*
D03*
Y12377420D02*
D03*
X6578600D02*
D03*
X6324600Y12123420D02*
D03*
X6578600D02*
D03*
X6324600Y11869420D02*
D03*
X6578600D02*
D03*
X6324600Y11615420D02*
D03*
Y11361420D02*
D03*
X6578600D02*
D03*
Y11615420D02*
D03*
Y11107420D02*
D03*
X6324600D02*
D03*
Y10853420D02*
D03*
X6578600D02*
D03*
X6324600Y10599420D02*
D03*
X6578600D02*
D03*
X6324600Y10345420D02*
D03*
X6578600D02*
D03*
X6324600Y10091420D02*
D03*
X6578600D02*
D03*
X6324600Y9837420D02*
D03*
X6578600D02*
D03*
Y9583420D02*
D03*
X6324600D02*
D03*
X6578600Y15425420D02*
D03*
X6324600Y15171420D02*
D03*
Y14917419D02*
D03*
X6578600D02*
D03*
Y14663420D02*
D03*
Y15171420D02*
D03*
X10896600Y14528799D02*
D03*
Y14274800D02*
D03*
X11150600D02*
D03*
X10896600Y14020799D02*
D03*
X11150600D02*
D03*
Y13647420D02*
D03*
X10896600Y13393420D02*
D03*
X11150600D02*
D03*
X10896600Y13139420D02*
D03*
X11150600Y12885420D02*
D03*
Y13139420D02*
D03*
Y12631420D02*
D03*
X10896600Y12885420D02*
D03*
Y12631420D02*
D03*
Y12377420D02*
D03*
X11150600D02*
D03*
X10896600Y12123420D02*
D03*
X11150600D02*
D03*
X10896600Y11869420D02*
D03*
X11150600D02*
D03*
X10896600Y11615420D02*
D03*
Y11361420D02*
D03*
X11150600D02*
D03*
Y11615420D02*
D03*
Y11107420D02*
D03*
X10896600D02*
D03*
Y10853420D02*
D03*
X11150600D02*
D03*
X10896600Y10599420D02*
D03*
X11150600D02*
D03*
X10896600Y10345420D02*
D03*
X11150600D02*
D03*
X10896600Y10091420D02*
D03*
X11150600D02*
D03*
X10896600Y9837420D02*
D03*
X11150600D02*
D03*
X10896600Y9583420D02*
D03*
X11150600D02*
D03*
Y16306799D02*
D03*
X10896600Y16052800D02*
D03*
X11150600D02*
D03*
X10896600Y15798801D02*
D03*
X11150600D02*
D03*
X10896600Y15544800D02*
D03*
X11150600D02*
D03*
X10896600Y15290800D02*
D03*
X11150600D02*
D03*
X10896600Y15036800D02*
D03*
Y14782800D02*
D03*
X11150600D02*
D03*
Y14528799D02*
D03*
Y15036800D02*
D03*
D13*
X6324600Y13139420D02*
D03*
Y15425420D02*
D03*
X10896600Y13647420D02*
D03*
Y16306799D02*
D03*
D14*
X10799801Y22910800D02*
D03*
X10129799Y23672800D02*
D03*
Y23291800D02*
D03*
X5862599Y22834599D02*
D03*
X7548601D02*
D03*
X6878599Y22326601D02*
D03*
X5862599D02*
D03*
X19769099Y23139400D02*
D03*
X19743700Y22758400D02*
D03*
X20388301Y20320000D02*
D03*
X10129799Y22529800D02*
D03*
D15*
Y22910800D02*
D03*
X10799801Y23672800D02*
D03*
Y23291800D02*
D03*
X6532601Y22834599D02*
D03*
X6878599D02*
D03*
X7548601Y22326601D02*
D03*
X6532601D02*
D03*
X20439101Y23139400D02*
D03*
X20413701Y22758400D02*
D03*
X19718298Y20320000D02*
D03*
X10799801Y22529800D02*
D03*
D16*
X3289300Y9301099D02*
D03*
Y8801100D02*
D03*
Y8301126D02*
D03*
X20053300Y27579700D02*
D03*
Y28079700D02*
D03*
X3295650Y18325420D02*
D03*
Y17825420D02*
D03*
X20027901Y12905562D02*
D03*
Y12405563D02*
D03*
X20053300Y26449402D02*
D03*
Y26949399D02*
D03*
X20060513Y25879272D02*
D03*
Y25379274D02*
D03*
Y24879300D02*
D03*
X3295650Y16530020D02*
D03*
Y17030019D02*
D03*
X20058685Y20902827D02*
D03*
Y21402827D02*
D03*
Y21902802D02*
D03*
X11341811Y25323801D02*
D03*
X10841812D02*
D03*
X7180199D02*
D03*
X7680198D02*
D03*
X10079812D02*
D03*
X9579813D02*
D03*
X8315198D02*
D03*
X8815197D02*
D03*
X20058685Y23680801D02*
D03*
Y24180800D02*
D03*
Y19632828D02*
D03*
Y19132829D02*
D03*
X12268200Y26441400D02*
D03*
Y26941400D02*
D03*
X3289300Y11074400D02*
D03*
Y10574401D02*
D03*
Y10074427D02*
D03*
X3270250Y25200793D02*
D03*
Y24700793D02*
D03*
Y24200819D02*
D03*
X6549212Y25323801D02*
D03*
X6049213D02*
D03*
X3289300Y14765401D02*
D03*
Y15265401D02*
D03*
Y15765375D02*
D03*
X20066000Y15191562D02*
D03*
Y14691563D02*
D03*
X20040601Y13514452D02*
D03*
Y14014450D02*
D03*
X20066000Y15851251D02*
D03*
Y16351250D02*
D03*
X15719273Y20891499D02*
D03*
X15219273D02*
D03*
X14719299D02*
D03*
X8656701Y5080000D02*
D03*
X9156700D02*
D03*
X20058685Y17243857D02*
D03*
Y17743855D02*
D03*
Y18243829D02*
D03*
X13309599Y9855200D02*
D03*
Y9355201D02*
D03*
Y8855227D02*
D03*
Y8094599D02*
D03*
Y7594600D02*
D03*
Y7094626D02*
D03*
X12690323Y5080000D02*
D03*
X12190324D02*
D03*
X11690350D02*
D03*
X9928377D02*
D03*
X10428376D02*
D03*
X10928350D02*
D03*
X6897446D02*
D03*
X7397445D02*
D03*
X7897419D02*
D03*
X5135474D02*
D03*
X5635473D02*
D03*
X6135446D02*
D03*
X3302000Y5787873D02*
D03*
Y5287874D02*
D03*
Y4787900D02*
D03*
Y7548499D02*
D03*
Y7048500D02*
D03*
Y6548526D02*
D03*
Y14119073D02*
D03*
Y13619073D02*
D03*
Y13119099D02*
D03*
X12268200Y27571701D02*
D03*
Y28071698D02*
D03*
X3289300Y12336399D02*
D03*
Y11836400D02*
D03*
X5414899Y25311099D02*
D03*
X4914900D02*
D03*
X4414926D02*
D03*
X3302000Y18973801D02*
D03*
Y19473799D02*
D03*
X3295650Y20737048D02*
D03*
Y20237048D02*
D03*
Y22372020D02*
D03*
Y21872021D02*
D03*
Y21372047D02*
D03*
Y23494319D02*
D03*
Y22994321D02*
D03*
D17*
X20764500Y28130499D02*
D03*
Y11747500D02*
D03*
X3365500Y25844501D02*
D03*
X13525500Y11747500D02*
D03*
X4381500Y5397500D02*
D03*
X20764500Y25844501D02*
D03*
X13525500Y5397500D02*
D03*
D18*
X18897600Y24218900D02*
D03*
Y24472900D02*
D03*
Y25488901D02*
D03*
Y25996899D02*
D03*
Y26758899D02*
D03*
Y27774899D02*
D03*
Y28028900D02*
D03*
Y27520901D02*
D03*
Y27266901D02*
D03*
Y27012900D02*
D03*
Y26504901D02*
D03*
Y26250900D02*
D03*
Y25742899D02*
D03*
Y25234900D02*
D03*
Y24980901D02*
D03*
Y24726900D02*
D03*
Y23964900D02*
D03*
Y23710899D02*
D03*
Y23456900D02*
D03*
X14578809Y24221587D02*
D03*
Y24475587D02*
D03*
Y25491586D02*
D03*
Y25999588D02*
D03*
Y26761588D02*
D03*
Y27777588D02*
D03*
Y28031586D02*
D03*
Y27523587D02*
D03*
Y27269586D02*
D03*
Y27015588D02*
D03*
Y26507587D02*
D03*
Y26253586D02*
D03*
Y25745587D02*
D03*
Y25237587D02*
D03*
Y24983588D02*
D03*
Y24729587D02*
D03*
Y23967587D02*
D03*
Y23713586D02*
D03*
Y23459587D02*
D03*
D19*
X18897600Y28282901D02*
D03*
X14578809Y28285587D02*
D03*
D20*
X14655800Y11823700D02*
D03*
X14909801D02*
D03*
X15163800D02*
D03*
X15417799D02*
D03*
X15671800D02*
D03*
X15925800D02*
D03*
X13855701Y14338300D02*
D03*
Y14592300D02*
D03*
Y14846300D02*
D03*
Y15100301D02*
D03*
Y15354300D02*
D03*
Y15608299D02*
D03*
X16725900Y15621001D02*
D03*
Y15367000D02*
D03*
Y15113000D02*
D03*
Y14859000D02*
D03*
Y14605000D02*
D03*
Y14350999D02*
D03*
X14617700Y17221201D02*
D03*
X14871700D02*
D03*
X15125700D02*
D03*
X15379700D02*
D03*
X15633701D02*
D03*
X15887700D02*
D03*
X16090900Y13595351D02*
D03*
Y13849350D02*
D03*
Y14103349D02*
D03*
Y14357350D02*
D03*
Y14611349D02*
D03*
Y14865350D02*
D03*
Y15119350D02*
D03*
Y15373351D02*
D03*
Y15627350D02*
D03*
Y15881351D02*
D03*
Y16135350D02*
D03*
Y16389349D02*
D03*
X14566901Y13595351D02*
D03*
Y13849350D02*
D03*
Y14103349D02*
D03*
Y14357350D02*
D03*
Y14611349D02*
D03*
Y14865350D02*
D03*
Y15119350D02*
D03*
Y15373351D02*
D03*
Y15627350D02*
D03*
Y15881351D02*
D03*
Y16135350D02*
D03*
Y16389349D02*
D03*
D21*
X12636500Y24098254D02*
D03*
Y23844255D02*
D03*
Y23590256D02*
D03*
Y23336259D02*
D03*
Y23082260D02*
D03*
Y22828259D02*
D03*
Y22574260D02*
D03*
Y22320261D02*
D03*
X11372505Y24098265D02*
D03*
Y23844266D02*
D03*
Y23590265D02*
D03*
Y23336266D02*
D03*
Y23082265D02*
D03*
Y22828265D02*
D03*
Y22574265D02*
D03*
Y22320265D02*
D03*
X11623502Y22320261D02*
D03*
X11877502D02*
D03*
D22*
X10744200Y24130000D02*
D03*
X10494198D02*
D03*
X12297598Y21031200D02*
D03*
X12547600D02*
D03*
X11535598D02*
D03*
X11285596D02*
D03*
X9385300D02*
D03*
X9635302D02*
D03*
X4838700Y21267801D02*
D03*
Y21517798D02*
D03*
X8216900Y23439496D02*
D03*
Y23689497D02*
D03*
D23*
X10244196Y24130000D02*
D03*
X12797602Y21031200D02*
D03*
X11035594D02*
D03*
X9885304D02*
D03*
D24*
X4838700Y21767799D02*
D03*
X8216900Y23939500D02*
D03*
D25*
X8267700Y22059900D02*
D03*
X6121400Y20218401D02*
D03*
X4483100Y23761700D02*
D03*
X8267700Y22567900D02*
D03*
X6629400Y20218401D02*
D03*
X4991100Y23761700D02*
D03*
D26*
X8267700Y21805901D02*
D03*
X6121400Y20472400D02*
D03*
X4483100Y24015700D02*
D03*
X8267700Y22821899D02*
D03*
X6629400Y20472400D02*
D03*
X4991100Y24015700D02*
D03*
D27*
X17703799Y17576801D02*
D03*
Y17322800D02*
D03*
Y17068800D02*
D03*
Y16814799D02*
D03*
X18465800D02*
D03*
Y17068800D02*
D03*
Y17322800D02*
D03*
Y17576801D02*
D03*
D28*
X9182100Y24117000D02*
D03*
X5385100Y21475700D02*
D03*
X5423200Y23647400D02*
D03*
D29*
X9182100Y21857001D02*
D03*
D30*
X7645100Y21475700D02*
D03*
X7683200Y23647400D02*
D03*
D31*
X13284200Y23827197D02*
D03*
D32*
Y24077200D02*
D03*
D33*
X15328900Y13722350D02*
D03*
Y16262350D02*
D03*
D34*
X10999299Y13924219D02*
D03*
X19278600Y23247350D02*
D03*
X19240500Y22999699D02*
D03*
X19621500Y27584399D02*
D03*
X14287500Y16751300D02*
D03*
X16116299Y16992599D02*
D03*
X21031200Y17119600D02*
D03*
X20942300Y18072099D02*
D03*
X21074945Y17691100D02*
D03*
X20421600Y17183099D02*
D03*
X20447000Y17703799D02*
D03*
X20510500Y18364200D02*
D03*
X11454391Y14133200D02*
D03*
X3606800Y23482300D02*
D03*
X5473700Y24866600D02*
D03*
X7467600Y24739600D02*
D03*
X7556500Y23914101D02*
D03*
X8445500Y23647400D02*
D03*
X7543800Y23088600D02*
D03*
X7950200Y22618700D02*
D03*
X9954150Y23853249D02*
D03*
X10464800Y23837900D02*
D03*
X9766300Y24003000D02*
D03*
X9804400Y23685500D02*
D03*
X11752925Y24376724D02*
D03*
X11527800Y23761700D02*
D03*
X11967200Y23837900D02*
D03*
X11747500Y23482300D02*
D03*
X8966200Y20828000D02*
D03*
X9690100Y20358099D02*
D03*
X12834541Y20703349D02*
D03*
X8282300Y20546700D02*
D03*
X8226862Y21472961D02*
D03*
X9129402Y20917694D02*
D03*
X11125020Y23863300D02*
D03*
X20662900Y23075900D02*
D03*
X13017500Y23495000D02*
D03*
X14124300Y20091400D02*
D03*
X16878300Y17145000D02*
D03*
X17932401Y17487900D02*
D03*
X14338300Y20091400D02*
D03*
X15824200Y18834100D02*
D03*
X14729344Y23412167D02*
D03*
X13595091Y19361407D02*
D03*
X19621500Y22580600D02*
D03*
X19913600Y22994899D02*
D03*
X14439900Y15544800D02*
D03*
X14312900Y15798801D02*
D03*
X11352259Y14631941D02*
D03*
X11341100Y12230100D02*
D03*
X11375390Y12065000D02*
D03*
X10693400Y14655800D02*
D03*
X10375900Y14109700D02*
D03*
X11693298Y14960600D02*
D03*
X11074400Y23266400D02*
D03*
X10947400Y22009100D02*
D03*
X17017999Y21729700D02*
D03*
X14077950Y19094450D02*
D03*
X10552265Y20739101D02*
D03*
X10236200Y22212300D02*
D03*
X10096500Y21259801D02*
D03*
X19951700Y21170900D02*
D03*
X20040601Y20624800D02*
D03*
X18846800Y17881599D02*
D03*
X20904201Y19659599D02*
D03*
X20396201Y20002499D02*
D03*
X5461000Y20307300D02*
D03*
X6121400Y13665199D02*
D03*
X5905500Y10071100D02*
D03*
X6819900Y8902700D02*
D03*
X6908800Y12877800D02*
D03*
X10236200Y22707600D02*
D03*
X8432800Y20675600D02*
D03*
X6858000Y13131799D02*
D03*
X7797800Y21259801D02*
D03*
X12382500Y20840700D02*
D03*
X7670800Y14681200D02*
D03*
X7950200Y22301199D02*
D03*
X12077700Y23672800D02*
D03*
X10579100Y23202901D02*
D03*
X9956800Y22555200D02*
D03*
X11772900Y26098499D02*
D03*
X20485100Y24193500D02*
D03*
X20059599Y24530051D02*
D03*
X8026400Y22834599D02*
D03*
X3609950Y20281900D02*
D03*
X3530600Y19088100D02*
D03*
X6464300Y20599400D02*
D03*
X12357100Y23317200D02*
D03*
X10375900Y25400000D02*
D03*
X10642600Y25120599D02*
D03*
X5740400Y12649200D02*
D03*
X4318000Y13258800D02*
D03*
X6743700Y10731500D02*
D03*
X7391400Y10858500D02*
D03*
X6057900Y12268200D02*
D03*
X5727700Y11938000D02*
D03*
X17170399Y14427200D02*
D03*
X16725900Y13716000D02*
D03*
%TF.MD5,90fc075136261c9f6b279ba161a2fff8*%
M02*
