%TF.GenerationSoftware,Altium Limited,Altium Designer,24.5.2 (23)*%
G04 Layer_Physical_Order=1*
G04 Layer_Color=255*
%FSLAX45Y45*%
%MOMM*%
%TF.SameCoordinates,FC967B71-F2ED-4EDF-93A0-1D4715993869*%
%TF.FilePolarity,Positive*%
%TF.FileFunction,Copper,L1,Top,Signal*%
%TF.Part,Single*%
G01*
G75*
%TA.AperFunction,Conductor*%
%ADD10C,0.50800*%
%TA.AperFunction,NonConductor*%
%ADD11C,0.25400*%
%TA.AperFunction,ComponentPad*%
%ADD12C,1.51999*%
%ADD13R,1.51999X1.64998*%
%ADD14C,1.15000*%
%ADD15R,1.15000X1.15000*%
%ADD16C,2.40000*%
%TA.AperFunction,WasherPad*%
%ADD17C,6.00000*%
%TA.AperFunction,ComponentPad*%
%ADD18C,1.52000*%
G04:AMPARAMS|DCode=19|XSize=1.52mm|YSize=1.52mm|CornerRadius=0.38mm|HoleSize=0mm|Usage=FLASHONLY|Rotation=270.000|XOffset=0mm|YOffset=0mm|HoleType=Round|Shape=RoundedRectangle|*
%AMROUNDEDRECTD19*
21,1,1.52000,0.76000,0,0,270.0*
21,1,0.76000,1.52000,0,0,270.0*
1,1,0.76000,-0.38000,-0.38000*
1,1,0.76000,-0.38000,0.38000*
1,1,0.76000,0.38000,0.38000*
1,1,0.76000,0.38000,-0.38000*
%
%ADD19ROUNDEDRECTD19*%
%ADD20C,1.52400*%
%ADD21C,1.80000*%
%ADD22C,1.50000*%
%ADD23R,1.50000X1.50000*%
%ADD24R,1.50000X1.50000*%
%ADD25R,1.40000X1.40000*%
%ADD26C,1.40000*%
%ADD27C,2.00000*%
%ADD28C,2.30000*%
%ADD29R,2.30000X2.30000*%
%ADD30R,2.30000X2.30000*%
%ADD31C,1.20000*%
%ADD32R,1.20000X1.20000*%
%ADD33C,2.54000*%
%TA.AperFunction,ViaPad*%
%ADD34C,1.27000*%
G36*
X20833435Y28540500D02*
X20812201Y28500500D01*
X20611241D01*
X20394501Y28283759D01*
Y27977240D01*
X20611241Y27760501D01*
X20917760D01*
X21134500Y27977240D01*
Y28216238D01*
X21171455Y28231546D01*
X21285201Y28117801D01*
Y11493500D01*
X20815300Y11023600D01*
X15659100D01*
X14401801Y9766300D01*
Y5359400D01*
X13220700Y4178300D01*
X2984500D01*
X2628900Y4533900D01*
X2629204Y16079469D01*
X2652053Y16110004D01*
X2669205Y16110005D01*
X2961348D01*
Y17570395D01*
X2693652D01*
X2664257Y17608330D01*
X2668613Y17621210D01*
X2952871D01*
Y18497589D01*
X2657552D01*
X2629268Y18525873D01*
X2629279Y18929784D01*
X2635125Y18967361D01*
X2669280Y18967361D01*
X2978275D01*
Y19539038D01*
X2669295D01*
X2629296Y19576624D01*
X2629308Y20043698D01*
X2641465Y20078662D01*
X2669309Y20078664D01*
X2921136D01*
Y20967737D01*
X2669333D01*
X2629334Y21002711D01*
X2629348Y21534822D01*
X2654164Y21564542D01*
X2669348Y21564542D01*
X2933836D01*
Y22326659D01*
X2669369D01*
X2629369Y22356387D01*
X2629385Y22970981D01*
X2641465Y23005978D01*
X2669386Y23005978D01*
X2921136D01*
Y23679222D01*
X2669404D01*
X2629405Y23714227D01*
X2629413Y24022531D01*
X2635129Y24060164D01*
X2669414Y24060164D01*
X3003671D01*
Y25266637D01*
X2669446D01*
X2629447Y25304282D01*
X2629457Y25690759D01*
X2629459Y25730759D01*
X2657742Y25759042D01*
X3302000Y26403299D01*
X11734800D01*
Y28244800D01*
X12014200Y28524200D01*
Y28549600D01*
X20827280D01*
X20833435Y28540500D01*
D02*
G37*
%LPC*%
G36*
X18935600Y28444510D02*
X18910300D01*
Y28295599D01*
X19059209D01*
Y28320901D01*
X19023006Y28408304D01*
X18935600Y28444510D01*
D02*
G37*
G36*
X18884900D02*
X18859599D01*
X18772195Y28408304D01*
X18735991Y28320901D01*
Y28295599D01*
X18884900D01*
Y28444510D01*
D02*
G37*
G36*
X20132001Y28269699D02*
X19974599D01*
X19863300Y28158401D01*
Y28000998D01*
X19974599Y27889700D01*
X20132001D01*
X20243300Y28000998D01*
Y28158401D01*
X20132001Y28269699D01*
D02*
G37*
G36*
X12346901Y28261700D02*
X12189499D01*
X12078200Y28150400D01*
Y27992999D01*
X12189499Y27881699D01*
X12346901D01*
X12458200Y27992999D01*
Y28150400D01*
X12346901Y28261700D01*
D02*
G37*
G36*
X19679366Y27724100D02*
X19634200D01*
Y27597101D01*
X19761200D01*
Y27642267D01*
X19679366Y27724100D01*
D02*
G37*
G36*
X19608800D02*
X19563634D01*
X19481799Y27642267D01*
Y27597101D01*
X19608800D01*
Y27724100D01*
D02*
G37*
G36*
X19761200Y27571701D02*
X19634200D01*
Y27444699D01*
X19679366D01*
X19761200Y27526535D01*
Y27571701D01*
D02*
G37*
G36*
X19608800D02*
X19481799D01*
Y27526535D01*
X19563634Y27444699D01*
X19608800D01*
Y27571701D01*
D02*
G37*
G36*
X20132001Y27769702D02*
X19974599D01*
X19863300Y27658401D01*
Y27501001D01*
X19974599Y27389700D01*
X20132001D01*
X20243300Y27501001D01*
Y27658401D01*
X20132001Y27769702D01*
D02*
G37*
G36*
X12346901Y27761700D02*
X12189499D01*
X12078200Y27650400D01*
Y27492999D01*
X12189499Y27381699D01*
X12346901D01*
X12458200Y27492999D01*
Y27650400D01*
X12346901Y27761700D01*
D02*
G37*
G36*
X20134569Y27145599D02*
X20066000D01*
Y26962100D01*
X20249500D01*
Y27030670D01*
X20134569Y27145599D01*
D02*
G37*
G36*
X20040601D02*
X19972031D01*
X19857100Y27030670D01*
Y26962100D01*
X20040601D01*
Y27145599D01*
D02*
G37*
G36*
X12349469Y27137598D02*
X12280899D01*
Y26954099D01*
X12464400D01*
Y27022668D01*
X12349469Y27137598D01*
D02*
G37*
G36*
X12255499D02*
X12186931D01*
X12072000Y27022668D01*
Y26954099D01*
X12255499D01*
Y27137598D01*
D02*
G37*
G36*
X20249500Y26936700D02*
X20066000D01*
Y26753201D01*
X20134569D01*
X20249500Y26868130D01*
Y26936700D01*
D02*
G37*
G36*
X20040601D02*
X19857100D01*
Y26868130D01*
X19972031Y26753201D01*
X20040601D01*
Y26936700D01*
D02*
G37*
G36*
X12464400Y26928699D02*
X12280899D01*
Y26745200D01*
X12349469D01*
X12464400Y26860129D01*
Y26928699D01*
D02*
G37*
G36*
X12255499D02*
X12072000D01*
Y26860129D01*
X12186931Y26745200D01*
X12255499D01*
Y26928699D01*
D02*
G37*
G36*
X20132001Y26639401D02*
X19974599D01*
X19863300Y26528101D01*
Y26370700D01*
X19974599Y26259402D01*
X20132001D01*
X20243300Y26370700D01*
Y26528101D01*
X20132001Y26639401D01*
D02*
G37*
G36*
X12346901Y26631400D02*
X12189499D01*
X12078200Y26520102D01*
Y26362698D01*
X12189499Y26251401D01*
X12346901D01*
X12458200Y26362698D01*
Y26520102D01*
X12346901Y26631400D01*
D02*
G37*
G36*
X14616808Y28440485D02*
X14540808D01*
X14458148Y28406247D01*
X14423909Y28323587D01*
Y28247586D01*
X14458148Y28164929D01*
X14458495Y28164783D01*
X14466298Y28125552D01*
X14432808Y28092062D01*
Y27971112D01*
X14499332Y27904587D01*
X14432808Y27838062D01*
Y27717111D01*
X14499332Y27650586D01*
X14432808Y27584061D01*
Y27463113D01*
X14499332Y27396588D01*
X14432808Y27330063D01*
Y27209113D01*
X14499332Y27142587D01*
X14432808Y27076062D01*
Y26955112D01*
X14499332Y26888586D01*
X14432808Y26822061D01*
Y26701111D01*
X14499332Y26634586D01*
X14432808Y26568063D01*
Y26447113D01*
X14499332Y26380588D01*
X14432808Y26314062D01*
Y26193112D01*
X14499332Y26126587D01*
X14432808Y26060062D01*
Y25939111D01*
X14499332Y25872586D01*
X14432808Y25806061D01*
Y25685114D01*
X14499332Y25618588D01*
X14432808Y25552061D01*
Y25431113D01*
X14499332Y25364587D01*
X14432808Y25298062D01*
Y25177112D01*
X14499332Y25110587D01*
X14432808Y25044061D01*
Y24923112D01*
X14499332Y24856587D01*
X14432808Y24790062D01*
Y24669112D01*
X14499332Y24602586D01*
X14432808Y24536063D01*
Y24415112D01*
X14499332Y24348587D01*
X14432808Y24282062D01*
Y24161111D01*
X14499332Y24094588D01*
X14432808Y24028062D01*
Y23907112D01*
X14499332Y23840587D01*
X14432808Y23774062D01*
Y23653111D01*
X14494948Y23590971D01*
X14444217Y23540240D01*
X14416441Y23568016D01*
X14343425Y23598260D01*
X14083868D01*
Y25107899D01*
X14061676Y25161476D01*
X14008099Y25183669D01*
X11690350D01*
X11636774Y25161476D01*
X11614582Y25107899D01*
Y24907123D01*
X11577627Y24891817D01*
X11372598Y25096844D01*
X11387905Y25133800D01*
X11420512D01*
X11531811Y25245099D01*
Y25402501D01*
X11420512Y25513800D01*
X11263111D01*
X11161575Y25412263D01*
X10991623Y25582216D01*
X10918607Y25612460D01*
X10472400D01*
X10399384Y25582216D01*
X10350668Y25533501D01*
X10320602D01*
X10255814Y25468712D01*
X10206681Y25465633D01*
X10158513Y25513800D01*
X10157089Y25517239D01*
X10635089Y25995239D01*
X11687363D01*
X11717602Y25964999D01*
X11828198D01*
X11906400Y26043201D01*
Y26153799D01*
X11828198Y26232001D01*
X11717602D01*
X11687363Y26201761D01*
X10592318D01*
X10519302Y26171515D01*
X9821396Y25473611D01*
X9800877Y25424074D01*
X9754846Y25417468D01*
X9658514Y25513800D01*
X9501113D01*
X9389813Y25402501D01*
Y25245099D01*
X9501113Y25133800D01*
X9658514D01*
X9751152Y25226437D01*
X9791152Y25209869D01*
Y24358736D01*
X9754197Y24343427D01*
X9727208Y24370416D01*
X9654192Y24400661D01*
X8332311D01*
X8259295Y24370416D01*
X7906239Y24017360D01*
X7642037D01*
X7611798Y24047600D01*
X7501202D01*
X7423000Y23969398D01*
Y23858801D01*
X7498200Y23783601D01*
Y23462399D01*
X7868200D01*
Y23810840D01*
X7949011D01*
X8022027Y23841084D01*
X8034945Y23854002D01*
X8071900Y23838695D01*
Y23794501D01*
X8071900D01*
X8085063Y23762721D01*
X8071900Y23749559D01*
Y23629437D01*
X8136840Y23564497D01*
X8071900Y23499557D01*
Y23395061D01*
X7747000D01*
X7673984Y23364816D01*
X7531268Y23222099D01*
X7488502D01*
X7410300Y23143898D01*
Y23033302D01*
X7488502Y22955099D01*
X7488586Y22954898D01*
X7421100Y22887411D01*
Y22781789D01*
X7495788Y22707100D01*
X7601413D01*
X7676101Y22781789D01*
Y22887411D01*
X7603755Y22959756D01*
X7677300Y23033302D01*
Y23076068D01*
X7789772Y23188541D01*
X8293930D01*
X8366946Y23218784D01*
X8432094Y23283932D01*
X8462338Y23356947D01*
Y23497586D01*
X8478652Y23513901D01*
X8500798D01*
X8579000Y23592102D01*
Y23702698D01*
X8500798Y23780901D01*
X8396267D01*
X8386223Y23784875D01*
X8361900Y23809166D01*
Y24084500D01*
X8317705D01*
X8302398Y24121455D01*
X8375083Y24194141D01*
X8996889D01*
X8997100Y24193629D01*
Y24040372D01*
X9105470Y23932001D01*
X9258730D01*
X9367100Y24040372D01*
Y24193629D01*
X9367311Y24194141D01*
X9611420D01*
X9685647Y24119913D01*
X9626600Y24060866D01*
Y24015700D01*
X9766300D01*
Y24003000D01*
X9779000D01*
Y23863300D01*
X9820650D01*
Y23819000D01*
X9749102D01*
X9670900Y23740797D01*
Y23630202D01*
X9701140Y23599963D01*
Y22739572D01*
X9670828Y22709261D01*
X8414081D01*
X8398773Y22746216D01*
X8413900Y22761342D01*
Y22809200D01*
X8267700D01*
Y22821899D01*
X8255000D01*
Y22968100D01*
X8207142D01*
X8148804Y22909763D01*
X8084266Y22974300D01*
X8039100D01*
Y22834599D01*
X8026400D01*
Y22821899D01*
X7886700D01*
Y22776733D01*
X7876185Y22733482D01*
X7816700Y22673997D01*
Y22563402D01*
X7834957Y22545146D01*
X7827153Y22505914D01*
X7826192Y22505516D01*
X7748284Y22427608D01*
X7718040Y22354591D01*
Y22147966D01*
X7681084Y22132658D01*
X7651599Y22162144D01*
X7666906Y22199100D01*
X7676101D01*
Y22454100D01*
X7421100D01*
Y22444907D01*
X7384145Y22429597D01*
X7303188Y22510555D01*
Y22720761D01*
X7272944Y22793777D01*
X7008860Y23057861D01*
X6935844Y23088104D01*
X6915627D01*
X5576960Y24426772D01*
Y24781062D01*
X5607200Y24811302D01*
Y24892239D01*
X6262922D01*
X6488578Y24666583D01*
X6561594Y24636340D01*
X7382063D01*
X7412302Y24606100D01*
X7522898D01*
X7601100Y24684302D01*
Y24794897D01*
X7522898Y24873100D01*
X7412302D01*
X7382063Y24842860D01*
X6604366D01*
X6378710Y25068517D01*
X6305694Y25098759D01*
X6157425D01*
X6141642Y25138760D01*
X6245413Y25242531D01*
Y25311099D01*
X6049213D01*
X5853013D01*
Y25242531D01*
X5956785Y25138760D01*
X5941002Y25098759D01*
X5527828D01*
X5511260Y25138760D01*
X5604899Y25232399D01*
Y25389801D01*
X5493600Y25501100D01*
X5336198D01*
X5224899Y25389801D01*
Y25232399D01*
X5318538Y25138760D01*
X5301970Y25098759D01*
X5170800D01*
X5097784Y25068517D01*
X3645068Y23615800D01*
X3551502D01*
X3520692Y23584990D01*
X3470881Y23587788D01*
X3374351Y23684319D01*
X3216949D01*
X3105650Y23573019D01*
Y23415619D01*
X3216949Y23304318D01*
X3374351D01*
X3485167Y23415137D01*
X3551502Y23348801D01*
X3662098D01*
X3716900Y23403603D01*
X3730616Y23409283D01*
X4306145Y23984813D01*
X4343100Y23969505D01*
Y23957710D01*
X4362155Y23938655D01*
X4346848Y23901700D01*
X4343100D01*
Y23621700D01*
X4623100D01*
Y23901700D01*
X4619352D01*
X4604045Y23938655D01*
X4623100Y23957710D01*
Y24073689D01*
X4541090Y24155701D01*
X4529295D01*
X4513987Y24192654D01*
X5213572Y24892239D01*
X5340200D01*
Y24811302D01*
X5370440Y24781062D01*
Y24384000D01*
X5400684Y24310983D01*
X6751099Y22960568D01*
Y22707100D01*
X7006100D01*
Y22716293D01*
X7043055Y22731602D01*
X7096668Y22677989D01*
Y22467783D01*
X7126912Y22394768D01*
X7820979Y21700700D01*
X7804410Y21660701D01*
X7803528Y21660699D01*
X7803528Y21660699D01*
X7800744Y21660699D01*
X7460100D01*
Y21290700D01*
X7664300D01*
Y21204501D01*
X7719742Y21149060D01*
X7703173Y21109061D01*
X4941589D01*
X4925020Y21149060D01*
X4983700Y21207739D01*
Y21327863D01*
X4918762Y21392799D01*
X4983700Y21457738D01*
Y21577859D01*
X4970537Y21591022D01*
X4983700Y21622800D01*
X4983700D01*
Y21912801D01*
X4693700D01*
Y21622800D01*
X4693700D01*
X4706863Y21591022D01*
X4693700Y21577859D01*
Y21457738D01*
X4758638Y21392799D01*
X4693700Y21327863D01*
Y21207739D01*
X4752380Y21149060D01*
X4735811Y21109061D01*
X3911600D01*
X3838584Y21078816D01*
X3522605Y20762837D01*
X3485650Y20778145D01*
Y20815749D01*
X3374351Y20927048D01*
X3216949D01*
X3105650Y20815749D01*
Y20658347D01*
X3216949Y20547047D01*
X3374350D01*
X3377789Y20545622D01*
Y20433609D01*
X3376918Y20433247D01*
X3308349D01*
Y20237050D01*
Y20040849D01*
X3376918D01*
X3377789Y20040488D01*
Y19866760D01*
X3408034Y19793744D01*
X3427340Y19774438D01*
Y19678191D01*
X3390384Y19662883D01*
X3383269Y19670000D01*
X3314699D01*
Y19473798D01*
Y19277599D01*
X3383269D01*
X3390384Y19284715D01*
X3427340Y19269408D01*
Y19173729D01*
X3398990Y19145509D01*
X3380701Y19163800D01*
X3223299D01*
X3112000Y19052501D01*
Y18895099D01*
X3223299Y18783800D01*
X3380701D01*
X3492000Y18895099D01*
Y18954601D01*
X3585898D01*
X3664100Y19032802D01*
Y19143398D01*
X3633860Y19173637D01*
Y19817210D01*
X3603616Y19890227D01*
X3584310Y19909532D01*
Y20142200D01*
X3597250D01*
Y20281900D01*
Y20421600D01*
X3584310D01*
Y20532478D01*
X3954372Y20902541D01*
X8824729D01*
X8832700Y20883298D01*
Y20772702D01*
X8910902Y20694501D01*
X8953668D01*
X9317045Y20331123D01*
X9301738Y20294168D01*
X8737600D01*
X8684024Y20271976D01*
X8661832Y20218401D01*
Y19900900D01*
X8684024Y19847324D01*
X8737600Y19825133D01*
X9196548D01*
X9211856Y19788177D01*
X8573016Y19149336D01*
X8536060Y19164644D01*
Y20590063D01*
X8566300Y20620302D01*
Y20730898D01*
X8488098Y20809100D01*
X8377502D01*
X8299300Y20730898D01*
Y20686400D01*
X8295000D01*
Y20546700D01*
Y20407001D01*
X8329540D01*
Y14749371D01*
X6845468Y13265300D01*
X6802702D01*
X6756603Y13219200D01*
X6703753Y13220741D01*
X6673573Y13250922D01*
X6931016Y13508363D01*
X6961260Y13581380D01*
Y13825629D01*
X7683332Y14547701D01*
X7726098D01*
X7804300Y14625902D01*
Y14736497D01*
X7726098Y14814700D01*
X7615502D01*
X7537300Y14736497D01*
Y14693732D01*
X6784984Y13941415D01*
X6764599Y13892204D01*
X6724599Y13900160D01*
Y13961896D01*
X6658074Y14028419D01*
X6724599Y14094945D01*
Y14215895D01*
X6658074Y14282420D01*
X6724599Y14348946D01*
Y14469894D01*
X6658074Y14536420D01*
X6724599Y14602945D01*
Y14723895D01*
X6658074Y14790421D01*
X6724599Y14856944D01*
Y14977895D01*
X6658074Y15044420D01*
X6724599Y15110945D01*
Y15231895D01*
X6658074Y15298421D01*
X6724599Y15364944D01*
Y15485895D01*
X6639075Y15571419D01*
X6518125D01*
X6507555Y15560849D01*
X6470599Y15576157D01*
Y15577919D01*
X6178601D01*
Y15272922D01*
X6178600D01*
X6190617Y15243912D01*
X6178601Y15231895D01*
Y15110945D01*
X6245126Y15044420D01*
X6178601Y14977895D01*
Y14856944D01*
X6245126Y14790421D01*
X6178601Y14723895D01*
Y14602945D01*
X6245126Y14536420D01*
X6178601Y14469894D01*
Y14348946D01*
X6240742Y14286804D01*
X6172401Y14218463D01*
Y14168120D01*
X6324600D01*
Y14142720D01*
X6172401D01*
Y14092377D01*
X6236358Y14028419D01*
X6172401Y13964462D01*
Y13914120D01*
X6324600D01*
Y13888721D01*
X6172401D01*
Y13838377D01*
X6155509Y13798700D01*
X6066102D01*
X5987900Y13720499D01*
Y13609901D01*
X6066102Y13531700D01*
X6121568D01*
X6200784Y13452484D01*
X6273800Y13422240D01*
X6281828D01*
X6375193Y13328876D01*
X6359886Y13291919D01*
X6178601D01*
Y12986922D01*
X6178600D01*
X6190617Y12957912D01*
X6178601Y12945895D01*
Y12824945D01*
X6245126Y12758420D01*
X6178601Y12691895D01*
Y12570945D01*
X6245126Y12504420D01*
X6178601Y12437895D01*
Y12403415D01*
X6154828Y12379643D01*
X6135255D01*
X6113198Y12401700D01*
X6002602D01*
X5924400Y12323498D01*
Y12280732D01*
X5715168Y12071500D01*
X5672402D01*
X5594200Y11993298D01*
Y11882702D01*
X5672402Y11804500D01*
X5782998D01*
X5861200Y11882702D01*
Y11925468D01*
X6070432Y12134700D01*
X6113198D01*
X6138601Y12160103D01*
X6178601Y12143534D01*
Y12062945D01*
X6245126Y11996420D01*
X6178601Y11929895D01*
Y11808945D01*
X6245126Y11742420D01*
X6178601Y11675895D01*
Y11554945D01*
X6245126Y11488420D01*
X6178601Y11421895D01*
Y11300945D01*
X6245126Y11234420D01*
X6178601Y11167895D01*
Y11046945D01*
X6245126Y10980420D01*
X6178601Y10913895D01*
Y10792945D01*
X6245126Y10726420D01*
X6178601Y10659895D01*
Y10538945D01*
X6240742Y10476804D01*
X6172401Y10408463D01*
Y10358120D01*
X6324600D01*
Y10332720D01*
X6172401D01*
Y10282377D01*
X6240742Y10214036D01*
X6178601Y10151895D01*
Y10030945D01*
X6245126Y9964420D01*
X6178601Y9897895D01*
Y9776945D01*
X6245126Y9710420D01*
X6178601Y9643895D01*
Y9522945D01*
X6264125Y9437421D01*
X6385075D01*
X6451600Y9503946D01*
X6518125Y9437421D01*
X6639075D01*
X6724599Y9522945D01*
Y9643895D01*
X6658074Y9710420D01*
X6724599Y9776945D01*
Y9897895D01*
X6658074Y9964420D01*
X6724599Y10030945D01*
Y10151895D01*
X6658074Y10218420D01*
X6724599Y10284945D01*
Y10405895D01*
X6658074Y10472420D01*
X6724599Y10538945D01*
Y10598000D01*
X6798998D01*
X6816537Y10615540D01*
X7251700D01*
X7324716Y10645784D01*
X7403932Y10725000D01*
X7446698D01*
X7524900Y10803202D01*
Y10913798D01*
X7446698Y10992000D01*
X7336102D01*
X7257900Y10913798D01*
Y10871032D01*
X7208928Y10822060D01*
X6841937D01*
X6798998Y10865000D01*
X6724599D01*
Y10913895D01*
X6658074Y10980420D01*
X6724599Y11046945D01*
Y11167895D01*
X6658074Y11234420D01*
X6724599Y11300945D01*
Y11421895D01*
X6658074Y11488420D01*
X6724599Y11554945D01*
Y11675895D01*
X6662458Y11738036D01*
X6730799Y11806377D01*
Y11856720D01*
X6578600D01*
Y11882120D01*
X6730799D01*
Y11932463D01*
X6662458Y12000804D01*
X6724599Y12062945D01*
Y12183895D01*
X6658074Y12250420D01*
X6724599Y12316945D01*
Y12437895D01*
X6658074Y12504420D01*
X6724599Y12570945D01*
Y12691895D01*
X6658074Y12758420D01*
X6724599Y12824945D01*
Y12945895D01*
X6658074Y13012421D01*
X6695529Y13049875D01*
X6751411Y13049591D01*
X6802702Y12998300D01*
X6813774Y12971571D01*
X6775300Y12933098D01*
Y12822502D01*
X6853502Y12744300D01*
X6964098D01*
X7042300Y12822502D01*
Y12865268D01*
X8596616Y14419585D01*
X8626860Y14492599D01*
Y18911118D01*
X9424483Y19708740D01*
X11120842D01*
X11193858Y19738985D01*
X11201634Y19746761D01*
X11226704Y19758755D01*
X11259440Y19735814D01*
Y16456697D01*
X11222485Y16441389D01*
X11211075Y16452798D01*
X11090125D01*
X11079555Y16442229D01*
X11042599Y16457536D01*
Y16459299D01*
X10750601D01*
Y16154301D01*
X10750600D01*
X10762617Y16125291D01*
X10750601Y16113275D01*
Y15992325D01*
X10817126Y15925800D01*
X10750601Y15859274D01*
Y15738326D01*
X10817126Y15671800D01*
X10750601Y15605275D01*
Y15484325D01*
X10817126Y15417799D01*
X10750601Y15351276D01*
Y15230325D01*
X10817126Y15163800D01*
X10750601Y15097275D01*
Y14976324D01*
X10817126Y14909801D01*
X10750601Y14843275D01*
Y14790089D01*
X10748697Y14789301D01*
X10638102D01*
X10559900Y14711098D01*
Y14668332D01*
X10302884Y14411316D01*
X10272640Y14338300D01*
Y14195238D01*
X10242400Y14164998D01*
Y14054402D01*
X10320602Y13976199D01*
X10431198D01*
X10509400Y14054402D01*
Y14164998D01*
X10479160Y14195238D01*
Y14295528D01*
X10705932Y14522301D01*
X10748697D01*
X10750601Y14521510D01*
Y14468324D01*
X10817126Y14401801D01*
X10750601Y14335275D01*
Y14214325D01*
X10817126Y14147800D01*
X10750601Y14081274D01*
Y13960326D01*
X10836125Y13874802D01*
X10865798D01*
Y13868921D01*
X10897845Y13836874D01*
X10882538Y13799919D01*
X10750601D01*
Y13494920D01*
X10750600D01*
X10762617Y13465910D01*
X10750601Y13453896D01*
Y13332945D01*
X10817126Y13266420D01*
X10750601Y13199895D01*
Y13078944D01*
X10817126Y13012421D01*
X10750601Y12945895D01*
Y12824945D01*
X10817126Y12758420D01*
X10750601Y12691895D01*
Y12570945D01*
X10817126Y12504420D01*
X10750601Y12437895D01*
Y12316945D01*
X10817126Y12250420D01*
X10750601Y12183895D01*
Y12062945D01*
X10817126Y11996420D01*
X10750601Y11929895D01*
Y11808945D01*
X10817126Y11742420D01*
X10750601Y11675895D01*
Y11554945D01*
X10817126Y11488420D01*
X10750601Y11421895D01*
Y11300945D01*
X10817126Y11234420D01*
X10750601Y11167895D01*
Y11046945D01*
X10817126Y10980420D01*
X10750601Y10913895D01*
Y10792945D01*
X10817126Y10726420D01*
X10750601Y10659895D01*
Y10538945D01*
X10817126Y10472420D01*
X10750601Y10405895D01*
Y10284945D01*
X10817126Y10218420D01*
X10750601Y10151895D01*
Y10030945D01*
X10817126Y9964420D01*
X10750601Y9897895D01*
Y9776945D01*
X10817126Y9710420D01*
X10750601Y9643895D01*
Y9522945D01*
X10836125Y9437421D01*
X10957075D01*
X11023600Y9503946D01*
X11090125Y9437421D01*
X11211075D01*
X11296599Y9522945D01*
Y9643895D01*
X11230074Y9710420D01*
X11296599Y9776945D01*
Y9897895D01*
X11230074Y9964420D01*
X11296599Y10030945D01*
Y10151895D01*
X11230074Y10218420D01*
X11296599Y10284945D01*
Y10405895D01*
X11230074Y10472420D01*
X11296599Y10538945D01*
Y10659895D01*
X11230074Y10726420D01*
X11296599Y10792945D01*
Y10913895D01*
X11230074Y10980420D01*
X11296599Y11046945D01*
Y11167895D01*
X11230074Y11234420D01*
X11296599Y11300945D01*
Y11421895D01*
X11230074Y11488420D01*
X11296599Y11554945D01*
Y11675895D01*
X11230074Y11742420D01*
X11296599Y11808945D01*
Y11901231D01*
X11319575Y11930832D01*
X11335935Y11931500D01*
X11430688D01*
X11508890Y12009702D01*
Y12052468D01*
X12606625Y13150203D01*
X13227937D01*
X13300954Y13180447D01*
X14418294Y14297787D01*
X14420700Y14296793D01*
X14487141Y14230350D01*
X14420700Y14163908D01*
Y14042792D01*
X14487141Y13976350D01*
X14420700Y13909908D01*
Y13788792D01*
X14487141Y13722350D01*
X14420700Y13655908D01*
Y13534792D01*
X14506342Y13449150D01*
X14627458D01*
X14713100Y13534792D01*
Y13655908D01*
X14646658Y13722350D01*
X14713100Y13788792D01*
Y13909908D01*
X14646658Y13976350D01*
X14713100Y14042792D01*
Y14163908D01*
X14646658Y14230350D01*
X14713100Y14296793D01*
Y14417908D01*
X14651042Y14479967D01*
X14719299Y14548224D01*
Y14598650D01*
X14566901D01*
Y14624049D01*
X14719299D01*
Y14674477D01*
X14655426Y14738350D01*
X14719299Y14802225D01*
Y14852650D01*
X14566901D01*
Y14878050D01*
X14719299D01*
Y14928476D01*
X14655426Y14992349D01*
X14719299Y15056224D01*
Y15106650D01*
X14566901D01*
Y15132050D01*
X14719299D01*
Y15182475D01*
X14651042Y15250734D01*
X14713100Y15312791D01*
Y15433908D01*
X14646658Y15500349D01*
X14713100Y15566792D01*
Y15687907D01*
X14646658Y15754350D01*
X14713100Y15820792D01*
Y15941908D01*
X14651042Y16003966D01*
X14719299Y16072224D01*
Y16122650D01*
X14414500D01*
Y16072224D01*
X14482758Y16003966D01*
X14420700Y15941908D01*
Y15932060D01*
X14383745Y15916753D01*
X14368198Y15932300D01*
X14287260D01*
Y16163930D01*
X14436412Y16313080D01*
X14482758Y16266734D01*
X14414500Y16198476D01*
Y16148050D01*
X14719299D01*
Y16198476D01*
X14651042Y16266734D01*
X14713100Y16328792D01*
Y16449908D01*
X14643170Y16519838D01*
X14680571Y16557240D01*
X15912611D01*
X15985628Y16587485D01*
X16033482Y16635339D01*
X17030701D01*
X17103716Y16665584D01*
X17496844Y17058713D01*
X17533800Y17043405D01*
Y16998384D01*
X17590384Y16941800D01*
X17533800Y16885216D01*
Y16744383D01*
X17633385Y16644800D01*
X17774216D01*
X17873801Y16744383D01*
Y16885216D01*
X17817216Y16941800D01*
X17873801Y16998384D01*
Y17139217D01*
X17821600Y17191415D01*
X17880000Y17249815D01*
Y17310100D01*
X17703799D01*
Y17335500D01*
X17880000D01*
Y17348199D01*
X17919701D01*
Y17487900D01*
X17932401D01*
Y17500600D01*
X18072099D01*
Y17545766D01*
X17990266Y17627600D01*
X17983011D01*
X17975053Y17667599D01*
X17978877Y17669183D01*
X19865247Y19555553D01*
X19868684Y19554128D01*
X19979984Y19442828D01*
X20137386D01*
X20248685Y19554128D01*
Y19711530D01*
X20137386Y19822829D01*
X20017715D01*
Y20455882D01*
X20053133Y20491299D01*
X20095898D01*
X20174100Y20569502D01*
Y20680098D01*
X20139377Y20714819D01*
X20248685Y20824129D01*
Y20981529D01*
X20137386Y21092828D01*
X20094633D01*
X20085201Y21115604D01*
Y21212828D01*
X20137386D01*
X20248685Y21324127D01*
Y21481528D01*
X20137386Y21592827D01*
X19979984D01*
X19868684Y21481528D01*
Y21324127D01*
X19887482Y21305328D01*
X19862083Y21274159D01*
X17619572D01*
X17151500Y21742232D01*
Y21784998D01*
X17073299Y21863200D01*
X16962701D01*
X16884500Y21784998D01*
Y21674402D01*
X16962701Y21596201D01*
X17005469D01*
X17503784Y21097884D01*
X17576801Y21067641D01*
X19866164D01*
X19896402Y21037399D01*
X19904648Y21017493D01*
X19868684Y20981529D01*
Y20824129D01*
X19959908Y20732906D01*
X19907100Y20680098D01*
Y20637332D01*
X19841438Y20571671D01*
X19811194Y20498654D01*
Y20447501D01*
X19590799D01*
Y20192500D01*
X19811194D01*
Y19793564D01*
X17863091Y17845461D01*
X17635289D01*
X17562273Y17815216D01*
X17465384Y17718327D01*
X17435139Y17645311D01*
Y17289072D01*
X16987927Y16841859D01*
X16210927D01*
X16194357Y16881860D01*
X16249800Y16937302D01*
Y17047897D01*
X16171597Y17126100D01*
X16061002D01*
X15982800Y17047897D01*
Y17005132D01*
X15832228Y16854559D01*
X14373038D01*
X14342798Y16884801D01*
X14232202D01*
X14153999Y16806598D01*
Y16696002D01*
X14232202Y16617799D01*
X14342798D01*
X14373038Y16648039D01*
X14427045D01*
X14442351Y16611084D01*
X14110983Y16279716D01*
X14080740Y16206702D01*
Y14509120D01*
X13986189Y14414569D01*
X13935458Y14465300D01*
X14001900Y14531741D01*
Y14652858D01*
X13935458Y14719299D01*
X14001900Y14785742D01*
Y14906857D01*
X13935458Y14973300D01*
X14001900Y15039742D01*
Y15160858D01*
X13939842Y15222916D01*
X14008099Y15291174D01*
Y15341600D01*
X13855701D01*
X13703300D01*
Y15291174D01*
X13771558Y15222916D01*
X13709500Y15160858D01*
Y15039742D01*
X13775941Y14973300D01*
X13709500Y14906857D01*
Y14785742D01*
X13775941Y14719299D01*
X13709500Y14652858D01*
Y14531741D01*
X13775941Y14465300D01*
X13709500Y14398859D01*
Y14299960D01*
X12389072D01*
X11805264Y14883768D01*
X11826798Y14905302D01*
Y15015898D01*
X11748596Y15094099D01*
X11667658D01*
Y19839111D01*
X11683775Y19863232D01*
X14020799D01*
X14074376Y19885423D01*
X14089987Y19923112D01*
X14130650Y19935284D01*
X14134840Y19934828D01*
X16775040Y17294627D01*
Y17230537D01*
X16744800Y17200298D01*
Y17089702D01*
X16823003Y17011501D01*
X16933598D01*
X17011800Y17089702D01*
Y17200298D01*
X16981560Y17230537D01*
Y17337399D01*
X16951315Y17410416D01*
X15667848Y18693884D01*
X15683154Y18730840D01*
X15738663D01*
X15768903Y18700600D01*
X15879498D01*
X15957700Y18778802D01*
Y18889398D01*
X15879498Y18967599D01*
X15768903D01*
X15738663Y18937360D01*
X15638371D01*
X14471800Y20103932D01*
Y20146698D01*
X14393597Y20224899D01*
X14283002D01*
X14231300Y20173198D01*
X14179597Y20224899D01*
X14096568D01*
Y23101300D01*
X14074376Y23154877D01*
X14020799Y23177068D01*
X13703300D01*
X13649724Y23154877D01*
X13627531Y23101300D01*
Y20281468D01*
X11738573D01*
X11723266Y20318423D01*
X12105918Y20701076D01*
X12136162Y20774091D01*
Y20931006D01*
X12176162Y20947575D01*
X12237537Y20886200D01*
X12249000D01*
Y20785402D01*
X12327202Y20707201D01*
X12437798D01*
X12468037Y20737440D01*
X12633800D01*
X12701042Y20670198D01*
Y20648051D01*
X12779244Y20569850D01*
X12889839D01*
X12968042Y20648051D01*
Y20758647D01*
X12889839Y20836850D01*
X12852222D01*
X12845851Y20846201D01*
X12866998Y20886200D01*
X12942603D01*
Y21176199D01*
X12652602D01*
Y21176199D01*
X12620824Y21163037D01*
X12607661Y21176199D01*
X12487539D01*
X12422599Y21111259D01*
X12357659Y21176199D01*
X12237537D01*
X12176162Y21114825D01*
X12136162Y21131393D01*
Y22384628D01*
X12105918Y22457645D01*
X11631165Y22932397D01*
Y23357574D01*
X11668120Y23372882D01*
X11692202Y23348801D01*
X11802798D01*
X11833037Y23379041D01*
X12111128D01*
X12223600Y23266568D01*
Y23261902D01*
X12301802Y23183701D01*
X12338124D01*
X12357100Y23175841D01*
X12376076Y23183701D01*
X12412398D01*
X12487592Y23258894D01*
X12537226Y23209261D01*
X12476500Y23148534D01*
Y23015987D01*
X12537226Y22955260D01*
X12476500Y22894534D01*
Y22761986D01*
X12532842Y22705644D01*
X12470300Y22643102D01*
Y22586960D01*
X12802699D01*
Y22643102D01*
X12740158Y22705644D01*
X12796500Y22761986D01*
Y22894534D01*
X12735774Y22955260D01*
X12796500Y23015987D01*
Y23148534D01*
X12735774Y23209261D01*
X12796500Y23269986D01*
Y23402534D01*
X12735777Y23463258D01*
X12796500Y23523981D01*
Y23656529D01*
X12735774Y23717255D01*
X12796500Y23777982D01*
Y23910529D01*
X12740158Y23966872D01*
X12802699Y24029413D01*
Y24085555D01*
X12470300D01*
Y24029413D01*
X12532842Y23966872D01*
X12476500Y23910529D01*
Y23777982D01*
X12537226Y23717255D01*
X12476500Y23656529D01*
Y23523981D01*
X12537223Y23463258D01*
X12476500Y23402534D01*
X12465231Y23397867D01*
X12412398Y23450700D01*
X12331532D01*
X12226916Y23555316D01*
X12205090Y23564357D01*
X12197286Y23603587D01*
X12211200Y23617502D01*
Y23728098D01*
X12195541Y23743758D01*
Y23775285D01*
X12199360Y23784508D01*
Y23891292D01*
X12180960Y23935713D01*
Y24245711D01*
X12150716Y24318727D01*
X12075886Y24393558D01*
Y24467728D01*
X12045641Y24540744D01*
X11916944Y24669441D01*
X11843928Y24699686D01*
X11808257D01*
X11808025Y24700032D01*
X11829405Y24740031D01*
X13640231D01*
Y23598260D01*
X13103036D01*
X13072798Y23628500D01*
X12962202D01*
X12884000Y23550298D01*
Y23439702D01*
X12962202Y23361501D01*
X13072798D01*
X13103036Y23391740D01*
X14300653D01*
X14540709Y23151685D01*
X14613725Y23121440D01*
X18993781D01*
X19066795Y23151685D01*
X19118275Y23203163D01*
X19145100Y23192052D01*
X19190694Y23146458D01*
X19185202Y23133200D01*
X19107001Y23054997D01*
Y22944402D01*
X19185202Y22866200D01*
X19189868D01*
X19488000Y22568068D01*
Y22525302D01*
X19566202Y22447099D01*
X19676797D01*
X19755000Y22525302D01*
Y22630901D01*
X19796512D01*
X19871201Y22705588D01*
Y22811212D01*
X19861012Y22821399D01*
X19877580Y22861398D01*
X19968898D01*
X20047099Y22939603D01*
Y23050197D01*
X19968898Y23128400D01*
X19896600D01*
Y23192212D01*
X19821912Y23266901D01*
X19716287D01*
X19641599Y23192212D01*
Y23098160D01*
X19567471D01*
X19412100Y23253532D01*
Y23302647D01*
X19333897Y23380850D01*
X19322787Y23407675D01*
X19362416Y23447304D01*
X19391246Y23516907D01*
X19407680Y23533340D01*
X19797920D01*
X19971825Y23359435D01*
X20044843Y23329189D01*
X20465184D01*
X20486804Y23302759D01*
X20471352Y23266901D01*
X20311600D01*
Y23011900D01*
X20538103D01*
X20607602Y22942400D01*
X20718198D01*
X20796400Y23020602D01*
Y23077063D01*
X20816960Y23126700D01*
Y23228300D01*
X20786716Y23301315D01*
X20582565Y23505466D01*
X20509550Y23535710D01*
X20234557D01*
X20219250Y23572665D01*
X20248685Y23602100D01*
Y23759502D01*
X20137386Y23870801D01*
X19979984D01*
X19868684Y23759502D01*
Y23758565D01*
X19840691Y23739861D01*
X19364908D01*
X19291891Y23709616D01*
X19216383Y23634108D01*
X19187553Y23564507D01*
X19080556Y23457507D01*
X19043600Y23472815D01*
Y23517375D01*
X18977075Y23583900D01*
X19043600Y23650426D01*
Y23771375D01*
X18977075Y23837900D01*
X19043600Y23904425D01*
Y24025375D01*
X18977075Y24091901D01*
X19043600Y24158424D01*
Y24279375D01*
X18977075Y24345900D01*
X19043600Y24412425D01*
Y24533376D01*
X18977075Y24599899D01*
X19043600Y24666425D01*
Y24787375D01*
X18977075Y24853900D01*
X19043600Y24920425D01*
Y25041376D01*
X18977075Y25107899D01*
X19043600Y25174425D01*
Y25295375D01*
X18977075Y25361900D01*
X19043600Y25428426D01*
Y25549374D01*
X18977075Y25615900D01*
X19043600Y25682425D01*
Y25803375D01*
X18977075Y25869901D01*
X19043600Y25936426D01*
Y26057376D01*
X18977075Y26123901D01*
X19043600Y26190424D01*
Y26311374D01*
X18977075Y26377899D01*
X19043600Y26444424D01*
Y26565375D01*
X18977075Y26631900D01*
X19043600Y26698425D01*
Y26819376D01*
X18977075Y26885901D01*
X19043600Y26952426D01*
Y27073376D01*
X18977075Y27139899D01*
X19043600Y27206424D01*
Y27327374D01*
X18977075Y27393900D01*
X19043600Y27460425D01*
Y27581375D01*
X18977075Y27647900D01*
X19043600Y27714426D01*
Y27835376D01*
X18977075Y27901901D01*
X19043600Y27968427D01*
Y28089374D01*
X19014854Y28118121D01*
X19022659Y28157352D01*
X19023006Y28157495D01*
X19059209Y28244901D01*
Y28270200D01*
X18897600D01*
X18735991D01*
Y28244901D01*
X18772195Y28157495D01*
X18772540Y28157352D01*
X18780345Y28118121D01*
X18751601Y28089374D01*
Y27968427D01*
X18818124Y27901901D01*
X18751601Y27835376D01*
Y27714426D01*
X18818124Y27647900D01*
X18751601Y27581375D01*
Y27460425D01*
X18818124Y27393900D01*
X18751601Y27327374D01*
Y27206424D01*
X18818124Y27139899D01*
X18751601Y27073376D01*
Y26952426D01*
X18818124Y26885901D01*
X18751601Y26819376D01*
Y26698425D01*
X18818124Y26631900D01*
X18751601Y26565375D01*
Y26444424D01*
X18818124Y26377899D01*
X18751601Y26311374D01*
Y26190424D01*
X18818124Y26123901D01*
X18751601Y26057376D01*
Y25936426D01*
X18818124Y25869901D01*
X18751601Y25803375D01*
Y25682425D01*
X18818124Y25615900D01*
X18751601Y25549374D01*
Y25428426D01*
X18818124Y25361900D01*
X18751601Y25295375D01*
Y25174425D01*
X18818124Y25107899D01*
X18751601Y25041376D01*
Y24920425D01*
X18818124Y24853900D01*
X18751601Y24787375D01*
Y24666425D01*
X18818124Y24599899D01*
X18751601Y24533376D01*
Y24412425D01*
X18818124Y24345900D01*
X18751601Y24279375D01*
Y24158424D01*
X18818124Y24091901D01*
X18751601Y24025375D01*
Y23904425D01*
X18818124Y23837900D01*
X18751601Y23771375D01*
Y23650426D01*
X18818124Y23583900D01*
X18751601Y23517375D01*
Y23396425D01*
X18783109Y23364915D01*
X18767802Y23327960D01*
X14879955D01*
X14869044Y23354301D01*
Y23399467D01*
X14729344D01*
Y23412167D01*
X14716644D01*
Y23551868D01*
X14701770D01*
X14662666Y23590971D01*
X14724808Y23653111D01*
Y23774062D01*
X14658282Y23840587D01*
X14724808Y23907112D01*
Y24028062D01*
X14658282Y24094588D01*
X14724808Y24161111D01*
Y24282062D01*
X14658282Y24348587D01*
X14724808Y24415112D01*
Y24536063D01*
X14658282Y24602586D01*
X14724808Y24669112D01*
Y24790062D01*
X14658282Y24856587D01*
X14724808Y24923112D01*
Y25044061D01*
X14658282Y25110587D01*
X14724808Y25177112D01*
Y25298062D01*
X14658282Y25364587D01*
X14724808Y25431113D01*
Y25552061D01*
X14658282Y25618588D01*
X14724808Y25685114D01*
Y25806061D01*
X14658282Y25872586D01*
X14724808Y25939111D01*
Y26060062D01*
X14658282Y26126587D01*
X14724808Y26193112D01*
Y26314062D01*
X14658282Y26380588D01*
X14724808Y26447113D01*
Y26568063D01*
X14658282Y26634586D01*
X14724808Y26701111D01*
Y26822061D01*
X14658282Y26888586D01*
X14724808Y26955112D01*
Y27076062D01*
X14658282Y27142587D01*
X14724808Y27209113D01*
Y27330063D01*
X14658282Y27396588D01*
X14724808Y27463113D01*
Y27584061D01*
X14658282Y27650586D01*
X14724808Y27717111D01*
Y27838062D01*
X14658282Y27904587D01*
X14724808Y27971112D01*
Y28092062D01*
X14691318Y28125552D01*
X14699121Y28164783D01*
X14699467Y28164929D01*
X14733707Y28247586D01*
Y28323587D01*
X14699467Y28406247D01*
X14616808Y28440485D01*
D02*
G37*
G36*
X20139214Y26069272D02*
X19981813D01*
X19870514Y25957974D01*
Y25800571D01*
X19981813Y25689273D01*
X20139214D01*
X20250513Y25800571D01*
Y25957974D01*
X20139214Y26069272D01*
D02*
G37*
G36*
X20917760Y26214499D02*
X20611241D01*
X20394501Y25997760D01*
Y25691241D01*
X20611241Y25474500D01*
X20917760D01*
X21134500Y25691241D01*
Y25997760D01*
X20917760Y26214499D01*
D02*
G37*
G36*
X3518759D02*
X3212241D01*
X2995500Y25997760D01*
Y25691241D01*
X3212241Y25474500D01*
X3518759D01*
X3735500Y25691241D01*
Y25997760D01*
X3518759Y26214499D01*
D02*
G37*
G36*
X6130482Y25520000D02*
X6061913D01*
Y25336501D01*
X6245413D01*
Y25405069D01*
X6130482Y25520000D01*
D02*
G37*
G36*
X6036513D02*
X5967945D01*
X5853013Y25405069D01*
Y25336501D01*
X6036513D01*
Y25520000D01*
D02*
G37*
G36*
X3351519Y25396992D02*
X3282950D01*
Y25213493D01*
X3466450D01*
Y25282060D01*
X3351519Y25396992D01*
D02*
G37*
G36*
X3257550D02*
X3188981D01*
X3074050Y25282060D01*
Y25213493D01*
X3257550D01*
Y25396992D01*
D02*
G37*
G36*
X20139214Y25569273D02*
X19981813D01*
X19870514Y25457974D01*
Y25300574D01*
X19981813Y25189275D01*
X20139214D01*
X20250513Y25300574D01*
Y25457974D01*
X20139214Y25569273D01*
D02*
G37*
G36*
X8893898Y25513800D02*
X8736496D01*
X8625197Y25402501D01*
Y25245099D01*
X8736496Y25133800D01*
X8893898D01*
X9005197Y25245099D01*
Y25402501D01*
X8893898Y25513800D01*
D02*
G37*
G36*
X8393899D02*
X8236497D01*
X8125198Y25402501D01*
Y25245099D01*
X8236497Y25133800D01*
X8393899D01*
X8505198Y25245099D01*
Y25402501D01*
X8393899Y25513800D01*
D02*
G37*
G36*
X7758899D02*
X7601497D01*
X7490198Y25402501D01*
Y25245099D01*
X7601497Y25133800D01*
X7758899D01*
X7870198Y25245099D01*
Y25402501D01*
X7758899Y25513800D01*
D02*
G37*
G36*
X7258900D02*
X7101498D01*
X6990199Y25402501D01*
Y25245099D01*
X7101498Y25133800D01*
X7258900D01*
X7370199Y25245099D01*
Y25402501D01*
X7258900Y25513800D01*
D02*
G37*
G36*
X6627913D02*
X6470512D01*
X6359212Y25402501D01*
Y25245099D01*
X6470512Y25133800D01*
X6627913D01*
X6739212Y25245099D01*
Y25402501D01*
X6627913Y25513800D01*
D02*
G37*
G36*
X4993601Y25501100D02*
X4836199D01*
X4724900Y25389801D01*
Y25232399D01*
X4836199Y25121100D01*
X4993601D01*
X5104900Y25232399D01*
Y25389801D01*
X4993601Y25501100D01*
D02*
G37*
G36*
X4493627D02*
X4336226D01*
X4224927Y25389801D01*
Y25232399D01*
X4336226Y25121100D01*
X4493627D01*
X4604926Y25232399D01*
Y25389801D01*
X4493627Y25501100D01*
D02*
G37*
G36*
X3466450Y25188094D02*
X3282950D01*
Y25004593D01*
X3351519D01*
X3466450Y25119524D01*
Y25188094D01*
D02*
G37*
G36*
X3257550D02*
X3074050D01*
Y25119524D01*
X3188981Y25004593D01*
X3257550D01*
Y25188094D01*
D02*
G37*
G36*
X20141782Y25075500D02*
X20073215D01*
Y24892000D01*
X20256712D01*
Y24960568D01*
X20141782Y25075500D01*
D02*
G37*
G36*
X20047813D02*
X19979245D01*
X19864314Y24960568D01*
Y24892000D01*
X20047813D01*
Y25075500D01*
D02*
G37*
G36*
X3351519Y24896994D02*
X3282951D01*
Y24713493D01*
X3466450D01*
Y24782062D01*
X3351519Y24896994D01*
D02*
G37*
G36*
X3257551D02*
X3188981D01*
X3074050Y24782062D01*
Y24713493D01*
X3257551D01*
Y24896994D01*
D02*
G37*
G36*
X20256712Y24866600D02*
X20060513D01*
X19864314D01*
Y24798032D01*
X19968880Y24693465D01*
X19979245Y24683099D01*
X19976302Y24644319D01*
X19919899Y24587917D01*
Y24542751D01*
X20199300D01*
Y24587917D01*
X20143433Y24643784D01*
X20141782Y24683099D01*
X20151233Y24692551D01*
X20256712Y24798032D01*
Y24866600D01*
D02*
G37*
G36*
X3466450Y24688094D02*
X3282951D01*
Y24504594D01*
X3351519D01*
X3466450Y24619525D01*
Y24688094D01*
D02*
G37*
G36*
X3257551D02*
X3074050D01*
Y24619525D01*
X3188981Y24504594D01*
X3257551D01*
Y24688094D01*
D02*
G37*
G36*
X3351519Y24397020D02*
X3282951D01*
Y24213519D01*
X3466450D01*
Y24282089D01*
X3351519Y24397020D01*
D02*
G37*
G36*
X3257551D02*
X3188981D01*
X3074050Y24282089D01*
Y24213519D01*
X3257551D01*
Y24397020D01*
D02*
G37*
G36*
X20542966Y24333200D02*
X20497800D01*
Y24206200D01*
X20624800D01*
Y24251366D01*
X20542966Y24333200D01*
D02*
G37*
G36*
X20472400D02*
X20427234D01*
X20345399Y24251366D01*
Y24206200D01*
X20472400D01*
Y24333200D01*
D02*
G37*
G36*
X20199300Y24517349D02*
X19919899D01*
Y24472185D01*
X19975768Y24416318D01*
X19977415Y24377000D01*
X19967966Y24367549D01*
X19862485Y24262070D01*
Y24193500D01*
X20058685D01*
X20254884D01*
Y24262070D01*
X20150317Y24366635D01*
X20139954Y24377000D01*
X20142896Y24415781D01*
X20199300Y24472185D01*
Y24517349D01*
D02*
G37*
G36*
X12705342Y24264455D02*
X12649200D01*
Y24110954D01*
X12802699D01*
Y24167097D01*
X12705342Y24264455D01*
D02*
G37*
G36*
X12623800D02*
X12567658D01*
X12470300Y24167097D01*
Y24110954D01*
X12623800D01*
Y24264455D01*
D02*
G37*
G36*
X13420399Y24213400D02*
X13296899D01*
Y24089902D01*
X13420399D01*
Y24213400D01*
D02*
G37*
G36*
X13271500D02*
X13148000D01*
Y24089902D01*
X13271500D01*
Y24213400D01*
D02*
G37*
G36*
X20624800Y24180800D02*
X20497800D01*
Y24053799D01*
X20542966D01*
X20624800Y24135634D01*
Y24180800D01*
D02*
G37*
G36*
X20472400D02*
X20345399D01*
Y24135634D01*
X20427234Y24053799D01*
X20472400D01*
Y24180800D01*
D02*
G37*
G36*
X5051658Y24161900D02*
X5003800D01*
Y24028400D01*
X5137300D01*
Y24076257D01*
X5051658Y24161900D01*
D02*
G37*
G36*
X4978400D02*
X4930542D01*
X4844900Y24076257D01*
Y24028400D01*
X4978400D01*
Y24161900D01*
D02*
G37*
G36*
X3466450Y24188120D02*
X3282951D01*
Y24004620D01*
X3351519D01*
X3466450Y24119553D01*
Y24188120D01*
D02*
G37*
G36*
X3257551D02*
X3074050D01*
Y24119553D01*
X3188981Y24004620D01*
X3257551D01*
Y24188120D01*
D02*
G37*
G36*
X20254884Y24168100D02*
X20071385D01*
Y23984599D01*
X20139954D01*
X20254884Y24099532D01*
Y24168100D01*
D02*
G37*
G36*
X20045985D02*
X19862485D01*
Y24099532D01*
X19977415Y23984599D01*
X20045985D01*
Y24168100D01*
D02*
G37*
G36*
X5137300Y24003000D02*
X4991100D01*
X4844900D01*
Y23955142D01*
X4864937Y23935104D01*
X4851100Y23901700D01*
X4851100D01*
Y23621700D01*
X5131100D01*
Y23901700D01*
X5131100D01*
X5117263Y23935104D01*
X5137300Y23955142D01*
Y24003000D01*
D02*
G37*
G36*
X9753600Y23990300D02*
X9626600D01*
Y23945134D01*
X9708434Y23863300D01*
X9753600D01*
Y23990300D01*
D02*
G37*
G36*
X13420399Y24064500D02*
X13284200D01*
X13148000D01*
Y23941000D01*
X13161893D01*
X13177199Y23904045D01*
X13154201Y23881046D01*
Y23773351D01*
X13230351Y23697198D01*
X13338048D01*
X13414200Y23773351D01*
Y23881046D01*
X13391200Y23904045D01*
X13406508Y23941000D01*
X13420399D01*
Y24064500D01*
D02*
G37*
G36*
X5499829Y23832401D02*
X5346570D01*
X5238200Y23724030D01*
Y23570770D01*
X5346570Y23462399D01*
X5499829D01*
X5608200Y23570770D01*
Y23724030D01*
X5499829Y23832401D01*
D02*
G37*
G36*
X14787210Y23551868D02*
X14742044D01*
Y23424867D01*
X14869044D01*
Y23470033D01*
X14787210Y23551868D01*
D02*
G37*
G36*
X3376919Y23190520D02*
X3308351D01*
Y23007019D01*
X3491850D01*
Y23075589D01*
X3376919Y23190520D01*
D02*
G37*
G36*
X3282951D02*
X3214381D01*
X3099450Y23075589D01*
Y23007019D01*
X3282951D01*
Y23190520D01*
D02*
G37*
G36*
X8013700Y22974300D02*
X7968534D01*
X7886700Y22892467D01*
Y22847301D01*
X8013700D01*
Y22974300D01*
D02*
G37*
G36*
X8328258Y22968100D02*
X8280400D01*
Y22834599D01*
X8413900D01*
Y22882458D01*
X8328258Y22968100D01*
D02*
G37*
G36*
X3491850Y22981619D02*
X3308351D01*
Y22798122D01*
X3376919D01*
X3491850Y22913052D01*
Y22981619D01*
D02*
G37*
G36*
X3282951D02*
X3099450D01*
Y22913052D01*
X3214381Y22798122D01*
X3282951D01*
Y22981619D01*
D02*
G37*
G36*
X6660101Y22962100D02*
X6405100D01*
Y22707100D01*
X6660101D01*
Y22962100D01*
D02*
G37*
G36*
X5915412D02*
X5809787D01*
X5735099Y22887411D01*
Y22781789D01*
X5809787Y22707100D01*
X5915412D01*
X5990100Y22781789D01*
Y22887411D01*
X5915412Y22962100D01*
D02*
G37*
G36*
X20541200Y22885899D02*
X20286200D01*
Y22630901D01*
X20541200D01*
Y22885899D01*
D02*
G37*
G36*
X6931412Y22454100D02*
X6825787D01*
X6751099Y22379411D01*
Y22273788D01*
X6825787Y22199100D01*
X6931412D01*
X7006100Y22273788D01*
Y22379411D01*
X6931412Y22454100D01*
D02*
G37*
G36*
X6660101D02*
X6405100D01*
Y22199100D01*
X6660101D01*
Y22454100D01*
D02*
G37*
G36*
X5915412D02*
X5809787D01*
X5735099Y22379411D01*
Y22273788D01*
X5809787Y22199100D01*
X5915412D01*
X5990100Y22273788D01*
Y22379411D01*
X5915412Y22454100D01*
D02*
G37*
G36*
X3374351Y22562019D02*
X3216949D01*
X3105650Y22450722D01*
Y22293320D01*
X3216949Y22182021D01*
X3374351D01*
X3485650Y22293320D01*
Y22450722D01*
X3374351Y22562019D01*
D02*
G37*
G36*
X12802699Y22561560D02*
X12470300D01*
Y22505418D01*
X12532842Y22442876D01*
X12476500Y22386534D01*
Y22253986D01*
X12570226Y22160260D01*
X12702774D01*
X12796500Y22253986D01*
Y22386534D01*
X12740158Y22442876D01*
X12802699Y22505418D01*
Y22561560D01*
D02*
G37*
G36*
X20137386Y22092801D02*
X19979984D01*
X19868684Y21981502D01*
Y21824100D01*
X19979984Y21712801D01*
X20137386D01*
X20248685Y21824100D01*
Y21981502D01*
X20137386Y22092801D01*
D02*
G37*
G36*
X3374351Y22062021D02*
X3216949D01*
X3105650Y21950722D01*
Y21793321D01*
X3216949Y21682021D01*
X3374351D01*
X3485650Y21793321D01*
Y21950722D01*
X3374351Y22062021D01*
D02*
G37*
G36*
X5461729Y21660699D02*
X5308470D01*
X5200100Y21552330D01*
Y21399071D01*
X5308470Y21290700D01*
X5461729D01*
X5570100Y21399071D01*
Y21552330D01*
X5461729Y21660699D01*
D02*
G37*
G36*
X3374351Y21562048D02*
X3216949D01*
X3105650Y21450748D01*
Y21293347D01*
X3216949Y21182048D01*
X3374351D01*
X3485650Y21293347D01*
Y21450748D01*
X3374351Y21562048D01*
D02*
G37*
G36*
X15797974Y21081500D02*
X15640572D01*
X15529272Y20970201D01*
Y20812799D01*
X15640572Y20701500D01*
X15797974D01*
X15909271Y20812799D01*
Y20970201D01*
X15797974Y21081500D01*
D02*
G37*
G36*
X15297974D02*
X15140573D01*
X15029274Y20970201D01*
Y20812799D01*
X15140573Y20701500D01*
X15297974D01*
X15409273Y20812799D01*
Y20970201D01*
X15297974Y21081500D01*
D02*
G37*
G36*
X14798001D02*
X14640599D01*
X14529300Y20970201D01*
Y20812799D01*
X14640599Y20701500D01*
X14798001D01*
X14909300Y20812799D01*
Y20970201D01*
X14798001Y21081500D01*
D02*
G37*
G36*
X6451600Y20739101D02*
X6406434D01*
X6324600Y20657266D01*
Y20612100D01*
X6451600D01*
Y20739101D01*
D02*
G37*
G36*
X8269600Y20686400D02*
X8224434D01*
X8142600Y20604565D01*
Y20559399D01*
X8269600D01*
Y20686400D01*
D02*
G37*
G36*
X6689958Y20618600D02*
X6642100D01*
Y20485100D01*
X6775600D01*
Y20532957D01*
X6689958Y20618600D01*
D02*
G37*
G36*
X6451600Y20586700D02*
X6324600D01*
Y20541534D01*
X6406434Y20459700D01*
X6451600D01*
Y20586700D01*
D02*
G37*
G36*
X8269600Y20534000D02*
X8142600D01*
Y20488834D01*
X8224434Y20407001D01*
X8269600D01*
Y20534000D01*
D02*
G37*
G36*
X6522166Y20739101D02*
X6477000D01*
Y20599400D01*
Y20459700D01*
X6483200D01*
Y20411842D01*
X6503237Y20391805D01*
X6489400Y20358400D01*
X6489400D01*
Y20078400D01*
X6769400D01*
Y20358400D01*
X6769400D01*
X6755563Y20391805D01*
X6775600Y20411842D01*
Y20459700D01*
X6629400D01*
Y20472400D01*
X6616700D01*
Y20618600D01*
X6604000D01*
Y20657266D01*
X6522166Y20739101D01*
D02*
G37*
G36*
X5518866Y20447000D02*
X5473700D01*
Y20320000D01*
X5600700D01*
Y20365166D01*
X5518866Y20447000D01*
D02*
G37*
G36*
X5448300D02*
X5403134D01*
X5321300Y20365166D01*
Y20320000D01*
X5448300D01*
Y20447000D01*
D02*
G37*
G36*
X3667815Y20421600D02*
X3622650D01*
Y20294600D01*
X3749650D01*
Y20339766D01*
X3667815Y20421600D01*
D02*
G37*
G36*
X3282949Y20433247D02*
X3214381D01*
X3099450Y20318317D01*
Y20249750D01*
X3282949D01*
Y20433247D01*
D02*
G37*
G36*
X20441113Y20447501D02*
X20335487D01*
X20260800Y20372812D01*
Y20267188D01*
X20335487Y20192500D01*
X20441113D01*
X20515800Y20267188D01*
Y20372812D01*
X20441113Y20447501D01*
D02*
G37*
G36*
X5600700Y20294600D02*
X5473700D01*
Y20167599D01*
X5518866D01*
X5600700Y20249434D01*
Y20294600D01*
D02*
G37*
G36*
X5448300D02*
X5321300D01*
Y20249434D01*
X5403134Y20167599D01*
X5448300D01*
Y20294600D01*
D02*
G37*
G36*
X3749650Y20269200D02*
X3622650D01*
Y20142200D01*
X3667815D01*
X3749650Y20224034D01*
Y20269200D01*
D02*
G37*
G36*
X6179390Y20612399D02*
X6063410D01*
X5981400Y20530389D01*
Y20414410D01*
X6000455Y20395355D01*
X5985148Y20358400D01*
X5981400D01*
Y20078400D01*
X6261400D01*
Y20358400D01*
X6257652D01*
X6242345Y20395355D01*
X6261400Y20414410D01*
Y20530389D01*
X6179390Y20612399D01*
D02*
G37*
G36*
X3282949Y20224350D02*
X3099450D01*
Y20155780D01*
X3214381Y20040849D01*
X3282949D01*
Y20224350D01*
D02*
G37*
G36*
X20451498Y20136000D02*
X20340903D01*
X20262700Y20057797D01*
Y19947202D01*
X20340903Y19869000D01*
X20451498D01*
X20481737Y19899240D01*
X20518529D01*
X20770700Y19647067D01*
Y19604301D01*
X20848901Y19526100D01*
X20959499D01*
X21037700Y19604301D01*
Y19714899D01*
X20959499Y19793100D01*
X20916731D01*
X20634315Y20075516D01*
X20561301Y20105760D01*
X20481737D01*
X20451498Y20136000D01*
D02*
G37*
G36*
X7772400Y20014767D02*
X5664200D01*
X5610624Y19992577D01*
X5588432Y19939000D01*
Y19570700D01*
X5610624Y19517123D01*
X5664200Y19494933D01*
X7772400D01*
X7825976Y19517123D01*
X7848168Y19570700D01*
Y19939000D01*
X7825976Y19992577D01*
X7772400Y20014767D01*
D02*
G37*
G36*
X3289299Y19670000D02*
X3220731D01*
X3105800Y19555067D01*
Y19486497D01*
X3289299D01*
Y19670000D01*
D02*
G37*
G36*
Y19461098D02*
X3105800D01*
Y19392529D01*
X3220731Y19277599D01*
X3289299D01*
Y19461098D01*
D02*
G37*
G36*
X20139954Y19329028D02*
X20071387D01*
Y19145528D01*
X20254884D01*
Y19214098D01*
X20139954Y19329028D01*
D02*
G37*
G36*
X20045985D02*
X19977415D01*
X19862485Y19214098D01*
Y19145528D01*
X20045985D01*
Y19329028D01*
D02*
G37*
G36*
X13650391Y19494908D02*
X13539795D01*
X13461592Y19416705D01*
Y19306110D01*
X13539795Y19227907D01*
X13582561D01*
X13789034Y19021434D01*
X13862050Y18991190D01*
X13992413D01*
X14022652Y18960950D01*
X14133247D01*
X14211450Y19039153D01*
Y19149748D01*
X14133247Y19227950D01*
X14022652D01*
X13992413Y19197710D01*
X13904822D01*
X13728592Y19373940D01*
Y19416705D01*
X13650391Y19494908D01*
D02*
G37*
G36*
X20254884Y19120128D02*
X20071387D01*
Y18936630D01*
X20139954D01*
X20254884Y19051561D01*
Y19120128D01*
D02*
G37*
G36*
X20045985D02*
X19862485D01*
Y19051561D01*
X19977415Y18936630D01*
X20045985D01*
Y19120128D01*
D02*
G37*
G36*
X3374351Y18515419D02*
X3216949D01*
X3105650Y18404120D01*
Y18246719D01*
X3216949Y18135419D01*
X3374351D01*
X3485650Y18246719D01*
Y18404120D01*
X3374351Y18515419D01*
D02*
G37*
G36*
X20137386Y18433829D02*
X19979984D01*
X19868684Y18322530D01*
Y18165129D01*
X19979984Y18053830D01*
X20137386D01*
X20248685Y18165129D01*
Y18322530D01*
X20137386Y18433829D01*
D02*
G37*
G36*
X20565797Y18497701D02*
X20455202D01*
X20377000Y18419498D01*
Y18308902D01*
X20455202Y18230701D01*
X20565797D01*
X20596037Y18260941D01*
X20774919D01*
X20839040Y18196819D01*
Y18157637D01*
X20808800Y18127399D01*
Y18016801D01*
X20887003Y17938600D01*
X20997598D01*
X21075800Y18016801D01*
Y18127399D01*
X21045560Y18157637D01*
Y18239590D01*
X21015315Y18312607D01*
X20890707Y18437216D01*
X20817690Y18467461D01*
X20596037D01*
X20565797Y18497701D01*
D02*
G37*
G36*
X18904666Y18021300D02*
X18859500D01*
Y17894299D01*
X18986501D01*
Y17939465D01*
X18904666Y18021300D01*
D02*
G37*
G36*
X18834100D02*
X18788934D01*
X18707100Y17939465D01*
Y17894299D01*
X18834100D01*
Y18021300D01*
D02*
G37*
G36*
X3376919Y18021620D02*
X3308351D01*
Y17838120D01*
X3491850D01*
Y17906689D01*
X3376919Y18021620D01*
D02*
G37*
G36*
X3282951D02*
X3214381D01*
X3099450Y17906689D01*
Y17838120D01*
X3282951D01*
Y18021620D01*
D02*
G37*
G36*
X18986501Y17868900D02*
X18859500D01*
Y17741901D01*
X18904666D01*
X18986501Y17823734D01*
Y17868900D01*
D02*
G37*
G36*
X18834100D02*
X18707100D01*
Y17823734D01*
X18788934Y17741901D01*
X18834100D01*
Y17868900D01*
D02*
G37*
G36*
X3491850Y17812720D02*
X3308351D01*
Y17629221D01*
X3376919D01*
X3491850Y17744151D01*
Y17812720D01*
D02*
G37*
G36*
X3282951D02*
X3099450D01*
Y17744151D01*
X3214381Y17629221D01*
X3282951D01*
Y17812720D01*
D02*
G37*
G36*
X20502298Y17837300D02*
X20391702D01*
X20313499Y17759097D01*
Y17648502D01*
X20391702Y17570300D01*
X20502298D01*
X20532536Y17600540D01*
X20736662D01*
X20767322Y17587840D01*
X20989407D01*
X21019647Y17557600D01*
X21130241D01*
X21208446Y17635802D01*
Y17746397D01*
X21130241Y17824600D01*
X21019647D01*
X20989407Y17794360D01*
X20785283D01*
X20754622Y17807060D01*
X20532536D01*
X20502298Y17837300D01*
D02*
G37*
G36*
X20137386Y17933856D02*
X19979984D01*
X19868684Y17822556D01*
Y17665155D01*
X19979984Y17553856D01*
X20137386D01*
X20248685Y17665155D01*
Y17822556D01*
X20137386Y17933856D01*
D02*
G37*
G36*
X18072099Y17475200D02*
X17945100D01*
Y17348199D01*
X17990266D01*
X18072099Y17430034D01*
Y17475200D01*
D02*
G37*
G36*
X15621001Y17373599D02*
X15570573D01*
X15502316Y17305342D01*
X15440257Y17367400D01*
X15319142D01*
X15252699Y17300958D01*
X15186258Y17367400D01*
X15065141D01*
X14998700Y17300958D01*
X14932259Y17367400D01*
X14811142D01*
X14744701Y17300958D01*
X14678258Y17367400D01*
X14557143D01*
X14471500Y17281758D01*
Y17160641D01*
X14557143Y17075000D01*
X14678258D01*
X14744701Y17141441D01*
X14811142Y17075000D01*
X14932259D01*
X14998700Y17141441D01*
X15065141Y17075000D01*
X15186258D01*
X15252699Y17141441D01*
X15319142Y17075000D01*
X15440257D01*
X15502316Y17137057D01*
X15570573Y17068800D01*
X15621001D01*
Y17221201D01*
Y17373599D01*
D02*
G37*
G36*
X15696826D02*
X15646400D01*
Y17221201D01*
Y17068800D01*
X15696826D01*
X15765083Y17137057D01*
X15827142Y17075000D01*
X15948257D01*
X16033900Y17160641D01*
Y17281758D01*
X15948257Y17367400D01*
X15827142D01*
X15765083Y17305342D01*
X15696826Y17373599D01*
D02*
G37*
G36*
X3376919Y17226219D02*
X3308350D01*
Y17042719D01*
X3491850D01*
Y17111288D01*
X3376919Y17226219D01*
D02*
G37*
G36*
X3282950D02*
X3214381D01*
X3099450Y17111288D01*
Y17042719D01*
X3282950D01*
Y17226219D01*
D02*
G37*
G36*
X20137386Y17433858D02*
X19979984D01*
X19868684Y17322557D01*
Y17165157D01*
X19979984Y17053857D01*
X20137386D01*
X20248100Y17164571D01*
X20288100Y17163744D01*
Y17127802D01*
X20366302Y17049600D01*
X20476898D01*
X20507137Y17079840D01*
X20897701D01*
Y17064302D01*
X20975902Y16986099D01*
X21086497D01*
X21164700Y17064302D01*
Y17174898D01*
X21086497Y17253101D01*
X21023112D01*
X21020097Y17256116D01*
X20947081Y17286360D01*
X20507137D01*
X20476898Y17316600D01*
X20366302D01*
X20288686Y17238982D01*
X20248685Y17239809D01*
Y17322557D01*
X20137386Y17433858D01*
D02*
G37*
G36*
X3491850Y17017319D02*
X3308350D01*
Y16833820D01*
X3376919D01*
X3491850Y16948750D01*
Y17017319D01*
D02*
G37*
G36*
X3282950D02*
X3099450D01*
Y16948750D01*
X3214381Y16833820D01*
X3282950D01*
Y17017319D01*
D02*
G37*
G36*
X18536217Y17746800D02*
X18395384D01*
X18295799Y17647215D01*
Y17506384D01*
X18352383Y17449800D01*
X18295799Y17393216D01*
Y17252383D01*
X18352383Y17195799D01*
X18295799Y17139217D01*
Y16998384D01*
X18352383Y16941800D01*
X18295799Y16885216D01*
Y16744383D01*
X18395384Y16644800D01*
X18536217D01*
X18635800Y16744383D01*
Y16885216D01*
X18579216Y16941800D01*
X18635800Y16998384D01*
Y17139217D01*
X18579216Y17195799D01*
X18635800Y17252383D01*
Y17393216D01*
X18579216Y17449800D01*
X18635800Y17506384D01*
Y17647215D01*
X18536217Y17746800D01*
D02*
G37*
G36*
X3374351Y16720020D02*
X3216949D01*
X3105650Y16608720D01*
Y16451320D01*
X3216949Y16340021D01*
X3374351D01*
X3485650Y16451320D01*
Y16608720D01*
X3374351Y16720020D01*
D02*
G37*
G36*
X4508500Y20370367D02*
X4178300D01*
X4124724Y20348177D01*
X4102532Y20294600D01*
Y16366818D01*
X4007554Y16278172D01*
X3302351Y16281438D01*
X3302175Y16281364D01*
X3302000Y16281438D01*
X3275358Y16270403D01*
X3248673Y16259494D01*
X3248599Y16259319D01*
X3248424Y16259245D01*
X3237389Y16232605D01*
X3226233Y16206021D01*
X3226305Y16205846D01*
X3226232Y16205670D01*
Y16040100D01*
X3242190Y16001575D01*
X3221112Y15961572D01*
X3208031D01*
X3093100Y15846642D01*
Y15778075D01*
X3289300D01*
X3485500D01*
Y15846642D01*
X3407810Y15924332D01*
X3424378Y15964333D01*
X4292600D01*
X4346176Y15986523D01*
X4346176Y15986525D01*
X4562075Y16202425D01*
X4562075Y16202425D01*
X4584267Y16256000D01*
X4584267Y16256000D01*
X4584268Y20294600D01*
X4562076Y20348177D01*
X4508500Y20370367D01*
D02*
G37*
G36*
X20144701Y16541251D02*
X19987299D01*
X19875999Y16429951D01*
Y16272549D01*
X19987299Y16161250D01*
X20144701D01*
X20256000Y16272549D01*
Y16429951D01*
X20144701Y16541251D01*
D02*
G37*
G36*
X15410500Y16459351D02*
X15247301D01*
X15131900Y16343950D01*
Y16180750D01*
X15247301Y16065350D01*
X15410500D01*
X15525900Y16180750D01*
Y16343950D01*
X15410500Y16459351D01*
D02*
G37*
G36*
X20144701Y16041251D02*
X19987299D01*
X19875999Y15929951D01*
Y15772549D01*
X19987299Y15661250D01*
X20144701D01*
X20256000Y15772549D01*
Y15929951D01*
X20144701Y16041251D01*
D02*
G37*
G36*
X3485500Y15752673D02*
X3302000D01*
Y15569174D01*
X3370569D01*
X3485500Y15684105D01*
Y15752673D01*
D02*
G37*
G36*
X3276600D02*
X3093100D01*
Y15684105D01*
X3208031Y15569174D01*
X3276600D01*
Y15752673D01*
D02*
G37*
G36*
X13916258Y15754500D02*
X13795142D01*
X13709500Y15668858D01*
Y15547742D01*
X13771558Y15485684D01*
X13703300Y15417426D01*
Y15367000D01*
X13855701D01*
X14008099D01*
Y15417426D01*
X13939842Y15485684D01*
X14001900Y15547742D01*
Y15668858D01*
X13916258Y15754500D01*
D02*
G37*
G36*
X3368001Y15455400D02*
X3210599D01*
X3099300Y15344101D01*
Y15186699D01*
X3210599Y15075400D01*
X3368001D01*
X3479300Y15186699D01*
Y15344101D01*
X3368001Y15455400D01*
D02*
G37*
G36*
X20144701Y15381561D02*
X19987299D01*
X19875999Y15270264D01*
Y15112862D01*
X19987299Y15001562D01*
X20144701D01*
X20256000Y15112862D01*
Y15270264D01*
X20144701Y15381561D01*
D02*
G37*
G36*
X16786458Y15767200D02*
X16665343D01*
X16579700Y15681558D01*
Y15560442D01*
X16646143Y15494000D01*
X16579700Y15427557D01*
Y15306442D01*
X16646143Y15239999D01*
X16579700Y15173558D01*
Y15052441D01*
X16646143Y14986000D01*
X16579700Y14919559D01*
Y14798442D01*
X16641759Y14736385D01*
X16573500Y14668126D01*
Y14617700D01*
X16725900D01*
X16878300D01*
Y14668126D01*
X16810042Y14736385D01*
X16872099Y14798442D01*
Y14919559D01*
X16805658Y14986000D01*
X16872099Y15052441D01*
Y15173558D01*
X16805658Y15239999D01*
X16872099Y15306442D01*
Y15427557D01*
X16805658Y15494000D01*
X16872099Y15560442D01*
Y15681558D01*
X16786458Y15767200D01*
D02*
G37*
G36*
X3368001Y14955402D02*
X3210599D01*
X3099300Y14844102D01*
Y14686700D01*
X3210599Y14575401D01*
X3368001D01*
X3479300Y14686700D01*
Y14844102D01*
X3368001Y14955402D01*
D02*
G37*
G36*
X20144701Y14881563D02*
X19987299D01*
X19875999Y14770264D01*
Y14612863D01*
X19987299Y14501562D01*
X20144701D01*
X20256000Y14612863D01*
Y14770264D01*
X20144701Y14881563D01*
D02*
G37*
G36*
X16878300Y14592300D02*
X16725900D01*
X16573500D01*
Y14541875D01*
X16641759Y14473616D01*
X16579700Y14411559D01*
Y14290442D01*
X16665343Y14204800D01*
X16786458D01*
X16872099Y14290442D01*
Y14411559D01*
X16810042Y14473616D01*
X16878300Y14541875D01*
Y14592300D01*
D02*
G37*
G36*
X3380701Y14309071D02*
X3223299D01*
X3112000Y14197774D01*
Y14040372D01*
X3223299Y13929073D01*
X3380701D01*
X3492000Y14040372D01*
Y14197774D01*
X3380701Y14309071D01*
D02*
G37*
G36*
X20119301Y14204449D02*
X19961899D01*
X19850600Y14093150D01*
Y13935748D01*
X19961899Y13824451D01*
X20119301D01*
X20230600Y13935748D01*
Y14093150D01*
X20119301Y14204449D01*
D02*
G37*
G36*
X17225697Y14560699D02*
X17115102D01*
X17036900Y14482498D01*
Y14371902D01*
X17067140Y14341663D01*
Y14203271D01*
X16713368Y13849500D01*
X16670602D01*
X16592400Y13771298D01*
Y13660703D01*
X16670602Y13582500D01*
X16781198D01*
X16859399Y13660703D01*
Y13703468D01*
X17243416Y14087485D01*
X17273660Y14160500D01*
Y14341663D01*
X17303900Y14371902D01*
Y14482498D01*
X17225697Y14560699D01*
D02*
G37*
G36*
X15410500Y13919350D02*
X15247301D01*
X15131900Y13803951D01*
Y13640750D01*
X15247301Y13525349D01*
X15410500D01*
X15525900Y13640750D01*
Y13803951D01*
X15410500Y13919350D01*
D02*
G37*
G36*
X16151459Y16535550D02*
X16030342D01*
X15944701Y16449908D01*
Y16328792D01*
X16011142Y16262350D01*
X15944701Y16195908D01*
Y16074792D01*
X16011142Y16008350D01*
X15944701Y15941908D01*
Y15820792D01*
X16011142Y15754350D01*
X15944701Y15687907D01*
Y15566792D01*
X16011142Y15500349D01*
X15944701Y15433908D01*
Y15312791D01*
X16011142Y15246350D01*
X15944701Y15179909D01*
Y15058792D01*
X16011142Y14992349D01*
X15944701Y14925908D01*
Y14804791D01*
X16011142Y14738350D01*
X15944701Y14671909D01*
Y14550792D01*
X16011142Y14484351D01*
X15944701Y14417908D01*
Y14296793D01*
X16011142Y14230350D01*
X15944701Y14163908D01*
Y14042792D01*
X16011142Y13976350D01*
X15944701Y13909908D01*
Y13788792D01*
X16011142Y13722350D01*
X15944701Y13655908D01*
Y13534792D01*
X16030342Y13449150D01*
X16151459D01*
X16237100Y13534792D01*
Y13655908D01*
X16170657Y13722350D01*
X16237100Y13788792D01*
Y13909908D01*
X16170657Y13976350D01*
X16237100Y14042792D01*
Y14163908D01*
X16170657Y14230350D01*
X16237100Y14296793D01*
Y14417908D01*
X16170657Y14484351D01*
X16237100Y14550792D01*
Y14671909D01*
X16170657Y14738350D01*
X16237100Y14804791D01*
Y14925908D01*
X16170657Y14992349D01*
X16237100Y15058792D01*
Y15179909D01*
X16170657Y15246350D01*
X16237100Y15312791D01*
Y15433908D01*
X16170657Y15500349D01*
X16237100Y15566792D01*
Y15687907D01*
X16170657Y15754350D01*
X16237100Y15820792D01*
Y15941908D01*
X16170657Y16008350D01*
X16237100Y16074792D01*
Y16195908D01*
X16170657Y16262350D01*
X16237100Y16328792D01*
Y16449908D01*
X16151459Y16535550D01*
D02*
G37*
G36*
X3380701Y13809073D02*
X3223299D01*
X3112000Y13697774D01*
Y13540373D01*
X3223299Y13429074D01*
X3380701D01*
X3492000Y13540373D01*
Y13697774D01*
X3380701Y13809073D01*
D02*
G37*
G36*
X20119301Y13704451D02*
X19961899D01*
X19850600Y13593152D01*
Y13435750D01*
X19961899Y13324451D01*
X20119301D01*
X20230600Y13435750D01*
Y13593152D01*
X20119301Y13704451D01*
D02*
G37*
G36*
X3380701Y13309100D02*
X3223299D01*
X3112000Y13197801D01*
Y13040399D01*
X3223299Y12929100D01*
X3380701D01*
X3492000Y13040399D01*
Y13197801D01*
X3380701Y13309100D01*
D02*
G37*
G36*
X20106601Y13095563D02*
X19949199D01*
X19837900Y12984264D01*
Y12826862D01*
X19949199Y12715562D01*
X20106601D01*
X20217900Y12826862D01*
Y12984264D01*
X20106601Y13095563D01*
D02*
G37*
G36*
X4373298Y13392300D02*
X4262702D01*
X4184500Y13314098D01*
Y13203502D01*
X4262702Y13125301D01*
X4305468D01*
X4854584Y12576184D01*
X4927600Y12545940D01*
X5654863D01*
X5685102Y12515700D01*
X5795698D01*
X5873900Y12593902D01*
Y12704498D01*
X5795698Y12782700D01*
X5685102D01*
X5654863Y12752460D01*
X4970372D01*
X4451500Y13271332D01*
Y13314098D01*
X4373298Y13392300D01*
D02*
G37*
G36*
X20106601Y12595563D02*
X19949199D01*
X19837900Y12484264D01*
Y12326863D01*
X19949199Y12215563D01*
X20106601D01*
X20217900Y12326863D01*
Y12484264D01*
X20106601Y12595563D01*
D02*
G37*
G36*
X3368001Y12526399D02*
X3210599D01*
X3099300Y12415100D01*
Y12257698D01*
X3210599Y12146399D01*
X3368001D01*
X3479300Y12257698D01*
Y12415100D01*
X3368001Y12526399D01*
D02*
G37*
G36*
X15659100Y11976100D02*
X15608675D01*
X15540416Y11907842D01*
X15478358Y11969900D01*
X15357242D01*
X15290800Y11903458D01*
X15224358Y11969900D01*
X15103242D01*
X15036800Y11903458D01*
X14970358Y11969900D01*
X14849242D01*
X14782800Y11903458D01*
X14716357Y11969900D01*
X14595242D01*
X14509599Y11884258D01*
Y11763142D01*
X14595242Y11677500D01*
X14716357D01*
X14782800Y11743942D01*
X14849242Y11677500D01*
X14970358D01*
X15036800Y11743942D01*
X15103242Y11677500D01*
X15224358D01*
X15290800Y11743942D01*
X15357242Y11677500D01*
X15478358D01*
X15540416Y11739558D01*
X15608675Y11671300D01*
X15659100D01*
Y11823700D01*
Y11976100D01*
D02*
G37*
G36*
X15734926D02*
X15684500D01*
Y11823700D01*
Y11671300D01*
X15734926D01*
X15803185Y11739558D01*
X15865242Y11677500D01*
X15986359D01*
X16072000Y11763142D01*
Y11884258D01*
X15986359Y11969900D01*
X15865242D01*
X15803185Y11907842D01*
X15734926Y11976100D01*
D02*
G37*
G36*
X3368001Y12026400D02*
X3210599D01*
X3099300Y11915101D01*
Y11757699D01*
X3210599Y11646400D01*
X3368001D01*
X3479300Y11757699D01*
Y11915101D01*
X3368001Y12026400D01*
D02*
G37*
G36*
X18287950Y13183707D02*
X18191063D01*
X18185493Y13181400D01*
X18163380D01*
X18157812Y13179092D01*
X18140314D01*
X18134744Y13176785D01*
X18126472D01*
X18120903Y13174478D01*
X18110324D01*
X18104755Y13172173D01*
X18094176D01*
X18088606Y13169864D01*
X18082642D01*
X18077074Y13167558D01*
X18073415D01*
X18067845Y13165251D01*
X18061880D01*
X18056311Y13162944D01*
X18050346D01*
X18044777Y13160637D01*
X18041119D01*
X18035550Y13158330D01*
X18034198D01*
X18028629Y13156023D01*
X18024971D01*
X18019402Y13153717D01*
X18015744D01*
X18010175Y13151410D01*
X18008823D01*
X18003255Y13149103D01*
X18001903D01*
X17996333Y13146796D01*
X17992674D01*
X17987106Y13144489D01*
X17985754D01*
X17980186Y13142183D01*
X17978835D01*
X17973265Y13139876D01*
X17971915D01*
X17966345Y13137569D01*
X17964993D01*
X17953854Y13132954D01*
X17953459D01*
X17942320Y13128342D01*
X17941925D01*
X17930788Y13123727D01*
X17930391D01*
X17876814Y13101537D01*
X17876617Y13101057D01*
X17872202Y13099229D01*
X17872086Y13098949D01*
X17856053Y13092310D01*
X17855856Y13091830D01*
X17851440Y13090002D01*
X17851242Y13089523D01*
X17846826Y13087695D01*
X17846628Y13087218D01*
X17842212Y13085388D01*
X17842014Y13084911D01*
X17837599Y13083083D01*
X17837401Y13082603D01*
X17832985Y13080775D01*
X17832787Y13080296D01*
X17828371Y13078468D01*
X17828172Y13077991D01*
X17823758Y13076161D01*
X17823560Y13075684D01*
X17819144Y13073854D01*
X17818945Y13073376D01*
X17814529Y13071547D01*
X17813855Y13069916D01*
X17812222Y13069240D01*
X17812025Y13068764D01*
X17807610Y13066933D01*
X17807413Y13066457D01*
X17802995Y13064627D01*
X17802798Y13064149D01*
X17798383Y13062320D01*
X17798186Y13061842D01*
X17793768Y13060013D01*
X17793092Y13058382D01*
X17791463Y13057706D01*
X17791264Y13057228D01*
X17786848Y13055399D01*
X17786650Y13054922D01*
X17782236Y13053093D01*
X17781560Y13051460D01*
X17779929Y13050786D01*
X17779730Y13050308D01*
X17775314Y13048479D01*
X17775116Y13048001D01*
X17770700Y13046172D01*
X17770026Y13044540D01*
X17768393Y13043864D01*
X17768196Y13043387D01*
X17763780Y13041557D01*
X17763104Y13039928D01*
X17761473Y13039252D01*
X17761275Y13038774D01*
X17756859Y13036945D01*
X17756184Y13035313D01*
X17754553Y13034637D01*
X17754355Y13034160D01*
X17749939Y13032330D01*
X17749263Y13030701D01*
X17747632Y13030025D01*
X17747433Y13029546D01*
X17743018Y13027718D01*
X17742821Y13027240D01*
X17738405Y13025410D01*
X17737729Y13023779D01*
X17736098Y13023103D01*
X17735422Y13021474D01*
X17733791Y13020798D01*
X17733594Y13020319D01*
X17729176Y13018491D01*
X17728502Y13016859D01*
X17726871Y13016183D01*
X17726672Y13015704D01*
X17722256Y13013876D01*
X17721581Y13012245D01*
X17719949Y13011571D01*
X17719273Y13009938D01*
X17717644Y13009264D01*
X17716968Y13007632D01*
X17715337Y13006956D01*
X17715138Y13006477D01*
X17710722Y13004649D01*
X17710046Y13003018D01*
X17708417Y13002342D01*
X17707739Y13000711D01*
X17706110Y13000035D01*
X17705911Y12999557D01*
X17701495Y12997728D01*
X17700819Y12996097D01*
X17699188Y12995422D01*
X17698512Y12993790D01*
X17696883Y12993115D01*
X17696207Y12991484D01*
X17694576Y12990808D01*
X17694377Y12990331D01*
X17689961Y12988501D01*
X17689285Y12986870D01*
X17687654Y12986194D01*
X17686980Y12984563D01*
X17685347Y12983887D01*
X17684673Y12982256D01*
X17683041Y12981581D01*
X17682365Y12979948D01*
X17680734Y12979274D01*
X17680058Y12977643D01*
X17678427Y12976967D01*
X17678229Y12976489D01*
X17673813Y12974660D01*
X17673138Y12973029D01*
X17671506Y12972353D01*
X17670831Y12970721D01*
X17669200Y12970045D01*
X17668524Y12968414D01*
X17666893Y12967740D01*
X17666217Y12966109D01*
X17664586Y12965433D01*
X17663910Y12963802D01*
X17662279Y12963126D01*
X17662080Y12962648D01*
X17657664Y12960818D01*
X17656990Y12959187D01*
X17655359Y12958511D01*
X17654683Y12956882D01*
X17653052Y12956206D01*
X17652376Y12954575D01*
X17650745Y12953899D01*
X17650069Y12952267D01*
X17648438Y12951591D01*
X17647763Y12949960D01*
X17646130Y12949284D01*
X17645456Y12947655D01*
X17643825Y12946979D01*
X17643149Y12945348D01*
X17641518Y12944672D01*
X17640842Y12943040D01*
X17639211Y12942365D01*
X17638535Y12940733D01*
X17636903Y12940057D01*
X17636227Y12938426D01*
X17634596Y12937750D01*
X17633922Y12936121D01*
X17632291Y12935445D01*
X17631615Y12933813D01*
X17629984Y12933138D01*
X17629308Y12931506D01*
X17627676Y12930830D01*
X17627000Y12929199D01*
X17625369Y12928523D01*
X17624693Y12926892D01*
X17623064Y12926218D01*
X17622388Y12924585D01*
X17620757Y12923911D01*
X17620081Y12922278D01*
X17618449Y12921603D01*
X17617773Y12919972D01*
X17616142Y12919296D01*
X17615466Y12917665D01*
X17613835Y12916989D01*
X17613161Y12915358D01*
X17611530Y12914682D01*
X17610854Y12913051D01*
X17609222Y12912375D01*
X17607393Y12907961D01*
X17606915Y12907762D01*
X17606239Y12906131D01*
X17604608Y12905455D01*
X17603934Y12903824D01*
X17602301Y12903148D01*
X17601627Y12901517D01*
X17599995Y12900841D01*
X17599319Y12899210D01*
X17597688Y12898535D01*
X17597012Y12896902D01*
X17595381Y12896228D01*
X17594705Y12894597D01*
X17593074Y12893921D01*
X17592398Y12892290D01*
X17590767Y12891614D01*
X17590092Y12889983D01*
X17588460Y12889307D01*
X17586630Y12884891D01*
X17586154Y12884694D01*
X17585478Y12883063D01*
X17583847Y12882387D01*
X17583171Y12880756D01*
X17581540Y12880080D01*
X17580864Y12878448D01*
X17579233Y12877773D01*
X17578557Y12876141D01*
X17576926Y12875465D01*
X17575098Y12871049D01*
X17574619Y12870853D01*
X17573944Y12869221D01*
X17572313Y12868546D01*
X17571637Y12866914D01*
X17570006Y12866238D01*
X17569330Y12864607D01*
X17567699Y12863931D01*
X17565871Y12859515D01*
X17565392Y12859319D01*
X17564716Y12857687D01*
X17563084Y12857011D01*
X17562410Y12855380D01*
X17560777Y12854704D01*
X17558949Y12850288D01*
X17558472Y12850092D01*
X17557796Y12848460D01*
X17556165Y12847784D01*
X17555489Y12846153D01*
X17553857Y12845477D01*
X17552029Y12841061D01*
X17551550Y12840865D01*
X17550874Y12839232D01*
X17549245Y12838557D01*
X17548569Y12836926D01*
X17546938Y12836250D01*
X17545108Y12831834D01*
X17544630Y12831636D01*
X17543954Y12830005D01*
X17542323Y12829329D01*
X17540495Y12824915D01*
X17540018Y12824716D01*
X17539342Y12823085D01*
X17537711Y12822409D01*
X17535881Y12817993D01*
X17535403Y12817795D01*
X17534727Y12816164D01*
X17533096Y12815488D01*
X17531267Y12811073D01*
X17530789Y12810875D01*
X17530115Y12809244D01*
X17528484Y12808568D01*
X17526654Y12804152D01*
X17526176Y12803954D01*
X17525500Y12802322D01*
X17523869Y12801646D01*
X17522040Y12797232D01*
X17521562Y12797034D01*
X17519733Y12792618D01*
X17519255Y12792420D01*
X17518581Y12790789D01*
X17516948Y12790113D01*
X17515118Y12785698D01*
X17514642Y12785500D01*
X17513966Y12783869D01*
X17512335Y12783193D01*
X17510506Y12778777D01*
X17510028Y12778579D01*
X17508199Y12774163D01*
X17507721Y12773965D01*
X17505891Y12769550D01*
X17505414Y12769352D01*
X17504739Y12767720D01*
X17503107Y12767045D01*
X17501279Y12762629D01*
X17500801Y12762431D01*
X17498972Y12758015D01*
X17498494Y12757818D01*
X17496664Y12753402D01*
X17496187Y12753204D01*
X17494357Y12748788D01*
X17493880Y12748590D01*
X17492052Y12744174D01*
X17491573Y12743977D01*
X17489745Y12739561D01*
X17489267Y12739363D01*
X17487437Y12734947D01*
X17486960Y12734749D01*
X17485130Y12730333D01*
X17484653Y12730136D01*
X17482825Y12725720D01*
X17482346Y12725522D01*
X17480518Y12721106D01*
X17480038Y12720908D01*
X17478210Y12716492D01*
X17477731Y12716295D01*
X17475903Y12711879D01*
X17475426Y12711681D01*
X17473596Y12707265D01*
X17473119Y12707067D01*
X17471289Y12702651D01*
X17470811Y12702453D01*
X17464171Y12686421D01*
X17463892Y12686306D01*
X17441699Y12632730D01*
Y12632334D01*
X17437086Y12621195D01*
Y12619844D01*
X17434779Y12614275D01*
Y12613879D01*
X17430165Y12602741D01*
Y12601390D01*
X17427858Y12595820D01*
Y12594469D01*
X17425552Y12588900D01*
Y12587549D01*
X17423245Y12581979D01*
Y12580628D01*
X17420938Y12575059D01*
Y12573707D01*
X17418631Y12568138D01*
Y12566787D01*
X17416324Y12561218D01*
Y12559866D01*
X17414017Y12554297D01*
Y12550639D01*
X17411711Y12545070D01*
Y12541412D01*
X17409404Y12535843D01*
Y12534491D01*
X17407097Y12528922D01*
Y12525264D01*
X17404790Y12519695D01*
Y12513730D01*
X17402483Y12508161D01*
Y12504502D01*
X17400177Y12498933D01*
Y12492968D01*
X17397870Y12487399D01*
Y12481434D01*
X17395563Y12475865D01*
Y12467593D01*
X17393256Y12462024D01*
Y12453752D01*
X17390948Y12448183D01*
Y12435297D01*
X17388641Y12429728D01*
Y12414536D01*
X17386336Y12408967D01*
Y12384547D01*
X17384029Y12378978D01*
Y12284398D01*
X17386336Y12278828D01*
Y12254409D01*
X17388641Y12248839D01*
Y12233647D01*
X17390948Y12228078D01*
Y12215192D01*
X17393256Y12209623D01*
Y12201351D01*
X17395563Y12195782D01*
Y12187510D01*
X17397870Y12181941D01*
Y12173669D01*
X17400177Y12168100D01*
Y12164442D01*
X17402483Y12158873D01*
Y12152908D01*
X17404790Y12147339D01*
Y12143681D01*
X17407097Y12138111D01*
Y12134453D01*
X17409404Y12128884D01*
Y12125226D01*
X17411711Y12119656D01*
Y12115998D01*
X17414017Y12110429D01*
Y12109078D01*
X17416324Y12103509D01*
Y12099851D01*
X17418631Y12094281D01*
Y12092930D01*
X17420938Y12087361D01*
Y12086010D01*
X17423245Y12080440D01*
Y12076782D01*
X17427858Y12065644D01*
Y12065248D01*
X17430165Y12059679D01*
Y12058327D01*
X17432472Y12052758D01*
Y12051407D01*
X17434779Y12045838D01*
Y12044486D01*
X17439394Y12033348D01*
Y12032952D01*
X17444006Y12021814D01*
Y12021418D01*
X17466199Y11967842D01*
X17466676Y11967644D01*
X17468504Y11963229D01*
X17468785Y11963113D01*
X17475426Y11947081D01*
X17475903Y11946883D01*
X17477731Y11942467D01*
X17478210Y11942269D01*
X17480038Y11937853D01*
X17480518Y11937656D01*
X17482346Y11933240D01*
X17482825Y11933042D01*
X17484653Y11928626D01*
X17485130Y11928428D01*
X17486960Y11924012D01*
X17487437Y11923814D01*
X17489267Y11919399D01*
X17489745Y11919201D01*
X17491573Y11914785D01*
X17492052Y11914587D01*
X17493880Y11910171D01*
X17494357Y11909973D01*
X17496187Y11905558D01*
X17496664Y11905360D01*
X17498494Y11900944D01*
X17498972Y11900746D01*
X17500801Y11896330D01*
X17502432Y11895655D01*
X17503107Y11894023D01*
X17503584Y11893826D01*
X17505414Y11889410D01*
X17505891Y11889212D01*
X17507721Y11884796D01*
X17509352Y11884121D01*
X17510028Y11882489D01*
X17510506Y11882291D01*
X17512335Y11877876D01*
X17512813Y11877678D01*
X17514642Y11873262D01*
X17515118Y11873064D01*
X17516948Y11868648D01*
X17525517Y11849038D01*
X17528265Y11831723D01*
X17524989Y11810734D01*
X17522440Y11804576D01*
Y11802269D01*
X17544630Y11748693D01*
X17551633Y11745792D01*
X17556165Y11734852D01*
X17557796Y11734176D01*
X17558472Y11732545D01*
X17604622Y11713429D01*
X17625369Y11663340D01*
X17652144Y11652249D01*
X17659972Y11633351D01*
X17667650Y11630171D01*
X17669200Y11626430D01*
X17670831Y11625755D01*
X17671506Y11624124D01*
X17686864Y11617763D01*
X17689961Y11610283D01*
X17697639Y11607102D01*
X17699188Y11603362D01*
X17706866Y11600182D01*
X17708417Y11596442D01*
X17714462Y11593937D01*
X17715337Y11591828D01*
X17721384Y11589323D01*
X17722256Y11587214D01*
X17740398Y11579700D01*
X17743018Y11573373D01*
X17753481Y11569040D01*
X17754553Y11566453D01*
X17765015Y11562119D01*
X17766087Y11559532D01*
X17770502Y11557703D01*
X17770700Y11557225D01*
X17776747Y11554721D01*
X17777621Y11552612D01*
X17782037Y11550783D01*
X17782236Y11550305D01*
X17786650Y11548476D01*
X17786848Y11547998D01*
X17788480Y11547322D01*
X17789156Y11545691D01*
X17797987Y11542033D01*
X17798383Y11541078D01*
X17802798Y11539248D01*
X17802995Y11538771D01*
X17807413Y11536942D01*
X17807610Y11536464D01*
X17812025Y11534635D01*
X17812222Y11534157D01*
X17816640Y11532328D01*
X17816837Y11531850D01*
X17821252Y11530021D01*
X17821451Y11529543D01*
X17825867Y11527714D01*
X17826064Y11527237D01*
X17834895Y11523578D01*
X17835292Y11522623D01*
X17851324Y11515982D01*
X17851440Y11515702D01*
X17855856Y11513873D01*
X17856053Y11513396D01*
X17909628Y11491204D01*
X17910025D01*
X17921164Y11486590D01*
X17921559D01*
X17932698Y11481977D01*
X17933093D01*
X17944232Y11477363D01*
X17945583D01*
X17951152Y11475056D01*
X17951547D01*
X17962686Y11470442D01*
X17964038D01*
X17969608Y11468136D01*
X17970958D01*
X17976527Y11465828D01*
X17977879D01*
X17983447Y11463522D01*
X17984799D01*
X17990369Y11461215D01*
X17991721D01*
X17997289Y11458908D01*
X18000948D01*
X18006516Y11456601D01*
X18010175D01*
X18015744Y11454294D01*
X18017094D01*
X18022664Y11451988D01*
X18026321D01*
X18031892Y11449681D01*
X18035550D01*
X18041119Y11447374D01*
X18045734D01*
X18046408Y11447654D01*
X18052654Y11445067D01*
X18054961D01*
X18055637Y11445347D01*
X18061880Y11442760D01*
X18066495D01*
X18067171Y11443040D01*
X18073415Y11440453D01*
X18075722D01*
X18076398Y11440733D01*
X18082642Y11438147D01*
X18087256D01*
X18089085Y11438904D01*
X18096483Y11435840D01*
X18101097D01*
X18101772Y11436120D01*
X18108017Y11433533D01*
X18114938D01*
X18116766Y11434291D01*
X18124165Y11431226D01*
X18131087D01*
X18135222Y11432939D01*
X18144926Y11428919D01*
X18151846D01*
X18155983Y11430632D01*
X18165688Y11426612D01*
X18179529D01*
X18185973Y11429281D01*
X18197984Y11424306D01*
X18253348D01*
X18254501Y11424783D01*
X18255655Y11424306D01*
X18281030D01*
X18282182Y11424783D01*
X18283337Y11424306D01*
X18285645D01*
X18296503Y11428803D01*
X18301791Y11426612D01*
X18313326D01*
X18321877Y11430155D01*
X18324860Y11428919D01*
X18334087D01*
X18335240Y11429397D01*
X18336394Y11428919D01*
X18338701D01*
X18344946Y11431506D01*
X18345621Y11431226D01*
X18354849D01*
X18361095Y11433813D01*
X18361769Y11433533D01*
X18370998D01*
X18377242Y11436120D01*
X18377917Y11435840D01*
X18384837D01*
X18390407Y11438147D01*
X18396371D01*
X18401941Y11440453D01*
X18407906D01*
X18413475Y11442760D01*
X18419440D01*
X18425009Y11445067D01*
X18428667D01*
X18434912Y11447654D01*
X18435588Y11447374D01*
X18437895D01*
X18443465Y11449681D01*
X18449429D01*
X18454997Y11451988D01*
X18458656D01*
X18464224Y11454294D01*
X18465578D01*
X18471146Y11456601D01*
X18474805D01*
X18480373Y11458908D01*
X18481725D01*
X18487294Y11461215D01*
X18488644D01*
X18494214Y11463522D01*
X18497873D01*
X18503442Y11465828D01*
X18504793D01*
X18510362Y11468136D01*
X18511714D01*
X18517284Y11470442D01*
X18518634D01*
X18529771Y11475056D01*
X18530168D01*
X18535738Y11477363D01*
X18537090D01*
X18548227Y11481977D01*
X18548624D01*
X18559761Y11486590D01*
X18560156D01*
X18613733Y11508782D01*
X18613931Y11509260D01*
X18618347Y11511089D01*
X18618462Y11511369D01*
X18634496Y11518009D01*
X18634692Y11518487D01*
X18639108Y11520316D01*
X18639307Y11520794D01*
X18643723Y11522623D01*
X18643919Y11523101D01*
X18648335Y11524930D01*
X18648534Y11525407D01*
X18652950Y11527237D01*
X18653146Y11527714D01*
X18657562Y11529543D01*
X18657761Y11530021D01*
X18662177Y11531850D01*
X18662373Y11532328D01*
X18666789Y11534157D01*
X18666988Y11534635D01*
X18671404Y11536464D01*
X18671602Y11536942D01*
X18676018Y11538771D01*
X18676215Y11539248D01*
X18680630Y11541078D01*
X18680829Y11541555D01*
X18685245Y11543384D01*
X18685443Y11543862D01*
X18689857Y11545691D01*
X18690056Y11546169D01*
X18694472Y11547998D01*
X18695148Y11549629D01*
X18696779Y11550305D01*
X18696977Y11550783D01*
X18701393Y11552612D01*
X18701591Y11553089D01*
X18706007Y11554918D01*
X18706204Y11555396D01*
X18710620Y11557225D01*
X18711296Y11558856D01*
X18712927Y11559532D01*
X18713126Y11560010D01*
X18717542Y11561839D01*
X18718216Y11563470D01*
X18719847Y11564146D01*
X18720045Y11564624D01*
X18724461Y11566453D01*
X18724660Y11566931D01*
X18729076Y11568760D01*
X18729750Y11570391D01*
X18731383Y11571067D01*
X18731580Y11571544D01*
X18735995Y11573373D01*
X18736671Y11575005D01*
X18738303Y11575680D01*
X18738499Y11576158D01*
X18742915Y11577987D01*
X18743591Y11579618D01*
X18745222Y11580294D01*
X18745419Y11580772D01*
X18749837Y11582601D01*
X18750513Y11584232D01*
X18752142Y11584907D01*
X18752341Y11585385D01*
X18756757Y11587214D01*
X18757433Y11588846D01*
X18759064Y11589521D01*
X18759937Y11591630D01*
X18765984Y11594135D01*
X18766660Y11595766D01*
X18768291Y11596442D01*
X18768489Y11596919D01*
X18772905Y11598748D01*
X18773579Y11600380D01*
X18775212Y11601055D01*
X18775887Y11602686D01*
X18777518Y11603362D01*
X18777716Y11603840D01*
X18782132Y11605669D01*
X18782808Y11607300D01*
X18784439Y11607976D01*
X18785115Y11609607D01*
X18786746Y11610283D01*
X18787619Y11612392D01*
X18793666Y11614896D01*
X18794342Y11616527D01*
X18795973Y11617203D01*
X18796848Y11619312D01*
X18802895Y11621817D01*
X18803569Y11623448D01*
X18805200Y11624124D01*
X18805876Y11625755D01*
X18807507Y11626430D01*
X18808382Y11628539D01*
X18814429Y11631044D01*
X18815103Y11632675D01*
X18816734Y11633351D01*
X18817410Y11634982D01*
X18819041Y11635658D01*
X18819717Y11637289D01*
X18821349Y11637965D01*
X18822897Y11641705D01*
X18830576Y11644885D01*
X18831252Y11646516D01*
X18832883Y11647192D01*
X18833559Y11648823D01*
X18835188Y11649499D01*
X18835864Y11651130D01*
X18837495Y11651806D01*
X18841748Y11662070D01*
X18855951Y11667954D01*
X18857977Y11672847D01*
X18862871Y11674874D01*
X18863547Y11676505D01*
X18865178Y11677181D01*
X18865854Y11678812D01*
X18867485Y11679488D01*
X18868161Y11681119D01*
X18869792Y11681795D01*
X18870467Y11683426D01*
X18872099Y11684101D01*
X18872774Y11685733D01*
X18874405Y11686408D01*
X18875081Y11688039D01*
X18876712Y11688715D01*
X18877388Y11690346D01*
X18879019Y11691022D01*
X18879695Y11692653D01*
X18881326Y11693329D01*
X18882002Y11694960D01*
X18883633Y11695635D01*
X18884308Y11697267D01*
X18885941Y11697942D01*
X18892497Y11713777D01*
X18904395Y11718704D01*
X18905070Y11720335D01*
X18906702Y11721011D01*
X18907378Y11722642D01*
X18909007Y11723318D01*
X18909685Y11724949D01*
X18911314Y11725625D01*
X18911990Y11727256D01*
X18913622Y11727931D01*
X18914297Y11729563D01*
X18915929Y11730238D01*
X18916605Y11731869D01*
X18918234Y11732545D01*
X18920740Y11738592D01*
X18922849Y11739465D01*
X18923524Y11741097D01*
X18925156Y11741772D01*
X18925832Y11743403D01*
X18927463Y11744079D01*
X18928139Y11745710D01*
X18929770Y11746386D01*
X18932274Y11752433D01*
X18934383Y11753306D01*
X18935059Y11754938D01*
X18936690Y11755613D01*
X18937366Y11757244D01*
X18938997Y11757920D01*
X18940826Y11762336D01*
X18941304Y11762534D01*
X18941978Y11764165D01*
X18943611Y11764841D01*
X18944286Y11766472D01*
X18945917Y11767147D01*
X18948422Y11773194D01*
X18950531Y11774068D01*
X18951207Y11775699D01*
X18952838Y11776375D01*
X18953514Y11778006D01*
X18955145Y11778682D01*
X18956973Y11783097D01*
X18957452Y11783295D01*
X18958127Y11784927D01*
X18959758Y11785602D01*
X18962263Y11791649D01*
X18964372Y11792523D01*
X18965048Y11794154D01*
X18966679Y11794830D01*
X18968507Y11799245D01*
X18968987Y11799443D01*
X18969661Y11801074D01*
X18971294Y11801750D01*
X18973798Y11807797D01*
X18975906Y11808671D01*
X18978410Y11814718D01*
X18980521Y11815591D01*
X18981195Y11817222D01*
X18982828Y11817898D01*
X18984656Y11822314D01*
X18985133Y11822512D01*
X18985809Y11824143D01*
X18987440Y11824818D01*
X18989268Y11829234D01*
X18989748Y11829432D01*
X18990424Y11831063D01*
X18992055Y11831739D01*
X18993883Y11836155D01*
X18994360Y11836353D01*
X18996190Y11840768D01*
X18996667Y11840966D01*
X18999173Y11847013D01*
X19001282Y11847887D01*
X19003111Y11852302D01*
X19003587Y11852500D01*
X19006093Y11858547D01*
X19008202Y11859421D01*
X19010031Y11863837D01*
X19010509Y11864035D01*
X19013014Y11870082D01*
X19015121Y11870955D01*
X19016953Y11875371D01*
X19017429Y11875569D01*
X19019258Y11879985D01*
X19019736Y11880182D01*
X19021565Y11884598D01*
X19022043Y11884796D01*
X19026376Y11895259D01*
X19028963Y11896330D01*
X19030794Y11900746D01*
X19031270Y11900944D01*
X19033099Y11905360D01*
X19033577Y11905558D01*
X19035406Y11909973D01*
X19035884Y11910171D01*
X19037714Y11914587D01*
X19038191Y11914785D01*
X19046660Y11935233D01*
X19047418Y11935547D01*
X19049248Y11939962D01*
X19049725Y11940160D01*
X19051553Y11944576D01*
X19052032Y11944774D01*
X19053860Y11949190D01*
X19054340Y11949388D01*
X19076530Y12002964D01*
Y12003359D01*
X19081145Y12014498D01*
Y12014893D01*
X19085757Y12026032D01*
Y12026427D01*
X19090372Y12037566D01*
Y12038917D01*
X19092677Y12044486D01*
Y12045838D01*
X19094984Y12051407D01*
Y12052758D01*
X19097292Y12058327D01*
Y12059679D01*
X19099599Y12065248D01*
Y12066599D01*
X19101906Y12072169D01*
Y12073520D01*
X19104211Y12079089D01*
Y12080440D01*
X19106519Y12086010D01*
Y12089668D01*
X19108826Y12095237D01*
Y12096588D01*
X19111133Y12102157D01*
Y12105816D01*
X19113440Y12111385D01*
Y12113692D01*
X19113161Y12114367D01*
X19115747Y12120612D01*
Y12122919D01*
X19115466Y12123594D01*
X19118053Y12129839D01*
Y12132146D01*
X19116537Y12135804D01*
X19122667Y12150601D01*
Y12151952D01*
X19124974Y12157522D01*
Y12164442D01*
X19121268Y12173389D01*
X19131894Y12199044D01*
Y12203658D01*
X19131137Y12205487D01*
X19134201Y12212886D01*
Y12217499D01*
X19127431Y12233845D01*
X19138815Y12261329D01*
Y12263636D01*
X19120062Y12308906D01*
X19118002Y12333994D01*
X19120062Y12359082D01*
X19138815Y12404353D01*
Y12408967D01*
X19116623Y12462543D01*
X19110886Y12464919D01*
X19124974Y12498933D01*
Y12501240D01*
X19121909Y12508638D01*
X19122667Y12510467D01*
Y12512774D01*
X19100475Y12566350D01*
X19052693Y12586142D01*
X19051155Y12589855D01*
Y12591207D01*
X19048848Y12596776D01*
Y12598127D01*
X19046542Y12603696D01*
Y12605048D01*
X19041928Y12616186D01*
Y12616582D01*
X19037314Y12627720D01*
Y12628116D01*
X19032701Y12639254D01*
Y12639650D01*
X19010509Y12693226D01*
X19010031Y12693424D01*
X19008202Y12697840D01*
X19007922Y12697956D01*
X19001282Y12713988D01*
X19000804Y12714186D01*
X18998975Y12718601D01*
X18998497Y12718799D01*
X18996667Y12723215D01*
X18996190Y12723413D01*
X18994360Y12727829D01*
X18993883Y12728027D01*
X18992055Y12732442D01*
X18991576Y12732641D01*
X18989748Y12737056D01*
X18989268Y12737254D01*
X18987440Y12741670D01*
X18986963Y12741868D01*
X18985133Y12746283D01*
X18984656Y12746481D01*
X18982828Y12750897D01*
X18982349Y12751095D01*
X18980521Y12755511D01*
X18980042Y12755709D01*
X18978214Y12760124D01*
X18977734Y12760322D01*
X18975906Y12764738D01*
X18974275Y12765414D01*
X18973599Y12767045D01*
X18973122Y12767243D01*
X18971294Y12771658D01*
X18970815Y12771856D01*
X18968987Y12776272D01*
X18968507Y12776470D01*
X18966679Y12780886D01*
X18966200Y12781084D01*
X18964372Y12785500D01*
X18962741Y12786175D01*
X18962065Y12787807D01*
X18961588Y12788004D01*
X18959758Y12792420D01*
X18959280Y12792618D01*
X18957452Y12797034D01*
X18955820Y12797709D01*
X18955145Y12799341D01*
X18954668Y12799539D01*
X18952838Y12803954D01*
X18951207Y12804630D01*
X18950531Y12806261D01*
X18950053Y12806459D01*
X18948224Y12810875D01*
X18947746Y12811073D01*
X18945917Y12815488D01*
X18944286Y12816164D01*
X18943611Y12817795D01*
X18943134Y12817993D01*
X18941304Y12822409D01*
X18939673Y12823085D01*
X18938997Y12824716D01*
X18938519Y12824915D01*
X18936690Y12829329D01*
X18935059Y12830005D01*
X18934383Y12831636D01*
X18932751Y12832312D01*
X18932076Y12833943D01*
X18931599Y12834142D01*
X18929770Y12838557D01*
X18928139Y12839232D01*
X18927463Y12840865D01*
X18926985Y12841061D01*
X18925156Y12845477D01*
X18923524Y12846153D01*
X18922849Y12847784D01*
X18921217Y12848460D01*
X18920541Y12850092D01*
X18920064Y12850288D01*
X18918234Y12854704D01*
X18916605Y12855380D01*
X18915929Y12857011D01*
X18914297Y12857687D01*
X18913622Y12859319D01*
X18913144Y12859515D01*
X18911314Y12863931D01*
X18909685Y12864607D01*
X18909007Y12866238D01*
X18907378Y12866914D01*
X18906702Y12868546D01*
X18905070Y12869221D01*
X18904395Y12870853D01*
X18903915Y12871049D01*
X18902087Y12875465D01*
X18900456Y12876141D01*
X18899780Y12877773D01*
X18898149Y12878448D01*
X18897475Y12880080D01*
X18895844Y12880756D01*
X18895168Y12882387D01*
X18894688Y12882585D01*
X18892860Y12887000D01*
X18891229Y12887675D01*
X18890553Y12889307D01*
X18888922Y12889983D01*
X18888246Y12891614D01*
X18886615Y12892290D01*
X18885941Y12893921D01*
X18884308Y12894597D01*
X18883633Y12896228D01*
X18882002Y12896902D01*
X18881326Y12898535D01*
X18880849Y12898732D01*
X18879019Y12903148D01*
X18877388Y12903824D01*
X18876712Y12905455D01*
X18875081Y12906131D01*
X18874405Y12907762D01*
X18872774Y12908437D01*
X18872099Y12910069D01*
X18870467Y12910744D01*
X18869792Y12912375D01*
X18868161Y12913051D01*
X18867485Y12914682D01*
X18865854Y12915358D01*
X18865178Y12916989D01*
X18863547Y12917665D01*
X18862871Y12919296D01*
X18861240Y12919972D01*
X18860565Y12921603D01*
X18858932Y12922278D01*
X18858258Y12923911D01*
X18856627Y12924585D01*
X18855951Y12926218D01*
X18854320Y12926892D01*
X18853644Y12928523D01*
X18852013Y12929199D01*
X18851337Y12930830D01*
X18849706Y12931506D01*
X18849030Y12933138D01*
X18847398Y12933813D01*
X18846724Y12935445D01*
X18845091Y12936121D01*
X18844417Y12937750D01*
X18842786Y12938428D01*
X18842110Y12940057D01*
X18840479Y12940733D01*
X18839803Y12942365D01*
X18838171Y12943040D01*
X18837495Y12944672D01*
X18835864Y12945348D01*
X18835188Y12946979D01*
X18833559Y12947655D01*
X18832883Y12949284D01*
X18831252Y12949960D01*
X18830576Y12951591D01*
X18828944Y12952267D01*
X18828268Y12953899D01*
X18826637Y12954575D01*
X18825961Y12956206D01*
X18824332Y12956882D01*
X18823656Y12958511D01*
X18822025Y12959187D01*
X18821349Y12960818D01*
X18819717Y12961494D01*
X18819041Y12963126D01*
X18817410Y12963802D01*
X18816734Y12965433D01*
X18815103Y12966109D01*
X18814429Y12967740D01*
X18810011Y12969569D01*
X18809814Y12970045D01*
X18808183Y12970721D01*
X18807507Y12972353D01*
X18805876Y12973029D01*
X18805200Y12974660D01*
X18803569Y12975336D01*
X18802895Y12976967D01*
X18801262Y12977643D01*
X18800587Y12979274D01*
X18798956Y12979948D01*
X18798280Y12981581D01*
X18796649Y12982256D01*
X18795973Y12983887D01*
X18791557Y12985716D01*
X18791359Y12986194D01*
X18789728Y12986870D01*
X18789053Y12988501D01*
X18787421Y12989177D01*
X18786746Y12990808D01*
X18785115Y12991484D01*
X18784439Y12993115D01*
X18782808Y12993790D01*
X18782132Y12995422D01*
X18777716Y12997250D01*
X18777518Y12997728D01*
X18775887Y12998404D01*
X18775212Y13000035D01*
X18773581Y13000711D01*
X18772905Y13002342D01*
X18768489Y13004172D01*
X18768291Y13004649D01*
X18766660Y13005325D01*
X18765984Y13006956D01*
X18764352Y13007632D01*
X18763676Y13009264D01*
X18759261Y13011092D01*
X18759064Y13011571D01*
X18757433Y13012245D01*
X18756757Y13013876D01*
X18755125Y13014552D01*
X18754449Y13016183D01*
X18750034Y13018011D01*
X18749837Y13018491D01*
X18748206Y13019167D01*
X18747530Y13020798D01*
X18743114Y13022626D01*
X18742915Y13023103D01*
X18741286Y13023779D01*
X18740610Y13025410D01*
X18736192Y13027240D01*
X18735995Y13027718D01*
X18734364Y13028394D01*
X18733688Y13030025D01*
X18729272Y13031853D01*
X18729076Y13032330D01*
X18727444Y13033006D01*
X18726768Y13034637D01*
X18722353Y13036467D01*
X18722154Y13036945D01*
X18720523Y13037621D01*
X18719847Y13039252D01*
X18715433Y13041081D01*
X18715234Y13041557D01*
X18713603Y13042233D01*
X18712927Y13043864D01*
X18708511Y13045694D01*
X18708313Y13046172D01*
X18703899Y13048001D01*
X18703700Y13048479D01*
X18702069Y13049155D01*
X18701393Y13050786D01*
X18696977Y13052615D01*
X18696779Y13053093D01*
X18692363Y13054922D01*
X18692165Y13055399D01*
X18690533Y13056075D01*
X18689857Y13057706D01*
X18685443Y13059535D01*
X18685245Y13060013D01*
X18680829Y13061842D01*
X18680630Y13062320D01*
X18676215Y13064149D01*
X18676018Y13064627D01*
X18674387Y13065302D01*
X18673711Y13066933D01*
X18669295Y13068764D01*
X18669096Y13069240D01*
X18664680Y13071069D01*
X18664484Y13071547D01*
X18660068Y13073376D01*
X18659869Y13073854D01*
X18655453Y13075684D01*
X18655257Y13076161D01*
X18650841Y13077991D01*
X18650642Y13078468D01*
X18646227Y13080296D01*
X18646030Y13080775D01*
X18641612Y13082603D01*
X18641415Y13083083D01*
X18637000Y13084911D01*
X18636801Y13085388D01*
X18632385Y13087218D01*
X18632188Y13087695D01*
X18627773Y13089523D01*
X18627574Y13090002D01*
X18623158Y13091830D01*
X18622960Y13092310D01*
X18618544Y13094138D01*
X18618347Y13094617D01*
X18613931Y13096445D01*
X18613733Y13096922D01*
X18597701Y13103563D01*
X18597585Y13103844D01*
X18544009Y13126035D01*
X18543613D01*
X18532475Y13130647D01*
X18532079D01*
X18520941Y13135262D01*
X18519591D01*
X18514020Y13137569D01*
X18513625D01*
X18502486Y13142183D01*
X18501135D01*
X18495566Y13144489D01*
X18494214D01*
X18488644Y13146796D01*
X18487294D01*
X18481725Y13149103D01*
X18478065D01*
X18472498Y13151410D01*
X18471146D01*
X18465578Y13153717D01*
X18464224D01*
X18458656Y13156023D01*
X18454997D01*
X18449429Y13158330D01*
X18445770D01*
X18440202Y13160637D01*
X18436543D01*
X18430974Y13162944D01*
X18427316D01*
X18421747Y13165251D01*
X18415782D01*
X18410213Y13167558D01*
X18404248D01*
X18398679Y13169864D01*
X18392714D01*
X18387144Y13172173D01*
X18378873D01*
X18373303Y13174478D01*
X18365031D01*
X18359462Y13176785D01*
X18346577D01*
X18341008Y13179092D01*
X18325815D01*
X18320245Y13181400D01*
X18293520D01*
X18287950Y13183707D01*
D02*
G37*
G36*
X20917760Y12117500D02*
X20611241D01*
X20394501Y11900759D01*
Y11594241D01*
X20611241Y11377500D01*
X20917760D01*
X21134500Y11594241D01*
Y11900759D01*
X20917760Y12117500D01*
D02*
G37*
G36*
X13678758D02*
X13372241D01*
X13155499Y11900759D01*
Y11594241D01*
X13372241Y11377500D01*
X13678758D01*
X13895500Y11594241D01*
Y11900759D01*
X13678758Y12117500D01*
D02*
G37*
G36*
X3368001Y11264400D02*
X3210599D01*
X3099300Y11153101D01*
Y10995699D01*
X3210599Y10884400D01*
X3368001D01*
X3479300Y10995699D01*
Y11153101D01*
X3368001Y11264400D01*
D02*
G37*
G36*
Y10764401D02*
X3210599D01*
X3099300Y10653102D01*
Y10495700D01*
X3210599Y10384401D01*
X3368001D01*
X3479300Y10495700D01*
Y10653102D01*
X3368001Y10764401D01*
D02*
G37*
G36*
X3370569Y10270627D02*
X3302000D01*
Y10087127D01*
X3485500D01*
Y10155696D01*
X3370569Y10270627D01*
D02*
G37*
G36*
X3276600D02*
X3208031D01*
X3093100Y10155696D01*
Y10087127D01*
X3276600D01*
Y10270627D01*
D02*
G37*
G36*
X5963366Y10210800D02*
X5918200D01*
Y10083800D01*
X6045200D01*
Y10128966D01*
X5963366Y10210800D01*
D02*
G37*
G36*
X5892800D02*
X5847634D01*
X5765800Y10128966D01*
Y10083800D01*
X5892800D01*
Y10210800D01*
D02*
G37*
G36*
X6045200Y10058400D02*
X5918200D01*
Y9931400D01*
X5963366D01*
X6045200Y10013234D01*
Y10058400D01*
D02*
G37*
G36*
X5892800D02*
X5765800D01*
Y10013234D01*
X5847634Y9931400D01*
X5892800D01*
Y10058400D01*
D02*
G37*
G36*
X3485500Y10061727D02*
X3302000D01*
Y9878228D01*
X3370569D01*
X3485500Y9993159D01*
Y10061727D01*
D02*
G37*
G36*
X3276600D02*
X3093100D01*
Y9993159D01*
X3208031Y9878228D01*
X3276600D01*
Y10061727D01*
D02*
G37*
G36*
X13388301Y10045200D02*
X13230899D01*
X13119600Y9933901D01*
Y9776499D01*
X13230899Y9665200D01*
X13388301D01*
X13499600Y9776499D01*
Y9933901D01*
X13388301Y10045200D01*
D02*
G37*
G36*
Y9545201D02*
X13230899D01*
X13119600Y9433902D01*
Y9276500D01*
X13230899Y9165201D01*
X13388301D01*
X13499600Y9276500D01*
Y9433902D01*
X13388301Y9545201D01*
D02*
G37*
G36*
X3368001Y9491099D02*
X3210599D01*
X3099300Y9379800D01*
Y9222398D01*
X3210599Y9111099D01*
X3368001D01*
X3479300Y9222398D01*
Y9379800D01*
X3368001Y9491099D01*
D02*
G37*
G36*
X6877766Y9042400D02*
X6832600D01*
Y8915400D01*
X6959600D01*
Y8960566D01*
X6877766Y9042400D01*
D02*
G37*
G36*
X6807200D02*
X6762034D01*
X6680200Y8960566D01*
Y8915400D01*
X6807200D01*
Y9042400D01*
D02*
G37*
G36*
X6959600Y8890000D02*
X6832600D01*
Y8763000D01*
X6877766D01*
X6959600Y8844834D01*
Y8890000D01*
D02*
G37*
G36*
X6807200D02*
X6680200D01*
Y8844834D01*
X6762034Y8763000D01*
X6807200D01*
Y8890000D01*
D02*
G37*
G36*
X13388301Y9045227D02*
X13230899D01*
X13119600Y8933928D01*
Y8776527D01*
X13230899Y8665228D01*
X13388301D01*
X13499600Y8776527D01*
Y8933928D01*
X13388301Y9045227D01*
D02*
G37*
G36*
X3368001Y8991100D02*
X3210599D01*
X3099300Y8879801D01*
Y8722399D01*
X3210599Y8611100D01*
X3368001D01*
X3479300Y8722399D01*
Y8879801D01*
X3368001Y8991100D01*
D02*
G37*
G36*
Y8491126D02*
X3210599D01*
X3099300Y8379827D01*
Y8222426D01*
X3210599Y8111127D01*
X3368001D01*
X3479300Y8222426D01*
Y8379827D01*
X3368001Y8491126D01*
D02*
G37*
G36*
X13388301Y8284599D02*
X13230899D01*
X13119600Y8173300D01*
Y8015898D01*
X13230899Y7904599D01*
X13388301D01*
X13499600Y8015898D01*
Y8173300D01*
X13388301Y8284599D01*
D02*
G37*
G36*
Y7784600D02*
X13230899D01*
X13119600Y7673301D01*
Y7515899D01*
X13230899Y7404600D01*
X13388301D01*
X13499600Y7515899D01*
Y7673301D01*
X13388301Y7784600D01*
D02*
G37*
G36*
X3380701Y7738499D02*
X3223299D01*
X3112000Y7627200D01*
Y7469798D01*
X3223299Y7358499D01*
X3380701D01*
X3492000Y7469798D01*
Y7627200D01*
X3380701Y7738499D01*
D02*
G37*
G36*
X13388301Y7284626D02*
X13230899D01*
X13119600Y7173327D01*
Y7015926D01*
X13230899Y6904627D01*
X13388301D01*
X13499600Y7015926D01*
Y7173327D01*
X13388301Y7284626D01*
D02*
G37*
G36*
X3380701Y7238500D02*
X3223299D01*
X3112000Y7127201D01*
Y6969799D01*
X3223299Y6858500D01*
X3380701D01*
X3492000Y6969799D01*
Y7127201D01*
X3380701Y7238500D01*
D02*
G37*
G36*
Y6738526D02*
X3223299D01*
X3112000Y6627227D01*
Y6469826D01*
X3223299Y6358527D01*
X3380701D01*
X3492000Y6469826D01*
Y6627227D01*
X3380701Y6738526D01*
D02*
G37*
G36*
Y5977872D02*
X3223299D01*
X3112000Y5866573D01*
Y5709172D01*
X3223299Y5597873D01*
X3380701D01*
X3492000Y5709172D01*
Y5866573D01*
X3380701Y5977872D01*
D02*
G37*
G36*
Y5477873D02*
X3223299D01*
X3112000Y5366574D01*
Y5209173D01*
X3223299Y5097874D01*
X3380701D01*
X3492000Y5209173D01*
Y5366574D01*
X3380701Y5477873D01*
D02*
G37*
G36*
X13678758Y5767500D02*
X13372241D01*
X13155499Y5550759D01*
Y5244241D01*
X13372241Y5027500D01*
X13678758D01*
X13895500Y5244241D01*
Y5550759D01*
X13678758Y5767500D01*
D02*
G37*
G36*
X4534759D02*
X4228241D01*
X4011500Y5550759D01*
Y5244241D01*
X4228241Y5027500D01*
X4534759D01*
X4751500Y5244241D01*
Y5550759D01*
X4534759Y5767500D01*
D02*
G37*
G36*
X12769023Y5270000D02*
X12611622D01*
X12500323Y5158701D01*
Y5001299D01*
X12611622Y4890000D01*
X12769023D01*
X12880322Y5001299D01*
Y5158701D01*
X12769023Y5270000D01*
D02*
G37*
G36*
X12269024D02*
X12111623D01*
X12000324Y5158701D01*
Y5001299D01*
X12111623Y4890000D01*
X12269024D01*
X12380323Y5001299D01*
Y5158701D01*
X12269024Y5270000D01*
D02*
G37*
G36*
X11769051D02*
X11611649D01*
X11500350Y5158701D01*
Y5001299D01*
X11611649Y4890000D01*
X11769051D01*
X11880350Y5001299D01*
Y5158701D01*
X11769051Y5270000D01*
D02*
G37*
G36*
X11007051D02*
X10849649D01*
X10738350Y5158701D01*
Y5001299D01*
X10849649Y4890000D01*
X11007051D01*
X11118350Y5001299D01*
Y5158701D01*
X11007051Y5270000D01*
D02*
G37*
G36*
X10507077D02*
X10349676D01*
X10238377Y5158701D01*
Y5001299D01*
X10349676Y4890000D01*
X10507077D01*
X10618376Y5001299D01*
Y5158701D01*
X10507077Y5270000D01*
D02*
G37*
G36*
X10007078D02*
X9849677D01*
X9738378Y5158701D01*
Y5001299D01*
X9849677Y4890000D01*
X10007078D01*
X10118377Y5001299D01*
Y5158701D01*
X10007078Y5270000D01*
D02*
G37*
G36*
X9235401D02*
X9077999D01*
X8966700Y5158701D01*
Y5001299D01*
X9077999Y4890000D01*
X9235401D01*
X9346700Y5001299D01*
Y5158701D01*
X9235401Y5270000D01*
D02*
G37*
G36*
X8735402D02*
X8578000D01*
X8466701Y5158701D01*
Y5001299D01*
X8578000Y4890000D01*
X8735402D01*
X8846701Y5001299D01*
Y5158701D01*
X8735402Y5270000D01*
D02*
G37*
G36*
X7976119D02*
X7818718D01*
X7707419Y5158701D01*
Y5001299D01*
X7818718Y4890000D01*
X7976119D01*
X8087419Y5001299D01*
Y5158701D01*
X7976119Y5270000D01*
D02*
G37*
G36*
X7476146D02*
X7318745D01*
X7207445Y5158701D01*
Y5001299D01*
X7318745Y4890000D01*
X7476146D01*
X7587445Y5001299D01*
Y5158701D01*
X7476146Y5270000D01*
D02*
G37*
G36*
X6976147D02*
X6818746D01*
X6707446Y5158701D01*
Y5001299D01*
X6818746Y4890000D01*
X6976147D01*
X7087446Y5001299D01*
Y5158701D01*
X6976147Y5270000D01*
D02*
G37*
G36*
X6214147D02*
X6056746D01*
X5945446Y5158701D01*
Y5001299D01*
X6056746Y4890000D01*
X6214147D01*
X6325446Y5001299D01*
Y5158701D01*
X6214147Y5270000D01*
D02*
G37*
G36*
X5714173D02*
X5556772D01*
X5445473Y5158701D01*
Y5001299D01*
X5556772Y4890000D01*
X5714173D01*
X5825472Y5001299D01*
Y5158701D01*
X5714173Y5270000D01*
D02*
G37*
G36*
X5214174D02*
X5056773D01*
X4945474Y5158701D01*
Y5001299D01*
X5056773Y4890000D01*
X5214174D01*
X5325473Y5001299D01*
Y5158701D01*
X5214174Y5270000D01*
D02*
G37*
G36*
X3380701Y4977900D02*
X3223299D01*
X3112000Y4866601D01*
Y4709199D01*
X3223299Y4597900D01*
X3380701D01*
X3492000Y4709199D01*
Y4866601D01*
X3380701Y4977900D01*
D02*
G37*
%LPD*%
G36*
X10651812Y25402499D02*
Y25254100D01*
X10587302D01*
X10509100Y25175899D01*
Y25065302D01*
X10587302Y24987100D01*
X10697898D01*
X10728137Y25017340D01*
X11031628D01*
X11572211Y24476756D01*
X11565486Y24442947D01*
X11557969Y24434430D01*
X11545053Y24421513D01*
X11262654D01*
X11189638Y24391270D01*
X10926155Y24127786D01*
X10889200Y24143095D01*
Y24190060D01*
X10804261Y24275000D01*
X10684139D01*
X10619199Y24210060D01*
X10554259Y24275000D01*
X10434137D01*
X10427174Y24268037D01*
X10395396Y24281200D01*
Y24281200D01*
X10256896D01*
Y24130000D01*
X10231496D01*
Y24281200D01*
X10092996D01*
Y24192722D01*
X10056041Y24177414D01*
X9997673Y24235782D01*
Y25132376D01*
X10001112Y25133800D01*
X10158513D01*
X10269812Y25245099D01*
Y25265028D01*
X10306767Y25280334D01*
X10320602Y25266499D01*
X10431198D01*
X10509400Y25344702D01*
Y25400168D01*
X10515172Y25405939D01*
X10650388D01*
X10651812Y25402499D01*
D02*
G37*
G36*
X11801233Y22470265D02*
X11750502Y22419534D01*
X11689776Y22480260D01*
X11568282D01*
X11546714Y22498608D01*
X11538704Y22512587D01*
Y22561563D01*
X11372505D01*
Y22586963D01*
X11538704D01*
Y22643108D01*
X11480547Y22701265D01*
X11525390Y22746107D01*
X11801233Y22470265D01*
D02*
G37*
G36*
X19046899Y12510467D02*
X19044592D01*
Y12512774D01*
X19046899D01*
Y12510467D01*
D02*
G37*
G36*
X19049207Y12498933D02*
X19046899D01*
Y12501240D01*
X19049207D01*
Y12498933D01*
D02*
G37*
G36*
X19063046Y12404353D02*
X19060741D01*
Y12408967D01*
X19063046D01*
Y12404353D01*
D02*
G37*
G36*
Y12261329D02*
X19060741D01*
Y12263636D01*
X19063046D01*
Y12261329D01*
D02*
G37*
G36*
X19058434Y12215192D02*
Y12212886D01*
X19056126D01*
Y12217499D01*
X19058434D01*
Y12215192D01*
D02*
G37*
G36*
X19056126Y12201351D02*
Y12199044D01*
X19053819D01*
Y12203658D01*
X19056126D01*
Y12201351D01*
D02*
G37*
G36*
X19049207Y12159828D02*
Y12157522D01*
X19046899D01*
Y12164442D01*
X19049207D01*
Y12159828D01*
D02*
G37*
G36*
X19046899Y12150601D02*
X19044592D01*
Y12152908D01*
X19046899D01*
Y12150601D01*
D02*
G37*
G36*
X19042287Y12129839D02*
X19039980D01*
Y12132146D01*
X19042287D01*
Y12129839D01*
D02*
G37*
G36*
X19039980Y12120612D02*
X19037672D01*
Y12122919D01*
X19039980D01*
Y12120612D01*
D02*
G37*
G36*
X19037672Y12111385D02*
X19035365D01*
Y12113692D01*
X19037672D01*
Y12111385D01*
D02*
G37*
G36*
X19035365Y12104464D02*
Y12102157D01*
X19033058D01*
Y12106771D01*
X19035365D01*
Y12104464D01*
D02*
G37*
G36*
X19033058Y12095237D02*
X19030753D01*
Y12097544D01*
X19033058D01*
Y12095237D01*
D02*
G37*
G36*
X19030753Y12088316D02*
Y12086010D01*
X19028445D01*
Y12090623D01*
X19030753D01*
Y12088316D01*
D02*
G37*
G36*
X19028445Y12079089D02*
X19026138D01*
Y12081396D01*
X19028445D01*
Y12079089D01*
D02*
G37*
G36*
X19026138Y12072169D02*
X19023831D01*
Y12074475D01*
X19026138D01*
Y12072169D01*
D02*
G37*
G36*
X19023831Y12065248D02*
X19021524D01*
Y12067555D01*
X19023831D01*
Y12065248D01*
D02*
G37*
G36*
X19021524Y12058327D02*
X19019217D01*
Y12060634D01*
X19021524D01*
Y12058327D01*
D02*
G37*
G36*
X19019217Y12051407D02*
X19016911D01*
Y12053714D01*
X19019217D01*
Y12051407D01*
D02*
G37*
G36*
X19016911Y12046793D02*
Y12044486D01*
X19014604D01*
Y12049100D01*
X19016911D01*
Y12046793D01*
D02*
G37*
G36*
X19014604Y12039873D02*
Y12037566D01*
X19012297D01*
Y12042180D01*
X19014604D01*
Y12039873D01*
D02*
G37*
G36*
X19012297Y12032952D02*
X19009990D01*
Y12035259D01*
X19012297D01*
Y12032952D01*
D02*
G37*
G36*
X19009990Y12026032D02*
X19007683D01*
Y12030645D01*
X19009990D01*
Y12026032D01*
D02*
G37*
G36*
X19007683Y12021418D02*
X19005376D01*
Y12023725D01*
X19007683D01*
Y12021418D01*
D02*
G37*
G36*
X19005376Y12014498D02*
X19003069D01*
Y12016805D01*
X19005376D01*
Y12014498D01*
D02*
G37*
G36*
X19003069Y12009884D02*
X19000763D01*
Y12012191D01*
X19003069D01*
Y12009884D01*
D02*
G37*
G36*
X19000763Y12002964D02*
X18998456D01*
Y12005270D01*
Y12007577D01*
X19000763D01*
Y12002964D01*
D02*
G37*
G36*
X18998456Y11998350D02*
X18996149D01*
Y12000657D01*
X18998456D01*
Y11998350D01*
D02*
G37*
G36*
X18996149Y11993736D02*
X18993842D01*
Y11996043D01*
X18996149D01*
Y11993736D01*
D02*
G37*
G36*
X18993842Y11989123D02*
X18991534D01*
Y11991429D01*
X18993842D01*
Y11989123D01*
D02*
G37*
G36*
X18984615Y11968361D02*
X18982307D01*
Y11970668D01*
X18984615D01*
Y11968361D01*
D02*
G37*
G36*
X18982307Y11963747D02*
X18980000D01*
Y11966054D01*
X18982307D01*
Y11963747D01*
D02*
G37*
G36*
X18980000Y11961440D02*
Y11959134D01*
X18977695D01*
Y11963747D01*
X18980000D01*
Y11961440D01*
D02*
G37*
G36*
X18977695Y11956827D02*
Y11954520D01*
X18975388D01*
Y11959134D01*
X18977695D01*
Y11956827D01*
D02*
G37*
G36*
X18975388Y11952213D02*
Y11949906D01*
X18973080D01*
Y11954520D01*
X18975388D01*
Y11952213D01*
D02*
G37*
G36*
X18968468Y11938372D02*
X18966161D01*
Y11940679D01*
X18968468D01*
Y11938372D01*
D02*
G37*
G36*
X18966161Y11933758D02*
X18963853D01*
Y11936065D01*
X18966161D01*
Y11933758D01*
D02*
G37*
G36*
X18963853Y11929145D02*
X18961546D01*
Y11931452D01*
X18963853D01*
Y11929145D01*
D02*
G37*
G36*
X18961546Y11924531D02*
X18959241D01*
Y11926838D01*
X18961546D01*
Y11924531D01*
D02*
G37*
G36*
X18956934Y11917611D02*
X18954626D01*
Y11919917D01*
X18956934D01*
Y11917611D01*
D02*
G37*
G36*
X18954626Y11912997D02*
X18952319D01*
Y11915304D01*
X18954626D01*
Y11912997D01*
D02*
G37*
G36*
X18950012Y11906076D02*
X18947707D01*
Y11908383D01*
X18950012D01*
Y11906076D01*
D02*
G37*
G36*
X18947707Y11901463D02*
X18945399D01*
Y11903769D01*
X18947707D01*
Y11901463D01*
D02*
G37*
G36*
X18943092Y11894542D02*
X18940785D01*
Y11896849D01*
X18943092D01*
Y11894542D01*
D02*
G37*
G36*
X18940785Y11889928D02*
X18938478D01*
Y11892235D01*
X18940785D01*
Y11889928D01*
D02*
G37*
G36*
X18938478Y11885315D02*
X18936171D01*
Y11887622D01*
X18938478D01*
Y11885315D01*
D02*
G37*
G36*
X18936171Y11883008D02*
X18933864D01*
Y11885315D01*
X18936171D01*
Y11883008D01*
D02*
G37*
G36*
X18933864Y11878394D02*
X18931558D01*
Y11880701D01*
X18933864D01*
Y11878394D01*
D02*
G37*
G36*
X18931558Y11876087D02*
X18929251D01*
Y11878394D01*
X18931558D01*
Y11876087D01*
D02*
G37*
G36*
X18929251Y11871474D02*
X18926944D01*
Y11873781D01*
X18929251D01*
Y11871474D01*
D02*
G37*
G36*
X18926944Y11869167D02*
X18924637D01*
Y11871474D01*
X18926944D01*
Y11869167D01*
D02*
G37*
G36*
X18922330Y11862247D02*
X18920023D01*
Y11864553D01*
X18922330D01*
Y11862247D01*
D02*
G37*
G36*
X18917717Y11855326D02*
X18915410D01*
Y11857633D01*
X18917717D01*
Y11855326D01*
D02*
G37*
G36*
X18915410Y11853019D02*
X18913103D01*
Y11855326D01*
X18915410D01*
Y11853019D01*
D02*
G37*
G36*
X18913103Y11848406D02*
X18910796D01*
Y11850712D01*
X18913103D01*
Y11848406D01*
D02*
G37*
G36*
X18910796Y11846099D02*
X18908488D01*
Y11848406D01*
X18910796D01*
Y11846099D01*
D02*
G37*
G36*
X18906181Y11839178D02*
X18903876D01*
Y11841485D01*
X18906181D01*
Y11839178D01*
D02*
G37*
G36*
X18903876Y11836871D02*
X18901569D01*
Y11839178D01*
X18903876D01*
Y11836871D01*
D02*
G37*
G36*
X18901569Y11832258D02*
X18899261D01*
Y11834564D01*
X18901569D01*
Y11832258D01*
D02*
G37*
G36*
X18899261Y11829951D02*
X18896954D01*
Y11832258D01*
X18899261D01*
Y11829951D01*
D02*
G37*
G36*
X18896954Y11827644D02*
X18894649D01*
Y11829951D01*
X18896954D01*
Y11827644D01*
D02*
G37*
G36*
X18892342Y11820723D02*
X18890034D01*
Y11823030D01*
X18892342D01*
Y11820723D01*
D02*
G37*
G36*
X18890034Y11818417D02*
X18887727D01*
Y11820723D01*
X18890034D01*
Y11818417D01*
D02*
G37*
G36*
X18887727Y11816110D02*
X18885422D01*
Y11818417D01*
X18887727D01*
Y11816110D01*
D02*
G37*
G36*
X18885422Y11811496D02*
X18883115D01*
Y11813803D01*
X18885422D01*
Y11811496D01*
D02*
G37*
G36*
X18883115Y11809189D02*
X18880807D01*
Y11811496D01*
X18883115D01*
Y11809189D01*
D02*
G37*
G36*
X18880807Y11806882D02*
X18878500D01*
Y11809189D01*
X18880807D01*
Y11806882D01*
D02*
G37*
G36*
X17600513Y11802269D02*
X17598206D01*
Y11804576D01*
X17600513D01*
Y11802269D01*
D02*
G37*
G36*
X18876193Y11799962D02*
X18873888D01*
Y11802269D01*
X18876193D01*
Y11799962D01*
D02*
G37*
G36*
X18873888Y11797655D02*
X18871581D01*
Y11799962D01*
X18873888D01*
Y11797655D01*
D02*
G37*
G36*
X18871581Y11795348D02*
X18869273D01*
Y11797655D01*
X18871581D01*
Y11795348D01*
D02*
G37*
G36*
X18869273Y11793041D02*
X18866966D01*
Y11795348D01*
X18869273D01*
Y11793041D01*
D02*
G37*
G36*
X18864659Y11786121D02*
X18862352D01*
Y11788428D01*
X18864659D01*
Y11786121D01*
D02*
G37*
G36*
X17612048Y11788428D02*
X17614354D01*
Y11786121D01*
X17612048D01*
Y11788428D01*
X17609741D01*
Y11790735D01*
X17612048D01*
Y11788428D01*
D02*
G37*
G36*
X18862352Y11783814D02*
X18860046D01*
Y11786121D01*
X18862352D01*
Y11783814D01*
D02*
G37*
G36*
X18860046Y11781507D02*
X18857739D01*
Y11783814D01*
X18860046D01*
Y11781507D01*
D02*
G37*
G36*
X18857739Y11779200D02*
X18855432D01*
Y11781507D01*
X18857739D01*
Y11779200D01*
D02*
G37*
G36*
X18855432Y11776894D02*
X18853125D01*
Y11779200D01*
X18855432D01*
Y11776894D01*
D02*
G37*
G36*
X18853125Y11774587D02*
X18850818D01*
Y11776894D01*
X18853125D01*
Y11774587D01*
D02*
G37*
G36*
X18850818Y11772280D02*
X18848511D01*
Y11774587D01*
X18850818D01*
Y11772280D01*
D02*
G37*
G36*
X18832364Y11751518D02*
X18830057D01*
Y11753825D01*
X18832364D01*
Y11751518D01*
D02*
G37*
G36*
X18830057Y11749211D02*
X18827750D01*
Y11751518D01*
X18830057D01*
Y11749211D01*
D02*
G37*
G36*
X18827750Y11746905D02*
X18825443D01*
Y11749211D01*
X18827750D01*
Y11746905D01*
D02*
G37*
G36*
X18825443Y11744598D02*
X18823135D01*
Y11746905D01*
X18825443D01*
Y11744598D01*
D02*
G37*
G36*
X18823135Y11742291D02*
X18820830D01*
Y11744598D01*
X18823135D01*
Y11742291D01*
D02*
G37*
G36*
X18820830Y11739984D02*
X18818523D01*
Y11742291D01*
X18820830D01*
Y11739984D01*
D02*
G37*
G36*
X18818523Y11737677D02*
X18816216D01*
Y11739984D01*
X18818523D01*
Y11737677D01*
D02*
G37*
G36*
X18816216Y11735370D02*
X18813908D01*
Y11737677D01*
X18816216D01*
Y11735370D01*
D02*
G37*
G36*
X18813908Y11733064D02*
X18811601D01*
Y11735370D01*
X18813908D01*
Y11733064D01*
D02*
G37*
G36*
X18811601Y11730757D02*
X18809296D01*
Y11733064D01*
X18811601D01*
Y11730757D01*
D02*
G37*
G36*
X18809296Y11728450D02*
X18806989D01*
Y11730757D01*
X18809296D01*
Y11728450D01*
D02*
G37*
G36*
X18802374Y11721530D02*
X18800069D01*
Y11723836D01*
X18802374D01*
Y11721530D01*
D02*
G37*
G36*
X17681252Y11716916D02*
X17678946D01*
Y11719223D01*
X17681252D01*
Y11716916D01*
D02*
G37*
G36*
X18783920Y11705382D02*
X18781613D01*
Y11707689D01*
X18783920D01*
Y11705382D01*
D02*
G37*
G36*
X18781613Y11703075D02*
X18779306D01*
Y11705382D01*
X18781613D01*
Y11703075D01*
D02*
G37*
G36*
X18779306Y11700768D02*
X18777000D01*
Y11703075D01*
X18779306D01*
Y11700768D01*
D02*
G37*
G36*
X18777000Y11698461D02*
X18774693D01*
Y11700768D01*
X18777000D01*
Y11698461D01*
D02*
G37*
G36*
X18767772Y11691541D02*
X18765465D01*
Y11693848D01*
X18767772D01*
Y11691541D01*
D02*
G37*
G36*
X18765465Y11689234D02*
X18763159D01*
Y11691541D01*
X18765465D01*
Y11689234D01*
D02*
G37*
G36*
X18763159Y11686927D02*
X18760852D01*
Y11689234D01*
X18763159D01*
Y11686927D01*
D02*
G37*
G36*
X17715855D02*
X17713548D01*
Y11689234D01*
X17715855D01*
Y11686927D01*
D02*
G37*
G36*
X18760852Y11684620D02*
X18758545D01*
Y11686927D01*
X18760852D01*
Y11684620D01*
D02*
G37*
G36*
X18753931Y11680006D02*
X18751624D01*
Y11682313D01*
X18753931D01*
Y11680006D01*
D02*
G37*
G36*
X18751624Y11677700D02*
X18749318D01*
Y11680006D01*
X18751624D01*
Y11677700D01*
D02*
G37*
G36*
X17725082Y11680006D02*
X17727390D01*
Y11677700D01*
X17725082D01*
Y11680006D01*
X17722775D01*
Y11682313D01*
X17725082D01*
Y11680006D01*
D02*
G37*
G36*
X18749318Y11675393D02*
X18747011D01*
Y11677700D01*
X18749318D01*
Y11675393D01*
D02*
G37*
G36*
X18742397Y11670779D02*
X18740089D01*
Y11673086D01*
X18742397D01*
Y11670779D01*
D02*
G37*
G36*
X18740089Y11668472D02*
X18737782D01*
Y11670779D01*
X18740089D01*
Y11668472D01*
D02*
G37*
G36*
X18733170Y11663859D02*
X18730862D01*
Y11666165D01*
X18733170D01*
Y11663859D01*
D02*
G37*
G36*
X17745844D02*
X17743536D01*
Y11666165D01*
X17745844D01*
Y11663859D01*
D02*
G37*
G36*
X18730862Y11661552D02*
X18728555D01*
Y11663859D01*
X18730862D01*
Y11661552D01*
D02*
G37*
G36*
X18728555Y11659245D02*
X18726250D01*
Y11661552D01*
X18728555D01*
Y11659245D01*
D02*
G37*
G36*
X18723943Y11656938D02*
X18721635D01*
Y11659245D01*
X18723943D01*
Y11656938D01*
D02*
G37*
G36*
X17755070D02*
X17752763D01*
Y11659245D01*
X17755070D01*
Y11656938D01*
D02*
G37*
G36*
X18721635Y11654631D02*
X18719328D01*
Y11656938D01*
X18721635D01*
Y11654631D01*
D02*
G37*
G36*
X18719328Y11652324D02*
X18717023D01*
Y11654631D01*
X18719328D01*
Y11652324D01*
D02*
G37*
G36*
X18714716Y11650018D02*
X18712408D01*
Y11652324D01*
X18714716D01*
Y11650018D01*
D02*
G37*
G36*
X17764299D02*
X17761992D01*
Y11652324D01*
X17764299D01*
Y11650018D01*
D02*
G37*
G36*
X18712408Y11647711D02*
X18710101D01*
Y11650018D01*
X18712408D01*
Y11647711D01*
D02*
G37*
G36*
X17771219Y11645404D02*
X17768912D01*
Y11647711D01*
X17771219D01*
Y11645404D01*
D02*
G37*
G36*
X18705489Y11643097D02*
X18703181D01*
Y11645404D01*
X18705489D01*
Y11643097D01*
D02*
G37*
G36*
X18703181Y11640790D02*
X18700874D01*
Y11643097D01*
X18703181D01*
Y11640790D01*
D02*
G37*
G36*
X17778140D02*
X17775833D01*
Y11643097D01*
X17778140D01*
Y11640790D01*
D02*
G37*
G36*
X18698567Y11638483D02*
X18696260D01*
Y11640790D01*
X18698567D01*
Y11638483D01*
D02*
G37*
G36*
X18696260Y11636177D02*
X18693953D01*
Y11638483D01*
X18696260D01*
Y11636177D01*
D02*
G37*
G36*
X18691647Y11633870D02*
X18689340D01*
Y11636177D01*
X18691647D01*
Y11633870D01*
D02*
G37*
G36*
X18689340Y11631563D02*
X18687033D01*
Y11633870D01*
X18689340D01*
Y11631563D01*
D02*
G37*
G36*
X18684726Y11629256D02*
X18682419D01*
Y11631563D01*
X18684726D01*
Y11629256D01*
D02*
G37*
G36*
X18682419Y11626949D02*
X18680113D01*
Y11629256D01*
X18682419D01*
Y11626949D01*
D02*
G37*
G36*
X17798901D02*
X17796594D01*
Y11629256D01*
X17798901D01*
Y11626949D01*
D02*
G37*
G36*
X18677806Y11624642D02*
X18675499D01*
Y11626949D01*
X18677806D01*
Y11624642D01*
D02*
G37*
G36*
X18675499Y11622336D02*
X18673192D01*
Y11624642D01*
X18675499D01*
Y11622336D01*
D02*
G37*
G36*
X18670885Y11620029D02*
X18668578D01*
Y11622336D01*
X18670885D01*
Y11620029D01*
D02*
G37*
G36*
X17810435D02*
X17808128D01*
Y11622336D01*
X17810435D01*
Y11620029D01*
D02*
G37*
G36*
X18666272Y11617722D02*
X18663965D01*
Y11620029D01*
X18666272D01*
Y11617722D01*
D02*
G37*
G36*
X18663965Y11615415D02*
X18661658D01*
Y11617722D01*
X18663965D01*
Y11615415D01*
D02*
G37*
G36*
X18659351Y11613108D02*
X18657043D01*
Y11615415D01*
X18659351D01*
Y11613108D01*
D02*
G37*
G36*
X17821970D02*
X17819662D01*
Y11615415D01*
X17821970D01*
Y11613108D01*
D02*
G37*
G36*
X18657043Y11610801D02*
X18652431D01*
Y11613108D01*
X18657043D01*
Y11610801D01*
D02*
G37*
G36*
X17826582D02*
X17824277D01*
Y11613108D01*
X17826582D01*
Y11610801D01*
D02*
G37*
G36*
X18652431Y11608494D02*
X18650124D01*
Y11610801D01*
X18652431D01*
Y11608494D01*
D02*
G37*
G36*
X18647816Y11606188D02*
X18645509D01*
Y11608494D01*
X18647816D01*
Y11606188D01*
D02*
G37*
G36*
X17833504D02*
X17831197D01*
Y11608494D01*
X17833504D01*
Y11606188D01*
D02*
G37*
G36*
X18643204Y11603881D02*
X18640897D01*
Y11606188D01*
X18643204D01*
Y11603881D01*
D02*
G37*
G36*
X17838116D02*
X17835811D01*
Y11606188D01*
X17838116D01*
Y11603881D01*
D02*
G37*
G36*
X18640897Y11601574D02*
X18636282D01*
Y11603881D01*
X18640897D01*
Y11601574D01*
D02*
G37*
G36*
X18636282Y11599267D02*
X18633977D01*
Y11601574D01*
X18636282D01*
Y11599267D01*
D02*
G37*
G36*
X17842731Y11601574D02*
X17845038D01*
Y11599267D01*
X17842731D01*
Y11601574D01*
X17840424D01*
Y11603881D01*
X17842731D01*
Y11601574D01*
D02*
G37*
G36*
X18631670Y11596960D02*
X18629362D01*
Y11599267D01*
X18631670D01*
Y11596960D01*
D02*
G37*
G36*
X18627055Y11594653D02*
X18624748D01*
Y11596960D01*
X18627055D01*
Y11594653D01*
D02*
G37*
G36*
X17854265D02*
X17851958D01*
Y11596960D01*
X17854265D01*
Y11594653D01*
D02*
G37*
G36*
X18622443Y11592347D02*
X18620135D01*
Y11594653D01*
X18622443D01*
Y11592347D01*
D02*
G37*
G36*
X17858879D02*
X17856572D01*
Y11594653D01*
X17858879D01*
Y11592347D01*
D02*
G37*
G36*
X18617828Y11590040D02*
X18615521D01*
Y11592347D01*
X18617828D01*
Y11590040D01*
D02*
G37*
G36*
X17863493D02*
X17861186D01*
Y11592347D01*
X17863493D01*
Y11590040D01*
D02*
G37*
G36*
X18613214Y11587733D02*
X18610907D01*
Y11590040D01*
X18613214D01*
Y11587733D01*
D02*
G37*
G36*
X17868106D02*
X17865799D01*
Y11590040D01*
X17868106D01*
Y11587733D01*
D02*
G37*
G36*
X18608601Y11585426D02*
X18606294D01*
Y11587733D01*
X18608601D01*
Y11585426D01*
D02*
G37*
G36*
X17872720D02*
X17870413D01*
Y11587733D01*
X17872720D01*
Y11585426D01*
D02*
G37*
G36*
X18603987Y11583119D02*
X18601680D01*
Y11585426D01*
X18603987D01*
Y11583119D01*
D02*
G37*
G36*
X17877335D02*
X17875027D01*
Y11585426D01*
X17877335D01*
Y11583119D01*
D02*
G37*
G36*
X18599373Y11580813D02*
X18597066D01*
Y11583119D01*
X18599373D01*
Y11580813D01*
D02*
G37*
G36*
X17881947D02*
X17879640D01*
Y11583119D01*
X17881947D01*
Y11580813D01*
D02*
G37*
G36*
X18594760Y11578506D02*
X18592453D01*
Y11580813D01*
X18594760D01*
Y11578506D01*
D02*
G37*
G36*
X18590146Y11576199D02*
X18587839D01*
Y11578506D01*
X18590146D01*
Y11576199D01*
D02*
G37*
G36*
X17891174D02*
X17888869D01*
Y11578506D01*
X17891174D01*
Y11576199D01*
D02*
G37*
G36*
X18585532Y11573892D02*
X18583224D01*
Y11576199D01*
X18585532D01*
Y11573892D01*
D02*
G37*
G36*
X18580919Y11571585D02*
X18576305D01*
Y11573892D01*
X18580919D01*
Y11571585D01*
D02*
G37*
G36*
X17902708D02*
X17900401D01*
Y11573892D01*
X17902708D01*
Y11571585D01*
D02*
G37*
G36*
X18573997Y11569278D02*
X18571690D01*
Y11571585D01*
X18573997D01*
Y11569278D01*
D02*
G37*
G36*
X17907323D02*
X17905016D01*
Y11571585D01*
X17907323D01*
Y11569278D01*
D02*
G37*
G36*
X18569383Y11566972D02*
X18567078D01*
Y11569278D01*
X18569383D01*
Y11566972D01*
D02*
G37*
G36*
X17911935D02*
X17909628D01*
Y11569278D01*
X17911935D01*
Y11566972D01*
D02*
G37*
G36*
X18564771Y11564665D02*
X18562463D01*
Y11566972D01*
X18564771D01*
Y11564665D01*
D02*
G37*
G36*
X17918857D02*
X17916550D01*
Y11566972D01*
X17918857D01*
Y11564665D01*
D02*
G37*
G36*
X18560156Y11562358D02*
X18555544D01*
Y11564665D01*
X18560156D01*
Y11562358D01*
D02*
G37*
G36*
X17923470D02*
X17921164D01*
Y11564665D01*
X17923470D01*
Y11562358D01*
D02*
G37*
G36*
X18553236Y11560051D02*
X18550929D01*
Y11562358D01*
X18553236D01*
Y11560051D01*
D02*
G37*
G36*
X17930391D02*
X17928084D01*
Y11562358D01*
X17930391D01*
Y11560051D01*
D02*
G37*
G36*
X18548624Y11557744D02*
X18544009D01*
Y11560051D01*
X18548624D01*
Y11557744D01*
D02*
G37*
G36*
X17935005D02*
X17932698D01*
Y11560051D01*
X17935005D01*
Y11557744D01*
D02*
G37*
G36*
X18541702Y11555437D02*
X18539395D01*
Y11557744D01*
X18541702D01*
Y11555437D01*
D02*
G37*
G36*
X17941925D02*
X17939618D01*
Y11557744D01*
X17941925D01*
Y11555437D01*
D02*
G37*
G36*
X18537090Y11553131D02*
X18532475D01*
Y11555437D01*
X18537090D01*
Y11553131D01*
D02*
G37*
G36*
X17946539D02*
X17944232D01*
Y11555437D01*
X17946539D01*
Y11553131D01*
D02*
G37*
G36*
X18530168Y11550824D02*
X18527861D01*
Y11553131D01*
X18530168D01*
Y11550824D01*
D02*
G37*
G36*
X17953459D02*
X17951152D01*
Y11553131D01*
X17953459D01*
Y11550824D01*
D02*
G37*
G36*
X18523248Y11548517D02*
X18520941D01*
Y11550824D01*
X18523248D01*
Y11548517D01*
D02*
G37*
G36*
X18287950Y13105630D02*
X18320245D01*
Y13103323D01*
X18341008D01*
Y13101018D01*
X18359462D01*
Y13098711D01*
X18373303D01*
Y13096404D01*
X18387144D01*
Y13094096D01*
X18398679D01*
Y13091789D01*
X18410213D01*
Y13089484D01*
X18421747D01*
Y13087177D01*
X18430974D01*
Y13084869D01*
X18440202D01*
Y13082562D01*
X18449429D01*
Y13080257D01*
X18458656D01*
Y13077950D01*
X18465578D01*
Y13075642D01*
X18472498D01*
Y13073335D01*
X18481725D01*
Y13071028D01*
X18488644D01*
Y13068723D01*
X18495566D01*
Y13066415D01*
X18502486D01*
Y13064108D01*
X18507100D01*
Y13061801D01*
X18514020D01*
Y13059494D01*
X18520941D01*
Y13057188D01*
X18525555D01*
Y13054881D01*
X18532475D01*
Y13052574D01*
X18537090D01*
Y13050267D01*
X18544009D01*
Y13047960D01*
X18548624D01*
Y13045653D01*
X18553236D01*
Y13043347D01*
X18560156D01*
Y13041040D01*
X18564771D01*
Y13038733D01*
X18569383D01*
Y13036426D01*
X18573997D01*
Y13034119D01*
X18578612D01*
Y13031812D01*
X18583224D01*
Y13029506D01*
X18587839D01*
Y13027199D01*
X18592453D01*
Y13024892D01*
X18597066D01*
Y13022585D01*
X18601680D01*
Y13020277D01*
X18606294D01*
Y13017970D01*
X18610907D01*
Y13015665D01*
X18615521D01*
Y13013358D01*
X18620135D01*
Y13011050D01*
X18622443D01*
Y13008743D01*
X18627055D01*
Y13006438D01*
X18631670D01*
Y13004131D01*
X18636282D01*
Y13001823D01*
X18638589D01*
Y12999516D01*
X18643204D01*
Y12997211D01*
X18647816D01*
Y12994904D01*
X18650124D01*
Y12992596D01*
X18654736D01*
Y12990289D01*
X18659351D01*
Y12987982D01*
X18661658D01*
Y12985677D01*
X18666272D01*
Y12983369D01*
X18668578D01*
Y12981062D01*
X18673192D01*
Y12978755D01*
X18675499D01*
Y12976448D01*
X18680113D01*
Y12974141D01*
X18682419D01*
Y12971835D01*
X18687033D01*
Y12969528D01*
X18689340D01*
Y12967221D01*
X18693953D01*
Y12964914D01*
X18696260D01*
Y12962607D01*
X18700874D01*
Y12960300D01*
X18703181D01*
Y12957994D01*
X18705489D01*
Y12955687D01*
X18710101D01*
Y12953380D01*
X18712408D01*
Y12951073D01*
X18714716D01*
Y12948766D01*
X18719328D01*
Y12946458D01*
X18721635D01*
Y12944151D01*
X18723943D01*
Y12941846D01*
X18728555D01*
Y12939539D01*
X18730862D01*
Y12937231D01*
X18733170D01*
Y12934924D01*
X18735477D01*
Y12932619D01*
X18737782D01*
Y12930312D01*
X18742397D01*
Y12928004D01*
X18744704D01*
Y12925697D01*
X18747011D01*
Y12923392D01*
X18749318D01*
Y12921085D01*
X18751624D01*
Y12918777D01*
X18753931D01*
Y12916470D01*
X18756238D01*
Y12914165D01*
X18760852D01*
Y12911858D01*
X18763159D01*
Y12909550D01*
X18765465D01*
Y12907243D01*
X18767772D01*
Y12904936D01*
X18770079D01*
Y12902631D01*
X18772386D01*
Y12900323D01*
X18774693D01*
Y12898016D01*
X18777000D01*
Y12895709D01*
X18779306D01*
Y12893402D01*
X18781613D01*
Y12891095D01*
X18783920D01*
Y12888789D01*
X18786227D01*
Y12886482D01*
X18788535D01*
Y12884175D01*
X18790842D01*
Y12881868D01*
X18793147D01*
Y12879561D01*
X18795454D01*
Y12877254D01*
X18797762D01*
Y12874948D01*
X18800069D01*
Y12872641D01*
X18802374D01*
Y12870334D01*
X18804681D01*
Y12868027D01*
X18806989D01*
Y12865720D01*
X18809296D01*
Y12863412D01*
X18811601D01*
Y12861105D01*
X18813908D01*
Y12858800D01*
X18816216D01*
Y12856493D01*
X18818523D01*
Y12854185D01*
X18820830D01*
Y12851878D01*
X18823135D01*
Y12849573D01*
X18825443D01*
Y12844958D01*
X18827750D01*
Y12842651D01*
X18830057D01*
Y12840344D01*
X18832364D01*
Y12838039D01*
X18834669D01*
Y12835732D01*
X18836977D01*
Y12833424D01*
X18839284D01*
Y12828812D01*
X18841591D01*
Y12826505D01*
X18843898D01*
Y12824197D01*
X18846205D01*
Y12821890D01*
X18848511D01*
Y12817278D01*
X18850818D01*
Y12814970D01*
X18853125D01*
Y12812663D01*
X18855432D01*
Y12810356D01*
X18857739D01*
Y12805742D01*
X18860046D01*
Y12803436D01*
X18862352D01*
Y12801129D01*
X18864659D01*
Y12796515D01*
X18866966D01*
Y12794208D01*
X18869273D01*
Y12791901D01*
X18871581D01*
Y12787288D01*
X18873888D01*
Y12784981D01*
X18876193D01*
Y12780367D01*
X18878500D01*
Y12778060D01*
X18880807D01*
Y12775753D01*
X18883115D01*
Y12771140D01*
X18885422D01*
Y12768833D01*
X18887727D01*
Y12764219D01*
X18890034D01*
Y12761912D01*
X18892342D01*
Y12757299D01*
X18894649D01*
Y12752685D01*
X18896954D01*
Y12750378D01*
X18899261D01*
Y12745765D01*
X18901569D01*
Y12743458D01*
X18903876D01*
Y12738844D01*
X18906181D01*
Y12734231D01*
X18908488D01*
Y12731924D01*
X18910796D01*
Y12727310D01*
X18913103D01*
Y12722696D01*
X18915410D01*
Y12718083D01*
X18917717D01*
Y12713469D01*
X18920023D01*
Y12711162D01*
X18922330D01*
Y12706548D01*
X18924637D01*
Y12701935D01*
X18926944D01*
Y12697321D01*
X18929251D01*
Y12692707D01*
X18931558D01*
Y12688094D01*
X18933864D01*
Y12683480D01*
X18936171D01*
Y12678866D01*
X18938478D01*
Y12674253D01*
X18940785D01*
Y12669639D01*
X18943092D01*
Y12665025D01*
X18945399D01*
Y12660412D01*
X18947707D01*
Y12653491D01*
X18950012D01*
Y12648877D01*
X18952319D01*
Y12644264D01*
X18954626D01*
Y12639650D01*
X18956934D01*
Y12632730D01*
X18959241D01*
Y12628116D01*
X18961546D01*
Y12621195D01*
X18963853D01*
Y12616582D01*
X18966161D01*
Y12609661D01*
X18968468D01*
Y12605048D01*
X18970773D01*
Y12598127D01*
X18973080D01*
Y12591207D01*
X18975388D01*
Y12584286D01*
X18977695D01*
Y12577366D01*
X18980000D01*
Y12570445D01*
X18982307D01*
Y12561218D01*
X18984615D01*
Y12554297D01*
X18986922D01*
Y12545070D01*
X18989227D01*
Y12538149D01*
X18991534D01*
Y12528922D01*
X18993842D01*
Y12519695D01*
X18996149D01*
Y12510467D01*
X18998456D01*
Y12498933D01*
X19000763D01*
Y12487399D01*
X19003069D01*
Y12473558D01*
X19005376D01*
Y12459717D01*
X19007683D01*
Y12445876D01*
X19009990D01*
Y12429728D01*
X19012297D01*
Y12406660D01*
X19014604D01*
Y12372057D01*
X19016911D01*
Y12282091D01*
X19014604D01*
Y12254409D01*
X19012297D01*
Y12231340D01*
X19009990D01*
Y12215192D01*
X19007683D01*
Y12199044D01*
X19005376D01*
Y12185203D01*
X19003069D01*
Y12173669D01*
X19000763D01*
Y12162135D01*
X18998456D01*
Y12152908D01*
X18996149D01*
Y12141374D01*
X18993842D01*
Y12132146D01*
X18991534D01*
Y12122919D01*
X18989227D01*
Y12115998D01*
X18986922D01*
Y12106771D01*
X18984615D01*
Y12099851D01*
X18982307D01*
Y12092930D01*
X18980000D01*
Y12086010D01*
X18977695D01*
Y12079089D01*
X18975388D01*
Y12069862D01*
X18973080D01*
Y12065248D01*
X18970773D01*
Y12058327D01*
X18968468D01*
Y12051407D01*
X18966161D01*
Y12046793D01*
X18963853D01*
Y12039873D01*
X18961546D01*
Y12035259D01*
X18959241D01*
Y12028339D01*
X18956934D01*
Y12023725D01*
X18954626D01*
Y12019111D01*
X18952319D01*
Y12012191D01*
X18950012D01*
Y12007577D01*
X18947707D01*
Y12002964D01*
X18945399D01*
Y11998350D01*
X18943092D01*
Y11993736D01*
X18940785D01*
Y11989123D01*
X18938478D01*
Y11982202D01*
X18936171D01*
Y11977588D01*
X18933864D01*
Y11972975D01*
X18931558D01*
Y11968361D01*
X18929251D01*
Y11963747D01*
X18926944D01*
Y11959134D01*
X18924637D01*
Y11956827D01*
X18922330D01*
Y11952213D01*
X18920023D01*
Y11947599D01*
X18917717D01*
Y11942986D01*
X18915410D01*
Y11938372D01*
X18913103D01*
Y11936065D01*
X18910796D01*
Y11931452D01*
X18908488D01*
Y11926838D01*
X18906181D01*
Y11924531D01*
X18903876D01*
Y11919917D01*
X18901569D01*
Y11917611D01*
X18899261D01*
Y11912997D01*
X18896954D01*
Y11908383D01*
X18894649D01*
Y11906076D01*
X18892342D01*
Y11901463D01*
X18890034D01*
Y11896849D01*
X18887727D01*
Y11894542D01*
X18885422D01*
Y11889928D01*
X18883115D01*
Y11887622D01*
X18880807D01*
Y11885315D01*
X18878500D01*
Y11880701D01*
X18876193D01*
Y11878394D01*
X18873888D01*
Y11876087D01*
X18871581D01*
Y11871474D01*
X18869273D01*
Y11869167D01*
X18866966D01*
Y11864553D01*
X18864659D01*
Y11862247D01*
X18862352D01*
Y11859940D01*
X18860046D01*
Y11855326D01*
X18857739D01*
Y11853019D01*
X18855432D01*
Y11850712D01*
X18853125D01*
Y11848406D01*
X18850818D01*
Y11843792D01*
X18848511D01*
Y11841485D01*
X18846205D01*
Y11839178D01*
X18843898D01*
Y11834564D01*
X18841591D01*
Y11832258D01*
X18839284D01*
Y11829951D01*
X18836977D01*
Y11827644D01*
X18834669D01*
Y11825337D01*
X18832364D01*
Y11820723D01*
X18830057D01*
Y11818417D01*
X18827750D01*
Y11816110D01*
X18825443D01*
Y11813803D01*
X18823135D01*
Y11811496D01*
X18820830D01*
Y11809189D01*
X18818523D01*
Y11806882D01*
X18816216D01*
Y11802269D01*
X18813908D01*
Y11799962D01*
X18811601D01*
Y11797655D01*
X18809296D01*
Y11795348D01*
X18806989D01*
Y11793041D01*
X18804681D01*
Y11790735D01*
X18802374D01*
Y11788428D01*
X18800069D01*
Y11786121D01*
X18797762D01*
Y11783814D01*
X18795454D01*
Y11781507D01*
X18793147D01*
Y11779200D01*
X18790842D01*
Y11776894D01*
X18788535D01*
Y11774587D01*
X18786227D01*
Y11772280D01*
X18783920D01*
Y11769973D01*
X18781613D01*
Y11767666D01*
X18779306D01*
Y11765359D01*
X18777000D01*
Y11763052D01*
X18774693D01*
Y11760746D01*
X18772386D01*
Y11758439D01*
X18770079D01*
Y11756132D01*
X18767772D01*
Y11753825D01*
X18765465D01*
Y11751518D01*
X18763159D01*
Y11749211D01*
X18760852D01*
Y11746905D01*
X18758545D01*
Y11744598D01*
X18756238D01*
Y11742291D01*
X18751624D01*
Y11739984D01*
X18749318D01*
Y11737677D01*
X18747011D01*
Y11735370D01*
X18744704D01*
Y11733064D01*
X18742397D01*
Y11730757D01*
X18737782D01*
Y11728450D01*
X18735477D01*
Y11726143D01*
X18733170D01*
Y11723836D01*
X18730862D01*
Y11721530D01*
X18728555D01*
Y11719223D01*
X18726250D01*
Y11716916D01*
X18721635D01*
Y11714609D01*
X18719328D01*
Y11712302D01*
X18717023D01*
Y11709995D01*
X18714716D01*
Y11707689D01*
X18710101D01*
Y11705382D01*
X18707794D01*
Y11703075D01*
X18705489D01*
Y11700768D01*
X18700874D01*
Y11698461D01*
X18698567D01*
Y11696154D01*
X18696260D01*
Y11693848D01*
X18691647D01*
Y11691541D01*
X18689340D01*
Y11689234D01*
X18684726D01*
Y11686927D01*
X18682419D01*
Y11684620D01*
X18680113D01*
Y11682313D01*
X18675499D01*
Y11680006D01*
X18673192D01*
Y11677700D01*
X18668578D01*
Y11675393D01*
X18663965D01*
Y11673086D01*
X18661658D01*
Y11670779D01*
X18657043D01*
Y11668472D01*
X18654736D01*
Y11666165D01*
X18650124D01*
Y11663859D01*
X18647816D01*
Y11661552D01*
X18643204D01*
Y11659245D01*
X18638589D01*
Y11656938D01*
X18636282D01*
Y11654631D01*
X18631670D01*
Y11652324D01*
X18627055D01*
Y11650018D01*
X18624748D01*
Y11647711D01*
X18620135D01*
Y11645404D01*
X18615521D01*
Y11643097D01*
X18610907D01*
Y11640790D01*
X18606294D01*
Y11638483D01*
X18601680D01*
Y11636177D01*
X18599373D01*
Y11633870D01*
X18594760D01*
Y11631563D01*
X18590146D01*
Y11629256D01*
X18585532D01*
Y11626949D01*
X18580919D01*
Y11624642D01*
X18576305D01*
Y11622336D01*
X18569383D01*
Y11620029D01*
X18564771D01*
Y11617722D01*
X18560156D01*
Y11615415D01*
X18555544D01*
Y11613108D01*
X18550929D01*
Y11610801D01*
X18544009D01*
Y11608494D01*
X18539395D01*
Y11606188D01*
X18532475D01*
Y11603881D01*
X18527861D01*
Y11601574D01*
X18520941D01*
Y11599267D01*
X18516327D01*
Y11596960D01*
X18509407D01*
Y11594653D01*
X18502486D01*
Y11592347D01*
X18495566D01*
Y11590040D01*
X18488644D01*
Y11587733D01*
X18481725D01*
Y11585426D01*
X18474805D01*
Y11583119D01*
X18467883D01*
Y11580813D01*
X18458656D01*
Y11578506D01*
X18451736D01*
Y11576199D01*
X18442508D01*
Y11573892D01*
X18433281D01*
Y11571585D01*
X18424054D01*
Y11569278D01*
X18414825D01*
Y11566972D01*
X18403291D01*
Y11564665D01*
X18391759D01*
Y11562358D01*
X18377917D01*
Y11560051D01*
X18366383D01*
Y11557744D01*
X18352542D01*
Y11555437D01*
X18336394D01*
Y11553131D01*
X18315633D01*
Y11550824D01*
X18285645D01*
Y11548517D01*
X18195677D01*
Y11550824D01*
X18163380D01*
Y11553131D01*
X18142619D01*
Y11555437D01*
X18126472D01*
Y11557744D01*
X18112631D01*
Y11560051D01*
X18098790D01*
Y11562358D01*
X18084949D01*
Y11564665D01*
X18075722D01*
Y11566972D01*
X18064188D01*
Y11569278D01*
X18054961D01*
Y11571585D01*
X18045734D01*
Y11573892D01*
X18036505D01*
Y11576199D01*
X18027278D01*
Y11578506D01*
X18018051D01*
Y11580813D01*
X18011130D01*
Y11583119D01*
X18004210D01*
Y11585426D01*
X17997289D01*
Y11587733D01*
X17990369D01*
Y11590040D01*
X17983447D01*
Y11592347D01*
X17976527D01*
Y11594653D01*
X17969608D01*
Y11596960D01*
X17962686D01*
Y11599267D01*
X17958073D01*
Y11601574D01*
X17951152D01*
Y11603881D01*
X17946539D01*
Y11606188D01*
X17941925D01*
Y11608494D01*
X17935005D01*
Y11610801D01*
X17930391D01*
Y11613108D01*
X17923470D01*
Y11615415D01*
X17918857D01*
Y11617722D01*
X17914243D01*
Y11620029D01*
X17909628D01*
Y11622336D01*
X17905016D01*
Y11624642D01*
X17900401D01*
Y11626949D01*
X17895789D01*
Y11629256D01*
X17891174D01*
Y11631563D01*
X17884254D01*
Y11633870D01*
X17881947D01*
Y11636177D01*
X17877335D01*
Y11638483D01*
X17872720D01*
Y11640790D01*
X17868106D01*
Y11643097D01*
X17863493D01*
Y11645404D01*
X17858879D01*
Y11647711D01*
X17856572D01*
Y11650018D01*
X17851958D01*
Y11652324D01*
X17847345D01*
Y11654631D01*
X17845038D01*
Y11656938D01*
X17840424D01*
Y11659245D01*
X17835811D01*
Y11661552D01*
X17833504D01*
Y11663859D01*
X17828889D01*
Y11666165D01*
X17824277D01*
Y11668472D01*
X17821970D01*
Y11670779D01*
X17817355D01*
Y11673086D01*
X17815050D01*
Y11675393D01*
X17810435D01*
Y11677700D01*
X17805823D01*
Y11680006D01*
X17803516D01*
Y11682313D01*
X17798901D01*
Y11684620D01*
X17796594D01*
Y11686927D01*
X17791982D01*
Y11689234D01*
X17789674D01*
Y11691541D01*
X17787367D01*
Y11693848D01*
X17782753D01*
Y11696154D01*
X17780447D01*
Y11698461D01*
X17778140D01*
Y11700768D01*
X17773526D01*
Y11703075D01*
X17771219D01*
Y11705382D01*
X17766606D01*
Y11707689D01*
X17764299D01*
Y11709995D01*
X17761992D01*
Y11712302D01*
X17759685D01*
Y11714609D01*
X17755070D01*
Y11716916D01*
X17752763D01*
Y11719223D01*
X17750458D01*
Y11721530D01*
X17748151D01*
Y11723836D01*
X17743536D01*
Y11726143D01*
X17741229D01*
Y11728450D01*
X17738924D01*
Y11730757D01*
X17736617D01*
Y11733064D01*
X17732002D01*
Y11735370D01*
X17729697D01*
Y11737677D01*
X17727390D01*
Y11739984D01*
X17725082D01*
Y11742291D01*
X17722775D01*
Y11744598D01*
X17720470D01*
Y11746905D01*
X17718163D01*
Y11749211D01*
X17715855D01*
Y11751518D01*
X17711241D01*
Y11753825D01*
X17708936D01*
Y11756132D01*
X17706628D01*
Y11758439D01*
X17704321D01*
Y11760746D01*
X17702014D01*
Y11763052D01*
X17699707D01*
Y11765359D01*
X17697400D01*
Y11767666D01*
X17695094D01*
Y11769973D01*
X17692787D01*
Y11772280D01*
X17690480D01*
Y11774587D01*
X17688173D01*
Y11776894D01*
X17685866D01*
Y11779200D01*
X17683559D01*
Y11781507D01*
X17681252D01*
Y11783814D01*
X17678946D01*
Y11786121D01*
X17676639D01*
Y11788428D01*
X17674332D01*
Y11790735D01*
X17672025D01*
Y11793041D01*
X17669717D01*
Y11795348D01*
X17667410D01*
Y11797655D01*
X17665105D01*
Y11799962D01*
X17662798D01*
Y11802269D01*
X17660490D01*
Y11806882D01*
X17658183D01*
Y11809189D01*
X17655878D01*
Y11811496D01*
X17653571D01*
Y11813803D01*
X17651263D01*
Y11816110D01*
X17648956D01*
Y11818417D01*
X17646651D01*
Y11820723D01*
X17644344D01*
Y11823030D01*
X17642036D01*
Y11827644D01*
X17639729D01*
Y11829951D01*
X17637424D01*
Y11832258D01*
X17635117D01*
Y11834564D01*
X17632809D01*
Y11839178D01*
X17630502D01*
Y11841485D01*
X17628195D01*
Y11843792D01*
X17625890D01*
Y11846099D01*
X17623582D01*
Y11850712D01*
X17621275D01*
Y11853019D01*
X17618968D01*
Y11855326D01*
X17616661D01*
Y11859940D01*
X17614354D01*
Y11862247D01*
X17612048D01*
Y11864553D01*
X17609741D01*
Y11869167D01*
X17607434D01*
Y11871474D01*
X17605127D01*
Y11873781D01*
X17602820D01*
Y11878394D01*
X17600513D01*
Y11880701D01*
X17598206D01*
Y11885315D01*
X17595900D01*
Y11887622D01*
X17593593D01*
Y11892235D01*
X17591286D01*
Y11894542D01*
X17588979D01*
Y11896849D01*
X17586671D01*
Y11901463D01*
X17584364D01*
Y11903769D01*
X17582059D01*
Y11908383D01*
X17579752D01*
Y11912997D01*
X17577444D01*
Y11915304D01*
X17575137D01*
Y11919917D01*
X17572832D01*
Y11922224D01*
X17570525D01*
Y11926838D01*
X17568217D01*
Y11931452D01*
X17565910D01*
Y11936065D01*
X17563605D01*
Y11938372D01*
X17561298D01*
Y11942986D01*
X17558990D01*
Y11947599D01*
X17556683D01*
Y11949906D01*
X17554378D01*
Y11954520D01*
X17552071D01*
Y11959134D01*
X17549763D01*
Y11963747D01*
X17547456D01*
Y11968361D01*
X17545149D01*
Y11972975D01*
X17542842D01*
Y11977588D01*
X17540536D01*
Y11982202D01*
X17538229D01*
Y11986816D01*
X17535922D01*
Y11991429D01*
X17533615D01*
Y11996043D01*
X17531308D01*
Y12000657D01*
X17529001D01*
Y12007577D01*
X17526694D01*
Y12012191D01*
X17524388D01*
Y12016805D01*
X17522081D01*
Y12021418D01*
X17519774D01*
Y12028339D01*
X17517467D01*
Y12032952D01*
X17515160D01*
Y12039873D01*
X17512852D01*
Y12044486D01*
X17510547D01*
Y12051407D01*
X17508240D01*
Y12058327D01*
X17505933D01*
Y12065248D01*
X17503625D01*
Y12072169D01*
X17501318D01*
Y12076782D01*
X17499013D01*
Y12086010D01*
X17496706D01*
Y12092930D01*
X17494398D01*
Y12099851D01*
X17492091D01*
Y12109078D01*
X17489784D01*
Y12115998D01*
X17487479D01*
Y12125226D01*
X17485172D01*
Y12134453D01*
X17482864D01*
Y12143681D01*
X17480557D01*
Y12152908D01*
X17478252D01*
Y12164442D01*
X17475945D01*
Y12173669D01*
X17473637D01*
Y12187510D01*
X17471330D01*
Y12201351D01*
X17469025D01*
Y12215192D01*
X17466718D01*
Y12233647D01*
X17464410D01*
Y12254409D01*
X17462103D01*
Y12284398D01*
X17459796D01*
Y12378978D01*
X17462103D01*
Y12408967D01*
X17464410D01*
Y12429728D01*
X17466718D01*
Y12448183D01*
X17469025D01*
Y12462024D01*
X17471330D01*
Y12475865D01*
X17473637D01*
Y12487399D01*
X17475945D01*
Y12498933D01*
X17478252D01*
Y12508161D01*
X17480557D01*
Y12519695D01*
X17482864D01*
Y12528922D01*
X17485172D01*
Y12535843D01*
X17487479D01*
Y12545070D01*
X17489784D01*
Y12554297D01*
X17492091D01*
Y12561218D01*
X17494398D01*
Y12568138D01*
X17496706D01*
Y12575059D01*
X17499013D01*
Y12581979D01*
X17501318D01*
Y12588900D01*
X17503625D01*
Y12595820D01*
X17505933D01*
Y12602741D01*
X17508240D01*
Y12607355D01*
X17510547D01*
Y12614275D01*
X17512852D01*
Y12621195D01*
X17515160D01*
Y12625809D01*
X17517467D01*
Y12632730D01*
X17519774D01*
Y12637343D01*
X17522081D01*
Y12641957D01*
X17524388D01*
Y12648877D01*
X17526694D01*
Y12653491D01*
X17529001D01*
Y12658105D01*
X17531308D01*
Y12662719D01*
X17533615D01*
Y12667332D01*
X17535922D01*
Y12671946D01*
X17538229D01*
Y12676560D01*
X17540536D01*
Y12681173D01*
X17542842D01*
Y12685787D01*
X17545149D01*
Y12690401D01*
X17547456D01*
Y12695014D01*
X17549763D01*
Y12699628D01*
X17552071D01*
Y12704242D01*
X17554378D01*
Y12708855D01*
X17556683D01*
Y12713469D01*
X17558990D01*
Y12715776D01*
X17561298D01*
Y12720389D01*
X17563605D01*
Y12725003D01*
X17565910D01*
Y12729617D01*
X17568217D01*
Y12731924D01*
X17570525D01*
Y12736537D01*
X17572832D01*
Y12738844D01*
X17575137D01*
Y12743458D01*
X17577444D01*
Y12748072D01*
X17579752D01*
Y12750378D01*
X17582059D01*
Y12754992D01*
X17584364D01*
Y12757299D01*
X17586671D01*
Y12761912D01*
X17588979D01*
Y12764219D01*
X17591286D01*
Y12768833D01*
X17593593D01*
Y12771140D01*
X17595900D01*
Y12775753D01*
X17598206D01*
Y12778060D01*
X17600513D01*
Y12782674D01*
X17602820D01*
Y12784981D01*
X17605127D01*
Y12787288D01*
X17607434D01*
Y12791901D01*
X17609741D01*
Y12794208D01*
X17612048D01*
Y12796515D01*
X17614354D01*
Y12801129D01*
X17616661D01*
Y12803436D01*
X17618968D01*
Y12805742D01*
X17621275D01*
Y12810356D01*
X17623582D01*
Y12812663D01*
X17625890D01*
Y12814970D01*
X17628195D01*
Y12817278D01*
X17630502D01*
Y12821890D01*
X17632809D01*
Y12824197D01*
X17635117D01*
Y12826505D01*
X17637424D01*
Y12828812D01*
X17639729D01*
Y12831117D01*
X17642036D01*
Y12835732D01*
X17644344D01*
Y12838039D01*
X17646651D01*
Y12840344D01*
X17648956D01*
Y12842651D01*
X17651263D01*
Y12844958D01*
X17653571D01*
Y12847266D01*
X17655878D01*
Y12849573D01*
X17658183D01*
Y12851878D01*
X17660490D01*
Y12854185D01*
X17662798D01*
Y12858800D01*
X17665105D01*
Y12861105D01*
X17667410D01*
Y12863412D01*
X17669717D01*
Y12865720D01*
X17672025D01*
Y12868027D01*
X17674332D01*
Y12870334D01*
X17676639D01*
Y12872641D01*
X17678946D01*
Y12874948D01*
X17681252D01*
Y12877254D01*
X17683559D01*
Y12879561D01*
X17685866D01*
Y12881868D01*
X17688173D01*
Y12884175D01*
X17690480D01*
Y12886482D01*
X17692787D01*
Y12888789D01*
X17695094D01*
Y12891095D01*
X17697400D01*
Y12893402D01*
X17699707D01*
Y12895709D01*
X17702014D01*
Y12898016D01*
X17704321D01*
Y12900323D01*
X17706628D01*
Y12902631D01*
X17708936D01*
Y12904936D01*
X17711241D01*
Y12907243D01*
X17715855D01*
Y12909550D01*
X17718163D01*
Y12911858D01*
X17720470D01*
Y12914165D01*
X17722775D01*
Y12916470D01*
X17725082D01*
Y12918777D01*
X17727390D01*
Y12921085D01*
X17732002D01*
Y12923392D01*
X17734309D01*
Y12925697D01*
X17736617D01*
Y12928004D01*
X17738924D01*
Y12930312D01*
X17741229D01*
Y12932619D01*
X17743536D01*
Y12934924D01*
X17748151D01*
Y12937231D01*
X17750458D01*
Y12939539D01*
X17752763D01*
Y12941846D01*
X17755070D01*
Y12944151D01*
X17759685D01*
Y12946458D01*
X17761992D01*
Y12948766D01*
X17764299D01*
Y12951073D01*
X17768912D01*
Y12953380D01*
X17771219D01*
Y12955687D01*
X17773526D01*
Y12957994D01*
X17775833D01*
Y12960300D01*
X17780447D01*
Y12962607D01*
X17782753D01*
Y12964914D01*
X17787367D01*
Y12967221D01*
X17789674D01*
Y12969528D01*
X17791982D01*
Y12971835D01*
X17796594D01*
Y12974141D01*
X17801208D01*
Y12976448D01*
X17803516D01*
Y12978755D01*
X17808128D01*
Y12981062D01*
X17810435D01*
Y12983369D01*
X17815050D01*
Y12985677D01*
X17817355D01*
Y12987982D01*
X17821970D01*
Y12990289D01*
X17824277D01*
Y12992596D01*
X17828889D01*
Y12994904D01*
X17833504D01*
Y12997211D01*
X17835811D01*
Y12999516D01*
X17840424D01*
Y13001823D01*
X17845038D01*
Y13004131D01*
X17847345D01*
Y13006438D01*
X17851958D01*
Y13008743D01*
X17856572D01*
Y13011050D01*
X17861186D01*
Y13013358D01*
X17865799D01*
Y13015665D01*
X17868106D01*
Y13017970D01*
X17872720D01*
Y13020277D01*
X17877335D01*
Y13022585D01*
X17881947D01*
Y13024892D01*
X17886562D01*
Y13027199D01*
X17891174D01*
Y13029506D01*
X17895789D01*
Y13031812D01*
X17900401D01*
Y13034119D01*
X17905016D01*
Y13036426D01*
X17909628D01*
Y13038733D01*
X17916550D01*
Y13041040D01*
X17921164D01*
Y13043347D01*
X17925777D01*
Y13045653D01*
X17930391D01*
Y13047960D01*
X17937311D01*
Y13050267D01*
X17941925D01*
Y13052574D01*
X17948845D01*
Y13054881D01*
X17953459D01*
Y13057188D01*
X17960381D01*
Y13059494D01*
X17964993D01*
Y13061801D01*
X17971915D01*
Y13064108D01*
X17978835D01*
Y13066415D01*
X17985754D01*
Y13068723D01*
X17992674D01*
Y13071028D01*
X18001903D01*
Y13073335D01*
X18008823D01*
Y13075642D01*
X18015744D01*
Y13077950D01*
X18024971D01*
Y13080257D01*
X18034198D01*
Y13082562D01*
X18041119D01*
Y13084869D01*
X18050346D01*
Y13087177D01*
X18061880D01*
Y13089484D01*
X18073415D01*
Y13091789D01*
X18082642D01*
Y13094096D01*
X18094176D01*
Y13096404D01*
X18110324D01*
Y13098711D01*
X18126472D01*
Y13101018D01*
X18140314D01*
Y13103323D01*
X18163380D01*
Y13105630D01*
X18191063D01*
Y13107938D01*
X18287950D01*
Y13105630D01*
D02*
G37*
G36*
X17960381Y11548517D02*
X17958073D01*
Y11550824D01*
X17960381D01*
Y11548517D01*
D02*
G37*
G36*
X18518634Y11546210D02*
X18514020D01*
Y11548517D01*
X18518634D01*
Y11546210D01*
D02*
G37*
G36*
X17967300D02*
X17962686D01*
Y11548517D01*
X17967300D01*
Y11546210D01*
D02*
G37*
G36*
X18511714Y11543903D02*
X18507100D01*
Y11546210D01*
X18511714D01*
Y11543903D01*
D02*
G37*
G36*
X17974220D02*
X17969608D01*
Y11546210D01*
X17974220D01*
Y11543903D01*
D02*
G37*
G36*
X18504793Y11541596D02*
X18500179D01*
Y11543903D01*
X18504793D01*
Y11541596D01*
D02*
G37*
G36*
X17978835D02*
X17976527D01*
Y11543903D01*
X17978835D01*
Y11541596D01*
D02*
G37*
G36*
X18497873Y11539289D02*
X18493259D01*
Y11541596D01*
X18497873D01*
Y11539289D01*
D02*
G37*
G36*
X17988062D02*
X17983447D01*
Y11541596D01*
X17988062D01*
Y11539289D01*
D02*
G37*
G36*
X18488644Y11536983D02*
X18486337D01*
Y11539289D01*
X18488644D01*
Y11536983D01*
D02*
G37*
G36*
X17994981D02*
X17990369D01*
Y11539289D01*
X17994981D01*
Y11536983D01*
D02*
G37*
G36*
X18481725Y11534676D02*
X18477110D01*
Y11536983D01*
X18481725D01*
Y11534676D01*
D02*
G37*
G36*
X18001903D02*
X17997289D01*
Y11536983D01*
X18001903D01*
Y11534676D01*
D02*
G37*
G36*
X18474805Y11532369D02*
X18470190D01*
Y11534676D01*
X18474805D01*
Y11532369D01*
D02*
G37*
G36*
X18011130D02*
X18006516D01*
Y11534676D01*
X18011130D01*
Y11532369D01*
D02*
G37*
G36*
X18465578Y11530062D02*
X18460963D01*
Y11532369D01*
X18465578D01*
Y11530062D01*
D02*
G37*
G36*
X18018051D02*
X18015744D01*
Y11532369D01*
X18018051D01*
Y11530062D01*
D02*
G37*
G36*
X18458656Y11527755D02*
X18451736D01*
Y11530062D01*
X18458656D01*
Y11527755D01*
D02*
G37*
G36*
X18027278D02*
X18022664D01*
Y11530062D01*
X18027278D01*
Y11527755D01*
D02*
G37*
G36*
X18449429Y11525448D02*
X18442508D01*
Y11527755D01*
X18449429D01*
Y11525448D01*
D02*
G37*
G36*
X18036505D02*
X18031892D01*
Y11527755D01*
X18036505D01*
Y11525448D01*
D02*
G37*
G36*
X18437895Y11523142D02*
X18435588D01*
Y11525448D01*
X18437895D01*
Y11523142D01*
D02*
G37*
G36*
X18045734D02*
X18041119D01*
Y11525448D01*
X18045734D01*
Y11523142D01*
D02*
G37*
G36*
X18428667Y11520835D02*
X18424054D01*
Y11523142D01*
X18428667D01*
Y11520835D01*
D02*
G37*
G36*
X18054961D02*
X18052654D01*
Y11523142D01*
X18054961D01*
Y11520835D01*
D02*
G37*
G36*
X18419440Y11518528D02*
X18412518D01*
Y11520835D01*
X18419440D01*
Y11518528D01*
D02*
G37*
G36*
X18066495D02*
X18061880D01*
Y11520835D01*
X18066495D01*
Y11518528D01*
D02*
G37*
G36*
X18407906Y11516221D02*
X18400986D01*
Y11518528D01*
X18407906D01*
Y11516221D01*
D02*
G37*
G36*
X18075722D02*
X18073415D01*
Y11518528D01*
X18075722D01*
Y11516221D01*
D02*
G37*
G36*
X18396371Y11513914D02*
X18389452D01*
Y11516221D01*
X18396371D01*
Y11513914D01*
D02*
G37*
G36*
X18087256D02*
X18082642D01*
Y11516221D01*
X18087256D01*
Y11513914D01*
D02*
G37*
G36*
X18384837Y11511607D02*
X18377917D01*
Y11513914D01*
X18384837D01*
Y11511607D01*
D02*
G37*
G36*
X18101097D02*
X18096483D01*
Y11513914D01*
X18101097D01*
Y11511607D01*
D02*
G37*
G36*
X18370998Y11509301D02*
X18361769D01*
Y11511607D01*
X18370998D01*
Y11509301D01*
D02*
G37*
G36*
X18114938D02*
X18108017D01*
Y11511607D01*
X18114938D01*
Y11509301D01*
D02*
G37*
G36*
X18354849Y11506994D02*
X18345621D01*
Y11509301D01*
X18354849D01*
Y11506994D01*
D02*
G37*
G36*
X18131087D02*
X18124165D01*
Y11509301D01*
X18131087D01*
Y11506994D01*
D02*
G37*
G36*
X18338701Y11504687D02*
X18336394D01*
Y11506994D01*
X18338701D01*
Y11504687D01*
D02*
G37*
G36*
X18334087D02*
X18324860D01*
Y11506994D01*
X18334087D01*
Y11504687D01*
D02*
G37*
G36*
X18151846D02*
X18144926D01*
Y11506994D01*
X18151846D01*
Y11504687D01*
D02*
G37*
G36*
X18313326Y11502380D02*
X18301791D01*
Y11504687D01*
X18313326D01*
Y11502380D01*
D02*
G37*
G36*
X18179529D02*
X18165688D01*
Y11504687D01*
X18179529D01*
Y11502380D01*
D02*
G37*
G36*
X18285645Y11500073D02*
X18283337D01*
Y11502380D01*
X18285645D01*
Y11500073D01*
D02*
G37*
G36*
X18281030D02*
X18255655D01*
Y11502380D01*
X18281030D01*
Y11500073D01*
D02*
G37*
G36*
X18253348D02*
X18197984D01*
Y11502380D01*
X18253348D01*
Y11500073D01*
D02*
G37*
%LPC*%
G36*
X18359462Y12863412D02*
X17985754D01*
Y12711162D01*
X17988062D01*
Y12708855D01*
X17990369D01*
Y12711162D01*
X17997289D01*
Y12708855D01*
X18008823D01*
Y12711162D01*
X18011130D01*
Y12708855D01*
X18013437D01*
Y12711162D01*
X18036505D01*
Y12708855D01*
X18043427D01*
Y12706548D01*
X18045734D01*
Y12704242D01*
X18048039D01*
Y12697321D01*
X18050346D01*
Y12448183D01*
X18048039D01*
Y12445876D01*
X18038812D01*
Y12360523D01*
X18041119D01*
Y12358216D01*
X18045734D01*
Y12355909D01*
X18050346D01*
Y12351296D01*
X18048039D01*
Y12344375D01*
X18045734D01*
Y12335148D01*
X18043427D01*
Y12325920D01*
X18041119D01*
Y12293625D01*
X18043427D01*
Y12284398D01*
X18045734D01*
Y12279784D01*
X18048039D01*
Y12275170D01*
X18050346D01*
Y12270556D01*
X18052654D01*
Y12265943D01*
X18054961D01*
Y12263636D01*
X18057268D01*
Y12259022D01*
X18059573D01*
Y12256715D01*
X18061880D01*
Y12254409D01*
X18064188D01*
Y12252102D01*
X18066495D01*
Y12249795D01*
X18068800D01*
Y12247488D01*
X18073415D01*
Y12245181D01*
X18075722D01*
Y12242874D01*
X18080334D01*
Y12240568D01*
X18084949D01*
Y12238261D01*
X18091869D01*
Y12235954D01*
X18098790D01*
Y12233647D01*
X18128780D01*
Y12235954D01*
X18135699D01*
Y12238261D01*
X18142619D01*
Y12240568D01*
X18147234D01*
Y12242874D01*
X18149541D01*
Y12245181D01*
X18154153D01*
Y12247488D01*
X18156461D01*
Y12249795D01*
X18158768D01*
Y12252102D01*
X18161073D01*
Y12254409D01*
X18163380D01*
Y12256715D01*
X18165688D01*
Y12259022D01*
X18167995D01*
Y12263636D01*
X18170302D01*
Y12265943D01*
X18172609D01*
Y12270556D01*
X18174915D01*
Y12275170D01*
X18177222D01*
Y12279784D01*
X18163380D01*
Y12275170D01*
X18161073D01*
Y12272863D01*
X18158768D01*
Y12270556D01*
X18156461D01*
Y12268250D01*
X18154153D01*
Y12265943D01*
X18149541D01*
Y12263636D01*
X18147234D01*
Y12261329D01*
X18142619D01*
Y12259022D01*
X18135699D01*
Y12256715D01*
X18112631D01*
Y12259022D01*
X18105710D01*
Y12261329D01*
X18101097D01*
Y12263636D01*
X18096483D01*
Y12265943D01*
X18094176D01*
Y12268250D01*
X18091869D01*
Y12270556D01*
X18089561D01*
Y12272863D01*
X18087256D01*
Y12275170D01*
X18084949D01*
Y12277477D01*
X18082642D01*
Y12282091D01*
X18080334D01*
Y12286704D01*
X18078027D01*
Y12293625D01*
X18075722D01*
Y12312080D01*
X18078027D01*
Y12321307D01*
X18080334D01*
Y12325920D01*
X18082642D01*
Y12330534D01*
X18084949D01*
Y12332841D01*
X18087256D01*
Y12335148D01*
X18089561D01*
Y12337455D01*
X18091869D01*
Y12339761D01*
X18094176D01*
Y12342068D01*
X18098790D01*
Y12344375D01*
X18101097D01*
Y12346682D01*
X18108017D01*
Y12348989D01*
X18114938D01*
Y12351296D01*
X18128780D01*
Y12348989D01*
X18138007D01*
Y12346682D01*
X18144926D01*
Y12344375D01*
X18149541D01*
Y12342068D01*
X18151846D01*
Y12339761D01*
X18154153D01*
Y12337455D01*
X18156461D01*
Y12335148D01*
X18158768D01*
Y12332841D01*
X18161073D01*
Y12330534D01*
X18163380D01*
Y12328227D01*
X18165688D01*
Y12323614D01*
X18167995D01*
Y12316693D01*
X18170302D01*
Y12314386D01*
X18172609D01*
Y12316693D01*
X18562463D01*
Y12319000D01*
X18567078D01*
Y12321307D01*
X18569383D01*
Y12323614D01*
X18571690D01*
Y12325920D01*
X18573997D01*
Y12328227D01*
X18576305D01*
Y12337455D01*
X18578612D01*
Y12362830D01*
X18211826D01*
Y12367444D01*
X18214133D01*
Y12369750D01*
X18211826D01*
Y12376671D01*
X18214133D01*
Y12392819D01*
X18211826D01*
Y12395126D01*
X18214133D01*
Y12411273D01*
X18211826D01*
Y12415887D01*
X18214133D01*
Y12420501D01*
X18211826D01*
Y12422808D01*
X18214133D01*
Y12425114D01*
X18211826D01*
Y12429728D01*
X18214133D01*
Y12434342D01*
X18211826D01*
Y12436649D01*
X18214133D01*
Y12480478D01*
X18211826D01*
Y12482785D01*
X18214133D01*
Y12485092D01*
X18338701D01*
Y12482785D01*
X18347928D01*
Y12485092D01*
X18389452D01*
Y12487399D01*
X18403291D01*
Y12489706D01*
X18414825D01*
Y12492013D01*
X18421747D01*
Y12494319D01*
X18428667D01*
Y12496626D01*
X18435588D01*
Y12498933D01*
X18442508D01*
Y12501240D01*
X18447122D01*
Y12503547D01*
X18451736D01*
Y12505854D01*
X18456349D01*
Y12508161D01*
X18460963D01*
Y12510467D01*
X18465578D01*
Y12512774D01*
X18467883D01*
Y12515081D01*
X18472498D01*
Y12517388D01*
X18477110D01*
Y12519695D01*
X18479417D01*
Y12522002D01*
X18481725D01*
Y12524308D01*
X18486337D01*
Y12526615D01*
X18488644D01*
Y12528922D01*
X18490952D01*
Y12531229D01*
X18493259D01*
Y12533536D01*
X18497873D01*
Y12535843D01*
X18500179D01*
Y12538149D01*
X18502486D01*
Y12540456D01*
X18504793D01*
Y12542763D01*
X18507100D01*
Y12545070D01*
X18509407D01*
Y12549684D01*
X18511714D01*
Y12551990D01*
X18514020D01*
Y12554297D01*
X18516327D01*
Y12556604D01*
X18518634D01*
Y12558911D01*
X18520941D01*
Y12563525D01*
X18523248D01*
Y12565831D01*
X18525555D01*
Y12570445D01*
X18527861D01*
Y12575059D01*
X18530168D01*
Y12577366D01*
X18532475D01*
Y12581979D01*
X18534782D01*
Y12586593D01*
X18537090D01*
Y12591207D01*
X18539395D01*
Y12595820D01*
X18541702D01*
Y12602741D01*
X18544009D01*
Y12609661D01*
X18546317D01*
Y12616582D01*
X18548624D01*
Y12625809D01*
X18550929D01*
Y12637343D01*
X18553236D01*
Y12651184D01*
X18555544D01*
Y12692707D01*
X18553236D01*
Y12708855D01*
X18550929D01*
Y12720389D01*
X18548624D01*
Y12729617D01*
X18546317D01*
Y12736537D01*
X18544009D01*
Y12743458D01*
X18541702D01*
Y12750378D01*
X18539395D01*
Y12754992D01*
X18537090D01*
Y12759606D01*
X18534782D01*
Y12764219D01*
X18532475D01*
Y12768833D01*
X18530168D01*
Y12771140D01*
X18527861D01*
Y12775753D01*
X18525555D01*
Y12778060D01*
X18523248D01*
Y12782674D01*
X18520941D01*
Y12784981D01*
X18518634D01*
Y12789594D01*
X18516327D01*
Y12791901D01*
X18514020D01*
Y12794208D01*
X18511714D01*
Y12796515D01*
X18509407D01*
Y12798822D01*
X18507100D01*
Y12801129D01*
X18504793D01*
Y12803436D01*
X18502486D01*
Y12805742D01*
X18500179D01*
Y12808049D01*
X18497873D01*
Y12810356D01*
X18495566D01*
Y12812663D01*
X18493259D01*
Y12814970D01*
X18490952D01*
Y12817278D01*
X18488644D01*
Y12819583D01*
X18484032D01*
Y12821890D01*
X18481725D01*
Y12824197D01*
X18479417D01*
Y12826505D01*
X18474805D01*
Y12828812D01*
X18472498D01*
Y12831117D01*
X18467883D01*
Y12833424D01*
X18463271D01*
Y12835732D01*
X18458656D01*
Y12838039D01*
X18454044D01*
Y12840344D01*
X18449429D01*
Y12842651D01*
X18444815D01*
Y12844958D01*
X18440202D01*
Y12847266D01*
X18433281D01*
Y12849573D01*
X18426361D01*
Y12851878D01*
X18419440D01*
Y12854185D01*
X18410213D01*
Y12856493D01*
X18398679D01*
Y12858800D01*
X18387144D01*
Y12861105D01*
X18359462D01*
Y12863412D01*
D02*
G37*
G36*
X18128780Y12330534D02*
X18117244D01*
Y12328227D01*
X18110324D01*
Y12325920D01*
X18105710D01*
Y12323614D01*
X18103403D01*
Y12321307D01*
X18101097D01*
Y12316693D01*
X18098790D01*
Y12312080D01*
X18096483D01*
Y12293625D01*
X18098790D01*
Y12289011D01*
X18101097D01*
Y12286704D01*
X18103403D01*
Y12284398D01*
X18105710D01*
Y12282091D01*
X18108017D01*
Y12279784D01*
X18112631D01*
Y12277477D01*
X18133392D01*
Y12279784D01*
X18138007D01*
Y12282091D01*
X18142619D01*
Y12284398D01*
X18144926D01*
Y12289011D01*
X18147234D01*
Y12293625D01*
X18149541D01*
Y12314386D01*
X18147234D01*
Y12316693D01*
X18144926D01*
Y12321307D01*
X18142619D01*
Y12323614D01*
X18138007D01*
Y12325920D01*
X18135699D01*
Y12328227D01*
X18128780D01*
Y12330534D01*
D02*
G37*
G36*
X18518634Y12305159D02*
X18500179D01*
Y12302852D01*
X18488644D01*
Y12300545D01*
X18484032D01*
Y12298239D01*
X18481725D01*
Y12293625D01*
X18479417D01*
Y12289011D01*
X18477110D01*
Y12268250D01*
X18479417D01*
Y12261329D01*
X18481725D01*
Y12259022D01*
X18484032D01*
Y12256715D01*
X18486337D01*
Y12254409D01*
X18488644D01*
Y12252102D01*
X18490952D01*
Y12249795D01*
X18495566D01*
Y12247488D01*
X18502486D01*
Y12245181D01*
X18509407D01*
Y12247488D01*
X18518634D01*
Y12249795D01*
X18523248D01*
Y12252102D01*
X18525555D01*
Y12254409D01*
X18527861D01*
Y12256715D01*
X18530168D01*
Y12259022D01*
X18532475D01*
Y12263636D01*
X18534782D01*
Y12268250D01*
X18537090D01*
Y12291318D01*
X18534782D01*
Y12295932D01*
X18532475D01*
Y12298239D01*
X18530168D01*
Y12300545D01*
X18527861D01*
Y12302852D01*
X18518634D01*
Y12305159D01*
D02*
G37*
G36*
X18693953Y12166749D02*
X18546317D01*
Y12164442D01*
X18548624D01*
Y12152908D01*
X18546317D01*
Y12143681D01*
X18548624D01*
Y12141374D01*
X18546317D01*
Y12139067D01*
X18548624D01*
Y12136760D01*
X18546317D01*
Y12132146D01*
X18601680D01*
Y11977588D01*
X18606294D01*
Y11979895D01*
X18636282D01*
Y11977588D01*
X18638589D01*
Y11979895D01*
X18640897D01*
Y11982202D01*
X18638589D01*
Y12132146D01*
X18693953D01*
Y12136760D01*
X18691647D01*
Y12139067D01*
X18693953D01*
Y12141374D01*
X18691647D01*
Y12152908D01*
X18693953D01*
Y12159828D01*
X18691647D01*
Y12162135D01*
X18693953D01*
Y12166749D01*
D02*
G37*
G36*
X18532475D02*
X18384837D01*
Y12139067D01*
X18387144D01*
Y12136760D01*
X18384837D01*
Y12134453D01*
X18387144D01*
Y12132146D01*
X18440202D01*
Y11979895D01*
X18442508D01*
Y11977588D01*
X18444815D01*
Y11979895D01*
X18458656D01*
Y11977588D01*
X18472498D01*
Y11979895D01*
X18477110D01*
Y11977588D01*
X18479417D01*
Y12132146D01*
X18532475D01*
Y12134453D01*
Y12136760D01*
Y12166749D01*
D02*
G37*
G36*
X18364076D02*
X18239507D01*
Y11979895D01*
X18241814D01*
Y11977588D01*
X18244119D01*
Y11979895D01*
X18364076D01*
Y11977588D01*
X18368690D01*
Y12014498D01*
X18283337D01*
Y12012191D01*
X18281030D01*
Y12014498D01*
X18278723D01*
Y12058327D01*
X18354849D01*
Y12092930D01*
X18278723D01*
Y12132146D01*
X18364076D01*
Y12166749D01*
D02*
G37*
G36*
X18133392D02*
X18094176D01*
Y12164442D01*
X18096483D01*
Y12046793D01*
Y12044486D01*
Y11982202D01*
X18094176D01*
Y11979895D01*
X18096483D01*
Y11977588D01*
X18098790D01*
Y11979895D01*
X18211826D01*
Y11977588D01*
X18214133D01*
Y11979895D01*
X18216438D01*
Y12014498D01*
X18133392D01*
Y12166749D01*
D02*
G37*
G36*
X17985754D02*
X17948845D01*
Y11979895D01*
X17951152D01*
Y11977588D01*
X17953459D01*
Y11979895D01*
X18068800D01*
Y11977588D01*
X18071107D01*
Y11979895D01*
X18073415D01*
Y11982202D01*
X18071107D01*
Y12009884D01*
X18073415D01*
Y12012191D01*
X18071107D01*
Y12014498D01*
X17985754D01*
Y12152908D01*
Y12155215D01*
Y12166749D01*
D02*
G37*
G36*
X17856572D02*
X17810435D01*
Y12162135D01*
X17808128D01*
Y12155215D01*
X17805823D01*
Y12150601D01*
X17803516D01*
Y12143681D01*
X17801208D01*
Y12136760D01*
X17798901D01*
Y12132146D01*
X17796594D01*
Y12125226D01*
X17794287D01*
Y12118305D01*
X17791982D01*
Y12113692D01*
X17789674D01*
Y12106771D01*
X17787367D01*
Y12099851D01*
X17785060D01*
Y12095237D01*
X17782753D01*
Y12088316D01*
X17780447D01*
Y12081396D01*
X17778140D01*
Y12074475D01*
X17775833D01*
Y12069862D01*
X17773526D01*
Y12062941D01*
X17771219D01*
Y12056021D01*
X17768912D01*
Y12051407D01*
X17766606D01*
Y12044486D01*
X17764299D01*
Y12037566D01*
X17761992D01*
Y12032952D01*
X17759685D01*
Y12026032D01*
X17757378D01*
Y12019111D01*
X17755070D01*
Y12014498D01*
X17752763D01*
Y12007577D01*
X17750458D01*
Y12002964D01*
X17748151D01*
Y11996043D01*
X17745844D01*
Y11989123D01*
X17743536D01*
Y11982202D01*
X17741229D01*
Y11977588D01*
X17745844D01*
Y11979895D01*
X17759685D01*
Y11977588D01*
X17764299D01*
Y11979895D01*
X17778140D01*
Y11977588D01*
X17780447D01*
Y11979895D01*
X17782753D01*
Y11984509D01*
X17785060D01*
Y11989123D01*
X17787367D01*
Y11996043D01*
X17789674D01*
Y12000657D01*
Y12002964D01*
X17791982D01*
Y12009884D01*
X17794287D01*
Y12014498D01*
X17870413D01*
Y12012191D01*
X17872720D01*
Y12005270D01*
X17875027D01*
Y11998350D01*
X17877335D01*
Y11991429D01*
X17879640D01*
Y11984509D01*
X17881947D01*
Y11979895D01*
X17884254D01*
Y11977588D01*
X17886562D01*
Y11979895D01*
X17921164D01*
Y11977588D01*
X17923470D01*
Y11986816D01*
X17921164D01*
Y11993736D01*
X17918857D01*
Y11998350D01*
X17916550D01*
Y12005270D01*
X17914243D01*
Y12012191D01*
X17911935D01*
Y12016805D01*
X17909628D01*
Y12023725D01*
X17907323D01*
Y12030645D01*
X17905016D01*
Y12035259D01*
X17902708D01*
Y12042180D01*
X17900401D01*
Y12049100D01*
X17898096D01*
Y12053714D01*
X17895789D01*
Y12060634D01*
X17893481D01*
Y12067555D01*
X17891174D01*
Y12072169D01*
X17888869D01*
Y12079089D01*
X17886562D01*
Y12086010D01*
X17884254D01*
Y12090623D01*
X17881947D01*
Y12097544D01*
X17879640D01*
Y12104464D01*
X17877335D01*
Y12109078D01*
X17875027D01*
Y12115998D01*
X17872720D01*
Y12122919D01*
X17870413D01*
Y12129839D01*
X17868106D01*
Y12134453D01*
X17865799D01*
Y12141374D01*
X17863493D01*
Y12148294D01*
X17861186D01*
Y12152908D01*
X17858879D01*
Y12159828D01*
X17856572D01*
Y12166749D01*
D02*
G37*
G36*
X17695094D02*
X17600513D01*
Y11977588D01*
X17605127D01*
Y11979895D01*
X17630502D01*
Y11977588D01*
X17637424D01*
Y12037566D01*
X17695094D01*
Y12039873D01*
X17706628D01*
Y12042180D01*
X17713548D01*
Y12044486D01*
X17718163D01*
Y12046793D01*
X17722775D01*
Y12049100D01*
X17725082D01*
Y12051407D01*
X17729697D01*
Y12053714D01*
X17732002D01*
Y12056021D01*
X17734309D01*
Y12058327D01*
X17736617D01*
Y12060634D01*
X17738924D01*
Y12065248D01*
X17741229D01*
Y12067555D01*
X17743536D01*
Y12072169D01*
X17745844D01*
Y12079089D01*
X17748151D01*
Y12088316D01*
X17750458D01*
Y12118305D01*
X17748151D01*
Y12125226D01*
X17745844D01*
Y12132146D01*
X17743536D01*
Y12136760D01*
X17741229D01*
Y12141374D01*
X17738924D01*
Y12143681D01*
X17736617D01*
Y12145987D01*
X17734309D01*
Y12148294D01*
X17732002D01*
Y12150601D01*
X17729697D01*
Y12152908D01*
X17727390D01*
Y12155215D01*
X17722775D01*
Y12157522D01*
X17720470D01*
Y12159828D01*
X17715855D01*
Y12162135D01*
X17708936D01*
Y12164442D01*
X17695094D01*
Y12166749D01*
D02*
G37*
G36*
X18811601Y12171362D02*
X18779306D01*
Y12169056D01*
X18765465D01*
Y12166749D01*
X18758545D01*
Y12164442D01*
X18751624D01*
Y12162135D01*
X18747011D01*
Y12159828D01*
X18742397D01*
Y12157522D01*
X18737782D01*
Y12155215D01*
X18735477D01*
Y12152908D01*
X18733170D01*
Y12150601D01*
X18728555D01*
Y12148294D01*
X18726250D01*
Y12145987D01*
X18723943D01*
Y12143681D01*
X18721635D01*
Y12139067D01*
X18719328D01*
Y12136760D01*
X18717023D01*
Y12134453D01*
X18714716D01*
Y12129839D01*
X18712408D01*
Y12125226D01*
X18710101D01*
Y12120612D01*
X18707794D01*
Y12113692D01*
X18705489D01*
Y12104464D01*
X18703181D01*
Y12092930D01*
X18700874D01*
Y12051407D01*
X18703181D01*
Y12039873D01*
X18705489D01*
Y12032952D01*
X18707794D01*
Y12026032D01*
X18710101D01*
Y12021418D01*
X18712408D01*
Y12016805D01*
X18714716D01*
Y12014498D01*
Y12012191D01*
X18717023D01*
Y12009884D01*
X18719328D01*
Y12005270D01*
X18721635D01*
Y12002964D01*
X18723943D01*
Y12000657D01*
X18726250D01*
Y11998350D01*
X18728555D01*
Y11996043D01*
X18730862D01*
Y11993736D01*
X18733170D01*
Y11991429D01*
X18737782D01*
Y11989123D01*
X18740089D01*
Y11986816D01*
X18744704D01*
Y11984509D01*
X18749318D01*
Y11982202D01*
X18756238D01*
Y11979895D01*
X18763159D01*
Y11977588D01*
X18774693D01*
Y11975281D01*
X18789253D01*
Y11976695D01*
X18790518D01*
Y11975430D01*
Y11975281D01*
X18816216D01*
Y11977588D01*
X18825443D01*
Y11979895D01*
X18832364D01*
Y11982202D01*
X18836977D01*
Y11984509D01*
X18841591D01*
Y11986816D01*
X18846205D01*
Y11989123D01*
X18850818D01*
Y11991429D01*
X18853125D01*
Y11993736D01*
X18855432D01*
Y11996043D01*
X18860046D01*
Y11998350D01*
X18862352D01*
Y12000657D01*
X18864659D01*
Y12002964D01*
X18866966D01*
Y12005270D01*
X18869273D01*
Y12009884D01*
X18871581D01*
Y12012191D01*
X18873888D01*
Y12016805D01*
X18876193D01*
Y12019111D01*
X18878500D01*
Y12023725D01*
X18880807D01*
Y12030645D01*
X18883115D01*
Y12035259D01*
X18885422D01*
Y12044486D01*
X18887727D01*
Y12056021D01*
X18890034D01*
Y12090623D01*
X18887727D01*
Y12104464D01*
X18885422D01*
Y12113692D01*
X18883115D01*
Y12118305D01*
X18880807D01*
Y12122919D01*
X18878500D01*
Y12127533D01*
X18876193D01*
Y12132146D01*
X18873888D01*
Y12134453D01*
X18871581D01*
Y12139067D01*
X18869273D01*
Y12141374D01*
X18866966D01*
Y12143681D01*
X18864659D01*
Y12145987D01*
X18862352D01*
Y12148294D01*
X18860046D01*
Y12150601D01*
X18857739D01*
Y12152908D01*
X18855432D01*
Y12155215D01*
X18850818D01*
Y12157522D01*
X18848511D01*
Y12159828D01*
X18843898D01*
Y12162135D01*
X18836977D01*
Y12164442D01*
X18832364D01*
Y12166749D01*
X18823135D01*
Y12169056D01*
X18811601D01*
Y12171362D01*
D02*
G37*
%LPD*%
G36*
X18354849Y12801129D02*
X18375610D01*
Y12798822D01*
X18387144D01*
Y12796515D01*
X18396371D01*
Y12794208D01*
X18405598D01*
Y12791901D01*
X18410213D01*
Y12789594D01*
X18417133D01*
Y12787288D01*
X18421747D01*
Y12784981D01*
X18426361D01*
Y12782674D01*
X18428667D01*
Y12780367D01*
X18433281D01*
Y12778060D01*
X18437895D01*
Y12775753D01*
X18440202D01*
Y12773447D01*
X18442508D01*
Y12771140D01*
X18447122D01*
Y12768833D01*
X18449429D01*
Y12766526D01*
X18451736D01*
Y12764219D01*
X18454044D01*
Y12761912D01*
X18456349D01*
Y12759606D01*
X18458656D01*
Y12757299D01*
X18460963D01*
Y12754992D01*
X18463271D01*
Y12750378D01*
X18465578D01*
Y12748072D01*
X18467883D01*
Y12745765D01*
X18470190D01*
Y12741151D01*
X18472498D01*
Y12736537D01*
X18474805D01*
Y12734231D01*
X18477110D01*
Y12729617D01*
X18479417D01*
Y12722696D01*
X18481725D01*
Y12718083D01*
X18484032D01*
Y12711162D01*
X18486337D01*
Y12701935D01*
X18488644D01*
Y12688094D01*
X18490952D01*
Y12655798D01*
X18488644D01*
Y12641957D01*
X18486337D01*
Y12632730D01*
X18484032D01*
Y12625809D01*
X18481725D01*
Y12621195D01*
X18479417D01*
Y12614275D01*
X18477110D01*
Y12611968D01*
X18474805D01*
Y12607355D01*
X18472498D01*
Y12602741D01*
X18470190D01*
Y12600434D01*
X18467883D01*
Y12598127D01*
X18465578D01*
Y12593514D01*
X18463271D01*
Y12591207D01*
X18460963D01*
Y12588900D01*
X18458656D01*
Y12586593D01*
X18456349D01*
Y12584286D01*
X18454044D01*
Y12581979D01*
X18451736D01*
Y12579673D01*
X18449429D01*
Y12577366D01*
X18447122D01*
Y12575059D01*
X18444815D01*
Y12572752D01*
X18440202D01*
Y12570445D01*
X18437895D01*
Y12568138D01*
X18433281D01*
Y12565831D01*
X18430974D01*
Y12563525D01*
X18426361D01*
Y12561218D01*
X18421747D01*
Y12558911D01*
X18417133D01*
Y12556604D01*
X18410213D01*
Y12554297D01*
X18403291D01*
Y12551990D01*
X18396371D01*
Y12549684D01*
X18382532D01*
Y12547377D01*
X18366383D01*
Y12545070D01*
X18154153D01*
Y12542763D01*
X18151846D01*
Y12390512D01*
X18096483D01*
Y12392819D01*
X18094176D01*
Y12395126D01*
X18096483D01*
Y12701935D01*
X18094176D01*
Y12715776D01*
X18091869D01*
Y12722696D01*
X18089561D01*
Y12727310D01*
X18087256D01*
Y12731924D01*
X18084949D01*
Y12736537D01*
X18082642D01*
Y12738844D01*
X18080334D01*
Y12741151D01*
X18078027D01*
Y12743458D01*
X18075722D01*
Y12745765D01*
X18073415D01*
Y12748072D01*
X18071107D01*
Y12750378D01*
X18066495D01*
Y12752685D01*
X18059573D01*
Y12754992D01*
X18052654D01*
Y12798822D01*
X18050346D01*
Y12801129D01*
X18052654D01*
Y12803436D01*
X18354849D01*
Y12801129D01*
D02*
G37*
G36*
X17833504Y12120612D02*
X17835811D01*
Y12113692D01*
X17838116D01*
Y12106771D01*
X17840424D01*
Y12099851D01*
X17842731D01*
Y12092930D01*
X17845038D01*
Y12086010D01*
X17847345D01*
Y12079089D01*
X17849652D01*
Y12072169D01*
X17851958D01*
Y12065248D01*
X17854265D01*
Y12058327D01*
X17856572D01*
Y12051407D01*
X17858879D01*
Y12046793D01*
X17854265D01*
Y12049100D01*
X17851958D01*
Y12046793D01*
X17849652D01*
Y12049100D01*
X17817355D01*
Y12046793D01*
X17812743D01*
Y12049100D01*
X17810435D01*
Y12046793D01*
X17805823D01*
Y12051407D01*
X17808128D01*
Y12056021D01*
X17810435D01*
Y12062941D01*
X17812743D01*
Y12069862D01*
X17815050D01*
Y12076782D01*
X17817355D01*
Y12083703D01*
X17819662D01*
Y12090623D01*
X17821970D01*
Y12097544D01*
X17824277D01*
Y12104464D01*
X17826582D01*
Y12106771D01*
Y12111385D01*
X17828889D01*
Y12118305D01*
X17831197D01*
Y12125226D01*
X17833504D01*
Y12120612D01*
D02*
G37*
G36*
X17681252Y12132146D02*
X17690480D01*
Y12129839D01*
X17697400D01*
Y12127533D01*
X17699707D01*
Y12125226D01*
X17702014D01*
Y12122919D01*
X17704321D01*
Y12120612D01*
X17706628D01*
Y12115998D01*
X17708936D01*
Y12090623D01*
X17706628D01*
Y12083703D01*
X17704321D01*
Y12081396D01*
X17702014D01*
Y12079089D01*
X17699707D01*
Y12076782D01*
X17697400D01*
Y12074475D01*
X17690480D01*
Y12072169D01*
X17681252D01*
Y12069862D01*
X17637424D01*
Y12134453D01*
X17681252D01*
Y12132146D01*
D02*
G37*
G36*
X18809296Y12134453D02*
X18816216D01*
Y12132146D01*
X18820830D01*
Y12129839D01*
X18825443D01*
Y12127533D01*
X18827750D01*
Y12125226D01*
X18830057D01*
Y12122919D01*
X18832364D01*
Y12120612D01*
X18834669D01*
Y12118305D01*
X18836977D01*
Y12115998D01*
X18839284D01*
Y12111385D01*
X18841591D01*
Y12106771D01*
X18843898D01*
Y12099851D01*
X18846205D01*
Y12088316D01*
X18848511D01*
Y12056021D01*
X18846205D01*
Y12044486D01*
X18843898D01*
Y12039873D01*
X18841591D01*
Y12032952D01*
X18839284D01*
Y12030645D01*
X18836977D01*
Y12026032D01*
X18834669D01*
Y12023725D01*
X18832364D01*
Y12021418D01*
X18830057D01*
Y12019111D01*
X18827750D01*
Y12016805D01*
X18823135D01*
Y12014498D01*
X18818523D01*
Y12012191D01*
X18811601D01*
Y12009884D01*
X18801903D01*
Y12009586D01*
X18800639D01*
Y12009884D01*
X18800069D01*
Y12007577D01*
X18795454D01*
Y12009884D01*
X18777000D01*
Y12012191D01*
X18770079D01*
Y12014498D01*
X18767772D01*
Y12016805D01*
X18763159D01*
Y12019111D01*
X18760852D01*
Y12021418D01*
X18758545D01*
Y12023725D01*
X18756238D01*
Y12026032D01*
X18753931D01*
Y12028339D01*
X18751624D01*
Y12032952D01*
X18749318D01*
Y12037566D01*
X18747011D01*
Y12044486D01*
X18744704D01*
Y12053714D01*
X18742397D01*
Y12092930D01*
X18744704D01*
Y12102157D01*
X18747011D01*
Y12109078D01*
X18749318D01*
Y12113692D01*
X18751624D01*
Y12115998D01*
X18753931D01*
Y12118305D01*
X18756238D01*
Y12122919D01*
X18758545D01*
Y12125226D01*
X18763159D01*
Y12127533D01*
X18765465D01*
Y12129839D01*
X18770079D01*
Y12132146D01*
X18774693D01*
Y12134453D01*
X18781613D01*
Y12136760D01*
X18809296D01*
Y12134453D01*
D02*
G37*
G36*
X18800639Y12005791D02*
X18799373D01*
Y12007056D01*
X18800639D01*
Y12005791D01*
D02*
G37*
G36*
X18799373Y12001996D02*
Y12000731D01*
X18798108D01*
Y12003261D01*
X18799373D01*
Y12001996D01*
D02*
G37*
G36*
X18798108Y11996936D02*
X18796843D01*
Y11998201D01*
X18798108D01*
Y11996936D01*
D02*
G37*
G36*
X18796843Y11993141D02*
X18795578D01*
Y11994406D01*
X18796843D01*
Y11993141D01*
D02*
G37*
G36*
X18795578Y11989346D02*
X18794313D01*
Y11990611D01*
X18795578D01*
Y11989346D01*
D02*
G37*
G36*
X18794313Y11985551D02*
X18793048D01*
Y11986816D01*
X18794313D01*
Y11985551D01*
D02*
G37*
G36*
X18793048Y11981756D02*
X18791783D01*
Y11983020D01*
X18793048D01*
Y11981756D01*
D02*
G37*
G36*
X18791783Y11979225D02*
Y11977960D01*
X18790518D01*
Y11980490D01*
X18791783D01*
Y11979225D01*
D02*
G37*
D10*
X10999299Y13924219D02*
X11105918Y13817599D01*
X11328400D01*
X19278600Y23241000D02*
X19524701Y22994899D01*
X19278600Y23241000D02*
Y23253700D01*
X19240500Y22961600D02*
Y22999699D01*
Y22961600D02*
X19621500Y22580600D01*
X3606800Y23482300D02*
X3657600D01*
X19621500Y27584399D02*
X20245914Y26959988D01*
X20059599Y24530051D02*
X20245914Y24716364D01*
Y26959988D01*
X6629400Y20546700D02*
X8282300Y20546700D01*
X6517000Y20546700D02*
X6629400D01*
X6464300Y20599400D02*
X6517000Y20546700D01*
X15990710Y16738600D02*
X17030701D01*
X14637799Y16660500D02*
X15912611D01*
X15990710Y16738600D01*
X15875000Y16751300D02*
X16116299Y16992599D01*
X14184000Y16206702D02*
X14637799Y16660500D01*
X14287500Y16751300D02*
X15875000D01*
X17030701Y16738600D02*
X17538400Y17246300D01*
X21010580Y17119600D02*
X21031200D01*
X20947081Y17183099D02*
X21010580Y17119600D01*
X20421600Y17183099D02*
X20947081D01*
X20817690Y18364200D02*
X20942300Y18239590D01*
Y18072099D02*
Y18239590D01*
X20510500Y18364200D02*
X20817690D01*
X20767322Y17691100D02*
X21074945D01*
X20754622Y17703799D02*
X20767322Y17691100D01*
X20447000Y17703799D02*
X20754622D01*
X11391900Y14298302D02*
X11439811Y14250391D01*
X11391900Y14298302D02*
Y14489290D01*
X11439811Y14147780D02*
X11454391Y14133200D01*
X11439811Y14147780D02*
Y14250391D01*
X11607800Y14097000D02*
Y14806790D01*
X11328400Y13817599D02*
X11607800Y14097000D01*
X11391900Y14489290D02*
X11495400Y14592789D01*
X3657600Y23482300D02*
X5170800Y24995500D01*
X6305694D01*
X6561594Y24739600D01*
X7467600D01*
X5473700Y24384000D02*
Y24866600D01*
X7556500Y23914101D02*
X7949011D01*
X8332311Y24297400D01*
X8445500Y23626781D02*
Y23647400D01*
X8359078Y23540358D02*
X8445500Y23626781D01*
X8359078Y23356947D02*
Y23540358D01*
X8293930Y23291800D02*
X8359078Y23356947D01*
X7543800Y23088600D02*
X7747000Y23291800D01*
X8293930D01*
X8026400Y22834599D02*
X8624240Y23432440D01*
X9183040D01*
X7199928Y22467783D02*
Y22720761D01*
X6872855Y22984845D02*
X6935844D01*
X7199928Y22720761D01*
Y22467783D02*
X8094062Y21573650D01*
X5473700Y24384000D02*
X6872855Y22984845D01*
X7964780Y22604120D02*
X8265820D01*
X7950200Y22618700D02*
X7964780Y22604120D01*
X9654192Y24297400D02*
X9954150Y23997443D01*
Y23853249D02*
Y23997443D01*
X8332311Y24297400D02*
X9654192D01*
X10096011Y23795700D02*
X10149200Y23848889D01*
X9956800Y23673607D02*
X10078893Y23795700D01*
X10096011D01*
X10149200Y23848889D02*
Y23938223D01*
X9894413Y24193011D02*
X10149200Y23938223D01*
X9956800Y22555200D02*
Y23673607D01*
X9894413Y24193011D02*
Y25400595D01*
X10464800Y23837900D02*
X10782300D01*
X9753600Y24003000D02*
X9766300D01*
X9183040Y23432440D02*
X9753600Y24003000D01*
X8267700Y22606000D02*
X9713600D01*
X8265820Y22604120D02*
X8267700Y22606000D01*
X9791211Y22555200D02*
X9956800D01*
X9751211Y22515199D02*
X9791211Y22555200D01*
X8447490Y22515199D02*
X9751211D01*
X9713600Y22606000D02*
X9804400Y22696800D01*
X8364789Y22432500D02*
X8447490Y22515199D01*
X7899208Y22432500D02*
X8364789D01*
X9804400Y22696800D02*
Y23685500D01*
X11972625Y24350784D02*
Y24467728D01*
X11074400Y25120599D02*
X11689375Y24505624D01*
X11972625Y24350784D02*
X12077700Y24245711D01*
X11843928Y24596425D02*
X11972625Y24467728D01*
X11806318Y24505624D02*
X11881825Y24430118D01*
X11726985Y24596425D02*
X11843928D01*
X11262654Y24318254D02*
X11587825D01*
X11631716Y24362144D02*
X11738345D01*
X11881825Y24313174D02*
X11967200Y24227800D01*
X11881825Y24313174D02*
Y24430118D01*
X11738345Y24362144D02*
X11752925Y24376724D01*
X11587825Y24318254D02*
X11631716Y24362144D01*
X11689375Y24505624D02*
X11806318D01*
X11156412Y25166998D02*
X11726985Y24596425D01*
X11967200Y23837900D02*
Y24227800D01*
X10472400Y25509200D02*
X10918607D01*
X11156412Y25166998D02*
Y25271394D01*
X11527904Y22889626D02*
Y23761597D01*
Y22889626D02*
X12032902Y22384628D01*
X11527800Y23761700D02*
X11527904Y23761597D01*
X12077700Y23909692D02*
X12096100Y23891292D01*
X12077700Y23909692D02*
Y24245711D01*
X12092280Y23687379D02*
Y23780688D01*
X12096100Y23784508D01*
Y23891292D01*
X11747500Y23482300D02*
X12153900D01*
X9436100Y20358099D02*
X9690100D01*
X8966200Y20828000D02*
X9436100Y20358099D01*
X12813922Y20703349D02*
X12834541D01*
X12676572Y20840700D02*
X12813922Y20703349D01*
X3481050Y20575250D02*
X3911600Y21005800D01*
X9041297D01*
X9129402Y20917694D01*
X8126174Y21573650D02*
X8226862Y21472961D01*
X7821300Y22060815D02*
X8482615Y21399500D01*
X8094062Y21573650D02*
X8126174D01*
X9478844Y20739101D02*
X10552265D01*
X9182794Y21046594D02*
X9258302Y20971086D01*
Y20959642D02*
X9478844Y20739101D01*
X9258302Y20959642D02*
Y20971086D01*
X9180973Y21046594D02*
X9182794D01*
X9043184Y21184383D02*
X9180973Y21046594D01*
X10782300Y23837900D02*
X11262654Y24318254D01*
X12077700Y23672800D02*
X12092280Y23687379D01*
X11125020Y23398071D02*
Y23863300D01*
X10642600Y25120599D02*
X11074400D01*
X20662900Y23075900D02*
X20713699Y23126700D01*
Y23228300D01*
X20509550Y23432449D02*
X20713699Y23228300D01*
X19840691Y23636600D02*
X20044843Y23432449D01*
X20509550D01*
X19364908Y23636600D02*
X19840691D01*
X19289400Y23561092D02*
X19364908Y23636600D01*
X19289400Y23520320D02*
Y23561092D01*
X18993781Y23224699D02*
X19289400Y23520320D01*
X13017500Y23495000D02*
X14343425D01*
X19327296Y23727400D02*
X19368069D01*
X14343425Y23495000D02*
X14613725Y23224699D01*
X18993781D01*
X19198599Y23598703D02*
X19327296Y23727400D01*
X18956171Y23315500D02*
X19198599Y23557932D01*
X19368069Y23727400D02*
X19500594Y23859924D01*
X19198599Y23557932D02*
Y23598703D01*
X14963293Y23315500D02*
X18956171D01*
X14749963Y23412167D02*
X14821231Y23340900D01*
X14937894D01*
X14963293Y23315500D01*
X14729344Y23412167D02*
X14749963D01*
X16878300Y17145000D02*
Y17337399D01*
X14124300Y20091400D02*
X16878300Y17337399D01*
X17538400Y17645311D02*
X17635289Y17742200D01*
X19914455Y19750792D02*
Y20498654D01*
X17635289Y17742200D02*
X17905862D01*
X19914455Y19750792D01*
X17538400Y17246300D02*
Y17645311D01*
X19914455Y20498654D02*
X20040601Y20624800D01*
X17932401Y17487900D02*
X18326100Y17881599D01*
X18846800D01*
X15595599Y18834100D02*
X15824200D01*
X14338300Y20091400D02*
X15595599Y18834100D01*
X13595091Y19361407D02*
X13595091D01*
X13862050Y19094450D01*
X19524701Y22994899D02*
X19913600D01*
X11564398Y14850192D02*
X11607800Y14806790D01*
X13227937Y13253464D02*
X14401801Y14427327D01*
X14439900Y15446602D02*
Y15544800D01*
X14401801Y15408502D02*
X14439900Y15446602D01*
X13196422Y13350359D02*
X14311000Y14464937D01*
Y15796899D02*
X14312900Y15798801D01*
X14401801Y14427327D02*
Y15408502D01*
X14311000Y14464937D02*
Y15796899D01*
X14184000Y14466348D02*
Y16206702D01*
X13914352Y14196700D02*
X14184000Y14466348D01*
X12563853Y13253464D02*
X13227937D01*
X11375390Y12065000D02*
X12563853Y13253464D01*
X12461359Y13350359D02*
X13196422D01*
X11341100Y12230100D02*
X12461359Y13350359D01*
X11655198Y14887802D02*
X12346300Y14196700D01*
X13914352D01*
X11564398Y14850192D02*
Y19839113D01*
X11473598Y14812581D02*
X11495400Y14790779D01*
X11473598Y14812581D02*
Y19801501D01*
X11495400Y14592789D02*
Y14790779D01*
X11362700Y14672301D02*
X11404600Y14630400D01*
X11362700Y14672301D02*
Y19783990D01*
X10693400Y14655800D02*
X10706100Y14668500D01*
X10375900Y14338300D02*
X10693400Y14655800D01*
X10375900Y14109700D02*
Y14338300D01*
X11491600Y19911911D02*
X11564398Y19839113D01*
X11492195Y20361795D02*
Y20437016D01*
X11038410Y20890800D02*
X11492195Y20437016D01*
X10933504Y20890800D02*
X11038410D01*
X10895194Y20929111D02*
X10933504Y20890800D01*
X10895194Y20929111D02*
Y21774602D01*
X11203300Y22082709D01*
Y23319792D01*
X11125020Y23398071D02*
X11203300Y23319792D01*
X10895894Y20800000D02*
X11000800D01*
X11655198Y14922501D02*
X11693298Y14960600D01*
X11400800Y19874300D02*
X11473598Y19801501D01*
X11400800Y19874300D02*
Y20270399D01*
X11491600Y19911911D02*
Y20232790D01*
X11400800Y20270399D02*
X11492195Y20361795D01*
X11310000Y19836690D02*
X11362700Y19783990D01*
X11655198Y14922501D02*
Y14986000D01*
X10804394Y20891499D02*
Y21019910D01*
X11310000Y20308009D02*
X11401395Y20399405D01*
X11491600Y20232790D02*
X12032902Y20774091D01*
X10424804Y21399500D02*
X10804394Y21019910D01*
Y20891499D02*
X10895894Y20800000D01*
X11655198Y14887802D02*
Y14922501D01*
X11000800Y20800000D02*
X11401395Y20399405D01*
X11310000Y19836690D02*
Y20308009D01*
X11150600Y19841759D02*
Y20323058D01*
X9381711Y19812000D02*
X11120842D01*
X10605657Y20867999D02*
X11150600Y20323058D01*
X11120842Y19812000D02*
X11150600Y19841759D01*
X8523600Y18953889D02*
X9381711Y19812000D01*
X8482615Y21399500D02*
X10424804D01*
X11074400Y23266400D02*
Y23317200D01*
X9578810Y22009100D02*
X10947400D01*
X9286710Y22301199D02*
X9578810Y22009100D01*
X12032902Y20774091D02*
Y22384628D01*
X17017999Y21729700D02*
X17576801Y21170900D01*
X19951700D01*
X13862050Y19094450D02*
X14077950D01*
X10488300Y20867999D02*
X10605657D01*
X10236200Y22212300D02*
Y22462395D01*
X10579100Y22805293D01*
X10096500Y21259801D02*
X10488300Y20867999D01*
X20396201Y20002499D02*
X20561301D01*
X20904201Y19659599D01*
X5499100Y20607800D02*
X6455900D01*
X3881900D02*
X5499100D01*
X5461000Y20307300D02*
Y20569701D01*
X5499100Y20607800D01*
X6159500Y13639799D02*
X6273800Y13525500D01*
X5905500Y9802551D02*
X6805351Y8902700D01*
X5905500Y9802551D02*
Y10071100D01*
X6805351Y8902700D02*
X6819900D01*
X6273800Y13525500D02*
X6324600D01*
X6584402Y13307782D02*
X6858000Y13581380D01*
X6542318Y13307782D02*
X6584402D01*
X6324600Y13525500D02*
X6542318Y13307782D01*
X6858000Y13581380D02*
Y13868401D01*
X6908800Y12877800D02*
X8523600Y14492599D01*
Y18953889D01*
X8432800Y14706599D02*
Y20675600D01*
X6858000Y13131799D02*
X8432800Y14706599D01*
X10236200Y22707600D02*
X10422404Y22893803D01*
Y23228496D01*
X10608608Y23414700D01*
X10976900D01*
X11074400Y23317200D01*
X7821300Y22060815D02*
Y22354591D01*
X7899208Y22432500D01*
X7893836Y21184383D02*
X9043184D01*
X7818419Y21259801D02*
X7893836Y21184383D01*
X7797800Y21259801D02*
X7818419D01*
X3481050Y19866760D02*
Y20575250D01*
X12382500Y20840700D02*
X12676572D01*
X19500594Y23859924D02*
Y23971045D01*
X20059599Y24530051D01*
X6858000Y13868401D02*
X7670800Y14681200D01*
X7950200Y22301199D02*
X9286710D01*
X10579100Y22805293D02*
Y23202901D01*
X9894413Y25400595D02*
X10592318Y26098499D01*
X11772900D01*
X20059599Y24530051D02*
X20074179Y24515469D01*
X20163130D02*
X20485100Y24193500D01*
X20074179Y24515469D02*
X20163130D01*
X3481050Y19866760D02*
X3530600Y19817210D01*
Y19088100D02*
Y19817210D01*
X3609950Y20281900D02*
X3753215Y20425165D01*
Y20479115D01*
X3881900Y20607800D01*
X6455900D02*
X6464300Y20599400D01*
X12153900Y23482300D02*
X12357100Y23279100D01*
X10401300Y25438100D02*
X10472400Y25509200D01*
X10918607D02*
X11156412Y25271394D01*
X4927600Y12649200D02*
X5740400D01*
X4318000Y13258800D02*
X4927600Y12649200D01*
X6794500Y10718800D02*
X7251700D01*
X7391400Y10858500D01*
X6066082Y12276382D02*
X6197600D01*
X6298638Y12377420D02*
X6324600D01*
X6197600Y12276382D02*
X6298638Y12377420D01*
X6057900Y12268200D02*
X6066082Y12276382D01*
X5727700Y11938000D02*
X6057900Y12268200D01*
X16725900Y13716000D02*
X17170399Y14160500D01*
Y14427200D01*
D11*
X2844775Y18084792D02*
Y18186359D01*
X2768600D01*
X2793992Y18135574D01*
Y18110184D01*
X2768600Y18084792D01*
X2717817D01*
X2692425Y18110184D01*
Y18160966D01*
X2717817Y18186359D01*
X2844775Y18034007D02*
X2743208D01*
X2692425Y17983224D01*
X2743208Y17932440D01*
X2844775D01*
X2730525Y19443639D02*
Y19392854D01*
Y19418246D01*
X2882875D01*
X2857483Y19443639D01*
X2730525Y19215112D02*
Y19316679D01*
X2832092Y19215112D01*
X2857483D01*
X2882875Y19240504D01*
Y19291289D01*
X2857483Y19316679D01*
X2882875Y19164330D02*
X2781308D01*
X2730525Y19113545D01*
X2781308Y19062761D01*
X2882875D01*
X2813040Y20872337D02*
X2825736Y20859641D01*
Y20834248D01*
X2813040Y20821553D01*
X2800344D01*
X2787648Y20834248D01*
Y20846945D01*
Y20834248D01*
X2774952Y20821553D01*
X2762256D01*
X2749560Y20834248D01*
Y20859641D01*
X2762256Y20872337D01*
X2749560Y20796162D02*
X2762256D01*
Y20783466D01*
X2749560D01*
Y20796162D01*
X2813040Y20732681D02*
X2825736Y20719986D01*
Y20694594D01*
X2813040Y20681898D01*
X2800344D01*
X2787648Y20694594D01*
Y20707291D01*
Y20694594D01*
X2774952Y20681898D01*
X2762256D01*
X2749560Y20694594D01*
Y20719986D01*
X2762256Y20732681D01*
X2825736Y20656506D02*
X2774952D01*
X2749560Y20631116D01*
X2774952Y20605724D01*
X2825736D01*
X2736864Y20580331D02*
Y20529549D01*
X2825736Y20466068D02*
Y20491460D01*
X2813040Y20504156D01*
X2762256D01*
X2749560Y20491460D01*
Y20466068D01*
X2762256Y20453374D01*
X2813040D01*
X2825736Y20466068D01*
X2749560Y20427982D02*
X2800344Y20377197D01*
X2749560Y20351805D02*
X2825736D01*
Y20313718D01*
X2813040Y20301022D01*
X2787648D01*
X2774952Y20313718D01*
Y20351805D01*
X2736864Y20275630D02*
Y20224847D01*
X2749560Y20199455D02*
Y20174063D01*
Y20186758D01*
X2825736D01*
X2813040Y20199455D01*
X2882879Y25069669D02*
X2908271Y25095061D01*
Y25145844D01*
X2882879Y25171236D01*
X2781312D01*
X2755921Y25145844D01*
Y25095061D01*
X2781312Y25069669D01*
X2832096D01*
Y25120451D01*
X2755921Y25018884D02*
X2908271D01*
X2755921Y24917319D01*
X2908271D01*
Y24866534D02*
X2755921D01*
Y24790359D01*
X2781312Y24764967D01*
X2882879D01*
X2908271Y24790359D01*
Y24866534D01*
X2730529Y24714183D02*
Y24612616D01*
X2908271Y24485657D02*
Y24536441D01*
X2882879Y24561833D01*
X2781312D01*
X2755921Y24536441D01*
Y24485657D01*
X2781312Y24460266D01*
X2882879D01*
X2908271Y24485657D01*
X2755921Y24409482D02*
X2857488Y24307915D01*
X2755921Y24257130D02*
X2908271D01*
Y24180956D01*
X2882879Y24155563D01*
X2832096D01*
X2806704Y24180956D01*
Y24257130D01*
X2764380Y17474995D02*
X2865948D01*
Y17424213D01*
X2849020Y17407285D01*
X2815164D01*
X2798236Y17424213D01*
Y17474995D01*
X2764380Y17356500D02*
Y17322644D01*
X2781308Y17305716D01*
X2815164D01*
X2832092Y17322644D01*
Y17356500D01*
X2815164Y17373428D01*
X2781308D01*
X2764380Y17356500D01*
X2832092Y17271861D02*
X2781308D01*
X2764380Y17254933D01*
X2781308Y17238005D01*
X2764380Y17221077D01*
X2781308Y17204149D01*
X2832092D01*
X2764380Y17119510D02*
Y17153365D01*
X2781308Y17170293D01*
X2815164D01*
X2832092Y17153365D01*
Y17119510D01*
X2815164Y17102582D01*
X2798236D01*
Y17170293D01*
X2832092Y17068726D02*
X2764380D01*
X2798236D01*
X2815164Y17051797D01*
X2832092Y17034869D01*
Y17017943D01*
X2747452Y16967159D02*
Y16899448D01*
X2865948Y16797881D02*
Y16865591D01*
X2764380D01*
Y16797881D01*
X2815164Y16865591D02*
Y16831737D01*
X2764380Y16764024D02*
X2832092D01*
Y16713242D01*
X2815164Y16696313D01*
X2764380D01*
X2832092Y16594746D02*
Y16645529D01*
X2815164Y16662457D01*
X2781308D01*
X2764380Y16645529D01*
Y16594746D01*
Y16543962D02*
Y16510106D01*
X2781308Y16493179D01*
X2815164D01*
X2832092Y16510106D01*
Y16543962D01*
X2815164Y16560890D01*
X2781308D01*
X2764380Y16543962D01*
X2865948Y16391611D02*
X2764380D01*
Y16442395D01*
X2781308Y16459323D01*
X2815164D01*
X2832092Y16442395D01*
Y16391611D01*
X2764380Y16306972D02*
Y16340828D01*
X2781308Y16357755D01*
X2815164D01*
X2832092Y16340828D01*
Y16306972D01*
X2815164Y16290044D01*
X2798236D01*
Y16357755D01*
X2832092Y16256187D02*
X2764380D01*
X2798236D01*
X2815164Y16239259D01*
X2832092Y16222333D01*
Y16205405D01*
X2813040Y23583823D02*
X2825736Y23571126D01*
Y23545734D01*
X2813040Y23533038D01*
X2800344D01*
X2787648Y23545734D01*
Y23558430D01*
Y23545734D01*
X2774952Y23533038D01*
X2762256D01*
X2749560Y23545734D01*
Y23571126D01*
X2762256Y23583823D01*
X2749560Y23507646D02*
X2762256D01*
Y23494949D01*
X2749560D01*
Y23507646D01*
X2813040Y23444167D02*
X2825736Y23431471D01*
Y23406079D01*
X2813040Y23393382D01*
X2800344D01*
X2787648Y23406079D01*
Y23418774D01*
Y23406079D01*
X2774952Y23393382D01*
X2762256D01*
X2749560Y23406079D01*
Y23431471D01*
X2762256Y23444167D01*
X2825736Y23367992D02*
X2774952D01*
X2749560Y23342599D01*
X2774952Y23317207D01*
X2825736D01*
X2736864Y23291817D02*
Y23241032D01*
X2749560Y23215640D02*
Y23190250D01*
Y23202945D01*
X2800344D01*
Y23215640D01*
X2749560Y23152161D02*
X2800344D01*
Y23114075D01*
X2787648Y23101378D01*
X2749560D01*
X2825740Y22231258D02*
X2838436Y22218562D01*
Y22193170D01*
X2825740Y22180473D01*
X2813044D01*
X2800348Y22193170D01*
Y22205865D01*
Y22193170D01*
X2787652Y22180473D01*
X2774956D01*
X2762260Y22193170D01*
Y22218562D01*
X2774956Y22231258D01*
X2762260Y22155083D02*
X2774956D01*
Y22142386D01*
X2762260D01*
Y22155083D01*
X2825740Y22091603D02*
X2838436Y22078906D01*
Y22053516D01*
X2825740Y22040819D01*
X2813044D01*
X2800348Y22053516D01*
Y22066211D01*
Y22053516D01*
X2787652Y22040819D01*
X2774956D01*
X2762260Y22053516D01*
Y22078906D01*
X2774956Y22091603D01*
X2838436Y22015427D02*
X2787652D01*
X2762260Y21990036D01*
X2787652Y21964644D01*
X2838436D01*
X2749564Y21939252D02*
Y21888469D01*
X2838436Y21824989D02*
Y21850381D01*
X2825740Y21863077D01*
X2774956D01*
X2762260Y21850381D01*
Y21824989D01*
X2774956Y21812292D01*
X2825740D01*
X2838436Y21824989D01*
X2762260Y21786900D02*
X2813044Y21736118D01*
X2762260Y21710725D02*
X2838436D01*
Y21672638D01*
X2825740Y21659943D01*
X2800348D01*
X2787652Y21672638D01*
Y21710725D01*
D12*
X6324600Y14663420D02*
D03*
Y14409419D02*
D03*
X6578600D02*
D03*
X6324600Y14155420D02*
D03*
X6578600D02*
D03*
X6324600Y13901421D02*
D03*
X6578600D02*
D03*
X6324600Y13647420D02*
D03*
X6578600D02*
D03*
Y12885420D02*
D03*
Y13139420D02*
D03*
Y12631420D02*
D03*
X6324600Y12885420D02*
D03*
Y12631420D02*
D03*
Y12377420D02*
D03*
X6578600D02*
D03*
X6324600Y12123420D02*
D03*
X6578600D02*
D03*
X6324600Y11869420D02*
D03*
X6578600D02*
D03*
X6324600Y11615420D02*
D03*
Y11361420D02*
D03*
X6578600D02*
D03*
Y11615420D02*
D03*
Y11107420D02*
D03*
X6324600D02*
D03*
Y10853420D02*
D03*
X6578600D02*
D03*
X6324600Y10599420D02*
D03*
X6578600D02*
D03*
X6324600Y10345420D02*
D03*
X6578600D02*
D03*
X6324600Y10091420D02*
D03*
X6578600D02*
D03*
X6324600Y9837420D02*
D03*
X6578600D02*
D03*
Y9583420D02*
D03*
X6324600D02*
D03*
X6578600Y15425420D02*
D03*
X6324600Y15171420D02*
D03*
Y14917419D02*
D03*
X6578600D02*
D03*
Y14663420D02*
D03*
Y15171420D02*
D03*
X10896600Y14528799D02*
D03*
Y14274800D02*
D03*
X11150600D02*
D03*
X10896600Y14020799D02*
D03*
X11150600D02*
D03*
Y13647420D02*
D03*
X10896600Y13393420D02*
D03*
X11150600D02*
D03*
X10896600Y13139420D02*
D03*
X11150600Y12885420D02*
D03*
Y13139420D02*
D03*
Y12631420D02*
D03*
X10896600Y12885420D02*
D03*
Y12631420D02*
D03*
Y12377420D02*
D03*
X11150600D02*
D03*
X10896600Y12123420D02*
D03*
X11150600D02*
D03*
X10896600Y11869420D02*
D03*
X11150600D02*
D03*
X10896600Y11615420D02*
D03*
Y11361420D02*
D03*
X11150600D02*
D03*
Y11615420D02*
D03*
Y11107420D02*
D03*
X10896600D02*
D03*
Y10853420D02*
D03*
X11150600D02*
D03*
X10896600Y10599420D02*
D03*
X11150600D02*
D03*
X10896600Y10345420D02*
D03*
X11150600D02*
D03*
X10896600Y10091420D02*
D03*
X11150600D02*
D03*
X10896600Y9837420D02*
D03*
X11150600D02*
D03*
X10896600Y9583420D02*
D03*
X11150600D02*
D03*
Y16306799D02*
D03*
X10896600Y16052800D02*
D03*
X11150600D02*
D03*
X10896600Y15798801D02*
D03*
X11150600D02*
D03*
X10896600Y15544800D02*
D03*
X11150600D02*
D03*
X10896600Y15290800D02*
D03*
X11150600D02*
D03*
X10896600Y15036800D02*
D03*
Y14782800D02*
D03*
X11150600D02*
D03*
Y14528799D02*
D03*
Y15036800D02*
D03*
D13*
X6324600Y13139420D02*
D03*
Y15425420D02*
D03*
X10896600Y13647420D02*
D03*
Y16306799D02*
D03*
D14*
X10799801Y22910800D02*
D03*
X10129799Y23672800D02*
D03*
Y23291800D02*
D03*
X5862599Y22834599D02*
D03*
X7548601D02*
D03*
X6878599Y22326601D02*
D03*
X5862599D02*
D03*
X19769099Y23139400D02*
D03*
X19743700Y22758400D02*
D03*
X20388301Y20320000D02*
D03*
X10129799Y22529800D02*
D03*
D15*
Y22910800D02*
D03*
X10799801Y23672800D02*
D03*
Y23291800D02*
D03*
X6532601Y22834599D02*
D03*
X6878599D02*
D03*
X7548601Y22326601D02*
D03*
X6532601D02*
D03*
X20439101Y23139400D02*
D03*
X20413701Y22758400D02*
D03*
X19718298Y20320000D02*
D03*
X10799801Y22529800D02*
D03*
D16*
X3289300Y9301099D02*
D03*
Y8801100D02*
D03*
Y8301126D02*
D03*
X20053300Y27579700D02*
D03*
Y28079700D02*
D03*
X3295650Y18325420D02*
D03*
Y17825420D02*
D03*
X20027901Y12905562D02*
D03*
Y12405563D02*
D03*
X20053300Y26449402D02*
D03*
Y26949399D02*
D03*
X20060513Y25879272D02*
D03*
Y25379274D02*
D03*
Y24879300D02*
D03*
X3295650Y16530020D02*
D03*
Y17030019D02*
D03*
X20058685Y20902827D02*
D03*
Y21402827D02*
D03*
Y21902802D02*
D03*
X11341811Y25323801D02*
D03*
X10841812D02*
D03*
X7180199D02*
D03*
X7680198D02*
D03*
X10079812D02*
D03*
X9579813D02*
D03*
X8315198D02*
D03*
X8815197D02*
D03*
X20058685Y23680801D02*
D03*
Y24180800D02*
D03*
Y19632828D02*
D03*
Y19132829D02*
D03*
X12268200Y26441400D02*
D03*
Y26941400D02*
D03*
X3289300Y11074400D02*
D03*
Y10574401D02*
D03*
Y10074427D02*
D03*
X3270250Y25200793D02*
D03*
Y24700793D02*
D03*
Y24200819D02*
D03*
X6549212Y25323801D02*
D03*
X6049213D02*
D03*
X3289300Y14765401D02*
D03*
Y15265401D02*
D03*
Y15765375D02*
D03*
X20066000Y15191562D02*
D03*
Y14691563D02*
D03*
X20040601Y13514452D02*
D03*
Y14014450D02*
D03*
X20066000Y15851251D02*
D03*
Y16351250D02*
D03*
X15719273Y20891499D02*
D03*
X15219273D02*
D03*
X14719299D02*
D03*
X8656701Y5080000D02*
D03*
X9156700D02*
D03*
X20058685Y17243857D02*
D03*
Y17743855D02*
D03*
Y18243829D02*
D03*
X13309599Y9855200D02*
D03*
Y9355201D02*
D03*
Y8855227D02*
D03*
Y8094599D02*
D03*
Y7594600D02*
D03*
Y7094626D02*
D03*
X12690323Y5080000D02*
D03*
X12190324D02*
D03*
X11690350D02*
D03*
X9928377D02*
D03*
X10428376D02*
D03*
X10928350D02*
D03*
X6897446D02*
D03*
X7397445D02*
D03*
X7897419D02*
D03*
X5135474D02*
D03*
X5635473D02*
D03*
X6135446D02*
D03*
X3302000Y5787873D02*
D03*
Y5287874D02*
D03*
Y4787900D02*
D03*
Y7548499D02*
D03*
Y7048500D02*
D03*
Y6548526D02*
D03*
Y14119073D02*
D03*
Y13619073D02*
D03*
Y13119099D02*
D03*
X12268200Y27571701D02*
D03*
Y28071698D02*
D03*
X3289300Y12336399D02*
D03*
Y11836400D02*
D03*
X5414899Y25311099D02*
D03*
X4914900D02*
D03*
X4414926D02*
D03*
X3302000Y18973801D02*
D03*
Y19473799D02*
D03*
X3295650Y20737048D02*
D03*
Y20237048D02*
D03*
Y22372020D02*
D03*
Y21872021D02*
D03*
Y21372047D02*
D03*
Y23494319D02*
D03*
Y22994321D02*
D03*
D17*
X20764500Y28130499D02*
D03*
Y11747500D02*
D03*
X3365500Y25844501D02*
D03*
X13525500Y11747500D02*
D03*
X4381500Y5397500D02*
D03*
X20764500Y25844501D02*
D03*
X13525500Y5397500D02*
D03*
D18*
X18897600Y24218900D02*
D03*
Y24472900D02*
D03*
Y25488901D02*
D03*
Y25996899D02*
D03*
Y26758899D02*
D03*
Y27774899D02*
D03*
Y28028900D02*
D03*
Y27520901D02*
D03*
Y27266901D02*
D03*
Y27012900D02*
D03*
Y26504901D02*
D03*
Y26250900D02*
D03*
Y25742899D02*
D03*
Y25234900D02*
D03*
Y24980901D02*
D03*
Y24726900D02*
D03*
Y23964900D02*
D03*
Y23710899D02*
D03*
Y23456900D02*
D03*
X14578809Y24221587D02*
D03*
Y24475587D02*
D03*
Y25491586D02*
D03*
Y25999588D02*
D03*
Y26761588D02*
D03*
Y27777588D02*
D03*
Y28031586D02*
D03*
Y27523587D02*
D03*
Y27269586D02*
D03*
Y27015588D02*
D03*
Y26507587D02*
D03*
Y26253586D02*
D03*
Y25745587D02*
D03*
Y25237587D02*
D03*
Y24983588D02*
D03*
Y24729587D02*
D03*
Y23967587D02*
D03*
Y23713586D02*
D03*
Y23459587D02*
D03*
D19*
X18897600Y28282901D02*
D03*
X14578809Y28285587D02*
D03*
D20*
X14655800Y11823700D02*
D03*
X14909801D02*
D03*
X15163800D02*
D03*
X15417799D02*
D03*
X15671800D02*
D03*
X15925800D02*
D03*
X13855701Y14338300D02*
D03*
Y14592300D02*
D03*
Y14846300D02*
D03*
Y15100301D02*
D03*
Y15354300D02*
D03*
Y15608299D02*
D03*
X16725900Y15621001D02*
D03*
Y15367000D02*
D03*
Y15113000D02*
D03*
Y14859000D02*
D03*
Y14605000D02*
D03*
Y14350999D02*
D03*
X14617700Y17221201D02*
D03*
X14871700D02*
D03*
X15125700D02*
D03*
X15379700D02*
D03*
X15633701D02*
D03*
X15887700D02*
D03*
X16090900Y13595351D02*
D03*
Y13849350D02*
D03*
Y14103349D02*
D03*
Y14357350D02*
D03*
Y14611349D02*
D03*
Y14865350D02*
D03*
Y15119350D02*
D03*
Y15373351D02*
D03*
Y15627350D02*
D03*
Y15881351D02*
D03*
Y16135350D02*
D03*
Y16389349D02*
D03*
X14566901Y13595351D02*
D03*
Y13849350D02*
D03*
Y14103349D02*
D03*
Y14357350D02*
D03*
Y14611349D02*
D03*
Y14865350D02*
D03*
Y15119350D02*
D03*
Y15373351D02*
D03*
Y15627350D02*
D03*
Y15881351D02*
D03*
Y16135350D02*
D03*
Y16389349D02*
D03*
D21*
X12636500Y24098254D02*
D03*
Y23844255D02*
D03*
Y23590256D02*
D03*
Y23336259D02*
D03*
Y23082260D02*
D03*
Y22828259D02*
D03*
Y22574260D02*
D03*
Y22320261D02*
D03*
X11372505Y24098265D02*
D03*
Y23844266D02*
D03*
Y23590265D02*
D03*
Y23336266D02*
D03*
Y23082265D02*
D03*
Y22828265D02*
D03*
Y22574265D02*
D03*
Y22320265D02*
D03*
X11623502Y22320261D02*
D03*
X11877502D02*
D03*
D22*
X10744200Y24130000D02*
D03*
X10494198D02*
D03*
X12297598Y21031200D02*
D03*
X12547600D02*
D03*
X11535598D02*
D03*
X11285596D02*
D03*
X9385300D02*
D03*
X9635302D02*
D03*
X4838700Y21267801D02*
D03*
Y21517798D02*
D03*
X8216900Y23439496D02*
D03*
Y23689497D02*
D03*
D23*
X10244196Y24130000D02*
D03*
X12797602Y21031200D02*
D03*
X11035594D02*
D03*
X9885304D02*
D03*
D24*
X4838700Y21767799D02*
D03*
X8216900Y23939500D02*
D03*
D25*
X8267700Y22059900D02*
D03*
X6121400Y20218401D02*
D03*
X4483100Y23761700D02*
D03*
X8267700Y22567900D02*
D03*
X6629400Y20218401D02*
D03*
X4991100Y23761700D02*
D03*
D26*
X8267700Y21805901D02*
D03*
X6121400Y20472400D02*
D03*
X4483100Y24015700D02*
D03*
X8267700Y22821899D02*
D03*
X6629400Y20472400D02*
D03*
X4991100Y24015700D02*
D03*
D27*
X17703799Y17576801D02*
D03*
Y17322800D02*
D03*
Y17068800D02*
D03*
Y16814799D02*
D03*
X18465800D02*
D03*
Y17068800D02*
D03*
Y17322800D02*
D03*
Y17576801D02*
D03*
D28*
X9182100Y24117000D02*
D03*
X5385100Y21475700D02*
D03*
X5423200Y23647400D02*
D03*
D29*
X9182100Y21857001D02*
D03*
D30*
X7645100Y21475700D02*
D03*
X7683200Y23647400D02*
D03*
D31*
X13284200Y23827197D02*
D03*
D32*
Y24077200D02*
D03*
D33*
X15328900Y13722350D02*
D03*
Y16262350D02*
D03*
D34*
X10999299Y13924219D02*
D03*
X19278600Y23247350D02*
D03*
X19240500Y22999699D02*
D03*
X19621500Y27584399D02*
D03*
X14287500Y16751300D02*
D03*
X16116299Y16992599D02*
D03*
X21031200Y17119600D02*
D03*
X20942300Y18072099D02*
D03*
X21074945Y17691100D02*
D03*
X20421600Y17183099D02*
D03*
X20447000Y17703799D02*
D03*
X20510500Y18364200D02*
D03*
X11454391Y14133200D02*
D03*
X3606800Y23482300D02*
D03*
X5473700Y24866600D02*
D03*
X7467600Y24739600D02*
D03*
X7556500Y23914101D02*
D03*
X8445500Y23647400D02*
D03*
X7543800Y23088600D02*
D03*
X7950200Y22618700D02*
D03*
X9954150Y23853249D02*
D03*
X10464800Y23837900D02*
D03*
X9766300Y24003000D02*
D03*
X9804400Y23685500D02*
D03*
X11752925Y24376724D02*
D03*
X11527800Y23761700D02*
D03*
X11967200Y23837900D02*
D03*
X11747500Y23482300D02*
D03*
X8966200Y20828000D02*
D03*
X9690100Y20358099D02*
D03*
X12834541Y20703349D02*
D03*
X8282300Y20546700D02*
D03*
X8226862Y21472961D02*
D03*
X9129402Y20917694D02*
D03*
X11125020Y23863300D02*
D03*
X20662900Y23075900D02*
D03*
X13017500Y23495000D02*
D03*
X14124300Y20091400D02*
D03*
X16878300Y17145000D02*
D03*
X17932401Y17487900D02*
D03*
X14338300Y20091400D02*
D03*
X15824200Y18834100D02*
D03*
X14729344Y23412167D02*
D03*
X13595091Y19361407D02*
D03*
X19621500Y22580600D02*
D03*
X19913600Y22994899D02*
D03*
X14439900Y15544800D02*
D03*
X14312900Y15798801D02*
D03*
X11352259Y14631941D02*
D03*
X11341100Y12230100D02*
D03*
X11375390Y12065000D02*
D03*
X10693400Y14655800D02*
D03*
X10375900Y14109700D02*
D03*
X11693298Y14960600D02*
D03*
X11074400Y23266400D02*
D03*
X10947400Y22009100D02*
D03*
X17017999Y21729700D02*
D03*
X14077950Y19094450D02*
D03*
X10552265Y20739101D02*
D03*
X10236200Y22212300D02*
D03*
X10096500Y21259801D02*
D03*
X19951700Y21170900D02*
D03*
X20040601Y20624800D02*
D03*
X18846800Y17881599D02*
D03*
X20904201Y19659599D02*
D03*
X20396201Y20002499D02*
D03*
X5461000Y20307300D02*
D03*
X6121400Y13665199D02*
D03*
X5905500Y10071100D02*
D03*
X6819900Y8902700D02*
D03*
X6908800Y12877800D02*
D03*
X10236200Y22707600D02*
D03*
X8432800Y20675600D02*
D03*
X6858000Y13131799D02*
D03*
X7797800Y21259801D02*
D03*
X12382500Y20840700D02*
D03*
X7670800Y14681200D02*
D03*
X7950200Y22301199D02*
D03*
X12077700Y23672800D02*
D03*
X10579100Y23202901D02*
D03*
X9956800Y22555200D02*
D03*
X11772900Y26098499D02*
D03*
X20485100Y24193500D02*
D03*
X20059599Y24530051D02*
D03*
X8026400Y22834599D02*
D03*
X3609950Y20281900D02*
D03*
X3530600Y19088100D02*
D03*
X6464300Y20599400D02*
D03*
X12357100Y23317200D02*
D03*
X10375900Y25400000D02*
D03*
X10642600Y25120599D02*
D03*
X5740400Y12649200D02*
D03*
X4318000Y13258800D02*
D03*
X6743700Y10731500D02*
D03*
X7391400Y10858500D02*
D03*
X6057900Y12268200D02*
D03*
X5727700Y11938000D02*
D03*
X17170399Y14427200D02*
D03*
X16725900Y13716000D02*
D03*
%TF.MD5,4125f614d9150335a1b17916e6f70e14*%
M02*
