%TF.GenerationSoftware,Altium Limited,Altium Designer,24.5.2 (23)*%
G04 Layer_Color=16711935*
%FSLAX45Y45*%
%MOMM*%
%TF.SameCoordinates,FC967B71-F2ED-4EDF-93A0-1D4715993869*%
%TF.FilePolarity,Positive*%
%TF.FileFunction,Other,Top_Assembly*%
%TF.Part,Single*%
G01*
G75*
%TA.AperFunction,NonConductor*%
%ADD38C,0.20000*%
G36*
X10548749Y22974963D02*
X10549489Y22974870D01*
X10550413Y22974779D01*
X10551431Y22974593D01*
X10552448Y22974408D01*
X10554851Y22973761D01*
X10557255Y22972836D01*
X10558457Y22972282D01*
X10559659Y22971635D01*
X10560769Y22970802D01*
X10561786Y22969878D01*
X10561878Y22969786D01*
X10562063Y22969693D01*
X10562248Y22969324D01*
X10562618Y22968954D01*
X10563080Y22968491D01*
X10563542Y22967844D01*
X10564005Y22967197D01*
X10564559Y22966365D01*
X10565484Y22964607D01*
X10566408Y22962389D01*
X10566778Y22961279D01*
X10566963Y22959985D01*
X10567148Y22958691D01*
X10567240Y22957304D01*
Y22957120D01*
Y22956657D01*
X10567148Y22955917D01*
X10567056Y22954900D01*
X10566871Y22953790D01*
X10566501Y22952496D01*
X10566131Y22951109D01*
X10565576Y22949722D01*
X10565484Y22949538D01*
X10565299Y22949075D01*
X10564929Y22948335D01*
X10564374Y22947319D01*
X10563635Y22946210D01*
X10562710Y22944823D01*
X10561601Y22943436D01*
X10560306Y22941864D01*
X10560121Y22941679D01*
X10559659Y22941124D01*
X10559197Y22940662D01*
X10558735Y22940199D01*
X10558180Y22939645D01*
X10557440Y22938905D01*
X10556701Y22938165D01*
X10555776Y22937334D01*
X10554851Y22936409D01*
X10553742Y22935393D01*
X10552540Y22934375D01*
X10551246Y22933173D01*
X10549766Y22931972D01*
X10548287Y22930676D01*
X10548195Y22930585D01*
X10548010Y22930399D01*
X10547640Y22930122D01*
X10547178Y22929752D01*
X10546623Y22929198D01*
X10545976Y22928642D01*
X10544496Y22927441D01*
X10542925Y22926054D01*
X10541445Y22924667D01*
X10540151Y22923465D01*
X10539596Y22923003D01*
X10539134Y22922540D01*
X10539041Y22922449D01*
X10538764Y22922171D01*
X10538394Y22921802D01*
X10537932Y22921246D01*
X10537470Y22920599D01*
X10536915Y22919952D01*
X10535805Y22918381D01*
X10567333D01*
Y22910799D01*
X10524896D01*
Y22910892D01*
Y22911261D01*
Y22911816D01*
X10524988Y22912555D01*
X10525081Y22913387D01*
X10525265Y22914313D01*
X10525450Y22915237D01*
X10525820Y22916254D01*
Y22916347D01*
X10525913Y22916438D01*
X10526098Y22916994D01*
X10526467Y22917825D01*
X10527022Y22918935D01*
X10527762Y22920229D01*
X10528686Y22921709D01*
X10529703Y22923187D01*
X10530998Y22924760D01*
Y22924852D01*
X10531183Y22924944D01*
X10531645Y22925499D01*
X10532477Y22926331D01*
X10533679Y22927533D01*
X10535066Y22928920D01*
X10536822Y22930585D01*
X10538949Y22932433D01*
X10541260Y22934375D01*
X10541353Y22934467D01*
X10541723Y22934744D01*
X10542277Y22935207D01*
X10542925Y22935762D01*
X10543757Y22936501D01*
X10544774Y22937334D01*
X10545791Y22938258D01*
X10546993Y22939275D01*
X10549304Y22941495D01*
X10551615Y22943713D01*
X10552725Y22944823D01*
X10553742Y22945932D01*
X10554666Y22946948D01*
X10555406Y22947966D01*
Y22948058D01*
X10555591Y22948151D01*
X10555776Y22948428D01*
X10555961Y22948798D01*
X10556608Y22949815D01*
X10557348Y22951018D01*
X10557995Y22952496D01*
X10558642Y22954068D01*
X10559012Y22955824D01*
X10559197Y22957489D01*
Y22957581D01*
Y22957674D01*
X10559104Y22958229D01*
X10559012Y22959154D01*
X10558735Y22960170D01*
X10558365Y22961465D01*
X10557718Y22962759D01*
X10556885Y22964053D01*
X10555776Y22965347D01*
X10555591Y22965533D01*
X10555129Y22965903D01*
X10554482Y22966365D01*
X10553465Y22967012D01*
X10552170Y22967567D01*
X10550691Y22968121D01*
X10548934Y22968491D01*
X10546993Y22968584D01*
X10546438D01*
X10546068Y22968491D01*
X10544959Y22968399D01*
X10543664Y22968121D01*
X10542277Y22967752D01*
X10540706Y22967104D01*
X10539226Y22966272D01*
X10537839Y22965163D01*
X10537655Y22964978D01*
X10537285Y22964516D01*
X10536730Y22963776D01*
X10536175Y22962666D01*
X10535528Y22961372D01*
X10534973Y22959708D01*
X10534604Y22957858D01*
X10534419Y22955733D01*
X10526375Y22956564D01*
Y22956657D01*
X10526467Y22956934D01*
Y22957397D01*
X10526560Y22958044D01*
X10526745Y22958783D01*
X10526930Y22959615D01*
X10527207Y22960632D01*
X10527484Y22961650D01*
X10528224Y22963869D01*
X10529334Y22966087D01*
X10529981Y22967197D01*
X10530813Y22968306D01*
X10531645Y22969324D01*
X10532569Y22970248D01*
X10532662Y22970340D01*
X10532847Y22970433D01*
X10533124Y22970711D01*
X10533587Y22970988D01*
X10534141Y22971358D01*
X10534788Y22971727D01*
X10535528Y22972189D01*
X10536453Y22972652D01*
X10537470Y22973114D01*
X10538579Y22973576D01*
X10539781Y22973946D01*
X10541075Y22974316D01*
X10542462Y22974593D01*
X10543942Y22974870D01*
X10545513Y22974963D01*
X10547178Y22975056D01*
X10548102D01*
X10548749Y22974963D01*
D02*
G37*
G36*
X10495217Y22974686D02*
X10496049D01*
X10497991Y22974593D01*
X10500025Y22974316D01*
X10502244Y22974039D01*
X10504278Y22973576D01*
X10505295Y22973299D01*
X10506127Y22973022D01*
X10506220D01*
X10506312Y22972929D01*
X10506867Y22972652D01*
X10507699Y22972282D01*
X10508716Y22971635D01*
X10509825Y22970802D01*
X10511027Y22969693D01*
X10512137Y22968399D01*
X10513246Y22966920D01*
Y22966827D01*
X10513339Y22966734D01*
X10513708Y22966180D01*
X10514078Y22965256D01*
X10514633Y22964053D01*
X10515095Y22962666D01*
X10515558Y22961002D01*
X10515835Y22959245D01*
X10515927Y22957304D01*
Y22957211D01*
Y22957027D01*
Y22956657D01*
X10515835Y22956195D01*
Y22955547D01*
X10515742Y22954900D01*
X10515373Y22953328D01*
X10514818Y22951479D01*
X10514078Y22949538D01*
X10512969Y22947597D01*
X10512229Y22946672D01*
X10511490Y22945747D01*
X10511397Y22945654D01*
X10511305Y22945563D01*
X10511027Y22945285D01*
X10510657Y22945007D01*
X10510195Y22944638D01*
X10509640Y22944267D01*
X10508901Y22943806D01*
X10508161Y22943251D01*
X10507237Y22942789D01*
X10506220Y22942326D01*
X10505110Y22941771D01*
X10503908Y22941309D01*
X10502521Y22940939D01*
X10501134Y22940477D01*
X10499563Y22940199D01*
X10497898Y22939922D01*
X10498083Y22939830D01*
X10498453Y22939645D01*
X10499008Y22939275D01*
X10499748Y22938905D01*
X10501412Y22937888D01*
X10502244Y22937241D01*
X10502984Y22936687D01*
X10503168Y22936501D01*
X10503631Y22936040D01*
X10504370Y22935300D01*
X10505295Y22934375D01*
X10506312Y22933081D01*
X10507514Y22931694D01*
X10508716Y22930029D01*
X10510010Y22928180D01*
X10521012Y22910799D01*
X10510473D01*
X10502059Y22924112D01*
Y22924205D01*
X10501874Y22924390D01*
X10501689Y22924667D01*
X10501412Y22925037D01*
X10500765Y22926054D01*
X10499933Y22927348D01*
X10498916Y22928735D01*
X10497898Y22930214D01*
X10496881Y22931601D01*
X10495957Y22932896D01*
X10495864Y22932988D01*
X10495587Y22933357D01*
X10495125Y22933913D01*
X10494478Y22934560D01*
X10493091Y22935947D01*
X10492351Y22936594D01*
X10491611Y22937149D01*
X10491519Y22937241D01*
X10491334Y22937334D01*
X10490964Y22937518D01*
X10490410Y22937796D01*
X10489855Y22938074D01*
X10489208Y22938351D01*
X10487728Y22938812D01*
X10487636D01*
X10487451Y22938905D01*
X10487081D01*
X10486619Y22938998D01*
X10485972Y22939090D01*
X10485232D01*
X10484215Y22939183D01*
X10473305D01*
Y22910799D01*
X10464799D01*
Y22974779D01*
X10494478D01*
X10495217Y22974686D01*
D02*
G37*
G36*
X10464801Y23608821D02*
X10435122D01*
X10434383Y23608914D01*
X10433551D01*
X10431609Y23609006D01*
X10429575Y23609283D01*
X10427356Y23609561D01*
X10425322Y23610023D01*
X10424305Y23610301D01*
X10423473Y23610577D01*
X10423380D01*
X10423288Y23610670D01*
X10422733Y23610948D01*
X10421901Y23611317D01*
X10420884Y23611964D01*
X10419775Y23612798D01*
X10418573Y23613905D01*
X10417463Y23615201D01*
X10416354Y23616679D01*
Y23616772D01*
X10416261Y23616866D01*
X10415892Y23617419D01*
X10415522Y23618344D01*
X10414967Y23619547D01*
X10414505Y23620934D01*
X10414042Y23622597D01*
X10413765Y23624355D01*
X10413673Y23626295D01*
Y23626389D01*
Y23626573D01*
Y23626942D01*
X10413765Y23627405D01*
Y23628052D01*
X10413858Y23628699D01*
X10414227Y23630270D01*
X10414782Y23632120D01*
X10415522Y23634062D01*
X10416631Y23636003D01*
X10417371Y23636928D01*
X10418110Y23637852D01*
X10418203Y23637946D01*
X10418295Y23638037D01*
X10418573Y23638315D01*
X10418943Y23638593D01*
X10419405Y23638962D01*
X10419960Y23639333D01*
X10420699Y23639793D01*
X10421439Y23640349D01*
X10422363Y23640811D01*
X10423380Y23641273D01*
X10424490Y23641827D01*
X10425692Y23642290D01*
X10427079Y23642661D01*
X10428466Y23643121D01*
X10430037Y23643401D01*
X10431702Y23643677D01*
X10431517Y23643770D01*
X10431147Y23643954D01*
X10430592Y23644324D01*
X10429852Y23644695D01*
X10428188Y23645711D01*
X10427356Y23646358D01*
X10426616Y23646913D01*
X10426432Y23647098D01*
X10425969Y23647560D01*
X10425230Y23648300D01*
X10424305Y23649223D01*
X10423288Y23650519D01*
X10422086Y23651906D01*
X10420884Y23653571D01*
X10419590Y23655418D01*
X10408588Y23672801D01*
X10419127D01*
X10427541Y23659486D01*
Y23659395D01*
X10427726Y23659210D01*
X10427911Y23658932D01*
X10428188Y23658563D01*
X10428835Y23657545D01*
X10429667Y23656252D01*
X10430684Y23654865D01*
X10431702Y23653384D01*
X10432719Y23651997D01*
X10433643Y23650703D01*
X10433736Y23650610D01*
X10434013Y23650241D01*
X10434475Y23649687D01*
X10435122Y23649040D01*
X10436509Y23647653D01*
X10437249Y23647006D01*
X10437989Y23646451D01*
X10438081Y23646358D01*
X10438266Y23646266D01*
X10438636Y23646082D01*
X10439190Y23645804D01*
X10439745Y23645526D01*
X10440392Y23645248D01*
X10441872Y23644788D01*
X10441964D01*
X10442149Y23644695D01*
X10442519D01*
X10442981Y23644601D01*
X10443628Y23644508D01*
X10444368D01*
X10445385Y23644417D01*
X10456295D01*
Y23672801D01*
X10464801D01*
Y23608821D01*
D02*
G37*
G36*
X10381868Y23622781D02*
X10381960Y23622874D01*
X10382422Y23623244D01*
X10382977Y23623799D01*
X10383902Y23624446D01*
X10384919Y23625278D01*
X10386213Y23626202D01*
X10387692Y23627220D01*
X10389357Y23628236D01*
X10389449D01*
X10389542Y23628329D01*
X10390096Y23628699D01*
X10391021Y23629163D01*
X10392130Y23629716D01*
X10393425Y23630363D01*
X10394812Y23631010D01*
X10396198Y23631657D01*
X10397585Y23632213D01*
Y23624631D01*
X10397493D01*
X10397308Y23624446D01*
X10396938Y23624355D01*
X10396476Y23624075D01*
X10395921Y23623799D01*
X10395274Y23623428D01*
X10393702Y23622505D01*
X10391853Y23621487D01*
X10390004Y23620193D01*
X10388062Y23618713D01*
X10386121Y23617142D01*
X10386028Y23617050D01*
X10385936Y23616957D01*
X10385658Y23616679D01*
X10385289Y23616403D01*
X10384456Y23615479D01*
X10383347Y23614369D01*
X10382238Y23613074D01*
X10381036Y23611595D01*
X10380019Y23610117D01*
X10379094Y23608543D01*
X10374009D01*
Y23672801D01*
X10381868D01*
Y23622781D01*
D02*
G37*
G36*
X10332126D02*
X10332219Y23622874D01*
X10332681Y23623244D01*
X10333236Y23623799D01*
X10334160Y23624446D01*
X10335177Y23625278D01*
X10336472Y23626202D01*
X10337951Y23627220D01*
X10339615Y23628236D01*
X10339708D01*
X10339800Y23628329D01*
X10340355Y23628699D01*
X10341280Y23629163D01*
X10342389Y23629716D01*
X10343683Y23630363D01*
X10345070Y23631010D01*
X10346457Y23631657D01*
X10347844Y23632213D01*
Y23624631D01*
X10347751D01*
X10347567Y23624446D01*
X10347197Y23624355D01*
X10346734Y23624075D01*
X10346180Y23623799D01*
X10345533Y23623428D01*
X10343961Y23622505D01*
X10342112Y23621487D01*
X10340263Y23620193D01*
X10338321Y23618713D01*
X10336379Y23617142D01*
X10336287Y23617050D01*
X10336194Y23616957D01*
X10335917Y23616679D01*
X10335547Y23616403D01*
X10334715Y23615479D01*
X10333606Y23614369D01*
X10332496Y23613074D01*
X10331294Y23611595D01*
X10330277Y23610117D01*
X10329353Y23608543D01*
X10324268D01*
Y23672801D01*
X10332126D01*
Y23622781D01*
D02*
G37*
G36*
X10464801Y23226712D02*
X10435122D01*
X10434383Y23226804D01*
X10433551D01*
X10431609Y23226897D01*
X10429575Y23227174D01*
X10427356Y23227451D01*
X10425322Y23227914D01*
X10424305Y23228191D01*
X10423473Y23228468D01*
X10423380D01*
X10423288Y23228561D01*
X10422733Y23228838D01*
X10421901Y23229208D01*
X10420884Y23229855D01*
X10419775Y23230687D01*
X10418573Y23231796D01*
X10417463Y23233092D01*
X10416354Y23234570D01*
Y23234663D01*
X10416261Y23234755D01*
X10415892Y23235310D01*
X10415522Y23236235D01*
X10414967Y23237437D01*
X10414505Y23238823D01*
X10414042Y23240488D01*
X10413765Y23242244D01*
X10413673Y23244186D01*
Y23244278D01*
Y23244463D01*
Y23244833D01*
X10413765Y23245296D01*
Y23245943D01*
X10413858Y23246590D01*
X10414227Y23248161D01*
X10414782Y23250011D01*
X10415522Y23251952D01*
X10416631Y23253894D01*
X10417371Y23254819D01*
X10418110Y23255743D01*
X10418203Y23255835D01*
X10418295Y23255928D01*
X10418573Y23256206D01*
X10418943Y23256483D01*
X10419405Y23256853D01*
X10419960Y23257222D01*
X10420699Y23257684D01*
X10421439Y23258240D01*
X10422363Y23258702D01*
X10423380Y23259164D01*
X10424490Y23259718D01*
X10425692Y23260181D01*
X10427079Y23260551D01*
X10428466Y23261012D01*
X10430037Y23261290D01*
X10431702Y23261568D01*
X10431517Y23261659D01*
X10431147Y23261845D01*
X10430592Y23262215D01*
X10429852Y23262585D01*
X10428188Y23263602D01*
X10427356Y23264249D01*
X10426616Y23264804D01*
X10426432Y23264989D01*
X10425969Y23265451D01*
X10425230Y23266190D01*
X10424305Y23267114D01*
X10423288Y23268410D01*
X10422086Y23269797D01*
X10420884Y23271460D01*
X10419590Y23273309D01*
X10408588Y23290691D01*
X10419127D01*
X10427541Y23277377D01*
Y23277284D01*
X10427726Y23277100D01*
X10427911Y23276823D01*
X10428188Y23276453D01*
X10428835Y23275436D01*
X10429667Y23274142D01*
X10430684Y23272755D01*
X10431702Y23271275D01*
X10432719Y23269888D01*
X10433643Y23268594D01*
X10433736Y23268501D01*
X10434013Y23268132D01*
X10434475Y23267577D01*
X10435122Y23266930D01*
X10436509Y23265543D01*
X10437249Y23264896D01*
X10437989Y23264342D01*
X10438081Y23264249D01*
X10438266Y23264156D01*
X10438636Y23263972D01*
X10439190Y23263693D01*
X10439745Y23263417D01*
X10440392Y23263139D01*
X10441872Y23262677D01*
X10441964D01*
X10442149Y23262585D01*
X10442519D01*
X10442981Y23262492D01*
X10443628Y23262399D01*
X10444368D01*
X10445385Y23262308D01*
X10456295D01*
Y23290691D01*
X10464801D01*
Y23226712D01*
D02*
G37*
G36*
X10381868Y23240672D02*
X10381960Y23240765D01*
X10382422Y23241135D01*
X10382977Y23241690D01*
X10383902Y23242337D01*
X10384919Y23243169D01*
X10386213Y23244093D01*
X10387692Y23245110D01*
X10389357Y23246127D01*
X10389449D01*
X10389542Y23246220D01*
X10390096Y23246590D01*
X10391021Y23247052D01*
X10392130Y23247607D01*
X10393425Y23248254D01*
X10394812Y23248901D01*
X10396198Y23249548D01*
X10397585Y23250104D01*
Y23242522D01*
X10397493D01*
X10397308Y23242337D01*
X10396938Y23242244D01*
X10396476Y23241966D01*
X10395921Y23241690D01*
X10395274Y23241319D01*
X10393702Y23240395D01*
X10391853Y23239378D01*
X10390004Y23238084D01*
X10388062Y23236604D01*
X10386121Y23235033D01*
X10386028Y23234940D01*
X10385936Y23234848D01*
X10385658Y23234570D01*
X10385289Y23234293D01*
X10384456Y23233369D01*
X10383347Y23232259D01*
X10382238Y23230965D01*
X10381036Y23229485D01*
X10380019Y23228006D01*
X10379094Y23226434D01*
X10374009D01*
Y23290691D01*
X10381868D01*
Y23240672D01*
D02*
G37*
G36*
X10334530Y23291708D02*
X10335270Y23291615D01*
X10336194Y23291431D01*
X10337211Y23291246D01*
X10338321Y23290968D01*
X10339430Y23290599D01*
X10340632Y23290228D01*
X10341834Y23289674D01*
X10343036Y23289027D01*
X10344238Y23288287D01*
X10345440Y23287363D01*
X10346550Y23286346D01*
X10347567Y23285236D01*
X10347659Y23285144D01*
X10347844Y23284866D01*
X10348121Y23284404D01*
X10348584Y23283665D01*
X10349046Y23282832D01*
X10349508Y23281723D01*
X10350155Y23280429D01*
X10350710Y23278949D01*
X10351265Y23277284D01*
X10351820Y23275343D01*
X10352374Y23273216D01*
X10352837Y23270813D01*
X10353299Y23268224D01*
X10353576Y23265451D01*
X10353761Y23262399D01*
X10353854Y23259164D01*
Y23259071D01*
Y23258702D01*
Y23258054D01*
Y23257315D01*
X10353761Y23256297D01*
Y23255188D01*
X10353669Y23253986D01*
X10353576Y23252599D01*
X10353299Y23249733D01*
X10352837Y23246683D01*
X10352282Y23243631D01*
X10351912Y23242244D01*
X10351542Y23240858D01*
Y23240765D01*
X10351450Y23240581D01*
X10351265Y23240210D01*
X10351080Y23239748D01*
X10350895Y23239101D01*
X10350525Y23238454D01*
X10349785Y23236882D01*
X10348861Y23235217D01*
X10347659Y23233461D01*
X10346272Y23231705D01*
X10344608Y23230225D01*
X10344516D01*
X10344423Y23230040D01*
X10344146Y23229855D01*
X10343776Y23229671D01*
X10343314Y23229301D01*
X10342759Y23229024D01*
X10341372Y23228284D01*
X10339708Y23227637D01*
X10337766Y23226990D01*
X10335455Y23226619D01*
X10332959Y23226434D01*
X10332126D01*
X10331109Y23226527D01*
X10329907Y23226712D01*
X10328521Y23226990D01*
X10327041Y23227359D01*
X10325470Y23227821D01*
X10323990Y23228561D01*
X10323898D01*
X10323805Y23228653D01*
X10323343Y23228931D01*
X10322603Y23229393D01*
X10321679Y23230040D01*
X10320662Y23230965D01*
X10319552Y23231982D01*
X10318535Y23233183D01*
X10317518Y23234570D01*
X10317426Y23234755D01*
X10317056Y23235217D01*
X10316686Y23236050D01*
X10316039Y23237251D01*
X10315484Y23238638D01*
X10314745Y23240210D01*
X10314097Y23242059D01*
X10313543Y23244093D01*
Y23244186D01*
X10313450Y23244371D01*
X10313358Y23244649D01*
X10313265Y23245110D01*
X10313173Y23245665D01*
X10313080Y23246312D01*
X10312896Y23247145D01*
X10312803Y23248068D01*
X10312618Y23249086D01*
X10312526Y23250195D01*
X10312433Y23251489D01*
X10312248Y23252785D01*
X10312156Y23254263D01*
Y23255743D01*
X10312063Y23257407D01*
Y23259164D01*
Y23259256D01*
Y23259625D01*
Y23260274D01*
Y23261012D01*
X10312156Y23262030D01*
Y23263139D01*
X10312248Y23264342D01*
X10312341Y23265636D01*
X10312618Y23268594D01*
X10313080Y23271645D01*
X10313635Y23274603D01*
X10314005Y23275990D01*
X10314467Y23277377D01*
Y23277470D01*
X10314560Y23277655D01*
X10314745Y23278024D01*
X10314930Y23278487D01*
X10315114Y23279134D01*
X10315484Y23279781D01*
X10316224Y23281354D01*
X10317149Y23283017D01*
X10318350Y23284866D01*
X10319737Y23286531D01*
X10321402Y23288103D01*
X10321494D01*
X10321586Y23288287D01*
X10321864Y23288472D01*
X10322234Y23288657D01*
X10322696Y23288934D01*
X10323158Y23289304D01*
X10324545Y23289952D01*
X10326209Y23290599D01*
X10328151Y23291246D01*
X10330462Y23291615D01*
X10332959Y23291801D01*
X10333883D01*
X10334530Y23291708D01*
D02*
G37*
G36*
X6118458Y22834508D02*
X6119106D01*
X6119845Y22834416D01*
X6121602Y22834045D01*
X6123544Y22833585D01*
X6125578Y22832845D01*
X6127612Y22831827D01*
X6128629Y22831180D01*
X6129553Y22830440D01*
X6129646Y22830348D01*
X6129738Y22830255D01*
X6130015Y22829977D01*
X6130293Y22829701D01*
X6130663Y22829237D01*
X6131125Y22828683D01*
X6132049Y22827390D01*
X6132974Y22825725D01*
X6133899Y22823691D01*
X6134638Y22821381D01*
X6135193Y22818698D01*
X6127612Y22818051D01*
Y22818144D01*
X6127519Y22818329D01*
Y22818513D01*
X6127427Y22818883D01*
X6127149Y22819901D01*
X6126779Y22821010D01*
X6126317Y22822304D01*
X6125670Y22823598D01*
X6124930Y22824800D01*
X6124006Y22825816D01*
X6123913Y22825909D01*
X6123544Y22826187D01*
X6122896Y22826556D01*
X6122157Y22826927D01*
X6121140Y22827390D01*
X6119938Y22827759D01*
X6118551Y22828036D01*
X6117072Y22828130D01*
X6116424D01*
X6115777Y22828036D01*
X6114945Y22827943D01*
X6113928Y22827759D01*
X6112911Y22827483D01*
X6111802Y22827112D01*
X6110785Y22826556D01*
X6110692Y22826465D01*
X6110322Y22826280D01*
X6109768Y22825909D01*
X6109213Y22825356D01*
X6108473Y22824709D01*
X6107734Y22823969D01*
X6106994Y22823135D01*
X6106254Y22822119D01*
X6106162Y22822028D01*
X6105977Y22821564D01*
X6105607Y22820917D01*
X6105237Y22820085D01*
X6104775Y22818976D01*
X6104313Y22817680D01*
X6103850Y22816202D01*
X6103388Y22814539D01*
Y22814445D01*
X6103296Y22814352D01*
Y22814076D01*
X6103203Y22813705D01*
X6103018Y22812781D01*
X6102741Y22811578D01*
X6102556Y22810100D01*
X6102371Y22808528D01*
X6102279Y22806772D01*
X6102186Y22804922D01*
Y22804829D01*
Y22804553D01*
Y22804089D01*
Y22803351D01*
X6102279Y22803535D01*
X6102648Y22803998D01*
X6103203Y22804645D01*
X6103850Y22805569D01*
X6104775Y22806494D01*
X6105884Y22807510D01*
X6107179Y22808528D01*
X6108658Y22809453D01*
X6108843Y22809544D01*
X6109398Y22809824D01*
X6110230Y22810191D01*
X6111247Y22810562D01*
X6112634Y22811024D01*
X6114113Y22811394D01*
X6115777Y22811671D01*
X6117534Y22811765D01*
X6118274D01*
X6118828Y22811671D01*
X6119568Y22811578D01*
X6120308Y22811487D01*
X6121232Y22811302D01*
X6122157Y22811024D01*
X6124283Y22810378D01*
X6125393Y22809915D01*
X6126502Y22809360D01*
X6127704Y22808713D01*
X6128813Y22807881D01*
X6129923Y22807050D01*
X6130940Y22806032D01*
X6131032Y22805939D01*
X6131217Y22805754D01*
X6131402Y22805476D01*
X6131772Y22805016D01*
X6132234Y22804369D01*
X6132697Y22803720D01*
X6133159Y22802888D01*
X6133621Y22801964D01*
X6134176Y22800948D01*
X6134638Y22799837D01*
X6135101Y22798543D01*
X6135563Y22797249D01*
X6135933Y22795769D01*
X6136118Y22794197D01*
X6136302Y22792625D01*
X6136395Y22790869D01*
Y22790778D01*
Y22790407D01*
Y22789944D01*
X6136302Y22789297D01*
X6136210Y22788464D01*
X6136118Y22787448D01*
X6135933Y22786430D01*
X6135655Y22785229D01*
X6135008Y22782825D01*
X6134546Y22781531D01*
X6133991Y22780144D01*
X6133344Y22778850D01*
X6132512Y22777647D01*
X6131680Y22776353D01*
X6130663Y22775244D01*
X6130570Y22775153D01*
X6130385Y22774966D01*
X6130108Y22774689D01*
X6129646Y22774319D01*
X6129091Y22773857D01*
X6128351Y22773302D01*
X6127612Y22772839D01*
X6126687Y22772192D01*
X6125762Y22771638D01*
X6124653Y22771176D01*
X6122157Y22770158D01*
X6120862Y22769789D01*
X6119383Y22769511D01*
X6117904Y22769327D01*
X6116332Y22769234D01*
X6115685D01*
X6115222Y22769327D01*
X6114760D01*
X6114113Y22769418D01*
X6112541Y22769698D01*
X6110785Y22770065D01*
X6108843Y22770714D01*
X6106901Y22771545D01*
X6104960Y22772655D01*
X6104867D01*
X6104775Y22772839D01*
X6104498Y22773026D01*
X6104128Y22773302D01*
X6103203Y22774042D01*
X6102001Y22775060D01*
X6100799Y22776447D01*
X6099412Y22778110D01*
X6098211Y22780052D01*
X6097101Y22782271D01*
Y22782362D01*
X6097009Y22782549D01*
X6096824Y22782918D01*
X6096639Y22783380D01*
X6096454Y22784027D01*
X6096177Y22784859D01*
X6095992Y22785783D01*
X6095714Y22786801D01*
X6095437Y22788004D01*
X6095160Y22789391D01*
X6094975Y22790869D01*
X6094790Y22792441D01*
X6094605Y22794197D01*
X6094420Y22796046D01*
X6094327Y22798080D01*
Y22800208D01*
Y22800301D01*
Y22800761D01*
Y22801408D01*
Y22802242D01*
X6094420Y22803258D01*
Y22804460D01*
X6094512Y22805847D01*
X6094697Y22807234D01*
X6094975Y22810378D01*
X6095437Y22813705D01*
X6096084Y22816849D01*
X6096546Y22818420D01*
X6097009Y22819807D01*
Y22819901D01*
X6097101Y22820085D01*
X6097286Y22820454D01*
X6097471Y22821010D01*
X6097748Y22821564D01*
X6098118Y22822304D01*
X6099043Y22823875D01*
X6100152Y22825633D01*
X6101447Y22827483D01*
X6103111Y22829237D01*
X6104960Y22830811D01*
X6105052D01*
X6105237Y22830995D01*
X6105515Y22831180D01*
X6105884Y22831364D01*
X6106439Y22831642D01*
X6106994Y22832011D01*
X6107734Y22832382D01*
X6108473Y22832658D01*
X6110230Y22833398D01*
X6112356Y22834045D01*
X6114668Y22834416D01*
X6117256Y22834601D01*
X6117996D01*
X6118458Y22834508D01*
D02*
G37*
G36*
X6197601Y22769511D02*
X6167922D01*
X6167183Y22769604D01*
X6166351D01*
X6164409Y22769698D01*
X6162375Y22769974D01*
X6160156Y22770251D01*
X6158122Y22770714D01*
X6157105Y22770992D01*
X6156273Y22771268D01*
X6156180D01*
X6156088Y22771361D01*
X6155533Y22771638D01*
X6154701Y22772008D01*
X6153684Y22772655D01*
X6152575Y22773486D01*
X6151373Y22774597D01*
X6150263Y22775891D01*
X6149154Y22777370D01*
Y22777463D01*
X6149061Y22777554D01*
X6148692Y22778110D01*
X6148322Y22779034D01*
X6147767Y22780237D01*
X6147305Y22781622D01*
X6146842Y22783289D01*
X6146565Y22785043D01*
X6146473Y22786986D01*
Y22787077D01*
Y22787263D01*
Y22787633D01*
X6146565Y22788095D01*
Y22788744D01*
X6146658Y22789391D01*
X6147027Y22790962D01*
X6147582Y22792812D01*
X6148322Y22794753D01*
X6149431Y22796693D01*
X6150171Y22797618D01*
X6150910Y22798543D01*
X6151003Y22798634D01*
X6151095Y22798727D01*
X6151373Y22799005D01*
X6151743Y22799283D01*
X6152205Y22799652D01*
X6152760Y22800021D01*
X6153499Y22800484D01*
X6154239Y22801039D01*
X6155163Y22801501D01*
X6156180Y22801964D01*
X6157290Y22802519D01*
X6158492Y22802982D01*
X6159879Y22803351D01*
X6161266Y22803813D01*
X6162837Y22804089D01*
X6164502Y22804369D01*
X6164317Y22804460D01*
X6163947Y22804645D01*
X6163392Y22805016D01*
X6162652Y22805385D01*
X6160988Y22806403D01*
X6160156Y22807050D01*
X6159416Y22807603D01*
X6159232Y22807790D01*
X6158769Y22808250D01*
X6158030Y22808990D01*
X6157105Y22809915D01*
X6156088Y22811209D01*
X6154886Y22812596D01*
X6153684Y22814259D01*
X6152390Y22816110D01*
X6141388Y22833492D01*
X6151927D01*
X6160341Y22820178D01*
Y22820085D01*
X6160526Y22819901D01*
X6160711Y22819623D01*
X6160988Y22819254D01*
X6161635Y22818236D01*
X6162467Y22816942D01*
X6163484Y22815555D01*
X6164502Y22814076D01*
X6165519Y22812689D01*
X6166443Y22811394D01*
X6166536Y22811302D01*
X6166813Y22810931D01*
X6167275Y22810378D01*
X6167922Y22809731D01*
X6169309Y22808344D01*
X6170049Y22807697D01*
X6170789Y22807141D01*
X6170881Y22807050D01*
X6171066Y22806956D01*
X6171436Y22806772D01*
X6171990Y22806494D01*
X6172545Y22806216D01*
X6173192Y22805939D01*
X6174672Y22805476D01*
X6174764D01*
X6174949Y22805385D01*
X6175319D01*
X6175781Y22805292D01*
X6176428Y22805200D01*
X6177168D01*
X6178185Y22805107D01*
X6189095D01*
Y22833492D01*
X6197601D01*
Y22769511D01*
D02*
G37*
G36*
X7244017Y22899596D02*
X7244849D01*
X7246790Y22899503D01*
X7248824Y22899225D01*
X7251043Y22898949D01*
X7253077Y22898486D01*
X7254094Y22898209D01*
X7254927Y22897931D01*
X7255019D01*
X7255111Y22897839D01*
X7255666Y22897562D01*
X7256498Y22897191D01*
X7257515Y22896544D01*
X7258625Y22895712D01*
X7259827Y22894603D01*
X7260936Y22893307D01*
X7262046Y22891829D01*
Y22891737D01*
X7262138Y22891644D01*
X7262508Y22891089D01*
X7262878Y22890166D01*
X7263433Y22888963D01*
X7263895Y22887576D01*
X7264357Y22885912D01*
X7264634Y22884155D01*
X7264727Y22882214D01*
Y22882121D01*
Y22881937D01*
Y22881566D01*
X7264634Y22881104D01*
Y22880457D01*
X7264542Y22879810D01*
X7264172Y22878238D01*
X7263617Y22876389D01*
X7262878Y22874448D01*
X7261768Y22872507D01*
X7261029Y22871581D01*
X7260289Y22870657D01*
X7260197Y22870564D01*
X7260104Y22870473D01*
X7259827Y22870193D01*
X7259457Y22869917D01*
X7258995Y22869547D01*
X7258440Y22869177D01*
X7257700Y22868715D01*
X7256961Y22868159D01*
X7256036Y22867699D01*
X7255019Y22867236D01*
X7253910Y22866681D01*
X7252708Y22866219D01*
X7251321Y22865849D01*
X7249934Y22865387D01*
X7248362Y22865109D01*
X7246698Y22864832D01*
X7246883Y22864738D01*
X7247253Y22864554D01*
X7247807Y22864185D01*
X7248547Y22863815D01*
X7250211Y22862798D01*
X7251043Y22862151D01*
X7251783Y22861597D01*
X7251968Y22861411D01*
X7252430Y22860950D01*
X7253170Y22860210D01*
X7254094Y22859283D01*
X7255111Y22857990D01*
X7256313Y22856602D01*
X7257515Y22854939D01*
X7258810Y22853090D01*
X7269812Y22835709D01*
X7259272D01*
X7250858Y22849022D01*
Y22849113D01*
X7250674Y22849300D01*
X7250489Y22849577D01*
X7250211Y22849947D01*
X7249564Y22850963D01*
X7248732Y22852258D01*
X7247715Y22853645D01*
X7246698Y22855124D01*
X7245681Y22856511D01*
X7244756Y22857805D01*
X7244664Y22857898D01*
X7244387Y22858267D01*
X7243924Y22858823D01*
X7243277Y22859470D01*
X7241890Y22860857D01*
X7241151Y22861504D01*
X7240411Y22862057D01*
X7240319Y22862151D01*
X7240134Y22862244D01*
X7239764Y22862428D01*
X7239209Y22862704D01*
X7238654Y22862984D01*
X7238007Y22863260D01*
X7236528Y22863722D01*
X7236435D01*
X7236250Y22863815D01*
X7235881D01*
X7235418Y22863907D01*
X7234771Y22864000D01*
X7234032D01*
X7233014Y22864091D01*
X7222105D01*
Y22835709D01*
X7213599D01*
Y22899689D01*
X7243277D01*
X7244017Y22899596D01*
D02*
G37*
G36*
X7296994Y22899873D02*
X7297734Y22899780D01*
X7298566Y22899689D01*
X7299490Y22899596D01*
X7300415Y22899318D01*
X7302634Y22898763D01*
X7304853Y22897931D01*
X7305962Y22897375D01*
X7307072Y22896729D01*
X7308089Y22895897D01*
X7309106Y22895065D01*
X7309198Y22894972D01*
X7309291Y22894881D01*
X7309568Y22894603D01*
X7309938Y22894234D01*
X7310308Y22893678D01*
X7310770Y22893123D01*
X7311695Y22891737D01*
X7312619Y22889980D01*
X7313451Y22887946D01*
X7314098Y22885634D01*
X7314191Y22884433D01*
X7314283Y22883138D01*
Y22883046D01*
Y22882953D01*
Y22882397D01*
X7314191Y22881566D01*
X7314006Y22880550D01*
X7313729Y22879256D01*
X7313266Y22877962D01*
X7312712Y22876666D01*
X7311879Y22875372D01*
X7311787Y22875188D01*
X7311417Y22874817D01*
X7310862Y22874261D01*
X7310123Y22873523D01*
X7309106Y22872691D01*
X7307904Y22871858D01*
X7306517Y22871027D01*
X7304853Y22870287D01*
X7304945D01*
X7305130Y22870193D01*
X7305408Y22870102D01*
X7305777Y22869917D01*
X7306887Y22869455D01*
X7308181Y22868806D01*
X7309568Y22867883D01*
X7311047Y22866866D01*
X7312434Y22865572D01*
X7313729Y22864091D01*
Y22864000D01*
X7313821Y22863907D01*
X7314191Y22863353D01*
X7314746Y22862428D01*
X7315300Y22861226D01*
X7315855Y22859747D01*
X7316410Y22857990D01*
X7316780Y22856049D01*
X7316872Y22853922D01*
Y22853830D01*
Y22853552D01*
Y22853090D01*
X7316780Y22852534D01*
X7316687Y22851888D01*
X7316595Y22851056D01*
X7316410Y22850131D01*
X7316132Y22849113D01*
X7315485Y22846988D01*
X7315023Y22845786D01*
X7314376Y22844676D01*
X7313729Y22843475D01*
X7312989Y22842365D01*
X7312064Y22841257D01*
X7311047Y22840146D01*
X7310955Y22840054D01*
X7310770Y22839870D01*
X7310493Y22839590D01*
X7310030Y22839314D01*
X7309383Y22838852D01*
X7308736Y22838390D01*
X7307904Y22837927D01*
X7306979Y22837372D01*
X7305962Y22836818D01*
X7304760Y22836356D01*
X7303466Y22835893D01*
X7302172Y22835431D01*
X7300692Y22835153D01*
X7299121Y22834875D01*
X7297549Y22834691D01*
X7295792Y22834599D01*
X7294868D01*
X7294220Y22834691D01*
X7293388Y22834784D01*
X7292464Y22834875D01*
X7291447Y22835062D01*
X7290337Y22835338D01*
X7287841Y22835986D01*
X7286547Y22836449D01*
X7285345Y22836909D01*
X7284050Y22837556D01*
X7282756Y22838297D01*
X7281554Y22839130D01*
X7280444Y22840146D01*
X7280352Y22840239D01*
X7280167Y22840424D01*
X7279890Y22840701D01*
X7279520Y22841164D01*
X7279150Y22841718D01*
X7278595Y22842365D01*
X7278133Y22843105D01*
X7277578Y22844029D01*
X7277024Y22844954D01*
X7276561Y22846063D01*
X7275637Y22848375D01*
X7275267Y22849762D01*
X7274990Y22851147D01*
X7274805Y22852628D01*
X7274712Y22854108D01*
Y22854199D01*
Y22854384D01*
Y22854755D01*
X7274805Y22855124D01*
Y22855679D01*
X7274897Y22856326D01*
X7275082Y22857805D01*
X7275452Y22859470D01*
X7276007Y22861134D01*
X7276839Y22862891D01*
X7277856Y22864554D01*
Y22864647D01*
X7278041Y22864738D01*
X7278410Y22865202D01*
X7279150Y22865941D01*
X7280167Y22866866D01*
X7281461Y22867790D01*
X7283033Y22868806D01*
X7284790Y22869640D01*
X7286916Y22870287D01*
X7286824D01*
X7286731Y22870380D01*
X7286454Y22870473D01*
X7286084Y22870657D01*
X7285252Y22871027D01*
X7284143Y22871581D01*
X7282941Y22872321D01*
X7281739Y22873245D01*
X7280629Y22874261D01*
X7279612Y22875372D01*
X7279520Y22875557D01*
X7279242Y22875928D01*
X7278873Y22876666D01*
X7278503Y22877591D01*
X7278041Y22878793D01*
X7277671Y22880180D01*
X7277393Y22881750D01*
X7277301Y22883415D01*
Y22883508D01*
Y22883693D01*
Y22884064D01*
X7277393Y22884618D01*
X7277486Y22885172D01*
X7277578Y22885912D01*
X7277948Y22887485D01*
X7278503Y22889333D01*
X7279427Y22891273D01*
X7279982Y22892291D01*
X7280629Y22893307D01*
X7281461Y22894234D01*
X7282294Y22895157D01*
X7282386Y22895250D01*
X7282571Y22895341D01*
X7282848Y22895621D01*
X7283218Y22895897D01*
X7283680Y22896268D01*
X7284328Y22896637D01*
X7285067Y22897099D01*
X7285807Y22897562D01*
X7286731Y22898024D01*
X7287748Y22898486D01*
X7288858Y22898856D01*
X7290060Y22899225D01*
X7292649Y22899780D01*
X7294128Y22899873D01*
X7295607Y22899965D01*
X7296439D01*
X7296994Y22899873D01*
D02*
G37*
G36*
X7213601Y22262621D02*
X7183922D01*
X7183183Y22262714D01*
X7182351D01*
X7180409Y22262807D01*
X7178375Y22263083D01*
X7176156Y22263361D01*
X7174122Y22263823D01*
X7173105Y22264101D01*
X7172273Y22264378D01*
X7172180D01*
X7172088Y22264470D01*
X7171533Y22264748D01*
X7170701Y22265118D01*
X7169684Y22265765D01*
X7168575Y22266597D01*
X7167373Y22267706D01*
X7166263Y22269000D01*
X7165154Y22270480D01*
Y22270572D01*
X7165061Y22270665D01*
X7164692Y22271220D01*
X7164322Y22272144D01*
X7163767Y22273346D01*
X7163305Y22274733D01*
X7162842Y22276398D01*
X7162565Y22278154D01*
X7162473Y22280095D01*
Y22280188D01*
Y22280373D01*
Y22280743D01*
X7162565Y22281206D01*
Y22281853D01*
X7162658Y22282500D01*
X7163027Y22284071D01*
X7163582Y22285921D01*
X7164322Y22287862D01*
X7165431Y22289803D01*
X7166171Y22290729D01*
X7166910Y22291652D01*
X7167003Y22291745D01*
X7167095Y22291837D01*
X7167373Y22292114D01*
X7167743Y22292392D01*
X7168205Y22292763D01*
X7168760Y22293132D01*
X7169499Y22293594D01*
X7170239Y22294148D01*
X7171163Y22294611D01*
X7172180Y22295073D01*
X7173290Y22295628D01*
X7174492Y22296091D01*
X7175879Y22296460D01*
X7177266Y22296922D01*
X7178837Y22297200D01*
X7180502Y22297478D01*
X7180317Y22297569D01*
X7179947Y22297754D01*
X7179392Y22298125D01*
X7178652Y22298494D01*
X7176988Y22299512D01*
X7176156Y22300159D01*
X7175416Y22300713D01*
X7175232Y22300899D01*
X7174769Y22301360D01*
X7174030Y22302100D01*
X7173105Y22303024D01*
X7172088Y22304318D01*
X7170886Y22305705D01*
X7169684Y22307370D01*
X7168390Y22309219D01*
X7157388Y22326601D01*
X7167927D01*
X7176341Y22313287D01*
Y22313194D01*
X7176526Y22313010D01*
X7176711Y22312732D01*
X7176988Y22312363D01*
X7177635Y22311346D01*
X7178467Y22310051D01*
X7179484Y22308664D01*
X7180502Y22307185D01*
X7181519Y22305798D01*
X7182443Y22304504D01*
X7182536Y22304411D01*
X7182813Y22304041D01*
X7183275Y22303487D01*
X7183922Y22302840D01*
X7185309Y22301453D01*
X7186049Y22300806D01*
X7186789Y22300250D01*
X7186881Y22300159D01*
X7187066Y22300066D01*
X7187436Y22299881D01*
X7187990Y22299603D01*
X7188545Y22299326D01*
X7189192Y22299049D01*
X7190672Y22298587D01*
X7190764D01*
X7190949Y22298494D01*
X7191319D01*
X7191781Y22298402D01*
X7192428Y22298309D01*
X7193168D01*
X7194185Y22298216D01*
X7205095D01*
Y22326601D01*
X7213601D01*
Y22262621D01*
D02*
G37*
G36*
X7142872Y22326508D02*
Y22326231D01*
Y22325861D01*
X7142779Y22325307D01*
Y22324567D01*
X7142687Y22323642D01*
X7142595Y22322626D01*
X7142502Y22321516D01*
X7142317Y22320221D01*
X7142132Y22318927D01*
X7141855Y22317355D01*
X7141578Y22315784D01*
X7141300Y22314119D01*
X7140930Y22312270D01*
X7140006Y22308479D01*
Y22308388D01*
X7139913Y22308017D01*
X7139728Y22307462D01*
X7139451Y22306630D01*
X7139174Y22305705D01*
X7138804Y22304596D01*
X7138434Y22303302D01*
X7137879Y22301915D01*
X7137325Y22300343D01*
X7136770Y22298772D01*
X7135383Y22295258D01*
X7133719Y22291560D01*
X7131870Y22287862D01*
X7131777Y22287769D01*
X7131592Y22287399D01*
X7131315Y22286937D01*
X7130945Y22286197D01*
X7130483Y22285365D01*
X7129836Y22284348D01*
X7129188Y22283240D01*
X7128449Y22282037D01*
X7126692Y22279356D01*
X7124843Y22276582D01*
X7122717Y22273717D01*
X7120498Y22271034D01*
X7151840D01*
Y22263454D01*
X7110420D01*
Y22269649D01*
X7110512Y22269740D01*
X7110697Y22269925D01*
X7111067Y22270296D01*
X7111437Y22270850D01*
X7111992Y22271497D01*
X7112731Y22272237D01*
X7113471Y22273161D01*
X7114303Y22274271D01*
X7115135Y22275380D01*
X7116152Y22276675D01*
X7117169Y22278154D01*
X7118186Y22279633D01*
X7119296Y22281297D01*
X7120405Y22283054D01*
X7121515Y22284996D01*
X7122624Y22286937D01*
X7122717Y22287030D01*
X7122901Y22287399D01*
X7123179Y22287955D01*
X7123641Y22288786D01*
X7124103Y22289803D01*
X7124658Y22290913D01*
X7125305Y22292207D01*
X7125952Y22293686D01*
X7126692Y22295351D01*
X7127524Y22297015D01*
X7128264Y22298865D01*
X7129004Y22300806D01*
X7130483Y22304781D01*
X7131870Y22309035D01*
Y22309126D01*
X7131962Y22309404D01*
X7132055Y22309866D01*
X7132239Y22310422D01*
X7132424Y22311160D01*
X7132609Y22312085D01*
X7132887Y22313103D01*
X7133072Y22314212D01*
X7133349Y22315506D01*
X7133626Y22316893D01*
X7134089Y22319852D01*
X7134551Y22323087D01*
X7134828Y22326601D01*
X7142872D01*
Y22326508D01*
D02*
G37*
G36*
X6197601Y22261513D02*
X6167922D01*
X6167183Y22261604D01*
X6166351D01*
X6164409Y22261697D01*
X6162375Y22261974D01*
X6160156Y22262251D01*
X6158122Y22262714D01*
X6157105Y22262991D01*
X6156273Y22263268D01*
X6156180D01*
X6156088Y22263361D01*
X6155533Y22263638D01*
X6154701Y22264008D01*
X6153684Y22264655D01*
X6152575Y22265488D01*
X6151373Y22266597D01*
X6150263Y22267891D01*
X6149154Y22269370D01*
Y22269463D01*
X6149061Y22269556D01*
X6148692Y22270110D01*
X6148322Y22271034D01*
X6147767Y22272237D01*
X6147305Y22273624D01*
X6146842Y22275288D01*
X6146565Y22277045D01*
X6146473Y22278986D01*
Y22279079D01*
Y22279263D01*
Y22279633D01*
X6146565Y22280095D01*
Y22280743D01*
X6146658Y22281390D01*
X6147027Y22282962D01*
X6147582Y22284811D01*
X6148322Y22286752D01*
X6149431Y22288693D01*
X6150171Y22289618D01*
X6150910Y22290543D01*
X6151003Y22290636D01*
X6151095Y22290729D01*
X6151373Y22291005D01*
X6151743Y22291283D01*
X6152205Y22291652D01*
X6152760Y22292023D01*
X6153499Y22292484D01*
X6154239Y22293039D01*
X6155163Y22293501D01*
X6156180Y22293964D01*
X6157290Y22294519D01*
X6158492Y22294981D01*
X6159879Y22295351D01*
X6161266Y22295813D01*
X6162837Y22296091D01*
X6164502Y22296368D01*
X6164317Y22296460D01*
X6163947Y22296645D01*
X6163392Y22297015D01*
X6162652Y22297385D01*
X6160988Y22298402D01*
X6160156Y22299049D01*
X6159416Y22299603D01*
X6159232Y22299789D01*
X6158769Y22300250D01*
X6158030Y22300990D01*
X6157105Y22301915D01*
X6156088Y22303209D01*
X6154886Y22304596D01*
X6153684Y22306261D01*
X6152390Y22308110D01*
X6141388Y22325491D01*
X6151927D01*
X6160341Y22312178D01*
Y22312085D01*
X6160526Y22311900D01*
X6160711Y22311623D01*
X6160988Y22311253D01*
X6161635Y22310236D01*
X6162467Y22308942D01*
X6163484Y22307555D01*
X6164502Y22306076D01*
X6165519Y22304689D01*
X6166443Y22303394D01*
X6166536Y22303302D01*
X6166813Y22302933D01*
X6167275Y22302377D01*
X6167922Y22301730D01*
X6169309Y22300343D01*
X6170049Y22299696D01*
X6170789Y22299141D01*
X6170881Y22299049D01*
X6171066Y22298956D01*
X6171436Y22298772D01*
X6171990Y22298494D01*
X6172545Y22298216D01*
X6173192Y22297939D01*
X6174672Y22297478D01*
X6174764D01*
X6174949Y22297385D01*
X6175319D01*
X6175781Y22297292D01*
X6176428Y22297200D01*
X6177168D01*
X6178185Y22297107D01*
X6189095D01*
Y22325491D01*
X6197601D01*
Y22261513D01*
D02*
G37*
G36*
X6115500Y22326508D02*
X6116239D01*
X6117072Y22326416D01*
X6117996Y22326231D01*
X6119106Y22325954D01*
X6120215Y22325676D01*
X6121509Y22325307D01*
X6122804Y22324844D01*
X6124098Y22324289D01*
X6125485Y22323550D01*
X6126779Y22322717D01*
X6128074Y22321793D01*
X6129368Y22320683D01*
X6130570Y22319389D01*
X6130663Y22319296D01*
X6130848Y22319019D01*
X6131125Y22318649D01*
X6131495Y22318002D01*
X6132049Y22317171D01*
X6132512Y22316246D01*
X6133066Y22315044D01*
X6133621Y22313750D01*
X6134268Y22312178D01*
X6134823Y22310422D01*
X6135285Y22308479D01*
X6135748Y22306354D01*
X6136210Y22303949D01*
X6136487Y22301360D01*
X6136672Y22298587D01*
X6136765Y22295628D01*
Y22295535D01*
Y22295444D01*
Y22295166D01*
Y22294797D01*
X6136672Y22293871D01*
Y22292577D01*
X6136580Y22291098D01*
X6136395Y22289342D01*
X6136210Y22287399D01*
X6135933Y22285274D01*
X6135563Y22283147D01*
X6135101Y22280835D01*
X6134546Y22278616D01*
X6133899Y22276398D01*
X6133066Y22274271D01*
X6132142Y22272237D01*
X6131125Y22270296D01*
X6129923Y22268631D01*
X6129831Y22268538D01*
X6129646Y22268353D01*
X6129276Y22267984D01*
X6128813Y22267429D01*
X6128259Y22266875D01*
X6127519Y22266319D01*
X6126595Y22265581D01*
X6125670Y22264932D01*
X6124561Y22264285D01*
X6123359Y22263547D01*
X6121972Y22262991D01*
X6120585Y22262344D01*
X6119013Y22261882D01*
X6117349Y22261513D01*
X6115592Y22261327D01*
X6113743Y22261234D01*
X6113004D01*
X6112449Y22261327D01*
X6111802D01*
X6111062Y22261420D01*
X6109305Y22261789D01*
X6107364Y22262251D01*
X6105330Y22262991D01*
X6103296Y22264101D01*
X6102279Y22264748D01*
X6101354Y22265488D01*
X6101262Y22265581D01*
X6101169Y22265672D01*
X6100892Y22265950D01*
X6100614Y22266228D01*
X6100152Y22266689D01*
X6099782Y22267244D01*
X6098765Y22268538D01*
X6097748Y22270203D01*
X6096824Y22272237D01*
X6095992Y22274548D01*
X6095437Y22277138D01*
X6103296Y22277785D01*
Y22277692D01*
X6103388Y22277599D01*
X6103481Y22277045D01*
X6103758Y22276212D01*
X6104128Y22275195D01*
X6104498Y22274086D01*
X6105052Y22272977D01*
X6105699Y22271959D01*
X6106347Y22271127D01*
X6106532Y22270943D01*
X6106901Y22270572D01*
X6107549Y22270018D01*
X6108473Y22269370D01*
X6109675Y22268816D01*
X6110969Y22268262D01*
X6112541Y22267891D01*
X6114205Y22267706D01*
X6114853D01*
X6115592Y22267799D01*
X6116424Y22267984D01*
X6117534Y22268262D01*
X6118643Y22268631D01*
X6119753Y22269093D01*
X6120862Y22269833D01*
X6121047Y22269925D01*
X6121509Y22270296D01*
X6122157Y22270943D01*
X6122989Y22271867D01*
X6123913Y22272977D01*
X6124930Y22274271D01*
X6125855Y22275935D01*
X6126779Y22277785D01*
Y22277876D01*
X6126872Y22278061D01*
X6126964Y22278339D01*
X6127149Y22278709D01*
X6127242Y22279263D01*
X6127427Y22279910D01*
X6127612Y22280650D01*
X6127796Y22281575D01*
X6128074Y22282591D01*
X6128259Y22283701D01*
X6128444Y22284903D01*
X6128536Y22286197D01*
X6128721Y22287677D01*
X6128813Y22289156D01*
X6128906Y22290820D01*
Y22292484D01*
X6128813Y22292392D01*
X6128444Y22291837D01*
X6127796Y22291098D01*
X6126964Y22290173D01*
X6126040Y22289064D01*
X6124838Y22288046D01*
X6123544Y22287030D01*
X6122064Y22286105D01*
X6121972D01*
X6121879Y22286012D01*
X6121325Y22285735D01*
X6120492Y22285458D01*
X6119383Y22284996D01*
X6118089Y22284625D01*
X6116609Y22284348D01*
X6115038Y22284071D01*
X6113373Y22283978D01*
X6112634D01*
X6112079Y22284071D01*
X6111339Y22284163D01*
X6110600Y22284256D01*
X6109675Y22284441D01*
X6108751Y22284718D01*
X6106624Y22285365D01*
X6105515Y22285828D01*
X6104405Y22286475D01*
X6103296Y22287122D01*
X6102094Y22287862D01*
X6100984Y22288786D01*
X6099967Y22289803D01*
X6099875Y22289896D01*
X6099690Y22290080D01*
X6099412Y22290358D01*
X6099135Y22290820D01*
X6098673Y22291467D01*
X6098211Y22292114D01*
X6097748Y22292947D01*
X6097194Y22293871D01*
X6096639Y22294888D01*
X6096177Y22295998D01*
X6095714Y22297292D01*
X6095252Y22298587D01*
X6094975Y22299973D01*
X6094697Y22301546D01*
X6094512Y22303117D01*
X6094420Y22304781D01*
Y22304874D01*
Y22305058D01*
Y22305336D01*
Y22305798D01*
X6094512Y22306354D01*
Y22306908D01*
X6094790Y22308388D01*
X6095067Y22310144D01*
X6095529Y22311993D01*
X6096177Y22314027D01*
X6097101Y22315968D01*
Y22316061D01*
X6097194Y22316153D01*
X6097378Y22316431D01*
X6097563Y22316800D01*
X6098118Y22317725D01*
X6098950Y22318927D01*
X6099967Y22320221D01*
X6101169Y22321516D01*
X6102648Y22322810D01*
X6104220Y22323920D01*
X6104313D01*
X6104405Y22324013D01*
X6104682Y22324197D01*
X6105052Y22324289D01*
X6105977Y22324751D01*
X6107179Y22325214D01*
X6108751Y22325769D01*
X6110507Y22326138D01*
X6112449Y22326508D01*
X6114575Y22326601D01*
X6115038D01*
X6115500Y22326508D01*
D02*
G37*
G36*
X20023849Y23139308D02*
X20024590Y23139217D01*
X20025421Y23139124D01*
X20026437Y23139030D01*
X20027455Y23138754D01*
X20029765Y23138199D01*
X20032079Y23137367D01*
X20033279Y23136812D01*
X20034480Y23136165D01*
X20035591Y23135425D01*
X20036700Y23134593D01*
X20036794Y23134502D01*
X20036978Y23134409D01*
X20037163Y23134038D01*
X20037532Y23133669D01*
X20037994Y23133206D01*
X20038457Y23132651D01*
X20039012Y23131912D01*
X20039474Y23131081D01*
X20040028Y23130247D01*
X20040582Y23129231D01*
X20041602Y23127013D01*
X20042433Y23124423D01*
X20042709Y23123036D01*
X20042896Y23121558D01*
X20034666Y23120911D01*
Y23121002D01*
Y23121187D01*
X20034573Y23121465D01*
X20034480Y23121927D01*
X20034204Y23122945D01*
X20033833Y23124330D01*
X20033279Y23125717D01*
X20032539Y23127289D01*
X20031615Y23128676D01*
X20030505Y23129970D01*
X20030321Y23130063D01*
X20029951Y23130434D01*
X20029211Y23130894D01*
X20028194Y23131450D01*
X20027084Y23132004D01*
X20025697Y23132468D01*
X20024126Y23132835D01*
X20022369Y23132928D01*
X20021815D01*
X20021445Y23132835D01*
X20020335Y23132744D01*
X20019041Y23132375D01*
X20017468Y23131912D01*
X20015898Y23131172D01*
X20014233Y23130063D01*
X20013493Y23129416D01*
X20012753Y23128676D01*
X20012662Y23128583D01*
X20012569Y23128491D01*
X20012384Y23128214D01*
X20012106Y23127936D01*
X20011459Y23126920D01*
X20010719Y23125626D01*
X20010072Y23124052D01*
X20009425Y23122112D01*
X20008965Y23119800D01*
X20008778Y23118597D01*
Y23117303D01*
Y23117210D01*
Y23117026D01*
Y23116656D01*
X20008871Y23116194D01*
Y23115640D01*
X20008965Y23114992D01*
X20009241Y23113513D01*
X20009703Y23111755D01*
X20010350Y23110001D01*
X20011275Y23108336D01*
X20012569Y23106764D01*
Y23106671D01*
X20012753Y23106580D01*
X20013217Y23106117D01*
X20014049Y23105469D01*
X20015158Y23104730D01*
X20016637Y23104083D01*
X20018301Y23103435D01*
X20020242Y23102972D01*
X20021353Y23102788D01*
X20023109D01*
X20023849Y23102881D01*
X20024774Y23102972D01*
X20025883Y23103250D01*
X20026991Y23103528D01*
X20028194Y23103990D01*
X20029396Y23104546D01*
X20029489Y23104637D01*
X20029858Y23104822D01*
X20030412Y23105284D01*
X20031152Y23105746D01*
X20031892Y23106393D01*
X20032632Y23107227D01*
X20033464Y23108058D01*
X20034113Y23109074D01*
X20041508Y23108058D01*
X20035313Y23075143D01*
X20003510D01*
Y23082632D01*
X20029118D01*
X20032539Y23099922D01*
X20032446Y23099831D01*
X20032262Y23099738D01*
X20031985Y23099551D01*
X20031523Y23099275D01*
X20030968Y23098997D01*
X20030321Y23098628D01*
X20028842Y23097888D01*
X20026991Y23097148D01*
X20024957Y23096501D01*
X20022739Y23096039D01*
X20021629Y23095854D01*
X20019595D01*
X20019041Y23095946D01*
X20018301Y23096039D01*
X20017468Y23096130D01*
X20016545Y23096317D01*
X20015527Y23096594D01*
X20013309Y23097241D01*
X20012106Y23097704D01*
X20010905Y23098351D01*
X20009703Y23098997D01*
X20008501Y23099738D01*
X20007391Y23100662D01*
X20006282Y23101678D01*
X20006190Y23101772D01*
X20006004Y23101956D01*
X20005728Y23102232D01*
X20005357Y23102696D01*
X20004895Y23103343D01*
X20004433Y23103990D01*
X20003877Y23104822D01*
X20003323Y23105746D01*
X20002861Y23106764D01*
X20002307Y23107874D01*
X20001843Y23109167D01*
X20001382Y23110461D01*
X20001012Y23111848D01*
X20000735Y23113422D01*
X20000549Y23114992D01*
X20000458Y23116656D01*
Y23116750D01*
Y23117026D01*
Y23117490D01*
X20000549Y23118137D01*
X20000642Y23118877D01*
X20000735Y23119708D01*
X20000920Y23120724D01*
X20001105Y23121742D01*
X20001660Y23124146D01*
X20002583Y23126642D01*
X20003139Y23127936D01*
X20003877Y23129138D01*
X20004617Y23130434D01*
X20005544Y23131635D01*
X20005635Y23131728D01*
X20005820Y23132004D01*
X20006190Y23132375D01*
X20006651Y23132835D01*
X20007298Y23133391D01*
X20008038Y23134131D01*
X20008965Y23134778D01*
X20009981Y23135518D01*
X20011090Y23136256D01*
X20012384Y23136903D01*
X20013771Y23137552D01*
X20015251Y23138199D01*
X20016821Y23138661D01*
X20018579Y23139030D01*
X20020428Y23139308D01*
X20022369Y23139401D01*
X20023203D01*
X20023849Y23139308D01*
D02*
G37*
G36*
X20104102Y23074312D02*
X20074422D01*
X20073683Y23074403D01*
X20072852D01*
X20070909Y23074496D01*
X20068875Y23074774D01*
X20066656Y23075050D01*
X20064622Y23075514D01*
X20063605Y23075790D01*
X20062773Y23076068D01*
X20062680D01*
X20062589Y23076161D01*
X20062033Y23076437D01*
X20061201Y23076808D01*
X20060184Y23077455D01*
X20059074Y23078287D01*
X20057874Y23079398D01*
X20056763Y23080692D01*
X20055653Y23082170D01*
Y23082263D01*
X20055560Y23082355D01*
X20055193Y23082910D01*
X20054822Y23083835D01*
X20054266Y23085037D01*
X20053806Y23086423D01*
X20053342Y23088087D01*
X20053065Y23089844D01*
X20052972Y23091786D01*
Y23091878D01*
Y23092062D01*
Y23092433D01*
X20053065Y23092896D01*
Y23093542D01*
X20053159Y23094189D01*
X20053526Y23095763D01*
X20054082Y23097610D01*
X20054822Y23099551D01*
X20055931Y23101494D01*
X20056671Y23102419D01*
X20057410Y23103343D01*
X20057503Y23103435D01*
X20057594Y23103528D01*
X20057874Y23103806D01*
X20058243Y23104083D01*
X20058705Y23104453D01*
X20059261Y23104822D01*
X20059999Y23105284D01*
X20060739Y23105840D01*
X20061662Y23106302D01*
X20062680Y23106764D01*
X20063789Y23107320D01*
X20064992Y23107780D01*
X20066379Y23108151D01*
X20067766Y23108614D01*
X20069337Y23108890D01*
X20071002Y23109167D01*
X20070818Y23109261D01*
X20070447Y23109445D01*
X20069891Y23109814D01*
X20069151Y23110185D01*
X20067488Y23111201D01*
X20066656Y23111848D01*
X20065916Y23112404D01*
X20065732Y23112589D01*
X20065269Y23113051D01*
X20064529Y23113789D01*
X20063605Y23114716D01*
X20062589Y23116010D01*
X20061386Y23117397D01*
X20060184Y23119060D01*
X20058890Y23120911D01*
X20047888Y23138290D01*
X20058427D01*
X20066841Y23124979D01*
Y23124886D01*
X20067026Y23124699D01*
X20067210Y23124423D01*
X20067488Y23124052D01*
X20068135Y23123036D01*
X20068967Y23121742D01*
X20069984Y23120355D01*
X20071002Y23118877D01*
X20072018Y23117490D01*
X20072943Y23116194D01*
X20073036Y23116103D01*
X20073312Y23115732D01*
X20073775Y23115176D01*
X20074422Y23114529D01*
X20075809Y23113142D01*
X20076549Y23112495D01*
X20077289Y23111942D01*
X20077380Y23111848D01*
X20077567Y23111755D01*
X20077936Y23111572D01*
X20078490Y23111295D01*
X20079045Y23111017D01*
X20079692Y23110739D01*
X20081172Y23110277D01*
X20081264D01*
X20081448Y23110185D01*
X20081819D01*
X20082281Y23110092D01*
X20082928Y23110001D01*
X20083669D01*
X20084685Y23109908D01*
X20095595D01*
Y23138290D01*
X20104102D01*
Y23074312D01*
D02*
G37*
G36*
X20078700Y22694421D02*
X20049022D01*
X20048283Y22694514D01*
X20047450D01*
X20045509Y22694606D01*
X20043475Y22694884D01*
X20041257Y22695161D01*
X20039223Y22695622D01*
X20038205Y22695901D01*
X20037373Y22696178D01*
X20037280D01*
X20037189Y22696271D01*
X20036633Y22696548D01*
X20035802Y22696918D01*
X20034784Y22697565D01*
X20033675Y22698396D01*
X20032474Y22699506D01*
X20031363Y22700801D01*
X20030254Y22702280D01*
Y22702373D01*
X20030161Y22702464D01*
X20029791Y22703020D01*
X20029422Y22703944D01*
X20028867Y22705145D01*
X20028406Y22706532D01*
X20027942Y22708197D01*
X20027666Y22709953D01*
X20027573Y22711896D01*
Y22711987D01*
Y22712173D01*
Y22712543D01*
X20027666Y22713005D01*
Y22713652D01*
X20027757Y22714299D01*
X20028127Y22715871D01*
X20028682Y22717720D01*
X20029422Y22719662D01*
X20030531Y22721603D01*
X20031271Y22722528D01*
X20032010Y22723453D01*
X20032103Y22723544D01*
X20032195Y22723637D01*
X20032474Y22723915D01*
X20032843Y22724191D01*
X20033305Y22724562D01*
X20033859Y22724931D01*
X20034599Y22725394D01*
X20035339Y22725949D01*
X20036263Y22726411D01*
X20037280Y22726872D01*
X20038390Y22727428D01*
X20039592Y22727890D01*
X20040979Y22728259D01*
X20042366Y22728722D01*
X20043938Y22728999D01*
X20045602Y22729277D01*
X20045416Y22729370D01*
X20045047Y22729555D01*
X20044492Y22729924D01*
X20043752Y22730293D01*
X20042088Y22731311D01*
X20041257Y22731958D01*
X20040517Y22732513D01*
X20040332Y22732698D01*
X20039870Y22733160D01*
X20039130Y22733900D01*
X20038205Y22734824D01*
X20037189Y22736119D01*
X20035986Y22737506D01*
X20034784Y22739169D01*
X20033490Y22741019D01*
X20022488Y22758401D01*
X20033028D01*
X20041441Y22745087D01*
Y22744995D01*
X20041626Y22744810D01*
X20041811Y22744531D01*
X20042088Y22744164D01*
X20042735Y22743146D01*
X20043567Y22741850D01*
X20044585Y22740463D01*
X20045602Y22738985D01*
X20046619Y22737598D01*
X20047543Y22736304D01*
X20047636Y22736211D01*
X20047913Y22735841D01*
X20048375Y22735287D01*
X20049022Y22734641D01*
X20050409Y22733253D01*
X20051149Y22732607D01*
X20051889Y22732051D01*
X20051981Y22731958D01*
X20052167Y22731866D01*
X20052536Y22731680D01*
X20053090Y22731404D01*
X20053645Y22731126D01*
X20054292Y22730849D01*
X20055772Y22730386D01*
X20055864D01*
X20056049Y22730293D01*
X20056419D01*
X20056882Y22730202D01*
X20057529Y22730109D01*
X20058269D01*
X20059285Y22730017D01*
X20070195D01*
Y22758401D01*
X20078700D01*
Y22694421D01*
D02*
G37*
G36*
X19992348Y22743053D02*
X20020177D01*
Y22735841D01*
X19990868Y22694421D01*
X19984488D01*
Y22735841D01*
X19975797D01*
Y22743053D01*
X19984488D01*
Y22758401D01*
X19992348D01*
Y22743053D01*
D02*
G37*
G36*
X20136510Y20385274D02*
X20137711Y20385088D01*
X20139191Y20384810D01*
X20140855Y20384348D01*
X20142519Y20383794D01*
X20144183Y20383054D01*
X20144275D01*
X20144368Y20382961D01*
X20144923Y20382684D01*
X20145755Y20382129D01*
X20146680Y20381482D01*
X20147789Y20380557D01*
X20148898Y20379539D01*
X20150008Y20378339D01*
X20150932Y20376952D01*
X20151025Y20376767D01*
X20151302Y20376305D01*
X20151672Y20375471D01*
X20152135Y20374455D01*
X20152596Y20373253D01*
X20152966Y20371867D01*
X20153244Y20370296D01*
X20153336Y20368723D01*
Y20368538D01*
Y20367982D01*
X20153244Y20367244D01*
X20153059Y20366228D01*
X20152782Y20365025D01*
X20152319Y20363730D01*
X20151764Y20362436D01*
X20151025Y20361142D01*
X20150932Y20360957D01*
X20150655Y20360587D01*
X20150101Y20359940D01*
X20149361Y20359200D01*
X20148436Y20358368D01*
X20147327Y20357443D01*
X20146033Y20356612D01*
X20144460Y20355779D01*
X20144553D01*
X20144737Y20355687D01*
X20145015Y20355594D01*
X20145386Y20355502D01*
X20146402Y20355132D01*
X20147696Y20354578D01*
X20149176Y20353838D01*
X20150655Y20352913D01*
X20152042Y20351711D01*
X20153336Y20350323D01*
X20153429Y20350139D01*
X20153798Y20349585D01*
X20154353Y20348660D01*
X20154909Y20347458D01*
X20155463Y20345979D01*
X20156017Y20344221D01*
X20156387Y20342188D01*
X20156480Y20339969D01*
Y20339877D01*
Y20339600D01*
Y20339137D01*
X20156387Y20338582D01*
X20156294Y20337843D01*
X20156110Y20337012D01*
X20155925Y20336086D01*
X20155740Y20335069D01*
X20155000Y20332851D01*
X20154446Y20331648D01*
X20153891Y20330539D01*
X20153151Y20329337D01*
X20152319Y20328136D01*
X20151395Y20326933D01*
X20150285Y20325822D01*
X20150192Y20325731D01*
X20150008Y20325546D01*
X20149638Y20325269D01*
X20149176Y20324899D01*
X20148621Y20324437D01*
X20147881Y20323975D01*
X20147049Y20323421D01*
X20146033Y20322957D01*
X20145015Y20322403D01*
X20143813Y20321848D01*
X20142612Y20321387D01*
X20141225Y20320923D01*
X20139745Y20320554D01*
X20138173Y20320276D01*
X20136601Y20320091D01*
X20134845Y20320000D01*
X20134013D01*
X20133458Y20320091D01*
X20132718Y20320184D01*
X20131886Y20320276D01*
X20130962Y20320461D01*
X20129945Y20320647D01*
X20127727Y20321201D01*
X20125414Y20322125D01*
X20124213Y20322681D01*
X20123103Y20323328D01*
X20121994Y20324159D01*
X20120885Y20324991D01*
X20120792Y20325084D01*
X20120607Y20325269D01*
X20120329Y20325546D01*
X20120052Y20325916D01*
X20119591Y20326378D01*
X20119127Y20327025D01*
X20118573Y20327673D01*
X20118018Y20328505D01*
X20117464Y20329430D01*
X20116908Y20330354D01*
X20115891Y20332573D01*
X20115059Y20335162D01*
X20114783Y20336548D01*
X20114597Y20338028D01*
X20122456Y20339046D01*
Y20338953D01*
X20122548Y20338766D01*
X20122641Y20338397D01*
X20122733Y20337935D01*
X20122826Y20337379D01*
X20123010Y20336732D01*
X20123473Y20335345D01*
X20124120Y20333682D01*
X20124953Y20332111D01*
X20125877Y20330630D01*
X20126987Y20329337D01*
X20127171Y20329243D01*
X20127541Y20328876D01*
X20128281Y20328412D01*
X20129205Y20327950D01*
X20130315Y20327396D01*
X20131702Y20326933D01*
X20133273Y20326562D01*
X20134937Y20326471D01*
X20135492D01*
X20135863Y20326562D01*
X20136879Y20326656D01*
X20138173Y20326933D01*
X20139653Y20327396D01*
X20141225Y20328043D01*
X20142796Y20328967D01*
X20144275Y20330261D01*
X20144460Y20330446D01*
X20144923Y20331001D01*
X20145477Y20331833D01*
X20146217Y20332944D01*
X20146957Y20334329D01*
X20147511Y20335901D01*
X20147974Y20337750D01*
X20148158Y20339784D01*
Y20339877D01*
Y20340062D01*
Y20340340D01*
X20148067Y20340709D01*
X20147974Y20341727D01*
X20147696Y20342928D01*
X20147327Y20344408D01*
X20146680Y20345886D01*
X20145755Y20347366D01*
X20144553Y20348753D01*
X20144368Y20348936D01*
X20143906Y20349307D01*
X20143166Y20349863D01*
X20142149Y20350510D01*
X20140855Y20351157D01*
X20139284Y20351711D01*
X20137526Y20352081D01*
X20135585Y20352266D01*
X20134752D01*
X20134105Y20352173D01*
X20133273Y20352081D01*
X20132349Y20351897D01*
X20131239Y20351711D01*
X20130037Y20351434D01*
X20130962Y20358368D01*
X20131424D01*
X20131795Y20358276D01*
X20132996D01*
X20134013Y20358459D01*
X20135216Y20358646D01*
X20136601Y20358923D01*
X20138173Y20359386D01*
X20139653Y20360033D01*
X20141225Y20360864D01*
X20141318D01*
X20141409Y20360957D01*
X20141872Y20361327D01*
X20142519Y20361974D01*
X20143259Y20362807D01*
X20143999Y20364008D01*
X20144646Y20365395D01*
X20145108Y20366966D01*
X20145293Y20367891D01*
Y20368909D01*
Y20369000D01*
Y20369093D01*
Y20369649D01*
X20145108Y20370387D01*
X20144923Y20371404D01*
X20144553Y20372514D01*
X20144090Y20373717D01*
X20143352Y20374918D01*
X20142334Y20376027D01*
X20142241Y20376120D01*
X20141779Y20376489D01*
X20141132Y20376952D01*
X20140300Y20377505D01*
X20139191Y20377969D01*
X20137897Y20378432D01*
X20136417Y20378801D01*
X20134752Y20378893D01*
X20134013D01*
X20133182Y20378708D01*
X20132071Y20378523D01*
X20130869Y20378154D01*
X20129668Y20377692D01*
X20128374Y20376952D01*
X20127171Y20376027D01*
X20127078Y20375935D01*
X20126709Y20375471D01*
X20126154Y20374825D01*
X20125507Y20373901D01*
X20124860Y20372699D01*
X20124213Y20371219D01*
X20123659Y20369463D01*
X20123288Y20367429D01*
X20115430Y20368816D01*
Y20368909D01*
X20115521Y20369185D01*
X20115614Y20369556D01*
X20115707Y20370110D01*
X20115891Y20370757D01*
X20116170Y20371497D01*
X20116724Y20373253D01*
X20117648Y20375287D01*
X20118758Y20377321D01*
X20120145Y20379263D01*
X20121901Y20381020D01*
X20121994Y20381113D01*
X20122179Y20381206D01*
X20122456Y20381390D01*
X20122826Y20381667D01*
X20123288Y20382037D01*
X20123935Y20382407D01*
X20124582Y20382776D01*
X20125414Y20383240D01*
X20127264Y20383978D01*
X20129390Y20384718D01*
X20131886Y20385181D01*
X20133182Y20385365D01*
X20135492D01*
X20136510Y20385274D01*
D02*
G37*
G36*
X20083717Y20384995D02*
X20084549D01*
X20086490Y20384903D01*
X20088524Y20384625D01*
X20090742Y20384348D01*
X20092776Y20383887D01*
X20093794Y20383607D01*
X20094627Y20383331D01*
X20094719D01*
X20094810Y20383240D01*
X20095366Y20382961D01*
X20096198Y20382591D01*
X20097215Y20381944D01*
X20098325Y20381113D01*
X20099527Y20380003D01*
X20100636Y20378708D01*
X20101746Y20377229D01*
Y20377138D01*
X20101839Y20377045D01*
X20102208Y20376489D01*
X20102579Y20375565D01*
X20103133Y20374364D01*
X20103595Y20372977D01*
X20104057Y20371312D01*
X20104333Y20369556D01*
X20104427Y20367615D01*
Y20367522D01*
Y20367336D01*
Y20366966D01*
X20104333Y20366504D01*
Y20365857D01*
X20104242Y20365210D01*
X20103873Y20363638D01*
X20103317Y20361789D01*
X20102579Y20359846D01*
X20101468Y20357906D01*
X20100729Y20356981D01*
X20099989Y20356058D01*
X20099896Y20355965D01*
X20099805Y20355872D01*
X20099527Y20355594D01*
X20099158Y20355318D01*
X20098695Y20354947D01*
X20098140Y20354578D01*
X20097400Y20354115D01*
X20096661Y20353560D01*
X20095737Y20353098D01*
X20094719Y20352637D01*
X20093610Y20352081D01*
X20092409Y20351619D01*
X20091022Y20351250D01*
X20089635Y20350787D01*
X20088062Y20350510D01*
X20086398Y20350232D01*
X20086583Y20350139D01*
X20086954Y20349954D01*
X20087508Y20349585D01*
X20088248Y20349216D01*
X20089911Y20348198D01*
X20090742Y20347551D01*
X20091483Y20346996D01*
X20091669Y20346811D01*
X20092130Y20346349D01*
X20092870Y20345609D01*
X20093794Y20344684D01*
X20094810Y20343390D01*
X20096013Y20342003D01*
X20097215Y20340340D01*
X20098511Y20338490D01*
X20109512Y20321107D01*
X20098972D01*
X20090558Y20334422D01*
Y20334514D01*
X20090375Y20334698D01*
X20090189Y20334978D01*
X20089911Y20335345D01*
X20089264Y20336363D01*
X20088432Y20337659D01*
X20087415Y20339046D01*
X20086398Y20340524D01*
X20085381Y20341911D01*
X20084456Y20343205D01*
X20084364Y20343298D01*
X20084087Y20343668D01*
X20083624Y20344221D01*
X20082977Y20344868D01*
X20081590Y20346255D01*
X20080852Y20346902D01*
X20080112Y20347458D01*
X20080019Y20347551D01*
X20079834Y20347643D01*
X20079465Y20347829D01*
X20078909Y20348105D01*
X20078354Y20348383D01*
X20077707Y20348660D01*
X20076228Y20349123D01*
X20076135D01*
X20075951Y20349216D01*
X20075581D01*
X20075117Y20349307D01*
X20074471Y20349400D01*
X20073732D01*
X20072714Y20349492D01*
X20061806D01*
Y20321107D01*
X20053299D01*
Y20385088D01*
X20082977D01*
X20083717Y20384995D01*
D02*
G37*
G36*
X10464801Y22465820D02*
X10435122D01*
X10434383Y22465913D01*
X10433551D01*
X10431609Y22466006D01*
X10429575Y22466283D01*
X10427356Y22466560D01*
X10425322Y22467023D01*
X10424305Y22467300D01*
X10423473Y22467578D01*
X10423380D01*
X10423288Y22467670D01*
X10422733Y22467947D01*
X10421901Y22468318D01*
X10420884Y22468965D01*
X10419775Y22469797D01*
X10418573Y22470906D01*
X10417463Y22472202D01*
X10416354Y22473680D01*
Y22473772D01*
X10416261Y22473865D01*
X10415892Y22474420D01*
X10415522Y22475343D01*
X10414967Y22476546D01*
X10414505Y22477933D01*
X10414042Y22479597D01*
X10413765Y22481354D01*
X10413673Y22483295D01*
Y22483388D01*
Y22483572D01*
Y22483943D01*
X10413765Y22484406D01*
Y22485052D01*
X10413858Y22485699D01*
X10414227Y22487271D01*
X10414782Y22489120D01*
X10415522Y22491061D01*
X10416631Y22493002D01*
X10417371Y22493929D01*
X10418110Y22494852D01*
X10418203Y22494945D01*
X10418295Y22495036D01*
X10418573Y22495316D01*
X10418943Y22495592D01*
X10419405Y22495963D01*
X10419960Y22496332D01*
X10420699Y22496794D01*
X10421439Y22497350D01*
X10422363Y22497810D01*
X10423380Y22498273D01*
X10424490Y22498828D01*
X10425692Y22499290D01*
X10427079Y22499660D01*
X10428466Y22500122D01*
X10430037Y22500400D01*
X10431702Y22500677D01*
X10431517Y22500771D01*
X10431147Y22500954D01*
X10430592Y22501324D01*
X10429852Y22501694D01*
X10428188Y22502711D01*
X10427356Y22503358D01*
X10426616Y22503912D01*
X10426432Y22504099D01*
X10425969Y22504559D01*
X10425230Y22505299D01*
X10424305Y22506224D01*
X10423288Y22507520D01*
X10422086Y22508907D01*
X10420884Y22510570D01*
X10419590Y22512419D01*
X10408588Y22529800D01*
X10419127D01*
X10427541Y22516487D01*
Y22516396D01*
X10427726Y22516209D01*
X10427911Y22515932D01*
X10428188Y22515562D01*
X10428835Y22514546D01*
X10429667Y22513251D01*
X10430684Y22511864D01*
X10431702Y22510385D01*
X10432719Y22508998D01*
X10433643Y22507704D01*
X10433736Y22507611D01*
X10434013Y22507240D01*
X10434475Y22506686D01*
X10435122Y22506039D01*
X10436509Y22504652D01*
X10437249Y22504005D01*
X10437989Y22503452D01*
X10438081Y22503358D01*
X10438266Y22503265D01*
X10438636Y22503081D01*
X10439190Y22502805D01*
X10439745Y22502525D01*
X10440392Y22502249D01*
X10441872Y22501787D01*
X10441964D01*
X10442149Y22501694D01*
X10442519D01*
X10442981Y22501602D01*
X10443628Y22501509D01*
X10444368D01*
X10445385Y22501418D01*
X10456295D01*
Y22529800D01*
X10464801D01*
Y22465820D01*
D02*
G37*
G36*
X10381868Y22479782D02*
X10381960Y22479875D01*
X10382422Y22480244D01*
X10382977Y22480798D01*
X10383902Y22481445D01*
X10384919Y22482278D01*
X10386213Y22483203D01*
X10387692Y22484219D01*
X10389357Y22485237D01*
X10389449D01*
X10389542Y22485329D01*
X10390096Y22485699D01*
X10391021Y22486162D01*
X10392130Y22486716D01*
X10393425Y22487363D01*
X10394812Y22488011D01*
X10396198Y22488658D01*
X10397585Y22489214D01*
Y22481631D01*
X10397493D01*
X10397308Y22481445D01*
X10396938Y22481354D01*
X10396476Y22481076D01*
X10395921Y22480798D01*
X10395274Y22480429D01*
X10393702Y22479504D01*
X10391853Y22478488D01*
X10390004Y22477193D01*
X10388062Y22475714D01*
X10386121Y22474142D01*
X10386028Y22474049D01*
X10385936Y22473956D01*
X10385658Y22473680D01*
X10385289Y22473402D01*
X10384456Y22472478D01*
X10383347Y22471368D01*
X10382238Y22470074D01*
X10381036Y22468594D01*
X10380019Y22467116D01*
X10379094Y22465544D01*
X10374009D01*
Y22529800D01*
X10381868D01*
Y22479782D01*
D02*
G37*
G36*
X9163517Y23079916D02*
X9164257Y23079825D01*
X9165089Y23079640D01*
X9166013Y23079456D01*
X9167030Y23079269D01*
X9169249Y23078529D01*
X9170451Y23077975D01*
X9171561Y23077422D01*
X9172763Y23076682D01*
X9173965Y23075848D01*
X9175167Y23074924D01*
X9176276Y23073814D01*
X9176368Y23073721D01*
X9176553Y23073538D01*
X9176831Y23073167D01*
X9177201Y23072705D01*
X9177663Y23072151D01*
X9178125Y23071411D01*
X9178680Y23070580D01*
X9179142Y23069562D01*
X9179697Y23068546D01*
X9180252Y23067343D01*
X9180714Y23066141D01*
X9181176Y23064754D01*
X9181546Y23063275D01*
X9181823Y23061703D01*
X9182008Y23060130D01*
X9182101Y23058376D01*
Y23057542D01*
X9182008Y23056989D01*
X9181916Y23056248D01*
X9181823Y23055415D01*
X9181638Y23054492D01*
X9181454Y23053474D01*
X9180899Y23051256D01*
X9179974Y23048944D01*
X9179420Y23047742D01*
X9178772Y23046632D01*
X9177940Y23045523D01*
X9177108Y23044414D01*
X9177016Y23044321D01*
X9176831Y23044138D01*
X9176553Y23043858D01*
X9176184Y23043582D01*
X9175721Y23043120D01*
X9175074Y23042657D01*
X9174427Y23042104D01*
X9173595Y23041548D01*
X9172670Y23040993D01*
X9171746Y23040437D01*
X9169527Y23039421D01*
X9166938Y23038589D01*
X9165551Y23038312D01*
X9164072Y23038127D01*
X9163055Y23045985D01*
X9163147D01*
X9163332Y23046078D01*
X9163702Y23046172D01*
X9164164Y23046263D01*
X9164719Y23046355D01*
X9165366Y23046539D01*
X9166753Y23047003D01*
X9168417Y23047650D01*
X9169989Y23048482D01*
X9171468Y23049406D01*
X9172763Y23050516D01*
X9172855Y23050700D01*
X9173225Y23051071D01*
X9173687Y23051810D01*
X9174150Y23052734D01*
X9174704Y23053844D01*
X9175167Y23055231D01*
X9175536Y23056802D01*
X9175629Y23058467D01*
Y23059023D01*
X9175536Y23059392D01*
X9175444Y23060410D01*
X9175167Y23061703D01*
X9174704Y23063182D01*
X9174057Y23064754D01*
X9173133Y23066325D01*
X9171838Y23067805D01*
X9171653Y23067990D01*
X9171098Y23068452D01*
X9170266Y23069006D01*
X9169157Y23069746D01*
X9167770Y23070486D01*
X9166198Y23071040D01*
X9164349Y23071504D01*
X9162315Y23071687D01*
X9162223D01*
X9162038D01*
X9161760D01*
X9161391Y23071596D01*
X9160374Y23071504D01*
X9159172Y23071227D01*
X9157692Y23070856D01*
X9156213Y23070209D01*
X9154734Y23069286D01*
X9153347Y23068083D01*
X9153162Y23067899D01*
X9152792Y23067435D01*
X9152237Y23066696D01*
X9151590Y23065678D01*
X9150943Y23064384D01*
X9150388Y23062813D01*
X9150019Y23061057D01*
X9149834Y23059114D01*
Y23058282D01*
X9149926Y23057635D01*
X9150019Y23056802D01*
X9150203Y23055878D01*
X9150388Y23054768D01*
X9150666Y23053568D01*
X9143732Y23054492D01*
Y23054955D01*
X9143824Y23055324D01*
Y23056526D01*
X9143639Y23057542D01*
X9143454Y23058745D01*
X9143177Y23060130D01*
X9142715Y23061703D01*
X9142067Y23063182D01*
X9141235Y23064754D01*
Y23064847D01*
X9141143Y23064938D01*
X9140773Y23065401D01*
X9140126Y23066049D01*
X9139294Y23066788D01*
X9138092Y23067528D01*
X9136705Y23068175D01*
X9135133Y23068637D01*
X9134209Y23068822D01*
X9133192D01*
X9133099D01*
X9133007D01*
X9132452D01*
X9131712Y23068637D01*
X9130695Y23068452D01*
X9129586Y23068083D01*
X9128384Y23067619D01*
X9127182Y23066881D01*
X9126072Y23065865D01*
X9125980Y23065771D01*
X9125610Y23065309D01*
X9125148Y23064662D01*
X9124593Y23063831D01*
X9124131Y23062720D01*
X9123669Y23061426D01*
X9123299Y23059947D01*
X9123206Y23058282D01*
Y23057542D01*
X9123391Y23056711D01*
X9123576Y23055602D01*
X9123946Y23054399D01*
X9124408Y23053197D01*
X9125148Y23051903D01*
X9126072Y23050700D01*
X9126165Y23050607D01*
X9126627Y23050240D01*
X9127274Y23049684D01*
X9128199Y23049037D01*
X9129401Y23048390D01*
X9130880Y23047742D01*
X9132637Y23047188D01*
X9134671Y23046819D01*
X9133284Y23038959D01*
X9133192D01*
X9132914Y23039050D01*
X9132544Y23039143D01*
X9131990Y23039236D01*
X9131342Y23039421D01*
X9130603Y23039699D01*
X9128846Y23040253D01*
X9126812Y23041177D01*
X9124778Y23042287D01*
X9122836Y23043674D01*
X9121080Y23045432D01*
X9120987Y23045523D01*
X9120895Y23045708D01*
X9120710Y23045985D01*
X9120433Y23046355D01*
X9120063Y23046819D01*
X9119693Y23047466D01*
X9119323Y23048112D01*
X9118861Y23048944D01*
X9118121Y23050793D01*
X9117382Y23052921D01*
X9116919Y23055415D01*
X9116734Y23056711D01*
Y23059023D01*
X9116827Y23060039D01*
X9117012Y23061241D01*
X9117289Y23062720D01*
X9117751Y23064384D01*
X9118306Y23066049D01*
X9119046Y23067712D01*
Y23067805D01*
X9119138Y23067899D01*
X9119416Y23068452D01*
X9119970Y23069286D01*
X9120618Y23070209D01*
X9121542Y23071320D01*
X9122559Y23072427D01*
X9123761Y23073538D01*
X9125148Y23074461D01*
X9125333Y23074554D01*
X9125795Y23074832D01*
X9126627Y23075201D01*
X9127644Y23075664D01*
X9128846Y23076126D01*
X9130233Y23076495D01*
X9131805Y23076775D01*
X9133376Y23076866D01*
X9133561D01*
X9134116D01*
X9134856Y23076775D01*
X9135873Y23076588D01*
X9137075Y23076311D01*
X9138369Y23075848D01*
X9139663Y23075294D01*
X9140958Y23074554D01*
X9141143Y23074461D01*
X9141513Y23074185D01*
X9142160Y23073630D01*
X9142899Y23072890D01*
X9143732Y23071967D01*
X9144656Y23070856D01*
X9145488Y23069562D01*
X9146320Y23067990D01*
Y23068083D01*
X9146413Y23068268D01*
X9146505Y23068546D01*
X9146598Y23068915D01*
X9146967Y23069933D01*
X9147522Y23071227D01*
X9148262Y23072705D01*
X9149186Y23074185D01*
X9150388Y23075572D01*
X9151775Y23076866D01*
X9151960Y23076958D01*
X9152515Y23077328D01*
X9153439Y23077882D01*
X9154641Y23078438D01*
X9156121Y23078992D01*
X9157877Y23079547D01*
X9159911Y23079916D01*
X9162130Y23080009D01*
X9162223D01*
X9162500D01*
X9162962D01*
X9163517Y23079916D01*
D02*
G37*
G36*
X9124593Y22995505D02*
X9144379D01*
Y23025552D01*
X9151960D01*
Y22995505D01*
X9180991D01*
Y22987000D01*
X9117012D01*
Y23030267D01*
X9124593D01*
Y22995505D01*
D02*
G37*
G36*
X6515101Y21411720D02*
X6471831D01*
Y21419302D01*
X6506595D01*
Y21439088D01*
X6476547D01*
Y21446671D01*
X6506595D01*
Y21475700D01*
X6515101D01*
Y21411720D01*
D02*
G37*
G36*
X6465175Y21475607D02*
Y21475238D01*
Y21474684D01*
X6465082Y21473944D01*
X6464990Y21473112D01*
X6464805Y21472186D01*
X6464620Y21471263D01*
X6464250Y21470245D01*
Y21470152D01*
X6464158Y21470061D01*
X6463973Y21469505D01*
X6463603Y21468674D01*
X6463048Y21467564D01*
X6462308Y21466270D01*
X6461384Y21464790D01*
X6460367Y21463312D01*
X6459072Y21461740D01*
Y21461647D01*
X6458888Y21461555D01*
X6458425Y21461000D01*
X6457593Y21460168D01*
X6456391Y21458966D01*
X6455004Y21457579D01*
X6453248Y21455914D01*
X6451121Y21454066D01*
X6448810Y21452124D01*
X6448717Y21452032D01*
X6448348Y21451755D01*
X6447793Y21451292D01*
X6447146Y21450739D01*
X6446313Y21449998D01*
X6445296Y21449165D01*
X6444279Y21448241D01*
X6443078Y21447224D01*
X6440766Y21445004D01*
X6438455Y21442786D01*
X6437345Y21441676D01*
X6436328Y21440567D01*
X6435404Y21439549D01*
X6434664Y21438533D01*
Y21438441D01*
X6434479Y21438348D01*
X6434294Y21438071D01*
X6434109Y21437701D01*
X6433462Y21436684D01*
X6432722Y21435481D01*
X6432075Y21434003D01*
X6431428Y21432431D01*
X6431058Y21430675D01*
X6430873Y21429010D01*
Y21428918D01*
Y21428825D01*
X6430966Y21428271D01*
X6431058Y21427345D01*
X6431336Y21426329D01*
X6431705Y21425035D01*
X6432353Y21423740D01*
X6433185Y21422446D01*
X6434294Y21421152D01*
X6434479Y21420967D01*
X6434941Y21420596D01*
X6435589Y21420135D01*
X6436606Y21419489D01*
X6437900Y21418933D01*
X6439379Y21418378D01*
X6441136Y21418008D01*
X6443078Y21417915D01*
X6443632D01*
X6444002Y21418008D01*
X6445112Y21418102D01*
X6446406Y21418378D01*
X6447793Y21418748D01*
X6449365Y21419395D01*
X6450844Y21420227D01*
X6452231Y21421336D01*
X6452416Y21421523D01*
X6452785Y21421983D01*
X6453340Y21422723D01*
X6453895Y21423833D01*
X6454542Y21425127D01*
X6455097Y21426791D01*
X6455467Y21428641D01*
X6455652Y21430766D01*
X6463695Y21429935D01*
Y21429843D01*
X6463603Y21429565D01*
Y21429103D01*
X6463510Y21428456D01*
X6463325Y21427716D01*
X6463140Y21426884D01*
X6462863Y21425867D01*
X6462586Y21424850D01*
X6461846Y21422630D01*
X6460737Y21420412D01*
X6460089Y21419302D01*
X6459257Y21418193D01*
X6458425Y21417175D01*
X6457501Y21416252D01*
X6457408Y21416159D01*
X6457223Y21416068D01*
X6456946Y21415788D01*
X6456484Y21415512D01*
X6455929Y21415141D01*
X6455282Y21414772D01*
X6454542Y21414310D01*
X6453618Y21413847D01*
X6452601Y21413385D01*
X6451491Y21412923D01*
X6450289Y21412553D01*
X6448995Y21412183D01*
X6447608Y21411906D01*
X6446129Y21411629D01*
X6444557Y21411536D01*
X6442893Y21411444D01*
X6441968D01*
X6441321Y21411536D01*
X6440581Y21411629D01*
X6439657Y21411720D01*
X6438640Y21411906D01*
X6437623Y21412091D01*
X6435219Y21412738D01*
X6432815Y21413663D01*
X6431613Y21414218D01*
X6430411Y21414865D01*
X6429302Y21415697D01*
X6428285Y21416621D01*
X6428192Y21416714D01*
X6428007Y21416806D01*
X6427822Y21417175D01*
X6427452Y21417546D01*
X6426990Y21418008D01*
X6426528Y21418655D01*
X6426066Y21419302D01*
X6425511Y21420135D01*
X6424586Y21421890D01*
X6423662Y21424110D01*
X6423292Y21425220D01*
X6423107Y21426514D01*
X6422922Y21427809D01*
X6422830Y21429195D01*
Y21429379D01*
Y21429843D01*
X6422922Y21430582D01*
X6423015Y21431599D01*
X6423199Y21432709D01*
X6423569Y21434003D01*
X6423939Y21435390D01*
X6424494Y21436777D01*
X6424586Y21436961D01*
X6424771Y21437424D01*
X6425141Y21438164D01*
X6425696Y21439182D01*
X6426435Y21440289D01*
X6427360Y21441676D01*
X6428469Y21443063D01*
X6429764Y21444637D01*
X6429949Y21444820D01*
X6430411Y21445375D01*
X6430873Y21445837D01*
X6431336Y21446300D01*
X6431890Y21446854D01*
X6432630Y21447594D01*
X6433370Y21448334D01*
X6434294Y21449165D01*
X6435219Y21450090D01*
X6436328Y21451106D01*
X6437530Y21452124D01*
X6438825Y21453326D01*
X6440304Y21454527D01*
X6441783Y21455823D01*
X6441876Y21455914D01*
X6442061Y21456100D01*
X6442430Y21456377D01*
X6442893Y21456747D01*
X6443447Y21457301D01*
X6444095Y21457857D01*
X6445574Y21459059D01*
X6447146Y21460446D01*
X6448625Y21461832D01*
X6449919Y21463034D01*
X6450474Y21463496D01*
X6450936Y21463959D01*
X6451029Y21464050D01*
X6451306Y21464330D01*
X6451676Y21464697D01*
X6452138Y21465253D01*
X6452601Y21465900D01*
X6453155Y21466548D01*
X6454265Y21468118D01*
X6422737D01*
Y21475700D01*
X6465175D01*
Y21475607D01*
D02*
G37*
G36*
X6553201Y23583421D02*
X6509931D01*
Y23591003D01*
X6544695D01*
Y23610788D01*
X6514647D01*
Y23618370D01*
X6544695D01*
Y23647401D01*
X6553201D01*
Y23583421D01*
D02*
G37*
G36*
X6480438Y23597382D02*
X6480530Y23597475D01*
X6480993Y23597844D01*
X6481547Y23598399D01*
X6482472Y23599046D01*
X6483489Y23599878D01*
X6484783Y23600803D01*
X6486263Y23601820D01*
X6487927Y23602837D01*
X6488019D01*
X6488112Y23602930D01*
X6488666Y23603299D01*
X6489591Y23603761D01*
X6490701Y23604317D01*
X6491995Y23604964D01*
X6493382Y23605611D01*
X6494769Y23606258D01*
X6496155Y23606813D01*
Y23599231D01*
X6496063D01*
X6495878Y23599046D01*
X6495508Y23598953D01*
X6495046Y23598676D01*
X6494491Y23598399D01*
X6493844Y23598029D01*
X6492272Y23597105D01*
X6490423Y23596088D01*
X6488574Y23594794D01*
X6486632Y23593314D01*
X6484691Y23591742D01*
X6484598Y23591650D01*
X6484506Y23591557D01*
X6484229Y23591280D01*
X6483859Y23591003D01*
X6483027Y23590079D01*
X6481917Y23588969D01*
X6480808Y23587674D01*
X6479606Y23586195D01*
X6478589Y23584715D01*
X6477664Y23583144D01*
X6472579D01*
Y23647401D01*
X6480438D01*
Y23597382D01*
D02*
G37*
G36*
X13319424Y23952107D02*
X13320349D01*
X13321274Y23952016D01*
X13322476Y23951923D01*
X13323677Y23951738D01*
X13326360Y23951276D01*
X13329317Y23950629D01*
X13332275Y23949704D01*
X13335143Y23948410D01*
X13335234Y23948318D01*
X13335512Y23948225D01*
X13335883Y23948039D01*
X13336343Y23947670D01*
X13336990Y23947301D01*
X13337730Y23946838D01*
X13339395Y23945636D01*
X13341245Y23944064D01*
X13343092Y23942216D01*
X13344942Y23940089D01*
X13346513Y23937593D01*
X13346606Y23937500D01*
X13346700Y23937222D01*
X13346884Y23936853D01*
X13347160Y23936391D01*
X13347440Y23935651D01*
X13347716Y23934911D01*
X13348087Y23933987D01*
X13348456Y23932970D01*
X13348825Y23931860D01*
X13349194Y23930659D01*
X13349750Y23928070D01*
X13350212Y23925111D01*
X13350397Y23922060D01*
Y23921136D01*
X13350305Y23920488D01*
X13350212Y23919656D01*
X13350121Y23918639D01*
X13350027Y23917622D01*
X13349750Y23916420D01*
X13349194Y23913924D01*
X13348363Y23911150D01*
X13347807Y23909763D01*
X13347160Y23908469D01*
X13346329Y23907175D01*
X13345497Y23905881D01*
X13345406Y23905788D01*
X13345312Y23905603D01*
X13345035Y23905232D01*
X13344572Y23904771D01*
X13344110Y23904309D01*
X13343463Y23903661D01*
X13342723Y23903014D01*
X13341985Y23902275D01*
X13341058Y23901535D01*
X13339951Y23900795D01*
X13338840Y23899963D01*
X13337637Y23899223D01*
X13336250Y23898576D01*
X13334865Y23897836D01*
X13333385Y23897282D01*
X13331721Y23896727D01*
X13329781Y23905048D01*
X13329872D01*
X13330057Y23905141D01*
X13330428Y23905325D01*
X13330888Y23905510D01*
X13331444Y23905695D01*
X13332182Y23905972D01*
X13333662Y23906712D01*
X13335327Y23907637D01*
X13336990Y23908746D01*
X13338564Y23910133D01*
X13339951Y23911613D01*
X13340135Y23911797D01*
X13340504Y23912352D01*
X13340967Y23913277D01*
X13341614Y23914479D01*
X13342169Y23916051D01*
X13342723Y23917807D01*
X13343092Y23919934D01*
X13343185Y23922244D01*
Y23922984D01*
X13343092Y23923447D01*
Y23924094D01*
X13343001Y23924834D01*
X13342723Y23926590D01*
X13342354Y23928532D01*
X13341705Y23930566D01*
X13340782Y23932693D01*
X13339580Y23934634D01*
Y23934727D01*
X13339395Y23934819D01*
X13338933Y23935466D01*
X13338193Y23936298D01*
X13337083Y23937315D01*
X13335696Y23938518D01*
X13334125Y23939627D01*
X13332182Y23940643D01*
X13330057Y23941568D01*
X13329964D01*
X13329781Y23941661D01*
X13329501Y23941753D01*
X13329041Y23941846D01*
X13328485Y23942030D01*
X13327838Y23942216D01*
X13326266Y23942493D01*
X13324417Y23942863D01*
X13322383Y23943233D01*
X13320164Y23943417D01*
X13317760Y23943510D01*
X13317668D01*
X13317390D01*
X13316928D01*
X13316373D01*
X13315726Y23943417D01*
X13314894D01*
X13313969Y23943324D01*
X13312953Y23943233D01*
X13310735Y23942955D01*
X13308330Y23942493D01*
X13305927Y23941937D01*
X13303522Y23941199D01*
X13303430D01*
X13303246Y23941106D01*
X13302966Y23940921D01*
X13302505Y23940736D01*
X13301396Y23940181D01*
X13300101Y23939349D01*
X13298622Y23938332D01*
X13297050Y23937038D01*
X13295663Y23935559D01*
X13294370Y23933801D01*
Y23933710D01*
X13294276Y23933525D01*
X13294092Y23933247D01*
X13293907Y23932877D01*
X13293723Y23932414D01*
X13293443Y23931860D01*
X13292889Y23930566D01*
X13292336Y23928902D01*
X13291873Y23927052D01*
X13291502Y23925018D01*
X13291409Y23922893D01*
Y23922244D01*
X13291502Y23921690D01*
Y23921043D01*
X13291595Y23920396D01*
X13291965Y23918732D01*
X13292427Y23916789D01*
X13293167Y23914848D01*
X13294183Y23912814D01*
X13294739Y23911797D01*
X13295477Y23910873D01*
X13295570Y23910780D01*
X13295663Y23910687D01*
X13295941Y23910411D01*
X13296217Y23910040D01*
X13296680Y23909671D01*
X13297235Y23909209D01*
X13297791Y23908653D01*
X13298529Y23908192D01*
X13299362Y23907637D01*
X13300285Y23906990D01*
X13301212Y23906435D01*
X13302319Y23905881D01*
X13303522Y23905418D01*
X13304816Y23904956D01*
X13306203Y23904494D01*
X13307683Y23904124D01*
X13305556Y23895618D01*
X13305464D01*
X13305093Y23895711D01*
X13304539Y23895895D01*
X13303799Y23896172D01*
X13302966Y23896449D01*
X13301950Y23896820D01*
X13300841Y23897282D01*
X13299638Y23897836D01*
X13297050Y23899130D01*
X13294461Y23900795D01*
X13293167Y23901813D01*
X13291873Y23902829D01*
X13290762Y23903938D01*
X13289655Y23905232D01*
X13289561Y23905325D01*
X13289375Y23905510D01*
X13289191Y23905972D01*
X13288821Y23906435D01*
X13288359Y23907175D01*
X13287897Y23907915D01*
X13287434Y23908931D01*
X13286972Y23909949D01*
X13286418Y23911150D01*
X13285954Y23912445D01*
X13285493Y23913832D01*
X13285031Y23915311D01*
X13284660Y23916882D01*
X13284476Y23918547D01*
X13284291Y23920303D01*
X13284200Y23922153D01*
Y23923170D01*
X13284291Y23923909D01*
Y23924741D01*
X13284384Y23925758D01*
X13284569Y23926868D01*
X13284753Y23928162D01*
X13285216Y23930843D01*
X13285954Y23933617D01*
X13286972Y23936391D01*
X13287621Y23937685D01*
X13288359Y23938980D01*
X13288452Y23939072D01*
X13288544Y23939256D01*
X13288821Y23939627D01*
X13289191Y23939996D01*
X13289561Y23940552D01*
X13290115Y23941199D01*
X13290762Y23941937D01*
X13291502Y23942677D01*
X13292336Y23943417D01*
X13293167Y23944250D01*
X13295293Y23945914D01*
X13297791Y23947485D01*
X13300563Y23948872D01*
X13300656D01*
X13300932Y23949057D01*
X13301396Y23949150D01*
X13301950Y23949426D01*
X13302690Y23949612D01*
X13303613Y23949889D01*
X13304633Y23950259D01*
X13305740Y23950537D01*
X13306943Y23950813D01*
X13308330Y23951184D01*
X13311195Y23951646D01*
X13314432Y23952016D01*
X13317760Y23952200D01*
X13317853D01*
X13318224D01*
X13318777D01*
X13319424Y23952107D01*
D02*
G37*
G36*
X13333478Y23882304D02*
X13333662Y23882120D01*
X13333755Y23881749D01*
X13334033Y23881287D01*
X13334309Y23880733D01*
X13334680Y23880086D01*
X13335603Y23878513D01*
X13336621Y23876665D01*
X13337917Y23874815D01*
X13339395Y23872874D01*
X13340967Y23870932D01*
X13341058Y23870839D01*
X13341151Y23870747D01*
X13341429Y23870470D01*
X13341705Y23870100D01*
X13342632Y23869267D01*
X13343739Y23868158D01*
X13345035Y23867049D01*
X13346513Y23865846D01*
X13347993Y23864830D01*
X13349565Y23863905D01*
Y23858820D01*
X13285307D01*
Y23866679D01*
X13335327D01*
X13335234Y23866771D01*
X13334865Y23867233D01*
X13334309Y23867789D01*
X13333662Y23868713D01*
X13332831Y23869730D01*
X13331906Y23871024D01*
X13330888Y23872504D01*
X13329872Y23874168D01*
Y23874260D01*
X13329781Y23874353D01*
X13329410Y23874908D01*
X13328947Y23875832D01*
X13328394Y23876942D01*
X13327747Y23878236D01*
X13327098Y23879623D01*
X13326451Y23881010D01*
X13325896Y23882396D01*
X13333478D01*
Y23882304D01*
D02*
G37*
%LPC*%
G36*
X10493461Y22967659D02*
X10473305D01*
Y22946487D01*
X10492351D01*
X10493461Y22946579D01*
X10494755Y22946672D01*
X10496234Y22946764D01*
X10497714Y22946948D01*
X10499193Y22947226D01*
X10500487Y22947597D01*
X10500672Y22947688D01*
X10501042Y22947874D01*
X10501597Y22948151D01*
X10502336Y22948521D01*
X10503168Y22949075D01*
X10504001Y22949722D01*
X10504833Y22950555D01*
X10505480Y22951479D01*
X10505572Y22951572D01*
X10505757Y22951942D01*
X10506035Y22952496D01*
X10506404Y22953236D01*
X10506682Y22954068D01*
X10506959Y22954993D01*
X10507144Y22956102D01*
X10507237Y22957211D01*
Y22957304D01*
Y22957397D01*
X10507144Y22957951D01*
X10507052Y22958783D01*
X10506867Y22959892D01*
X10506404Y22961002D01*
X10505850Y22962297D01*
X10505018Y22963499D01*
X10503908Y22964700D01*
X10503723Y22964793D01*
X10503261Y22965163D01*
X10502521Y22965625D01*
X10501319Y22966180D01*
X10499933Y22966734D01*
X10498083Y22967197D01*
X10495957Y22967567D01*
X10493461Y22967659D01*
D02*
G37*
G36*
X10456295Y23637112D02*
X10437249D01*
X10436139Y23637019D01*
X10434845Y23636928D01*
X10433366Y23636835D01*
X10431886Y23636650D01*
X10430407Y23636372D01*
X10429113Y23636003D01*
X10428928Y23635912D01*
X10428558Y23635725D01*
X10428003Y23635449D01*
X10427264Y23635078D01*
X10426432Y23634525D01*
X10425599Y23633878D01*
X10424767Y23633044D01*
X10424120Y23632120D01*
X10424028Y23632028D01*
X10423843Y23631657D01*
X10423565Y23631104D01*
X10423196Y23630363D01*
X10422918Y23629530D01*
X10422641Y23628607D01*
X10422456Y23627496D01*
X10422363Y23626389D01*
Y23626295D01*
Y23626202D01*
X10422456Y23625648D01*
X10422548Y23624815D01*
X10422733Y23623708D01*
X10423196Y23622597D01*
X10423750Y23621303D01*
X10424582Y23620100D01*
X10425692Y23618900D01*
X10425877Y23618806D01*
X10426339Y23618437D01*
X10427079Y23617973D01*
X10428281Y23617419D01*
X10429667Y23616866D01*
X10431517Y23616403D01*
X10433643Y23616032D01*
X10436139Y23615939D01*
X10456295D01*
Y23637112D01*
D02*
G37*
G36*
Y23255003D02*
X10437249D01*
X10436139Y23254910D01*
X10434845Y23254819D01*
X10433366Y23254726D01*
X10431886Y23254541D01*
X10430407Y23254263D01*
X10429113Y23253894D01*
X10428928Y23253801D01*
X10428558Y23253616D01*
X10428003Y23253339D01*
X10427264Y23252969D01*
X10426432Y23252415D01*
X10425599Y23251767D01*
X10424767Y23250935D01*
X10424120Y23250011D01*
X10424028Y23249918D01*
X10423843Y23249548D01*
X10423565Y23248994D01*
X10423196Y23248254D01*
X10422918Y23247421D01*
X10422641Y23246497D01*
X10422456Y23245387D01*
X10422363Y23244278D01*
Y23244186D01*
Y23244093D01*
X10422456Y23243539D01*
X10422548Y23242706D01*
X10422733Y23241597D01*
X10423196Y23240488D01*
X10423750Y23239194D01*
X10424582Y23237991D01*
X10425692Y23236789D01*
X10425877Y23236697D01*
X10426339Y23236327D01*
X10427079Y23235864D01*
X10428281Y23235310D01*
X10429667Y23234755D01*
X10431517Y23234293D01*
X10433643Y23233923D01*
X10436139Y23233830D01*
X10456295D01*
Y23255003D01*
D02*
G37*
G36*
X10332959Y23285329D02*
X10332404D01*
X10332034Y23285236D01*
X10331109Y23285051D01*
X10329815Y23284682D01*
X10328428Y23284035D01*
X10326856Y23283110D01*
X10326117Y23282555D01*
X10325377Y23281816D01*
X10324637Y23281076D01*
X10323898Y23280151D01*
Y23280058D01*
X10323713Y23279874D01*
X10323528Y23279597D01*
X10323343Y23279134D01*
X10322973Y23278487D01*
X10322696Y23277655D01*
X10322326Y23276730D01*
X10321956Y23275621D01*
X10321679Y23274234D01*
X10321309Y23272755D01*
X10320939Y23270998D01*
X10320662Y23269148D01*
X10320477Y23266930D01*
X10320292Y23264619D01*
X10320107Y23262030D01*
Y23259164D01*
Y23259071D01*
Y23258978D01*
Y23258517D01*
Y23257684D01*
X10320200Y23256575D01*
Y23255373D01*
X10320292Y23253894D01*
X10320384Y23252322D01*
X10320569Y23250565D01*
X10321032Y23247052D01*
X10321309Y23245296D01*
X10321679Y23243631D01*
X10322049Y23242059D01*
X10322603Y23240581D01*
X10323158Y23239285D01*
X10323805Y23238176D01*
Y23238084D01*
X10323990Y23237991D01*
X10324175Y23237714D01*
X10324453Y23237344D01*
X10325285Y23236513D01*
X10326302Y23235495D01*
X10327689Y23234570D01*
X10329260Y23233739D01*
X10330092Y23233369D01*
X10331017Y23233092D01*
X10332034Y23232999D01*
X10333051Y23232906D01*
X10333606D01*
X10333976Y23232999D01*
X10334993Y23233183D01*
X10336194Y23233461D01*
X10337581Y23234016D01*
X10339061Y23234848D01*
X10339800Y23235403D01*
X10340540Y23235957D01*
X10341187Y23236697D01*
X10341834Y23237529D01*
Y23237622D01*
X10342019Y23237807D01*
X10342204Y23238176D01*
X10342481Y23238638D01*
X10342759Y23239378D01*
X10343129Y23240210D01*
X10343406Y23241228D01*
X10343776Y23242429D01*
X10344146Y23243816D01*
X10344516Y23245387D01*
X10344885Y23247145D01*
X10345163Y23249086D01*
X10345440Y23251305D01*
X10345625Y23253709D01*
X10345717Y23256297D01*
X10345810Y23259164D01*
Y23259349D01*
Y23259811D01*
Y23260643D01*
X10345717Y23261752D01*
Y23262955D01*
X10345625Y23264433D01*
X10345533Y23266006D01*
X10345348Y23267670D01*
X10344885Y23271275D01*
X10344608Y23273032D01*
X10344238Y23274696D01*
X10343868Y23276268D01*
X10343314Y23277747D01*
X10342759Y23279042D01*
X10342112Y23280151D01*
Y23280244D01*
X10341927Y23280336D01*
X10341464Y23280983D01*
X10340632Y23281816D01*
X10339615Y23282739D01*
X10338228Y23283665D01*
X10336657Y23284497D01*
X10334900Y23285144D01*
X10333976Y23285236D01*
X10332959Y23285329D01*
D02*
G37*
G36*
X6115592Y22804829D02*
X6115038D01*
X6114668Y22804736D01*
X6113651Y22804645D01*
X6112449Y22804369D01*
X6110969Y22803905D01*
X6109490Y22803258D01*
X6108011Y22802335D01*
X6106624Y22801039D01*
X6106439Y22800854D01*
X6106069Y22800301D01*
X6105515Y22799467D01*
X6104775Y22798267D01*
X6104128Y22796786D01*
X6103573Y22795030D01*
X6103203Y22792903D01*
X6103018Y22790498D01*
Y22790407D01*
Y22790222D01*
Y22789851D01*
X6103111Y22789391D01*
Y22788744D01*
X6103203Y22788095D01*
X6103481Y22786617D01*
X6103850Y22784859D01*
X6104498Y22783009D01*
X6105422Y22781255D01*
X6106624Y22779681D01*
Y22779588D01*
X6106809Y22779497D01*
X6107271Y22779034D01*
X6108011Y22778387D01*
X6109028Y22777647D01*
X6110322Y22777000D01*
X6111802Y22776353D01*
X6113466Y22775891D01*
X6114390Y22775706D01*
X6115870D01*
X6116239Y22775800D01*
X6117256Y22775891D01*
X6118458Y22776260D01*
X6119938Y22776723D01*
X6121509Y22777554D01*
X6123081Y22778572D01*
X6123821Y22779312D01*
X6124561Y22780052D01*
Y22780144D01*
X6124745Y22780237D01*
X6124930Y22780515D01*
X6125115Y22780791D01*
X6125762Y22781715D01*
X6126410Y22783009D01*
X6127149Y22784583D01*
X6127796Y22786523D01*
X6128166Y22788744D01*
X6128351Y22791145D01*
Y22791238D01*
Y22791425D01*
Y22791701D01*
X6128259Y22792163D01*
Y22792719D01*
X6128166Y22793272D01*
X6127889Y22794659D01*
X6127427Y22796233D01*
X6126872Y22797896D01*
X6125947Y22799561D01*
X6124745Y22801039D01*
X6124561Y22801224D01*
X6124098Y22801595D01*
X6123266Y22802242D01*
X6122249Y22802888D01*
X6120862Y22803629D01*
X6119291Y22804276D01*
X6117534Y22804645D01*
X6115592Y22804829D01*
D02*
G37*
G36*
X6189095Y22797803D02*
X6170049D01*
X6168939Y22797711D01*
X6167645Y22797618D01*
X6166166Y22797527D01*
X6164686Y22797340D01*
X6163207Y22797064D01*
X6161913Y22796693D01*
X6161728Y22796600D01*
X6161358Y22796416D01*
X6160803Y22796140D01*
X6160064Y22795769D01*
X6159232Y22795215D01*
X6158399Y22794566D01*
X6157567Y22793735D01*
X6156920Y22792812D01*
X6156828Y22792719D01*
X6156643Y22792348D01*
X6156365Y22791794D01*
X6155996Y22791054D01*
X6155718Y22790222D01*
X6155441Y22789297D01*
X6155256Y22788188D01*
X6155163Y22787077D01*
Y22786986D01*
Y22786893D01*
X6155256Y22786339D01*
X6155348Y22785507D01*
X6155533Y22784396D01*
X6155996Y22783289D01*
X6156550Y22781993D01*
X6157382Y22780791D01*
X6158492Y22779588D01*
X6158677Y22779497D01*
X6159139Y22779128D01*
X6159879Y22778665D01*
X6161081Y22778110D01*
X6162467Y22777554D01*
X6164317Y22777094D01*
X6166443Y22776723D01*
X6168939Y22776631D01*
X6189095D01*
Y22797803D01*
D02*
G37*
G36*
X7242260Y22892569D02*
X7222105D01*
Y22871396D01*
X7241151D01*
X7242260Y22871489D01*
X7243554Y22871581D01*
X7245034Y22871674D01*
X7246513Y22871858D01*
X7247992Y22872136D01*
X7249287Y22872507D01*
X7249472Y22872598D01*
X7249841Y22872783D01*
X7250396Y22873061D01*
X7251136Y22873430D01*
X7251968Y22873985D01*
X7252800Y22874632D01*
X7253632Y22875464D01*
X7254279Y22876389D01*
X7254372Y22876482D01*
X7254557Y22876851D01*
X7254834Y22877406D01*
X7255204Y22878146D01*
X7255481Y22878978D01*
X7255759Y22879903D01*
X7255944Y22881012D01*
X7256036Y22882121D01*
Y22882214D01*
Y22882306D01*
X7255944Y22882861D01*
X7255851Y22883693D01*
X7255666Y22884802D01*
X7255204Y22885912D01*
X7254649Y22887206D01*
X7253817Y22888408D01*
X7252708Y22889610D01*
X7252523Y22889703D01*
X7252060Y22890073D01*
X7251321Y22890535D01*
X7250119Y22891089D01*
X7248732Y22891644D01*
X7246883Y22892107D01*
X7244756Y22892476D01*
X7242260Y22892569D01*
D02*
G37*
G36*
X7295792Y22893494D02*
X7295052D01*
X7294220Y22893307D01*
X7293111Y22893123D01*
X7291909Y22892754D01*
X7290615Y22892291D01*
X7289413Y22891553D01*
X7288211Y22890535D01*
X7288118Y22890442D01*
X7287748Y22890073D01*
X7287286Y22889426D01*
X7286824Y22888593D01*
X7286269Y22887576D01*
X7285807Y22886374D01*
X7285437Y22885080D01*
X7285345Y22883600D01*
Y22883508D01*
Y22883415D01*
X7285437Y22882861D01*
X7285529Y22882030D01*
X7285714Y22881012D01*
X7286084Y22879810D01*
X7286547Y22878609D01*
X7287286Y22877313D01*
X7288211Y22876204D01*
X7288303Y22876111D01*
X7288765Y22875742D01*
X7289413Y22875279D01*
X7290245Y22874817D01*
X7291354Y22874261D01*
X7292649Y22873801D01*
X7294128Y22873430D01*
X7295792Y22873338D01*
X7295977D01*
X7296532Y22873430D01*
X7297364Y22873523D01*
X7298473Y22873708D01*
X7299675Y22874077D01*
X7300877Y22874541D01*
X7302172Y22875279D01*
X7303281Y22876204D01*
X7303374Y22876295D01*
X7303743Y22876759D01*
X7304206Y22877313D01*
X7304760Y22878146D01*
X7305315Y22879163D01*
X7305777Y22880363D01*
X7306147Y22881750D01*
X7306240Y22883231D01*
Y22883324D01*
Y22883415D01*
Y22883971D01*
X7306055Y22884802D01*
X7305870Y22885818D01*
X7305500Y22886929D01*
X7304945Y22888132D01*
X7304206Y22889333D01*
X7303189Y22890535D01*
X7303096Y22890627D01*
X7302634Y22890997D01*
X7301987Y22891460D01*
X7301155Y22892014D01*
X7300045Y22892569D01*
X7298843Y22893031D01*
X7297364Y22893401D01*
X7295792Y22893494D01*
D02*
G37*
G36*
X7295515Y22866959D02*
X7294960D01*
X7294590Y22866866D01*
X7293573Y22866772D01*
X7292279Y22866496D01*
X7290799Y22866034D01*
X7289320Y22865387D01*
X7287748Y22864462D01*
X7286362Y22863260D01*
X7286177Y22863075D01*
X7285807Y22862613D01*
X7285252Y22861781D01*
X7284605Y22860764D01*
X7283865Y22859377D01*
X7283311Y22857805D01*
X7282941Y22856049D01*
X7282756Y22854108D01*
Y22853922D01*
Y22853552D01*
X7282848Y22852905D01*
X7282941Y22852074D01*
X7283126Y22851056D01*
X7283403Y22849947D01*
X7283773Y22848837D01*
X7284235Y22847635D01*
X7284328Y22847543D01*
X7284512Y22847079D01*
X7284882Y22846526D01*
X7285437Y22845879D01*
X7286084Y22845045D01*
X7286916Y22844214D01*
X7287841Y22843475D01*
X7288950Y22842735D01*
X7289135Y22842642D01*
X7289505Y22842458D01*
X7290152Y22842180D01*
X7290984Y22841904D01*
X7292001Y22841624D01*
X7293203Y22841348D01*
X7294498Y22841164D01*
X7295792Y22841071D01*
X7296347D01*
X7296717Y22841164D01*
X7297826Y22841257D01*
X7299121Y22841533D01*
X7300600Y22841995D01*
X7302172Y22842551D01*
X7303651Y22843475D01*
X7305130Y22844676D01*
X7305315Y22844861D01*
X7305685Y22845325D01*
X7306332Y22846156D01*
X7306979Y22847173D01*
X7307626Y22848466D01*
X7308274Y22850040D01*
X7308643Y22851888D01*
X7308828Y22853830D01*
Y22853922D01*
Y22854108D01*
Y22854384D01*
X7308736Y22854755D01*
X7308643Y22855771D01*
X7308366Y22857158D01*
X7307904Y22858545D01*
X7307257Y22860117D01*
X7306332Y22861688D01*
X7305038Y22863168D01*
X7304853Y22863353D01*
X7304391Y22863722D01*
X7303558Y22864371D01*
X7302449Y22865109D01*
X7301062Y22865756D01*
X7299398Y22866405D01*
X7297549Y22866772D01*
X7295515Y22866959D01*
D02*
G37*
G36*
X7205095Y22290913D02*
X7186049D01*
X7184939Y22290820D01*
X7183645Y22290729D01*
X7182166Y22290636D01*
X7180686Y22290450D01*
X7179207Y22290173D01*
X7177913Y22289803D01*
X7177728Y22289711D01*
X7177358Y22289526D01*
X7176803Y22289249D01*
X7176064Y22288879D01*
X7175232Y22288324D01*
X7174399Y22287677D01*
X7173567Y22286845D01*
X7172920Y22285921D01*
X7172828Y22285828D01*
X7172643Y22285458D01*
X7172365Y22284903D01*
X7171996Y22284163D01*
X7171718Y22283331D01*
X7171441Y22282407D01*
X7171256Y22281297D01*
X7171163Y22280188D01*
Y22280095D01*
Y22280003D01*
X7171256Y22279448D01*
X7171348Y22278616D01*
X7171533Y22277507D01*
X7171996Y22276398D01*
X7172550Y22275104D01*
X7173382Y22273901D01*
X7174492Y22272699D01*
X7174677Y22272606D01*
X7175139Y22272237D01*
X7175879Y22271774D01*
X7177081Y22271220D01*
X7178467Y22270665D01*
X7180317Y22270203D01*
X7182443Y22269833D01*
X7184939Y22269740D01*
X7205095D01*
Y22290913D01*
D02*
G37*
G36*
X6189095Y22289803D02*
X6170049D01*
X6168939Y22289711D01*
X6167645Y22289618D01*
X6166166Y22289526D01*
X6164686Y22289342D01*
X6163207Y22289064D01*
X6161913Y22288693D01*
X6161728Y22288602D01*
X6161358Y22288416D01*
X6160803Y22288139D01*
X6160064Y22287769D01*
X6159232Y22287215D01*
X6158399Y22286568D01*
X6157567Y22285735D01*
X6156920Y22284811D01*
X6156828Y22284718D01*
X6156643Y22284348D01*
X6156365Y22283794D01*
X6155996Y22283054D01*
X6155718Y22282222D01*
X6155441Y22281297D01*
X6155256Y22280188D01*
X6155163Y22279079D01*
Y22278986D01*
Y22278893D01*
X6155256Y22278339D01*
X6155348Y22277507D01*
X6155533Y22276398D01*
X6155996Y22275288D01*
X6156550Y22273993D01*
X6157382Y22272791D01*
X6158492Y22271590D01*
X6158677Y22271497D01*
X6159139Y22271127D01*
X6159879Y22270665D01*
X6161081Y22270110D01*
X6162467Y22269556D01*
X6164317Y22269093D01*
X6166443Y22268723D01*
X6168939Y22268631D01*
X6189095D01*
Y22289803D01*
D02*
G37*
G36*
X6114668Y22320129D02*
X6114205D01*
X6113836Y22320036D01*
X6112911Y22319943D01*
X6111709Y22319667D01*
X6110415Y22319112D01*
X6108935Y22318465D01*
X6107456Y22317448D01*
X6106717Y22316893D01*
X6106069Y22316153D01*
Y22316061D01*
X6105884Y22315968D01*
X6105515Y22315414D01*
X6104960Y22314490D01*
X6104220Y22313287D01*
X6103573Y22311716D01*
X6103018Y22309866D01*
X6102648Y22307739D01*
X6102464Y22305243D01*
Y22305151D01*
Y22304967D01*
Y22304596D01*
X6102556Y22304134D01*
Y22303580D01*
X6102648Y22302933D01*
X6102926Y22301453D01*
X6103296Y22299789D01*
X6103943Y22298032D01*
X6104867Y22296368D01*
X6106069Y22294797D01*
X6106254Y22294611D01*
X6106717Y22294148D01*
X6107456Y22293594D01*
X6108473Y22292854D01*
X6109768Y22292114D01*
X6111247Y22291560D01*
X6113004Y22291098D01*
X6114945Y22290913D01*
X6115500D01*
X6115870Y22291005D01*
X6116794Y22291098D01*
X6118089Y22291376D01*
X6119475Y22291837D01*
X6121047Y22292577D01*
X6122526Y22293501D01*
X6124006Y22294797D01*
X6124191Y22294981D01*
X6124561Y22295444D01*
X6125208Y22296275D01*
X6125855Y22297478D01*
X6126502Y22298865D01*
X6127149Y22300621D01*
X6127519Y22302562D01*
X6127704Y22304781D01*
Y22304967D01*
Y22305428D01*
X6127612Y22306261D01*
X6127519Y22307277D01*
X6127334Y22308479D01*
X6126964Y22309773D01*
X6126595Y22311160D01*
X6126040Y22312547D01*
X6125947Y22312732D01*
X6125670Y22313194D01*
X6125300Y22313841D01*
X6124745Y22314674D01*
X6124098Y22315506D01*
X6123266Y22316524D01*
X6122342Y22317355D01*
X6121232Y22318187D01*
X6121047Y22318280D01*
X6120677Y22318465D01*
X6120030Y22318834D01*
X6119198Y22319112D01*
X6118274Y22319482D01*
X6117164Y22319852D01*
X6115962Y22320036D01*
X6114668Y22320129D01*
D02*
G37*
G36*
X20095595Y23102603D02*
X20076549D01*
X20075439Y23102512D01*
X20074146Y23102419D01*
X20072665Y23102325D01*
X20071185Y23102141D01*
X20069707Y23101865D01*
X20068413Y23101494D01*
X20068228Y23101401D01*
X20067857Y23101216D01*
X20067303Y23100938D01*
X20066563Y23100569D01*
X20065732Y23100015D01*
X20064899Y23099367D01*
X20064067Y23098535D01*
X20063420Y23097610D01*
X20063329Y23097517D01*
X20063142Y23097148D01*
X20062865Y23096594D01*
X20062495Y23095854D01*
X20062218Y23095023D01*
X20061942Y23094096D01*
X20061755Y23092989D01*
X20061662Y23091878D01*
Y23091786D01*
Y23091693D01*
X20061755Y23091139D01*
X20061848Y23090308D01*
X20062033Y23089197D01*
X20062495Y23088087D01*
X20063049Y23086794D01*
X20063882Y23085591D01*
X20064992Y23084389D01*
X20065176Y23084297D01*
X20065639Y23083926D01*
X20066379Y23083466D01*
X20067581Y23082910D01*
X20068967Y23082355D01*
X20070818Y23081892D01*
X20072943Y23081523D01*
X20075439Y23081432D01*
X20095595D01*
Y23102603D01*
D02*
G37*
G36*
X20070195Y22722713D02*
X20051149D01*
X20050040Y22722620D01*
X20048746Y22722528D01*
X20047266Y22722435D01*
X20045786Y22722250D01*
X20044307Y22721973D01*
X20043013Y22721603D01*
X20042828Y22721510D01*
X20042458Y22721326D01*
X20041904Y22721049D01*
X20041164Y22720679D01*
X20040332Y22720123D01*
X20039499Y22719476D01*
X20038667Y22718645D01*
X20038020Y22717720D01*
X20037927Y22717628D01*
X20037743Y22717258D01*
X20037465Y22716702D01*
X20037096Y22715964D01*
X20036818Y22715131D01*
X20036542Y22714207D01*
X20036356Y22713097D01*
X20036263Y22711987D01*
Y22711896D01*
Y22711803D01*
X20036356Y22711247D01*
X20036449Y22710416D01*
X20036633Y22709306D01*
X20037096Y22708197D01*
X20037650Y22706903D01*
X20038483Y22705701D01*
X20039592Y22704498D01*
X20039777Y22704407D01*
X20040239Y22704037D01*
X20040979Y22703574D01*
X20042181Y22703020D01*
X20043567Y22702464D01*
X20045416Y22702003D01*
X20047543Y22701633D01*
X20050040Y22701540D01*
X20070195D01*
Y22722713D01*
D02*
G37*
G36*
X20012502Y22735841D02*
X19992348D01*
Y22707179D01*
X20012502Y22735841D01*
D02*
G37*
G36*
X20081960Y20377969D02*
X20061806D01*
Y20356796D01*
X20080852D01*
X20081960Y20356889D01*
X20083253Y20356981D01*
X20084734Y20357074D01*
X20086214Y20357259D01*
X20087692Y20357536D01*
X20088988Y20357906D01*
X20089172Y20357999D01*
X20089542Y20358183D01*
X20090096Y20358459D01*
X20090836Y20358830D01*
X20091669Y20359386D01*
X20092500Y20360033D01*
X20093332Y20360864D01*
X20093979Y20361789D01*
X20094072Y20361880D01*
X20094257Y20362251D01*
X20094534Y20362807D01*
X20094904Y20363547D01*
X20095181Y20364378D01*
X20095459Y20365302D01*
X20095644Y20366412D01*
X20095737Y20367522D01*
Y20367615D01*
Y20367706D01*
X20095644Y20368262D01*
X20095551Y20369093D01*
X20095366Y20370203D01*
X20094904Y20371312D01*
X20094350Y20372606D01*
X20093517Y20373808D01*
X20092409Y20375011D01*
X20092223Y20375104D01*
X20091760Y20375471D01*
X20091022Y20375935D01*
X20089819Y20376489D01*
X20088432Y20377045D01*
X20086583Y20377505D01*
X20084456Y20377876D01*
X20081960Y20377969D01*
D02*
G37*
G36*
X10456295Y22494113D02*
X10437249D01*
X10436139Y22494020D01*
X10434845Y22493929D01*
X10433366Y22493835D01*
X10431886Y22493649D01*
X10430407Y22493373D01*
X10429113Y22493002D01*
X10428928Y22492911D01*
X10428558Y22492726D01*
X10428003Y22492448D01*
X10427264Y22492079D01*
X10426432Y22491524D01*
X10425599Y22490877D01*
X10424767Y22490045D01*
X10424120Y22489120D01*
X10424028Y22489027D01*
X10423843Y22488658D01*
X10423565Y22488103D01*
X10423196Y22487363D01*
X10422918Y22486531D01*
X10422641Y22485606D01*
X10422456Y22484497D01*
X10422363Y22483388D01*
Y22483295D01*
Y22483203D01*
X10422456Y22482648D01*
X10422548Y22481816D01*
X10422733Y22480707D01*
X10423196Y22479597D01*
X10423750Y22478304D01*
X10424582Y22477101D01*
X10425692Y22475899D01*
X10425877Y22475806D01*
X10426339Y22475436D01*
X10427079Y22474974D01*
X10428281Y22474420D01*
X10429667Y22473865D01*
X10431517Y22473402D01*
X10433643Y22473033D01*
X10436139Y22472940D01*
X10456295D01*
Y22494113D01*
D02*
G37*
%LPD*%
D38*
X10062301Y22795799D02*
Y23025801D01*
Y22795799D02*
X10867299D01*
Y23025801D01*
X10062301D02*
X10867299D01*
Y23557799D02*
Y23787801D01*
X10062301D02*
X10867299D01*
X10062301Y23557799D02*
Y23787801D01*
Y23557799D02*
X10867299D01*
Y23176799D02*
Y23406801D01*
X10062301D02*
X10867299D01*
X10062301Y23176799D02*
Y23406801D01*
Y23176799D02*
X10867299D01*
X6600099Y22719598D02*
Y22949602D01*
X5795101D02*
X6600099D01*
X5795101Y22719598D02*
Y22949602D01*
Y22719598D02*
X6600099D01*
X6811101D02*
Y22949602D01*
Y22719598D02*
X7616099D01*
Y22949602D01*
X6811101D02*
X7616099D01*
Y22211600D02*
Y22441602D01*
X6811101D02*
X7616099D01*
X6811101Y22211600D02*
Y22441602D01*
Y22211600D02*
X7616099D01*
X6600099D02*
Y22441602D01*
X5795101D02*
X6600099D01*
X5795101Y22211600D02*
Y22441602D01*
Y22211600D02*
X6600099D01*
X20506599Y23024399D02*
Y23254401D01*
X19701601D02*
X20506599D01*
X19701601Y23024399D02*
Y23254401D01*
Y23024399D02*
X20506599D01*
X20481200Y22643399D02*
Y22873401D01*
X19676201D02*
X20481200D01*
X19676201Y22643399D02*
Y22873401D01*
Y22643399D02*
X20481200D01*
X19650801Y20204999D02*
Y20435001D01*
Y20204999D02*
X20455798D01*
Y20435001D01*
X19650801D02*
X20455798D01*
X10867299Y22414799D02*
Y22644801D01*
X10062301D02*
X10867299D01*
X10062301Y22414799D02*
Y22644801D01*
Y22414799D02*
X10867299D01*
X8702101Y21732001D02*
X9662099D01*
Y24241998D01*
X8702101D02*
X9662099D01*
X8702101Y21732001D02*
Y24241998D01*
X7770099Y20995702D02*
Y21955699D01*
X5260101D02*
X7770099D01*
X5260101Y20995702D02*
Y21955699D01*
Y20995702D02*
X7770099D01*
X7808199Y23167401D02*
Y24127399D01*
X5298201D02*
X7808199D01*
X5298201Y23167401D02*
Y24127399D01*
Y23167401D02*
X7808199D01*
%TF.MD5,ee385906b9e2fe107a9fca26366815ab*%
M02*
