%TF.GenerationSoftware,Altium Limited,Altium Designer,24.5.2 (23)*%
G04 Layer_Color=0*
%FSLAX45Y45*%
%MOMM*%
%TF.SameCoordinates,FC967B71-F2ED-4EDF-93A0-1D4715993869*%
%TF.FilePolarity,Positive*%
%TF.FileFunction,Other,Top_Component_Center*%
%TF.Part,Single*%
G01*
G75*
%TA.AperFunction,NonConductor*%
%ADD42C,0.10000*%
%ADD62C,0.05000*%
D42*
X10464800Y22860803D02*
Y22960802D01*
X10414803Y22910800D02*
X10514802D01*
X10464800Y23622803D02*
Y23722803D01*
X10414803Y23672800D02*
X10514802D01*
X10464800Y23241803D02*
Y23341801D01*
X10414803Y23291800D02*
X10514802D01*
X6197600Y22784602D02*
Y22884602D01*
X6147603Y22834599D02*
X6247602D01*
X7213600Y22784602D02*
Y22884602D01*
X7163603Y22834599D02*
X7263602D01*
X7213600Y22276604D02*
Y22376602D01*
X7163603Y22326601D02*
X7263602D01*
X6197600Y22276604D02*
Y22376602D01*
X6147603Y22326601D02*
X6247602D01*
X20104100Y23089403D02*
Y23189401D01*
X20054103Y23139400D02*
X20154102D01*
X20078700Y22708403D02*
Y22808401D01*
X20028703Y22758400D02*
X20128702D01*
X20053300Y20270003D02*
Y20370003D01*
X20003304Y20320000D02*
X20103302D01*
X10464800Y22479803D02*
Y22579802D01*
X10414803Y22529800D02*
X10514802D01*
X9132103Y22987000D02*
X9232102D01*
X9182100Y22937003D02*
Y23037003D01*
X6515100Y21425703D02*
Y21525702D01*
X6465103Y21475700D02*
X6565102D01*
X6553200Y23597403D02*
Y23697401D01*
X6503203Y23647400D02*
X6603202D01*
X13234198Y23952202D02*
X13334196D01*
X13284200Y23902199D02*
Y24002199D01*
D62*
X18897600Y25819904D02*
Y25919901D01*
X18847603Y25869901D02*
X18947601D01*
X14578809Y25822586D02*
Y25922586D01*
X14528810Y25872586D02*
X14628810D01*
%TF.MD5,468b7e3c32ac612d78e3ce3084e709c0*%
M02*
