%TF.GenerationSoftware,Altium Limited,Altium Designer,24.5.2 (23)*%
G04 Layer_Color=32896*
%FSLAX45Y45*%
%MOMM*%
%TF.SameCoordinates,FC967B71-F2ED-4EDF-93A0-1D4715993869*%
%TF.FilePolarity,Positive*%
%TF.FileFunction,Legend,Bot*%
%TF.Part,Single*%
G01*
G75*
%TA.AperFunction,NonConductor*%
%ADD38C,0.20000*%
%ADD42C,0.10000*%
D38*
X10817860Y16306784D02*
X10751215D01*
X10717892Y16256799D02*
X10684570D01*
X10701231D01*
Y16356767D01*
X10717892Y16340106D01*
X6245860Y15425404D02*
X6179215D01*
X6145892Y15375420D02*
X6112570D01*
X6129231D01*
Y15475388D01*
X6145892Y15458727D01*
X10817860Y13647404D02*
X10751215D01*
X10717892Y13597420D02*
X10684570D01*
X10701231D01*
Y13697388D01*
X10717892Y13680727D01*
X6245860Y13139404D02*
X6179215D01*
X6145892Y13089420D02*
X6112570D01*
X6129231D01*
Y13189388D01*
X6145892Y13172726D01*
D42*
X11343640Y15263260D02*
X11326979D01*
X11335309D01*
Y15313245D01*
X11343640Y15304913D01*
X11301987D02*
X11293656Y15313245D01*
X11276995D01*
X11268664Y15304913D01*
Y15271591D01*
X11276995Y15263260D01*
X11293656D01*
X11301987Y15271591D01*
Y15304913D01*
X11252003Y15288252D02*
X11218681D01*
X11339889Y13982597D02*
X11370785Y13995081D01*
X11327406Y14013493D01*
X11324285Y14021217D01*
X11328889Y14032062D01*
X11344337Y14038304D01*
X11355182Y14033701D01*
X11308838Y14014977D02*
X11297993Y14019580D01*
X11282545Y14013338D01*
X11277942Y14002493D01*
X11290424Y13971597D01*
X11301269Y13966994D01*
X11316717Y13973235D01*
X11321321Y13984081D01*
X11308838Y14014977D01*
X11268735Y13980804D02*
X11237839Y13968321D01*
X6771640Y14384419D02*
X6754979D01*
X6763309D01*
Y14434404D01*
X6771640Y14426073D01*
X6729987D02*
X6721656Y14434404D01*
X6704995D01*
X6696664Y14426073D01*
Y14392751D01*
X6704995Y14384419D01*
X6721656D01*
X6729987Y14392751D01*
Y14426073D01*
X6680003Y14409412D02*
X6646681D01*
X11338560Y12606420D02*
X11321899D01*
X11330229D01*
Y12656404D01*
X11338560Y12648073D01*
X11296907D02*
X11288576Y12656404D01*
X11271915D01*
X11263584Y12648073D01*
Y12614751D01*
X11271915Y12606420D01*
X11288576D01*
X11296907Y12614751D01*
Y12648073D01*
X11246923Y12631412D02*
X11213601D01*
X11334809Y11325758D02*
X11365705Y11338240D01*
X11322326Y11356654D01*
X11319205Y11364378D01*
X11323809Y11375222D01*
X11339257Y11381464D01*
X11350102Y11376861D01*
X11303758Y11358137D02*
X11292913Y11362740D01*
X11277465Y11356498D01*
X11272862Y11345654D01*
X11285344Y11314757D01*
X11296189Y11310154D01*
X11311637Y11316395D01*
X11316241Y11327240D01*
X11303758Y11358137D01*
X11263655Y11323964D02*
X11232759Y11311481D01*
X11355759Y10108063D02*
X11347142Y10116098D01*
X11330491Y10115516D01*
X11322457Y10106900D01*
X11322747Y10098575D01*
X11331364Y10090540D01*
X11339689Y10090830D01*
X11331364Y10090540D01*
X11323329Y10081923D01*
X11323619Y10073598D01*
X11332236Y10065563D01*
X11348887Y10066144D01*
X11356922Y10074761D01*
X11305806Y10106319D02*
X11297189Y10114353D01*
X11280538Y10113772D01*
X11272503Y10105156D01*
X11273666Y10071854D01*
X11282283Y10063819D01*
X11298934Y10064400D01*
X11306968Y10073016D01*
X11305806Y10106319D01*
X11256434Y10087923D02*
X11223132Y10086760D01*
X6771640Y12098420D02*
X6754979D01*
X6763309D01*
Y12148404D01*
X6771640Y12140073D01*
X6729987D02*
X6721656Y12148404D01*
X6704995D01*
X6696664Y12140073D01*
Y12106751D01*
X6704995Y12098420D01*
X6721656D01*
X6729987Y12106751D01*
Y12140073D01*
X6680003Y12123412D02*
X6646681D01*
X6770429Y10817758D02*
X6801325Y10830240D01*
X6757946Y10848654D01*
X6754825Y10856378D01*
X6759429Y10867222D01*
X6774877Y10873464D01*
X6785722Y10868861D01*
X6739378Y10850137D02*
X6728533Y10854740D01*
X6713085Y10848498D01*
X6708482Y10837654D01*
X6720964Y10806757D01*
X6731809Y10802154D01*
X6747257Y10808395D01*
X6751861Y10819240D01*
X6739378Y10850137D01*
X6699275Y10815964D02*
X6668379Y10803481D01*
X6791379Y9600063D02*
X6782762Y9608098D01*
X6766111Y9607516D01*
X6758077Y9598900D01*
X6758367Y9590575D01*
X6766984Y9582540D01*
X6775309Y9582830D01*
X6766984Y9582540D01*
X6758949Y9573923D01*
X6759239Y9565598D01*
X6767856Y9557563D01*
X6784507Y9558144D01*
X6792542Y9566761D01*
X6741426Y9598319D02*
X6732809Y9606353D01*
X6716158Y9605772D01*
X6708123Y9597156D01*
X6709286Y9563854D01*
X6717903Y9555819D01*
X6734554Y9556400D01*
X6742588Y9565016D01*
X6741426Y9598319D01*
X6692054Y9579923D02*
X6658752Y9578760D01*
%TF.MD5,6bc25a80745aa44d5114eb6b8ccc3778*%
M02*
