%TF.GenerationSoftware,Altium Limited,Altium Designer,24.5.2 (23)*%
G04 Layer_Color=16711935*
%FSLAX45Y45*%
%MOMM*%
%TF.SameCoordinates,FC967B71-F2ED-4EDF-93A0-1D4715993869*%
%TF.FilePolarity,Positive*%
%TF.FileFunction,Other,Top_3D_Body*%
%TF.Part,Single*%
G01*
G75*
%TA.AperFunction,NonConductor*%
%ADD38C,0.20000*%
%ADD39C,0.15000*%
%ADD42C,0.10000*%
D38*
X10279802Y22805801D02*
Y23015799D01*
Y22805801D02*
X10649798D01*
Y23015799D01*
X10279802D02*
X10649798D01*
Y23567801D02*
Y23777798D01*
X10279802D02*
X10649798D01*
X10279802Y23567801D02*
Y23777798D01*
Y23567801D02*
X10649798D01*
Y23186801D02*
Y23396799D01*
X10279802D02*
X10649798D01*
X10279802Y23186801D02*
Y23396799D01*
Y23186801D02*
X10649798D01*
X6382598Y22729601D02*
Y22939600D01*
X6012602D02*
X6382598D01*
X6012602Y22729601D02*
Y22939600D01*
Y22729601D02*
X6382598D01*
X7028602D02*
Y22939600D01*
Y22729601D02*
X7398598D01*
Y22939600D01*
X7028602D02*
X7398598D01*
Y22221600D02*
Y22431599D01*
X7028602D02*
X7398598D01*
X7028602Y22221600D02*
Y22431599D01*
Y22221600D02*
X7398598D01*
X6382598D02*
Y22431599D01*
X6012602D02*
X6382598D01*
X6012602Y22221600D02*
Y22431599D01*
Y22221600D02*
X6382598D01*
X20289098Y23034401D02*
Y23244398D01*
X19919102D02*
X20289098D01*
X19919102Y23034401D02*
Y23244398D01*
Y23034401D02*
X20289098D01*
X20263698Y22653401D02*
Y22863399D01*
X19893703D02*
X20263698D01*
X19893703Y22653401D02*
Y22863399D01*
Y22653401D02*
X20263698D01*
X19868301Y20215001D02*
Y20424998D01*
Y20215001D02*
X20238298D01*
Y20424998D01*
X19868301D02*
X20238298D01*
X10649798Y22424802D02*
Y22634799D01*
X10279802D02*
X10649798D01*
X10279802Y22424802D02*
Y22634799D01*
Y22424802D02*
X10649798D01*
X8712098Y21767001D02*
X9652102D01*
Y24207002D01*
X8712098D02*
X9652102D01*
X8712098Y21767001D02*
Y24207002D01*
X7735103Y21005698D02*
Y21945702D01*
X5295102D02*
X7735103D01*
X5295102Y21005698D02*
Y21945702D01*
Y21005698D02*
X7735103D01*
X7773203Y23177399D02*
Y24117403D01*
X5333202D02*
X7773203D01*
X5333202Y23177399D02*
Y24117403D01*
Y23177399D02*
X7773203D01*
D39*
X13624200Y23952200D02*
G03*
X13624200Y23952200I-340000J0D01*
G01*
D42*
X8427700Y21932899D02*
G03*
X8427700Y21932899I-160000J0D01*
G01*
X6281400Y20345399D02*
G03*
X6281400Y20345399I-160000J0D01*
G01*
X4643100Y23888699D02*
G03*
X4643100Y23888699I-160000J0D01*
G01*
X8427700Y22694901D02*
G03*
X8427700Y22694901I-160000J0D01*
G01*
X6789400Y20345399D02*
G03*
X6789400Y20345399I-160000J0D01*
G01*
X5151100Y23888699D02*
G03*
X5151100Y23888699I-160000J0D01*
G01*
X9914199Y23930000D02*
Y24330000D01*
Y23930000D02*
X11074197D01*
Y24330000D01*
X9914199D02*
X11074197D01*
X13127599Y20831200D02*
Y21231200D01*
X11967601D02*
X13127599D01*
X11967601Y20831200D02*
Y21231200D01*
Y20831200D02*
X13127599D01*
X10705597D02*
Y21231200D01*
Y20831200D02*
X11865595D01*
Y21231200D01*
X10705597D02*
X11865595D01*
X10215301Y20831200D02*
Y21231200D01*
X9055303D02*
X10215301D01*
X9055303Y20831200D02*
Y21231200D01*
Y20831200D02*
X10215301D01*
X4638700Y22097803D02*
X5038700D01*
X4638700Y20937799D02*
Y22097803D01*
Y20937799D02*
X5038700D01*
Y22097803D01*
X8016900Y24269498D02*
X8416900D01*
X8016900Y23109499D02*
Y24269498D01*
Y23109499D02*
X8416900D01*
Y24269498D01*
%TF.MD5,3c9ac43bb1acd5dcdaa59d47b87ec7e2*%
M02*
